<?xml version="1.0" ?><svg viewBox="0 0 128 128" xmlns="http://www.w3.org/2000/svg"><defs><style>.cls-1{fill:#2e2f42;}</style></defs><title/><g data-name="Layer 2" id="Layer_2"><g id="Export"><path class="cls-1" d="M64,3A61,61,0,1,1,3,64,61.06,61.06,0,0,1,64,3m0-3a64,64,0,1,0,64,64A64,64,0,0,0,64,0Z"/><path class="cls-1" d="M48.78,54.3l-4.53-7.84A1.5,1.5,0,0,0,41.66,48L45,53.8h-6.6a1.5,1.5,0,1,0,0,3h9A1.5,1.5,0,0,0,49,55.3s0-.07,0-.11A1.49,1.49,0,0,0,48.78,54.3Z"/><path class="cls-1" d="M90.61,53.8H84L87.39,48a1.5,1.5,0,0,0-2.6-1.5L80.27,54.3a1.43,1.43,0,0,0-.19.9.34.34,0,0,0,0,.1,1.5,1.5,0,0,0,1.5,1.5h9a1.5,1.5,0,0,0,0-3Z"/><path class="cls-1" d="M86.26,94.81a1.47,1.47,0,0,1-.85-.26,37.94,37.94,0,0,0-24.09-6.7A37.48,37.48,0,0,0,42.6,94.54a1.5,1.5,0,1,1-1.72-2.46,40.5,40.5,0,0,1,20.23-7.22,41,41,0,0,1,26,7.22,1.5,1.5,0,0,1-.85,2.73Z"/></g></g></svg>