<?xml version="1.0" encoding="utf-8"?>
<!-- Generator: Adobe Illustrator 22.0.0, SVG Export Plug-In . SVG Version: 6.00 Build 0)  -->
<svg version="1.1" id="Layer_1" xmlns="http://www.w3.org/2000/svg" xmlns:xlink="http://www.w3.org/1999/xlink" x="0px" y="0px"
	 viewBox="0 0 42 42" style="enable-background:new 0 0 42 42;" xml:space="preserve">
<style type="text/css">
	.st0{fill:#FFFFFF;}
</style>
<g>
	<g>
		<path class="st0" d="M37.8,22c0.4-0.5,0.6-1.2,0.6-1.9v-0.7c0-1.9-1.5-3.5-3.5-3.5c-0.9,0-1.8,0.4-2.4,1
			c-1.6-4.8-6.2-8.3-11.5-8.3c-5.3,0-9.9,3.5-11.5,8.3c-0.6-0.6-1.5-1-2.4-1c-1.9,0-3.5,1.5-3.5,3.5v0.7c0,0.7,0.2,1.4,0.6,1.9
			C1.8,22.5,0,24.7,0,27.2v1.7c0,0.5,0.4,0.8,0.8,0.8h4.3c0.5,0,0.8-0.4,0.8-0.8c0-0.5-0.4-0.8-0.8-0.8H1.6v-0.8
			c0-2,1.6-3.6,3.6-3.6h3.9c0.3,1.4,0.9,2.7,1.6,3.8l-9.4,9.4c-1.2,1.2-1.2,3.1,0,4.3C2,41.7,2.8,42,3.6,42c0.8,0,1.6-0.3,2.2-0.9
			l5.2-5.2c0.3-0.3,0.3-0.8,0-1.2c-0.3-0.3-0.8-0.3-1.2,0l-5.2,5.2c-0.6,0.6-1.5,0.6-2,0c-0.6-0.6-0.6-1.5,0-2l9.2-9.2
			C14,31.3,17.3,33,21,33c5.8,0,10.6-4,11.8-9.4h3.9c2,0,3.6,1.6,3.6,3.6V28h-7.7c-0.5,0-0.8,0.4-0.8,0.8c0,0.5,0.4,0.8,0.8,0.8h8.5
			c0.5,0,0.8-0.4,0.8-0.8v-1.7C42,24.7,40.2,22.5,37.8,22z M8.9,20.1c0,1-0.8,1.8-1.8,1.8c-1,0-1.8-0.8-1.8-1.8v-0.7
			c0-1,0.8-1.8,1.8-1.8c1,0,1.8,0.8,1.8,1.8V20.1z M21,31.4c-5.8,0-10.5-4.7-10.5-10.5c0-5.8,4.7-10.5,10.5-10.5
			c5.8,0,10.5,4.7,10.5,10.5C31.5,26.6,26.8,31.4,21,31.4z M36.8,20.1c0,1-0.8,1.8-1.8,1.8c-1,0-1.8-0.8-1.8-1.8v-0.7
			c0-1,0.8-1.8,1.8-1.8c1,0,1.8,0.8,1.8,1.8V20.1z M21,12c-4.9,0-8.9,4-8.9,8.9c0,2.5,1.1,4.8,2.8,6.4c0,0,0.1,0.1,0.1,0.1
			c1.6,1.4,3.7,2.3,6,2.3c2.3,0,4.4-0.9,6-2.3c0,0,0.1-0.1,0.1-0.1c1.7-1.6,2.8-3.9,2.8-6.4C29.9,16,25.9,12,21,12z M21,28.1
			c-1.7,0-3.2-0.6-4.5-1.6c0.9-1.6,2.6-2.7,4.5-2.7c1.9,0,3.6,1,4.5,2.7C24.2,27.5,22.7,28.1,21,28.1z M19.3,20.5v-0.6
			c0-1,0.8-1.7,1.7-1.7s1.7,0.8,1.7,1.7v0.6c0,1-0.8,1.7-1.7,1.7S19.3,21.4,19.3,20.5z M26.7,25.3c-0.8-1.2-1.9-2.1-3.1-2.6
			c0.5-0.6,0.8-1.4,0.8-2.2v-0.6c0-1.9-1.5-3.4-3.4-3.4c-1.9,0-3.4,1.5-3.4,3.4v0.6c0,0.8,0.3,1.6,0.8,2.2c-1.3,0.5-2.4,1.4-3.1,2.6
			c-1-1.2-1.5-2.8-1.5-4.5c0-4,3.2-7.2,7.2-7.2c4,0,7.2,3.2,7.2,7.2C28.2,22.5,27.6,24.1,26.7,25.3z M12.5,32.3
			c-0.2,0-0.4,0.1-0.6,0.2c-0.2,0.2-0.2,0.4-0.2,0.6c0,0.2,0.1,0.4,0.2,0.6c0.2,0.2,0.4,0.2,0.6,0.2c0.2,0,0.4-0.1,0.6-0.2
			c0.2-0.2,0.2-0.4,0.2-0.6c0-0.2-0.1-0.4-0.2-0.6C13,32.4,12.8,32.3,12.5,32.3z M21,4.4c0.5,0,0.8-0.4,0.8-0.8V0.8
			C21.8,0.4,21.5,0,21,0s-0.8,0.4-0.8,0.8v2.8C20.2,4.1,20.6,4.4,21,4.4z M21,7.1c0.2,0,0.4-0.1,0.6-0.2c0.2-0.2,0.2-0.4,0.2-0.6
			c0-0.2-0.1-0.4-0.2-0.6c-0.2-0.2-0.4-0.2-0.6-0.2c-0.2,0-0.4,0.1-0.6,0.2c-0.2,0.2-0.2,0.4-0.2,0.6c0,0.2,0.1,0.4,0.2,0.6
			C20.6,7,20.8,7.1,21,7.1z M25.9,6.1c0.2,0,0.4-0.1,0.6-0.2L28,4.4c0.3-0.3,0.3-0.8,0-1.2c-0.3-0.3-0.8-0.3-1.2,0l-1.4,1.4
			C25,5,25,5.5,25.4,5.8C25.5,6,25.7,6.1,25.9,6.1z M15.5,5.8c0.2,0.2,0.4,0.2,0.6,0.2s0.4-0.1,0.6-0.2C17,5.5,17,5,16.6,4.7
			l-1.5-1.5c-0.3-0.3-0.8-0.3-1.2,0c-0.3,0.3-0.3,0.8,0,1.2L15.5,5.8z"/>
	</g>
</g>
</svg>
