<?xml version="1.0" encoding="utf-8"?>
<!-- Generator: Adobe Illustrator 22.0.0, SVG Export Plug-In . SVG Version: 6.00 Build 0)  -->
<svg version="1.1" id="Layer_1" xmlns="http://www.w3.org/2000/svg" xmlns:xlink="http://www.w3.org/1999/xlink" x="0px" y="0px"
	 viewBox="0 0 19 19" style="enable-background:new 0 0 19 19;" xml:space="preserve">
<g>
	<g>
		<path d="M17.3,2.2h-0.6V1.7C16.8,0.7,16,0,15.1,0c-0.9,0-1.7,0.7-1.7,1.7v0.6h-2.2V1.7c0-0.9-0.7-1.7-1.7-1.7S7.9,0.7,7.9,1.7v0.6
			H5.6V1.7C5.6,0.7,4.8,0,3.9,0S2.2,0.7,2.2,1.7v0.6H1.7C0.7,2.2,0,3,0,3.9C0,4,0,17.1,0,17.3C0,18.3,0.7,19,1.7,19h15.7
			c0.9,0,1.7-0.7,1.7-1.7c0-0.1,0-13.3,0-13.4C19,3,18.3,2.2,17.3,2.2z M14.5,1.7c0-0.3,0.2-0.6,0.6-0.6c0.3,0,0.6,0.2,0.6,0.6v2.2
			c0,0.3-0.2,0.6-0.6,0.6c-0.3,0-0.6-0.2-0.6-0.6V1.7z M9,1.7c0-0.3,0.2-0.6,0.6-0.6c0.3,0,0.6,0.2,0.6,0.6v2.2
			c0,0.3-0.2,0.6-0.6,0.6C9.2,4.5,9,4.2,9,3.9V1.7z M3.3,1.7c0-0.3,0.2-0.6,0.6-0.6s0.6,0.2,0.6,0.6v2.2c0,0.3-0.2,0.6-0.6,0.6
			S3.3,4.2,3.3,3.9V1.7z M17.9,17.3c0,0.3-0.2,0.6-0.6,0.6H1.7c-0.3,0-0.6-0.2-0.6-0.6V7.9h16.8V17.3z M17.9,6.8H1.1V3.9
			c0-0.3,0.2-0.6,0.6-0.6h0.6v0.6c0,0.9,0.7,1.7,1.7,1.7s1.7-0.7,1.7-1.7V3.3h2.3v0.6c0,0.9,0.7,1.7,1.7,1.7s1.7-0.7,1.7-1.7V3.3
			h2.2v0.6c0,0.9,0.7,1.7,1.7,1.7c0.9,0,1.7-0.7,1.7-1.7V3.3h0.6c0.3,0,0.6,0.2,0.6,0.6V6.8z M2.8,16.8h13.4c0.3,0,0.6-0.2,0.6-0.6
			V9.5c0-0.3-0.2-0.6-0.6-0.6H2.8C2.5,9,2.2,9.2,2.2,9.5v6.7C2.2,16.5,2.5,16.8,2.8,16.8z M13.4,10.1h2.2v2.2h-2.2V10.1z M13.4,13.4
			h2.2v2.2h-2.2V13.4z M10.1,10.1h2.2v2.2h-2.2V10.1z M10.1,13.4h2.2v2.2h-2.2V13.4z M6.7,10.1H9v2.2H6.7V10.1z M6.7,13.4H9v2.2H6.7
			V13.4z M3.3,10.1h2.2v2.2H3.3V10.1z M3.3,13.4h2.2v2.2H3.3V13.4z"/>
	</g>
</g>
</svg>
