<?xml version="1.0" encoding="utf-8"?>
<!-- Generator: Adobe Illustrator 22.0.0, SVG Export Plug-In . SVG Version: 6.00 Build 0)  -->
<svg version="1.1" id="Layer_1" xmlns="http://www.w3.org/2000/svg" xmlns:xlink="http://www.w3.org/1999/xlink" x="0px" y="0px"
	 viewBox="0 0 25 25" style="enable-background:new 0 0 25 25;" xml:space="preserve">
<style type="text/css">
	.st0{fill:#FFFFFF;}
</style>
<g>
	<g>
		<path class="st0" d="M19.8,15.5c-0.5-0.5-1.1-0.8-1.8-0.8c-0.6,0-1.3,0.3-1.8,0.8l-1.7,1.7c-0.1-0.1-0.3-0.1-0.4-0.2
			c-0.2-0.1-0.4-0.2-0.5-0.3c-1.6-1-3-2.3-4.3-4c-0.7-0.8-1.1-1.5-1.4-2.2C8.2,10.1,8.6,9.6,9,9.2c0.1-0.1,0.3-0.3,0.4-0.4
			c1.1-1.1,1.1-2.5,0-3.7L8,3.7C7.9,3.5,7.7,3.4,7.5,3.2c-0.3-0.3-0.6-0.7-1-1C6,1.7,5.4,1.4,4.8,1.4C4.1,1.4,3.5,1.7,3,2.2
			c0,0,0,0,0,0L1.2,4C0.5,4.7,0.1,5.5,0,6.5c-0.1,1.5,0.3,3,0.7,3.9c0.9,2.3,2.1,4.4,4,6.7c2.3,2.8,5.1,4.9,8.3,6.5
			c1.2,0.6,2.8,1.3,4.6,1.4c0.1,0,0.2,0,0.3,0c1.2,0,2.2-0.4,3-1.3c0,0,0,0,0,0c0.3-0.3,0.6-0.6,0.9-1c0.2-0.2,0.5-0.4,0.7-0.7
			c0.5-0.5,0.8-1.2,0.8-1.8c0-0.7-0.3-1.3-0.8-1.8L19.8,15.5z M21.6,21c-0.2,0.2-0.4,0.4-0.6,0.6c-0.3,0.3-0.7,0.7-1,1.1
			c-0.5,0.6-1.2,0.8-2,0.8c-0.1,0-0.2,0-0.2,0c-1.6-0.1-3-0.7-4.1-1.2c-3-1.4-5.6-3.5-7.8-6.1c-1.8-2.2-3-4.2-3.8-6.3
			C1.6,8.6,1.4,7.6,1.5,6.6C1.5,6,1.8,5.5,2.2,5L4,3.2C4.3,3,4.5,2.9,4.8,2.9c0.3,0,0.6,0.2,0.8,0.4c0,0,0,0,0,0
			c0.3,0.3,0.6,0.6,0.9,0.9C6.7,4.4,6.9,4.5,7,4.7l1.4,1.4C9,6.7,9,7.2,8.5,7.8C8.3,7.9,8.2,8.1,8,8.2C7.6,8.7,7.2,9.1,6.7,9.5
			c0,0,0,0,0,0c-0.5,0.5-0.4,0.9-0.3,1.2c0,0,0,0,0,0c0.4,0.9,0.9,1.8,1.7,2.8l0,0c1.5,1.8,3,3.2,4.7,4.3c0.2,0.1,0.4,0.2,0.6,0.4
			c0.2,0.1,0.4,0.2,0.5,0.3c0,0,0,0,0.1,0c0.2,0.1,0.3,0.1,0.5,0.1c0.4,0,0.7-0.3,0.8-0.4l1.8-1.8c0.2-0.2,0.5-0.4,0.8-0.4
			c0.3,0,0.6,0.2,0.8,0.4c0,0,0,0,0,0l2.9,2.9C22.2,19.9,22.2,20.5,21.6,21z M17.2,7.8c1,1,1.7,2.3,1.9,3.6c0.1,0.3,0.4,0.6,0.7,0.6
			c0,0,0.1,0,0.1,0c0.4-0.1,0.6-0.4,0.6-0.8c-0.3-1.7-1.1-3.2-2.3-4.4c-1.2-1.2-2.7-2-4.4-2.3c-0.4-0.1-0.8,0.2-0.8,0.6
			c-0.1,0.4,0.2,0.8,0.6,0.8C14.9,6.2,16.1,6.8,17.2,7.8z M21.2,3.8c-2-2-4.5-3.3-7.3-3.8c-0.4-0.1-0.7,0.2-0.8,0.6
			c-0.1,0.4,0.2,0.8,0.6,0.8c2.5,0.4,4.7,1.6,6.5,3.4c1.8,1.8,2.9,4,3.4,6.5c0.1,0.3,0.4,0.6,0.7,0.6c0,0,0.1,0,0.1,0
			c0.4-0.1,0.6-0.4,0.6-0.8C24.5,8.3,23.2,5.8,21.2,3.8z"/>
	</g>
</g>
</svg>
