<?xml version="1.0" encoding="utf-8"?>
<!-- Generator: Adobe Illustrator 22.0.0, SVG Export Plug-In . SVG Version: 6.00 Build 0)  -->
<svg version="1.1" id="Layer_1" xmlns="http://www.w3.org/2000/svg" xmlns:xlink="http://www.w3.org/1999/xlink" x="0px" y="0px"
	 viewBox="0 0 200 99.9" style="enable-background:new 0 0 200 99.9;" xml:space="preserve">
<style type="text/css">
	.st0{fill:#C74C42;}
	.st1{fill:none;}
	.st2{fill:#E1574C;}
	.st3{fill:#304E5E;}
	.st4{fill:#BAC1C3;}
	.st5{fill:#EFC75F;}
	.st6{fill:#F76054;}
</style>
<g>
	<g>
		<rect x="23.1" y="61.1" class="st0" width="42.9" height="17.8"/>
		<rect x="137.7" y="61.1" class="st0" width="42.9" height="17.8"/>
		<path class="st1" d="M52.3,31.1l-0.6,2.8l-0.3,1.2c0.1-0.4,0.1-0.8,0.2-1.1C51.7,33,52,32,52.3,31.1z"/>
		<path class="st2" d="M197.5,28.8v1.9l0,4.2v1.5l0,12.3L197.4,73l0,5.9h-21c0-2.1-0.5-4-1.2-5.8c-2.3-5.6-7.8-9.6-14.2-9.8
			c-0.1,0-0.3,0-0.4,0h-6.3c-6.6,0-12.3,4-14.6,9.8h0c0,0,0,0,0,0c-0.8,1.8-1.2,3.8-1.2,5.9H63.4c0-2.1-0.5-4.1-1.2-5.9
			c-2.4-5.7-8.1-9.8-14.7-9.8h-6.3c-8.7,0-15.7,7-15.9,15.6H13.8v-0.1c-1.3-0.1-2.6-0.4-3.8-0.8c-2.8-1-5.2-2.7-7-5
			c-1-1.3-1.7-2.7-2.3-4.2c0,0,0,0,0,0c-0.5-1.5-0.8-3.2-0.8-4.9v-8.8c0-0.3,0-0.7,0-1c0-0.1,0-0.3,0-0.4c0-0.3,0.1-0.6,0.1-0.9
			c0.1-0.3,0.1-0.6,0.2-0.9c0-0.1,0.1-0.3,0.1-0.4c0.2-0.7,0.4-1.3,0.6-2c0.1-0.2,0.2-0.4,0.3-0.7c0.3-0.7,0.7-1.5,1.2-2.1h0
			C5.2,42.7,9.8,40,15,40l35.3-4.8l1.1-0.1l12-12.5c4.2-4.7,7.5-8.3,10-11l1-1c1.3-1.3,2.4-2.5,3.3-3.4L78,6.8c3-3,4-3.7,4-3.7
			c6.2-2.4,11.2-2.4,14.1-2.8l70.7,0.5l9.1,8.3L197.5,28.8z"/>
		<g>
			<path class="st3" d="M61.3,83.2c0,9.2-7.4,16.6-16.6,16.6c-9.2,0-16.6-7.4-16.6-16.6c0-9.2,7.4-16.6,16.6-16.6
				C53.9,66.6,61.3,74,61.3,83.2z"/>
			<path class="st4" d="M52.3,83.2c0,4.1-3.4,7.5-7.5,7.5c-4.1,0-7.5-3.4-7.5-7.5c0-4.1,3.4-7.5,7.5-7.5
				C48.9,75.7,52.3,79,52.3,83.2z"/>
		</g>
		<g>
			<path class="st3" d="M173.9,83.2c0,9.2-7.4,16.6-16.6,16.6c-9.2,0-16.6-7.4-16.6-16.6c0-9.2,7.4-16.6,16.6-16.6
				C166.5,66.6,173.9,74,173.9,83.2z"/>
			<path class="st4" d="M164.9,83.2c0,4.1-3.4,7.5-7.5,7.5c-4.1,0-7.5-3.4-7.5-7.5c0-4.1,3.4-7.5,7.5-7.5
				C161.5,75.7,164.9,79,164.9,83.2z"/>
		</g>
		<path class="st5" d="M16.2,55.8c0,5.4-3.7,5.3-16.2,5.3v-6c0-0.3,0-0.7,0-1c0-0.1,0-0.3,0-0.4c0-0.3,0.1-0.6,0.1-0.9
			c0.1-0.3,0.1-0.6,0.2-0.9c0-0.1,0.1-0.3,0.1-0.4c0.2-0.7,0.4-1.3,0.6-2c0.1-0.2,0.2-0.4,0.3-0.7c0.3-0.7,0.7-1.5,1.2-2.1h0
			C10.7,48.5,16.2,51.9,16.2,55.8z"/>
		<polygon class="st5" points="66.2,35.1 111.2,35.1 120.1,9.7 87.4,9.6 		"/>
		<polygon class="st5" points="126.7,9.6 126.7,35.1 159.2,35.1 151.1,9.6 		"/>
		<polygon class="st5" points="155,9.6 163.3,35.1 177.8,35.1 183.3,28.7 164.9,9.6 		"/>
		<rect x="111.8" y="35.5" class="st0" width="0.4" height="43.4"/>
		<rect x="161" y="35.5" class="st0" width="0.4" height="27.8"/>
		<rect x="66" y="35.5" class="st0" width="0.4" height="43.4"/>
		<polygon class="st0" points="197.5,36.4 42.6,36.4 61.8,35.1 197.5,35.1 		"/>
		<polygon class="st5" points="81.9,6.8 54.4,35.1 50.3,35.3 51.6,34 51.6,33.9 73.4,11.6 74.4,10.5 77.7,7.1 78,6.8 		"/>
		<path class="st5" d="M197.5,34.8c-0.2,0-0.5,0-0.7,0c-8.3,0-9.6,3.1-9.6,6.9c0,3.8,1.3,6.9,9.6,6.9c0.2,0,0.5,0,0.7,0V34.8z"/>
		<path class="st3" d="M106.4,40.7c0,0.6-0.5,1.1-1.1,1.1h-6.8c-0.6,0-1.1-0.5-1.1-1.1l0,0c0-0.6,0.5-1.1,1.1-1.1h6.8
			C105.9,39.6,106.4,40.1,106.4,40.7L106.4,40.7z"/>
		<path class="st3" d="M158.2,40.7c0,0.6-0.5,1.1-1.1,1.1h-6.8c-0.6,0-1.1-0.5-1.1-1.1l0,0c0-0.6,0.5-1.1,1.1-1.1h6.8
			C157.7,39.6,158.2,40.1,158.2,40.7L158.2,40.7z"/>
		<polygon class="st6" points="200,78.9 176.4,78.9 175.2,73 200,73 		"/>
		<path class="st6" d="M2.9,73c2.5,3.3,6.4,5.5,10.7,5.8v0.1h11.5l0.1-0.6c0.1-1.5,0.4-3,0.9-4.4l0.2-0.9H2.9z"/>
		<polygon class="st6" points="135.2,78.9 63.4,78.9 62.2,73 139.6,73 		"/>
	</g>
</g>
</svg>
