<svg fill="#fff" height="512pt" viewBox="0 0 512 512" width="512pt" xmlns="http://www.w3.org/2000/svg"><path d="m467 151h-15v-15c0-19.554688-12.539062-36.226562-30-42.421875v-17.578125c0-8.285156-6.714844-15-15-15s-15 6.714844-15 15v17.578125c-17.460938 6.195313-29.988281 22.867187-29.988281 42.421875v244.277344c-.007813 18.070312-.011719 40.476562 29.988281 90.875v25.847656c0 8.285156 6.714844 15 15 15s15-6.714844 15-15v-25.847656c30.007812-50.40625 30.011719-72.742188 30-90.757813v-199.394531h15c8.269531 0 15 6.730469 15 15v90c0 8.285156 6.714844 15 15 15s15-6.714844 15-15v-90c0-24.8125-20.1875-45-45-45zm-59.980469 285.453125c-11.015625-21.613281-13.953125-34.921875-14.734375-45.464844h29.457032c-.738282 10.6875-3.609376 23.765625-14.722657 45.464844zm14.980469-75.453125h-30v-180h30zm-30-225c0-8.269531 6.730469-15 15-15s15 6.730469 15 15v15h-30zm0 0"/><path d="m45 512h242c24.8125 0 45-20.1875 45-45v-362c0-24.8125-20.1875-45-45-45h-46v-15c0-8.285156-6.714844-15-15-15h-17.570312c-6.191407-17.460938-22.875-30-42.429688-30s-36.238281 12.539062-42.429688 30h-17.570312c-8.285156 0-15 6.714844-15 15v15h-46c-24.8125 0-45 20.1875-45 45v362c0 24.8125 20.1875 45 45 45zm76-452h15c8.285156 0 15-6.714844 15-15 0-8.269531 6.730469-15 15-15s15 6.730469 15 15c0 8.285156 6.714844 15 15 15h15v30h-90zm-91 45c0-8.269531 6.730469-15 15-15h46v15c0 8.285156 6.714844 15 15 15h120c8.285156 0 15-6.714844 15-15v-15h46c8.269531 0 15 6.730469 15 15v362c0 8.269531-6.730469 15-15 15h-242c-8.269531 0-15-6.730469-15-15zm0 0"/><path d="m76 361h181c8.285156 0 15-6.714844 15-15s-6.714844-15-15-15h-181c-8.285156 0-15 6.714844-15 15s6.714844 15 15 15zm0 0"/><path d="m76 421h181c8.285156 0 15-6.714844 15-15s-6.714844-15-15-15h-181c-8.285156 0-15 6.714844-15 15s6.714844 15 15 15zm0 0"/><path d="m76 301h181c8.285156 0 15-6.714844 15-15s-6.714844-15-15-15h-181c-8.285156 0-15 6.714844-15 15s6.714844 15 15 15zm0 0"/><path d="m106 211h120c8.285156 0 15-6.714844 15-15s-6.714844-15-15-15h-120c-8.285156 0-15 6.714844-15 15s6.714844 15 15 15zm0 0"/></svg>