<?xml version="1.0" encoding="utf-8"?>
<!-- Generator: Adobe Illustrator 22.0.0, SVG Export Plug-In . SVG Version: 6.00 Build 0)  -->
<svg version="1.1" id="Layer_1" xmlns="http://www.w3.org/2000/svg" xmlns:xlink="http://www.w3.org/1999/xlink" x="0px" y="0px"
	 viewBox="0 0 42 42" style="enable-background:new 0 0 42 42;" xml:space="preserve">
<style type="text/css">
	.st0{fill:#FFFFFF;}
</style>
<path class="st0" d="M12.4,17l-2.9,2.9l9.4,9.4l21-21L37,5.5L18.9,23.5L12.4,17z M37.8,21c0,9.2-7.6,16.8-16.8,16.8
	c-9.2,0-16.8-7.6-16.8-16.8c0-9.2,7.6-16.8,16.8-16.8c1.7,0,3.1,0.2,4.6,0.6L29,1.5C26.5,0.6,23.7,0,21,0C9.4,0,0,9.4,0,21
	c0,11.6,9.4,21,21,21c11.5,0,21-9.5,21-21H37.8z"/>
</svg>
