<?xml version="1.0" encoding="utf-8"?>
<!-- Generator: Adobe Illustrator 22.0.0, SVG Export Plug-In . SVG Version: 6.00 Build 0)  -->
<svg version="1.1" id="Layer_1" xmlns="http://www.w3.org/2000/svg" xmlns:xlink="http://www.w3.org/1999/xlink" x="0px" y="0px"
	 viewBox="0 0 18 26" style="enable-background:new 0 0 18 26;" xml:space="preserve">
<style type="text/css">
	.st0{fill:#FFFFFF;}
</style>
<path class="st0" d="M8.1,25.6l-7.7-7.7c-0.5-0.5-0.5-1.2,0-1.7c0.5-0.5,1.2-0.5,1.7,0l5.7,5.7V1.2C7.8,0.5,8.3,0,9,0
	c0.7,0,1.2,0.5,1.2,1.2v20.7l5.7-5.7c0.5-0.5,1.2-0.5,1.7,0c0.2,0.2,0.4,0.5,0.4,0.9c0,0.3-0.1,0.6-0.4,0.9l-7.7,7.7
	C9.4,26.1,8.6,26.1,8.1,25.6z"/>
</svg>
