<?xml version="1.0" encoding="utf-8"?>
<!-- Generator: Adobe Illustrator 22.0.0, SVG Export Plug-In . SVG Version: 6.00 Build 0)  -->
<svg version="1.1" id="Layer_1" xmlns="http://www.w3.org/2000/svg" xmlns:xlink="http://www.w3.org/1999/xlink" x="0px" y="0px"
	 viewBox="0 0 16 16" style="enable-background:new 0 0 16 16;" xml:space="preserve">
<style type="text/css">
	.st0{fill:#FFFFFF;}
</style>
<path class="st0" d="M13.7,2.3C12.2,0.9,10.2,0,8.1,0H8H7.9C5.8,0,3.8,0.9,2.3,2.3C0.8,3.9,0,5.9,0,8s0.8,4.1,2.3,5.7
	C3.8,15.1,5.8,16,7.9,16H8h0.1c2.1,0,4.1-0.9,5.5-2.3C15.2,12.1,16,10.1,16,8S15.2,3.9,13.7,2.3z M3,3c0.8-0.8,1.9-1.5,3-1.8
	c-0.3,0.3-0.5,0.6-0.7,1C5,2.7,4.7,3.2,4.5,3.8H2.4C2.6,3.5,2.8,3.3,3,3z M1.8,4.7h2.5C4,5.6,3.8,6.6,3.8,7.5H1
	C1,6.5,1.3,5.6,1.8,4.7z M1.8,11.3C1.3,10.4,1,9.5,1,8.5h2.8c0,1,0.2,1.9,0.4,2.8H1.8z M3,13c-0.2-0.2-0.5-0.5-0.6-0.7h2.2
	c0.2,0.5,0.5,1.1,0.8,1.5c0.2,0.4,0.5,0.7,0.7,1C4.9,14.4,3.9,13.8,3,13z M7.5,14.9c-0.4-0.3-0.9-0.8-1.4-1.6
	c-0.2-0.3-0.4-0.7-0.5-1h2L7.5,14.9L7.5,14.9z M7.5,11.3H5.2c-0.3-0.9-0.4-1.8-0.5-2.8h2.8V11.3L7.5,11.3z M7.5,7.5H4.7
	c0-1,0.2-1.9,0.5-2.8h2.3V7.5L7.5,7.5z M7.5,3.8h-2c0.2-0.4,0.3-0.7,0.5-1C6.5,2,7,1.5,7.4,1.2L7.5,3.8L7.5,3.8z M14.2,4.7
	C14.7,5.6,15,6.5,15,7.5h-2.8c0-1-0.2-1.9-0.4-2.8H14.2z M13,3c0.2,0.2,0.5,0.5,0.6,0.7h-2.2c-0.2-0.5-0.5-1.1-0.8-1.5
	c-0.2-0.4-0.5-0.7-0.7-1C11.1,1.6,12.1,2.2,13,3z M8.5,1.1c0.4,0.3,0.9,0.8,1.4,1.6c0.2,0.3,0.4,0.7,0.5,1h-2V1.1H8.5z M8.5,4.7h2.3
	c0.3,0.9,0.4,1.8,0.5,2.8H8.5V4.7z M11.3,8.5c0,1-0.2,1.9-0.5,2.8H8.5V8.5H11.3z M8.5,14.9v-2.6h2c-0.2,0.4-0.3,0.7-0.5,1
	C9.4,14.1,8.9,14.6,8.5,14.9z M13,13c-0.8,0.8-1.9,1.5-3,1.8c0.3-0.3,0.5-0.6,0.7-1c0.3-0.5,0.5-1,0.8-1.5h2.2
	C13.4,12.5,13.2,12.7,13,13z M14.2,11.3h-2.5c0.3-0.9,0.4-1.8,0.4-2.8H15C15,9.5,14.7,10.4,14.2,11.3z"/>
</svg>
