<?xml version="1.0" encoding="utf-8"?>
<!-- Generator: Adobe Illustrator 22.0.0, SVG Export Plug-In . SVG Version: 6.00 Build 0)  -->
<svg version="1.1" id="Layer_1" xmlns="http://www.w3.org/2000/svg" xmlns:xlink="http://www.w3.org/1999/xlink" x="0px" y="0px"
	 viewBox="0 0 28 28" style="enable-background:new 0 0 28 28;" xml:space="preserve">
<style type="text/css">
	.st0{fill:#5B5B5B;}
</style>
<g>
	<g>
		<path class="st0" d="M14,0C6.3,0,0,6.3,0,14c0,7.7,6.3,14,14,14c7.7,0,14-6.3,14-14C28,6.3,21.7,0,14,0z M14,25.5
			C7.7,25.5,2.5,20.3,2.5,14C2.5,7.7,7.7,2.5,14,2.5c6.3,0,11.5,5.1,11.5,11.5C25.5,20.3,20.3,25.5,14,25.5z M14,5.9
			c-0.9,0-1.7,0.8-1.7,1.7c0,0.9,0.8,1.7,1.7,1.7c0.9,0,1.7-0.8,1.7-1.7C15.7,6.7,14.9,5.9,14,5.9z M14,11.9c-0.7,0-1.3,0.6-1.3,1.3
			v7.6c0,0.7,0.6,1.3,1.3,1.3c0.7,0,1.3-0.6,1.3-1.3v-7.6C15.3,12.4,14.7,11.9,14,11.9z"/>
	</g>
</g>
</svg>
