<?xml version="1.0" encoding="utf-8"?>
<!-- Generator: Adobe Illustrator 22.0.0, SVG Export Plug-In . SVG Version: 6.00 Build 0)  -->
<svg version="1.1" id="Layer_1" xmlns="http://www.w3.org/2000/svg" xmlns:xlink="http://www.w3.org/1999/xlink" x="0px" y="0px"
	 viewBox="0 0 16 12.4" style="enable-background:new 0 0 16 12.4;" xml:space="preserve">
<path d="M0.2,6.8C0.1,6.7,0,6.5,0,6.4c0-0.1,0.1-0.3,0.2-0.4L1,5.1c0.2-0.2,0.6-0.2,0.9,0L2,5.1l3.4,3.6c0.1,0.1,0.3,0.1,0.4,0
	L14,0.2h0.1l0,0l0,0C14.3,0,14.7,0,15,0.2l0.9,0.9c0.2,0.2,0.2,0.6,0,0.9l0,0l0,0L6,12.2c-0.1,0.1-0.2,0.2-0.4,0.2s-0.3-0.1-0.4-0.2
	L0.3,7L0.2,6.8z"/>
</svg>
