<?xml version="1.0" encoding="utf-8"?>
<!-- Generator: Adobe Illustrator 22.0.0, SVG Export Plug-In . SVG Version: 6.00 Build 0)  -->
<svg version="1.1" id="Layer_1" xmlns="http://www.w3.org/2000/svg" xmlns:xlink="http://www.w3.org/1999/xlink" x="0px" y="0px"
	 viewBox="0 0 20 27" style="enable-background:new 0 0 20 27;" xml:space="preserve">
<g>
	<g>
		<path d="M10,0C4.8,0,0.5,4.3,0.5,9.5c0,1.8,0.5,3.5,1.4,5l7.5,12.1c0.1,0.2,0.4,0.4,0.7,0.4c0,0,0,0,0,0c0.3,0,0.5-0.1,0.7-0.4
			l7.3-12.3c0.9-1.5,1.3-3.1,1.3-4.9C19.5,4.3,15.2,0,10,0z M16.8,13.5l-6.7,11.1l-6.9-11C2.5,12.4,2.1,11,2.1,9.5
			c0-4.4,3.6-7.9,7.9-7.9c4.4,0,7.9,3.6,7.9,7.9C17.9,10.9,17.5,12.3,16.8,13.5z M10,4.7c-2.6,0-4.7,2.1-4.7,4.7
			c0,2.6,2.1,4.7,4.7,4.7c2.7,0,4.7-2.2,4.7-4.7C14.7,6.9,12.6,4.7,10,4.7z M10,12.7c-1.8,0-3.2-1.4-3.2-3.2c0-1.7,1.4-3.2,3.2-3.2
			c1.7,0,3.2,1.4,3.2,3.2C13.2,11.2,11.8,12.7,10,12.7z"/>
	</g>
</g>
</svg>
