<?xml version="1.0" encoding="utf-8"?>
<!-- Generator: Adobe Illustrator 22.0.0, SVG Export Plug-In . SVG Version: 6.00 Build 0)  -->
<svg version="1.1" xmlns="http://www.w3.org/2000/svg" xmlns:xlink="http://www.w3.org/1999/xlink" x="0px" y="0px"
	 viewBox="0 0 256.5 205.8" style="enable-background:new 0 0 256.5 205.8;" xml:space="preserve">
<style type="text/css">
	.st0{fill:#FFFFFF;}
	.st1{fill:#DFDFDF;}
	.st2{fill:#565B71;}
	.st3{fill:#AAC2CB;}
	.st4{fill:#2E2239;}
	.st5{fill:#5A3190;}
	.st6{fill:#CBD278;}
	.st7{fill:#8265B7;}
	.st8{fill:#565F7E;}
	.st9{fill:#6D7E96;}
</style>
<g id="Layer_1">
	<g id="Layer_2_1_">
		<circle class="st0" cx="154.1" cy="103.4" r="102.4"/>
	</g>
	<g id="Layer_3">
		<ellipse class="st1" cx="114.9" cy="173.6" rx="114.4" ry="16.1"/>
	</g>
</g>
<g id="Layer_2">
	<g>
		<g>
			<g>
				<g>
					<g>
						<path class="st2" d="M200.3,135.6c-0.1,3.3,2.5,6.1,5.9,6.2c3.3,0.1,6.1-2.5,6.2-5.9c0.1-3.3-2.5-6.1-5.9-6.2
							C203.2,129.7,200.4,132.3,200.3,135.6z"/>
					</g>
				</g>
				<g>
					<g>
						<g>
							<g>
								<g>
									
										<rect x="190" y="117.9" transform="matrix(0.367 -0.9302 0.9302 0.367 20.9725 268.7415)" class="st3" width="35.9" height="2.1"/>
								</g>
							</g>
							<g>
								<g>
									
										<rect x="204.7" y="100.9" transform="matrix(0.9517 -0.3071 0.3071 0.9517 -26.5667 68.9476)" class="st3" width="2.1" height="35.9"/>
								</g>
							</g>
						</g>
						<g>
							<g>
								<g>
									
										<rect x="205.8" y="134.8" transform="matrix(0.9517 -0.3071 0.3071 0.9517 -36.9199 70.9105)" class="st3" width="2.1" height="35.9"/>
								</g>
							</g>
							<g>
								<g>
									
										<rect x="186.8" y="151.6" transform="matrix(0.367 -0.9302 0.9302 0.367 -12.4514 287.1125)" class="st3" width="35.9" height="2.1"/>
								</g>
							</g>
						</g>
					</g>
					<g>
						<g>
							<g>
								<g>
									
										<rect x="189.7" y="111.1" transform="matrix(0.6365 -0.7712 0.7712 0.6365 -30.217 194.0636)" class="st3" width="2.1" height="35.9"/>
								</g>
							</g>
							<g>
								<g>
									
										<rect x="189" y="113.1" transform="matrix(1.996030e-03 -1 1 1.996030e-03 58.5815 320.9025)" class="st3" width="2.1" height="35.9"/>
								</g>
							</g>
						</g>
						<g>
							<g>
								<g>
									
										<rect x="221.5" y="122.6" transform="matrix(1.996030e-03 -1 1 1.996030e-03 81.6041 362.8953)" class="st3" width="2.1" height="35.9"/>
								</g>
							</g>
							<g>
								<g>
									
										<rect x="220.8" y="124.6" transform="matrix(0.6365 -0.7713 0.7713 0.6365 -29.3116 222.9524)" class="st3" width="2.1" height="35.9"/>
								</g>
							</g>
						</g>
					</g>
					<g>
						<g>
							<g>
								<g>
									
										<rect x="177.2" y="147.5" transform="matrix(0.8438 -0.5367 0.5367 0.8438 -49.2361 127.9126)" class="st3" width="35.9" height="2.1"/>
								</g>
							</g>
							<g>
								<g>
									
										<rect x="178.8" y="148.8" transform="matrix(0.3107 -0.9505 0.9505 0.3107 -6.7743 290.3568)" class="st3" width="35.9" height="2.1"/>
								</g>
							</g>
						</g>
						<g>
							<g>
								<g>
									
										<rect x="197.9" y="120.7" transform="matrix(0.3106 -0.9505 0.9505 0.3106 33.0167 289.1596)" class="st3" width="35.9" height="2.1"/>
								</g>
							</g>
							<g>
								<g>
									
										<rect x="199.6" y="122.1" transform="matrix(0.8438 -0.5367 0.5367 0.8438 -32.0957 135.9828)" class="st3" width="35.9" height="2.1"/>
								</g>
							</g>
						</g>
					</g>
					<g>
						<g>
							<g>
								<g>
									
										<rect x="213.9" y="132.5" transform="matrix(0.9683 -0.2498 0.2498 0.9683 -30.7612 58.4622)" class="st3" width="2.1" height="35.9"/>
								</g>
							</g>
							<g>
								<g>
									
										<rect x="215.7" y="131.3" transform="matrix(0.5894 -0.8078 0.8078 0.5894 -31.5643 236.3517)" class="st3" width="2.1" height="35.9"/>
								</g>
							</g>
						</g>
						<g>
							<g>
								<g>
									
										<rect x="194.9" y="104.5" transform="matrix(0.5894 -0.8078 0.8078 0.5894 -18.4534 208.5733)" class="st3" width="2.1" height="35.9"/>
								</g>
							</g>
							<g>
								<g>
									
										<rect x="196.7" y="103.3" transform="matrix(0.9683 -0.2498 0.2498 0.9683 -24.0193 53.2405)" class="st3" width="2.1" height="35.9"/>
								</g>
							</g>
						</g>
					</g>
					<g>
						<g>
							<g>
								<g>
									
										<rect x="221.8" y="114.2" transform="matrix(6.164848e-02 -0.9981 0.9981 6.164848e-02 77.2438 346.4569)" class="st3" width="2.1" height="35.9"/>
								</g>
							</g>
							<g>
								<g>
									
										<rect x="204.3" y="129" transform="matrix(0.8102 -0.5862 0.5862 0.8102 -34.0646 154.9955)" class="st3" width="35.9" height="2.1"/>
								</g>
							</g>
						</g>
						<g>
							<g>
								<g>
									
										<rect x="172.4" y="140.5" transform="matrix(0.8102 -0.5862 0.5862 0.8102 -46.8468 138.4881)" class="st3" width="35.9" height="2.1"/>
								</g>
							</g>
							<g>
								<g>
									
										<rect x="188.7" y="121.6" transform="matrix(6.164848e-02 -0.9981 0.9981 6.164848e-02 38.8407 320.3512)" class="st3" width="2.1" height="35.9"/>
								</g>
							</g>
						</g>
					</g>
				</g>
				<g>
					<g>
						<path class="st4" d="M206.4,176.2c-0.4,0-0.9,0-1.3,0c-10.8-0.3-20.8-4.9-28.1-12.7c-7.4-7.9-11.2-18.1-10.9-28.9
							c0.3-10.8,4.9-20.8,12.7-28.1c7.9-7.4,18.2-11.3,28.9-10.9c10.8,0.3,20.8,4.9,28.1,12.7c7.4,7.9,11.2,18.1,10.9,28.9
							c-0.3,10.8-4.9,20.8-12.7,28.1C226.4,172.3,216.7,176.2,206.4,176.2z M206.3,101.9c-8.7,0-16.9,3.2-23.2,9.2
							c-6.6,6.2-10.4,14.6-10.7,23.7v0c-0.3,9.1,3,17.7,9.2,24.3c6.2,6.6,14.6,10.4,23.7,10.7c9.1,0.3,17.7-3,24.3-9.2
							c6.6-6.2,10.4-14.6,10.7-23.7c0.3-9.1-3-17.7-9.2-24.3c-6.2-6.6-14.6-10.4-23.7-10.7C207,101.9,206.7,101.9,206.3,101.9z"/>
					</g>
				</g>
				<g>
					<g>
						<path class="st3" d="M206.4,169.9c-0.4,0-0.7,0-1.1,0c-9.1-0.3-17.5-4.1-23.8-10.7c-6.2-6.6-9.5-15.3-9.2-24.4
							c0.3-9.1,4.1-17.5,10.7-23.8c6.6-6.2,15.3-9.5,24.4-9.2c9.1,0.3,17.5,4.1,23.8,10.7c6.2,6.6,9.5,15.3,9.2,24.4
							c-0.3,9.1-4.1,17.5-10.7,23.8C223.3,166.7,215.1,169.9,206.4,169.9z M206.3,103.8c-8.2,0-15.9,3.1-21.9,8.7
							c-6.2,5.9-9.8,13.8-10.1,22.3c-0.3,8.6,2.8,16.7,8.7,22.9c5.9,6.2,13.8,9.8,22.3,10.1c8.6,0.3,16.7-2.8,22.9-8.7
							c6.2-5.9,9.8-13.8,10.1-22.3c0.3-8.6-2.8-16.7-8.7-22.9c-5.9-6.2-13.8-9.8-22.3-10.1C207,103.8,206.7,103.8,206.3,103.8z"/>
					</g>
				</g>
				<g>
					<g>
						<path class="st4" d="M205.5,177.7l-0.5,0c-1.3,0-2.6-0.1-3.9-0.3l0.7-5.3c1.1,0.1,2.3,0.2,3.4,0.3l0.4,0L205.5,177.7z
							 M208.8,177.6l-0.3-5.3c1.3-0.1,2.6-0.2,3.8-0.4l0.9,5.2C211.8,177.4,210.3,177.5,208.8,177.6z M197.8,176.8
							c-1.4-0.3-2.9-0.7-4.3-1.1l1.6-5.1c1.2,0.4,2.5,0.7,3.7,1L197.8,176.8z M216.5,176.5l-1.3-5.2c1.2-0.3,2.5-0.7,3.7-1.1l1.8,5
							C219.3,175.7,217.9,176.1,216.5,176.5z M190.5,174.6c-1.4-0.6-2.7-1.2-4-1.9l2.5-4.7c1.1,0.6,2.3,1.2,3.5,1.6L190.5,174.6z
							 M223.8,173.9l-2.2-4.8c1.2-0.5,2.3-1.1,3.4-1.8l2.7,4.6C226.4,172.6,225.1,173.3,223.8,173.9z M183.6,171
							c-1.2-0.8-2.4-1.7-3.6-2.6l3.3-4.1c1,0.8,2,1.6,3.1,2.3L183.6,171z M230.5,170.1l-3.1-4.3c1-0.7,2.1-1.5,3-2.4l3.5,4
							C232.8,168.3,231.7,169.2,230.5,170.1z M177.5,166.2c-1.1-1-2.1-2.1-3-3.2l4-3.5c0.8,1,1.7,1.9,2.7,2.8L177.5,166.2z
							 M236.3,165.1l-3.8-3.7c0.9-0.9,1.7-1.9,2.5-2.9l4.2,3.3C238.3,162.9,237.3,164,236.3,165.1z M172.5,160.4
							c-0.9-1.2-1.7-2.4-2.4-3.7l4.6-2.7c0.6,1.1,1.4,2.2,2.1,3.2L172.5,160.4z M241.2,159.1l-4.4-3c0.7-1.1,1.4-2.2,2-3.3l4.7,2.5
							C242.8,156.6,242,157.8,241.2,159.1z M168.5,153.8c-0.6-1.3-1.2-2.7-1.7-4.1l5-1.8c0.4,1.2,0.9,2.4,1.5,3.6L168.5,153.8z
							 M244.9,152.3l-4.9-2.1c0.5-1.2,0.9-2.4,1.3-3.6l5.1,1.6C245.9,149.5,245.4,150.9,244.9,152.3z M165.8,146.5
							c-0.4-1.4-0.7-2.9-0.9-4.3l5.3-0.8c0.2,1.3,0.5,2.5,0.8,3.8L165.8,146.5z M247.2,144.9l-5.2-1.1c0.3-1.2,0.5-2.5,0.6-3.8
							l5.3,0.6C247.8,142,247.5,143.5,247.2,144.9z M164.6,138.9c-0.1-1-0.1-2-0.1-3.1c0-0.5,0-0.9,0-1.4l5.3,0l0,0.2
							c0,0.3,0,0.7,0,1.1c0,0.9,0,1.8,0.1,2.7L164.6,138.9z M248.2,137.2l-2.7,0l-2.7-0.2c0-0.4,0-0.8,0-1.2c0-0.9,0-1.7-0.1-2.6
							l5.3-0.4c0.1,1,0.1,2,0.1,3C248.2,136.3,248.2,136.7,248.2,137.2z M170,131.6l-5.3-0.6c0.2-1.5,0.4-2.9,0.7-4.4l5.2,1.2
							C170.4,129.1,170.2,130.4,170,131.6z M242.5,130.3c-0.2-1.3-0.5-2.5-0.8-3.8l5.1-1.3c0.4,1.4,0.7,2.9,0.9,4.3L242.5,130.3z
							 M171.4,125l-5.1-1.6c0.4-1.4,0.9-2.8,1.5-4.1l4.9,2.1C172.2,122.6,171.8,123.8,171.4,125z M240.9,123.8
							c-0.4-1.2-0.9-2.4-1.5-3.6l4.8-2.3c0.6,1.3,1.2,2.7,1.7,4.1L240.9,123.8z M174,118.8l-4.7-2.5c0.7-1.3,1.4-2.6,2.3-3.8l4.4,3
							C175.2,116.6,174.6,117.7,174,118.8z M238.1,117.7c-0.6-1.1-1.3-2.2-2.1-3.2l4.3-3.1c0.9,1.2,1.7,2.4,2.4,3.7L238.1,117.7z
							 M177.7,113.2l-4.2-3.3c0.9-1.1,1.9-2.3,2.9-3.3l3.8,3.7C179.3,111.2,178.5,112.2,177.7,113.2z M234.2,112.1
							c-0.8-1-1.7-1.9-2.7-2.8l3.7-3.9c1.1,1,2.1,2.1,3,3.2L234.2,112.1z M182.3,108.3l-3.5-4c1.1-1,2.3-1.9,3.5-2.7l3.1,4.4
							C184.3,106.6,183.3,107.4,182.3,108.3z M229.4,107.4c-1-0.8-2-1.6-3.1-2.3l2.9-4.5c1.2,0.8,2.4,1.7,3.6,2.6L229.4,107.4z
							 M187.8,104.3l-2.7-4.6c1.3-0.7,2.6-1.4,3.9-2l2.2,4.8C190,103.1,188.9,103.7,187.8,104.3z M223.7,103.7
							c-1.1-0.6-2.3-1.2-3.5-1.7l2-4.9c1.4,0.6,2.7,1.2,4,1.9L223.7,103.7z M193.9,101.5l-1.8-5c1.4-0.5,2.8-0.9,4.2-1.3l1.3,5.2
							C196.3,100.6,195.1,101,193.9,101.5z M217.6,101c-1.2-0.4-2.5-0.7-3.7-1l1.1-5.2c1.4,0.3,2.9,0.7,4.3,1.1L217.6,101z
							 M200.4,99.8l-0.9-5.2c1.4-0.2,2.9-0.4,4.4-0.5l0.3,5.3C202.9,99.4,201.7,99.6,200.4,99.8z M211,99.6
							c-1.1-0.1-2.3-0.2-3.5-0.3l-0.4,0l0.1-5.3l0.4,0c1.3,0,2.7,0.1,4,0.3L211,99.6z"/>
					</g>
				</g>
				<g>
					<g>
						<path class="st3" d="M206.3,152.8c-0.2,0-0.4,0-0.5,0c-9.3-0.3-16.7-8.1-16.4-17.5c0.3-9.3,8.2-16.7,17.5-16.4
							c9.3,0.3,16.7,8.1,16.4,17.5C223,145.5,215.4,152.8,206.3,152.8z M206.3,123.7c-6.5,0-11.9,5.2-12.1,11.7
							c-0.2,6.7,5,12.3,11.7,12.5c0.1,0,0.3,0,0.4,0c6.5,0,11.9-5.2,12.1-11.7c0.2-6.7-5-12.3-11.7-12.5
							C206.6,123.7,206.5,123.7,206.3,123.7z"/>
					</g>
				</g>
			</g>
			<g>
				<g>
					<g>
						<path class="st2" d="M37.5,138.1c0.4,3.3,3.5,5.7,6.8,5.2s5.7-3.5,5.2-6.8c-0.4-3.3-3.5-5.7-6.8-5.2
							C39.5,131.7,37.1,134.8,37.5,138.1z"/>
					</g>
				</g>
				<g>
					<g>
						<g>
							<g>
								<g>
									
										<rect x="24.5" y="119.3" transform="matrix(0.2155 -0.9765 0.9765 0.2155 -84.2419 135.9177)" class="st3" width="35.9" height="2.1"/>
								</g>
							</g>
							<g>
								<g>
									
										<rect x="39.3" y="102.7" transform="matrix(0.8912 -0.4536 0.4536 0.8912 -50.3437 31.4341)" class="st3" width="2.1" height="35.9"/>
								</g>
							</g>
						</g>
						<g>
							<g>
								<g>
									
										<rect x="45.7" y="136" transform="matrix(0.8912 -0.4536 0.4536 0.8912 -64.7471 37.9586)" class="st3" width="2.1" height="35.9"/>
								</g>
							</g>
							<g>
								<g>
									
										<rect x="26.7" y="153.2" transform="matrix(0.2155 -0.9765 0.9765 0.2155 -115.5808 164.5621)" class="st3" width="35.9" height="2.1"/>
								</g>
							</g>
						</g>
					</g>
					<g>
						<g>
							<g>
								<g>
									
										<rect x="26.1" y="115.1" transform="matrix(0.5067 -0.8621 0.8621 0.5067 -101.3691 89.0584)" class="st3" width="2.1" height="35.9"/>
								</g>
							</g>
							<g>
								<g>
									
										<rect x="8.8" y="134.1" transform="matrix(0.9879 -0.1554 0.1554 0.9879 -20.6836 5.7964)" class="st3" width="35.9" height="2.1"/>
								</g>
							</g>
						</g>
						<g>
							<g>
								<g>
									
										<rect x="42.4" y="138.3" transform="matrix(0.9879 -0.1554 0.1554 0.9879 -20.9284 11.0742)" class="st3" width="35.9" height="2.1"/>
								</g>
							</g>
							<g>
								<g>
									
										<rect x="58.9" y="123.5" transform="matrix(0.5067 -0.8621 0.8621 0.5067 -92.4104 121.5151)" class="st3" width="2.1" height="35.9"/>
								</g>
							</g>
						</g>
					</g>
					<g>
						<g>
							<g>
								<g>
									
										<rect x="16.5" y="150.6" transform="matrix(0.7482 -0.6634 0.6634 0.7482 -91.9106 61.054)" class="st3" width="35.9" height="2.1"/>
								</g>
							</g>
							<g>
								<g>
									
										<rect x="18.4" y="151.6" transform="matrix(0.1568 -0.9876 0.9876 0.1568 -120.104 164.6206)" class="st3" width="35.9" height="2.1"/>
								</g>
							</g>
						</g>
						<g>
							<g>
								<g>
									
										<rect x="32.8" y="120.9" transform="matrix(0.1568 -0.9876 0.9876 0.1568 -77.6604 152.9531)" class="st3" width="35.9" height="2.1"/>
								</g>
							</g>
							<g>
								<g>
									
										<rect x="34.7" y="121.9" transform="matrix(0.7482 -0.6634 0.6634 0.7482 -68.3459 65.877)" class="st3" width="35.9" height="2.1"/>
								</g>
							</g>
						</g>
					</g>
					<g>
						<g>
							<g>
								<g>
									
										<rect x="53.3" y="132.4" transform="matrix(0.9167 -0.3997 0.3997 0.9167 -55.5622 34.2617)" class="st3" width="2.1" height="35.9"/>
								</g>
							</g>
							<g>
								<g>
									
										<rect x="54.9" y="130.9" transform="matrix(0.4543 -0.8908 0.8908 0.4543 -102.1187 131.0622)" class="st3" width="2.1" height="35.9"/>
								</g>
							</g>
						</g>
						<g>
							<g>
								<g>
									
										<rect x="30.1" y="107.8" transform="matrix(0.4544 -0.8908 0.8908 0.4544 -94.9802 96.377)" class="st3" width="2.1" height="35.9"/>
								</g>
							</g>
							<g>
								<g>
									
										<rect x="31.7" y="106.3" transform="matrix(0.9167 -0.3997 0.3997 0.9167 -46.9333 23.4404)" class="st3" width="2.1" height="35.9"/>
								</g>
							</g>
						</g>
					</g>
					<g>
						<g>
							<g>
								<g>
									
										<rect x="41.3" y="130" transform="matrix(0.9952 -9.750540e-02 9.750540e-02 0.9952 -12.4956 6.4071)" class="st3" width="35.9" height="2.1"/>
								</g>
							</g>
							<g>
								<g>
									
										<rect x="40.4" y="128.1" transform="matrix(0.7078 -0.7064 0.7064 0.7078 -74.1467 78.9737)" class="st3" width="35.9" height="2.1"/>
								</g>
							</g>
						</g>
						<g>
							<g>
								<g>
									
										<rect x="10.7" y="144.4" transform="matrix(0.7078 -0.7064 0.7064 0.7078 -94.3833 62.7912)" class="st3" width="35.9" height="2.1"/>
								</g>
							</g>
							<g>
								<g>
									
										<rect x="9.8" y="142.5" transform="matrix(0.9952 -9.750540e-02 9.750540e-02 0.9952 -13.8652 3.3949)" class="st3" width="35.9" height="2.1"/>
								</g>
							</g>
						</g>
					</g>
				</g>
				<g>
					<g>
						<path class="st4" d="M43.5,176.7c-8.7,0-17.1-2.9-24-8.3c-8.3-6.4-13.7-15.7-15-26.2c-1.3-10.4,1.5-20.8,7.9-29.1
							c6.4-8.3,15.7-13.7,26.2-15c10.4-1.3,20.8,1.5,29.1,7.9c8.3,6.4,13.7,15.7,15,26.2c1.3,10.4-1.5,20.8-7.9,29.1
							c-6.4,8.3-15.7,13.7-26.2,15C46.8,176.6,45.2,176.7,43.5,176.7z M43.6,104.3c-1.4,0-2.8,0.1-4.2,0.3
							c-18.1,2.3-30.9,18.9-28.6,37c1.1,8.8,5.6,16.6,12.6,22c7,5.4,15.6,7.8,24.4,6.6c8.8-1.1,16.6-5.6,22-12.6
							c5.4-7,7.8-15.6,6.6-24.4C74.2,116.5,60,104.3,43.6,104.3z"/>
					</g>
				</g>
				<g>
					<g>
						<path class="st3" d="M43.5,170.2c-16.3,0-30.5-12.2-32.6-28.8l0,0c-2.3-18,10.5-34.5,28.5-36.8c18-2.3,34.5,10.5,36.8,28.5
							c2.3,18-10.5,34.5-28.5,36.8C46.3,170.1,44.9,170.2,43.5,170.2z M13,141.2c2.1,16.8,17.6,28.8,34.4,26.6
							c16.8-2.1,28.8-17.6,26.7-34.4c-2.1-16.8-17.6-28.8-34.4-26.6c-8.2,1-15.4,5.2-20.5,11.7C14.2,125,12,133,13,141.2L13,141.2z"
							/>
					</g>
				</g>
				<g>
					<g>
						<path class="st4" d="M43.5,178.2c-0.9,0-1.9,0-2.8-0.1l0.4-5.3c1.3,0.1,2.6,0.1,4,0.1l0.2,5.3
							C44.7,178.2,44.1,178.2,43.5,178.2z M48.7,177.8l-0.7-5.3l0.2,0c1.2-0.2,2.5-0.4,3.7-0.7l1.2,5.2
							C51.7,177.4,50.2,177.7,48.7,177.8z M37.3,177.7c-1.5-0.2-3-0.6-4.5-1l1.4-5.1c1.3,0.3,2.6,0.6,3.9,0.8L37.3,177.7z
							 M56.5,176.1l-1.7-5c1.3-0.4,2.5-0.9,3.7-1.5l2.2,4.8C59.4,175,57.9,175.6,56.5,176.1z M29.5,175.7c-1.4-0.5-2.8-1.1-4.2-1.8
							l2.4-4.8c1.2,0.6,2.4,1.1,3.7,1.6L29.5,175.7z M63.8,172.8l-2.6-4.6c1.2-0.7,2.3-1.4,3.3-2.2l3.1,4.3
							C66.4,171.2,65.1,172.1,63.8,172.8z M22.3,172.2c-1.3-0.8-2.6-1.7-3.8-2.6l3.3-4.2c1.1,0.8,2.2,1.6,3.3,2.3L22.3,172.2z
							 M70.3,168.2l-3.5-4c1-0.9,2-1.8,2.9-2.8l3.9,3.6C72.6,166.1,71.5,167.2,70.3,168.2z M15.9,167.4c-1.1-1-2.2-2.1-3.2-3.3
							l4-3.5c0.9,1,1.8,2,2.8,2.9L15.9,167.4z M75.8,162.4l-4.2-3.3c0.8-1,1.6-2.2,2.3-3.3l4.5,2.8
							C77.7,159.9,76.8,161.2,75.8,162.4z M10.6,161.4c-0.9-1.2-1.7-2.5-2.5-3.8l4.6-2.6c0.7,1.1,1.4,2.3,2.2,3.3L10.6,161.4z
							 M80.1,155.6l-4.8-2.4c0.6-1.2,1.1-2.4,1.6-3.7l5,1.8C81.4,152.8,80.8,154.2,80.1,155.6z M6.5,154.5c-0.6-1.4-1.2-2.8-1.7-4.3
							l5-1.7c0.4,1.3,0.9,2.5,1.5,3.7L6.5,154.5z M83,148.1l-5.1-1.4c0.3-1.3,0.6-2.6,0.8-3.9l5.3,0.8
							C83.7,145.1,83.4,146.6,83,148.1z M3.8,147c-0.4-1.5-0.6-3-0.8-4.5l0-0.2l5.3-0.6L5.6,142l2.6-0.3c0.2,1.4,0.4,2.7,0.7,4
							L3.8,147z M84.3,140.2l-5.3-0.4c0.1-0.8,0.1-1.6,0.1-2.5c0-0.5,0-1,0-1.5l5.3-0.2c0,0.6,0,1.2,0,1.7
							C84.4,138.3,84.4,139.3,84.3,140.2z M2.7,138.9c0-0.6,0-1.1,0-1.7c0-1,0-2,0.1-2.9l5.3,0.4C8,135.6,8,136.4,8,137.3
							c0,0.5,0,1,0,1.4L2.7,138.9z M78.8,132.9l0-0.3c-0.1-1.1-0.4-2.4-0.7-3.7l5.2-1.2c0.4,1.5,0.6,2.9,0.8,4.4L78.8,132.9z
							 M8.4,131.7l-5.3-0.8c0.2-1.5,0.6-3,1-4.5l5.1,1.4C8.9,129.1,8.6,130.4,8.4,131.7z M77.3,126.1c-0.4-1.3-0.9-2.5-1.5-3.7
							l4.8-2.2c0.6,1.4,1.2,2.8,1.7,4.3L77.3,126.1z M10.2,125l-5-1.8c0.5-1.4,1.1-2.8,1.8-4.2l4.7,2.4
							C11.2,122.5,10.6,123.8,10.2,125z M74.5,119.7c-0.7-1.2-1.4-2.3-2.2-3.3l4.3-3.1c0.9,1.2,1.7,2.5,2.5,3.8L74.5,119.7z
							 M13.2,118.7L8.7,116c0.8-1.3,1.7-2.6,2.6-3.8l4.2,3.3C14.7,116.5,13.9,117.6,13.2,118.7z M70.4,114c-0.9-1-1.8-2-2.8-2.9
							l3.6-3.9c1.1,1,2.2,2.1,3.2,3.3L70.4,114z M17.4,113.2l-3.9-3.6c1-1.1,2.1-2.2,3.3-3.2l3.5,4
							C19.3,111.3,18.3,112.2,17.4,113.2z M65.4,109.2c-1-0.8-2.1-1.6-3.3-2.3l2.8-4.5c1.3,0.8,2.6,1.7,3.8,2.6L65.4,109.2z
							 M22.6,108.5l-3.1-4.3c1.2-0.9,2.5-1.7,3.9-2.5l2.6,4.6C24.8,107,23.7,107.8,22.6,108.5z M59.5,105.5
							c-1.2-0.6-2.4-1.1-3.7-1.6l1.8-5c1.4,0.5,2.8,1.1,4.2,1.8L59.5,105.5z M28.6,105l-2.2-4.8c1.4-0.6,2.8-1.2,4.3-1.7l1.7,5
							C31.1,104,29.8,104.5,28.6,105z M53,103c-1.3-0.4-2.6-0.6-3.9-0.8l0.8-5.3c1.5,0.2,3,0.6,4.5,1L53,103z M35.2,102.7L34,97.6
							c1.4-0.3,2.9-0.6,4.4-0.8l0.4,2.6l0.3,2.6C37.8,102.2,36.5,102.4,35.2,102.7z M46.1,101.8c-1.3-0.1-2.6-0.1-4-0.1l-0.2-5.3
							c1.5-0.1,3.1,0,4.6,0.1L46.1,101.8z"/>
					</g>
				</g>
				<g>
					<g>
						<path class="st3" d="M43.5,154.3c-8.4,0-15.7-6.3-16.8-14.8l0,0c-1.2-9.3,5.4-17.8,14.7-19c9.3-1.2,17.8,5.4,19,14.7
							c0.6,4.5-0.6,8.9-3.4,12.5c-2.8,3.6-6.8,5.9-11.3,6.4C45,154.2,44.3,154.3,43.5,154.3z M31.5,138.8
							c0.8,6.6,6.9,11.3,13.6,10.5c3.2-0.4,6.1-2,8.1-4.6c2-2.6,2.8-5.7,2.4-9c-0.8-6.6-6.9-11.3-13.6-10.5c-3.2,0.4-6.1,2-8.1,4.6
							C32,132.4,31.1,135.6,31.5,138.8L31.5,138.8z"/>
					</g>
				</g>
			</g>
			<g>
				<g>
					<path class="st4" d="M103.3,131.3l29.4,0.9c6.7,0.2,12.9-3.8,15.3-10.1l19-48.9l-72.3,3.2l2.9,49.4
						C97.9,128.9,100.3,131.3,103.3,131.3z"/>
				</g>
			</g>
			<g>
				<g>
					<polygon class="st4" points="26.1,69.8 35.7,53.3 40.1,56.2 28.7,71.5 					"/>
				</g>
			</g>
			<g>
				<g>
					<path class="st5" d="M133.2,136c-0.2,0-0.4,0-0.6,0l-31-1c-4-0.1-7.3-3.4-7.5-7.4l-2.4-60.5l80.7,2.6l-21,53.8
						C148.6,131.1,141.3,136,133.2,136z M99.6,74.9l2,52.4c0,0.1,0.1,0.2,0.2,0.2l31,1c5.1,0.1,9.9-3,11.7-7.7l17.1-43.9L99.6,74.9z
						"/>
				</g>
			</g>
			<g>
				<g>
					<polygon class="st6" points="95.6,111.6 121.9,112.4 134.6,81.5 96.5,82.4 					"/>
				</g>
			</g>
			<g>
				<g>
					<path class="st6" d="M25.6,53.7c32.6,7,59.8,23.8,82.6,44.4c-7.8-20.4,30.4-11.5,72.3-26.7l-4.8-14.1
						c-19.5-5.7-29-8.1-38.4-3.5l-27.4,12c-17.5,5.8-40.5-16.1-84.1-15.9L25.6,53.7z"/>
				</g>
			</g>
			<g>
				<g>
					<path class="st7" d="M154.4,78.4c3.8-0.7,7.8-1.6,11.8-2.6c-0.3-0.1-38.2-14.7-42.3-16.1l-8.2,3.6
						C120.9,65.1,146.5,75.3,154.4,78.4z"/>
				</g>
			</g>
			<g>
				<g>
					<path class="st7" d="M144.1,80.1c-5.4-1.5-36.5-10.1-46.2-13.9c-16.2-2.9-37.7-16.5-72.1-16.4l-0.1,3.8
						c32.6,7,59.8,23.8,82.6,44.4C102.8,84,119.4,83.9,144.1,80.1z"/>
				</g>
			</g>
			<g>
				<g>
					<path class="st7" d="M173.9,73.6c2.2-0.7,4.3-1.4,6.5-2.2l-4.4-12.9c-2.1-0.1-39.5-2.6-40.9-2.6
						C135.9,56.2,170.6,71.9,173.9,73.6z"/>
				</g>
			</g>
			<g>
				<g>
					<path class="st4" d="M106.7,75.4c6.4-1.2,30.6-21.6,30.6-21.6l-27.4,12c-12.2,4-27-5.3-49.5-11.3
						C60.3,54.5,99.9,75.2,106.7,75.4z"/>
				</g>
			</g>
			<g>
				<g>
					<path class="st7" d="M182.7,71.7l34.1,1.8l13.7,12.8c-17.5-8.9-35.9-9.2-47.2-3.6l-17.5,18.6C168.3,92,172.5,82.4,182.7,71.7z"
						/>
				</g>
			</g>
			<g>
				<g>
					
						<rect x="186.7" y="39.9" transform="matrix(0.9468 -0.3218 0.3218 0.9468 -18.5663 66.049)" class="st8" width="7.5" height="98.6"/>
				</g>
			</g>
			<g>
				<g>
					
						<rect x="179.3" y="41.1" transform="matrix(0.9468 -0.3218 0.3218 0.9468 -11.9045 62.4839)" class="st4" width="7.5" height="52.2"/>
				</g>
			</g>
			<g>
				<g>
					<path class="st6" d="M186.9,67.2l11.1-2.9l0.4-12.3c-5.4-7.2-13-12.3-22.1-15.9L186.9,67.2z"/>
				</g>
			</g>
			<g>
				<g>
					<polygon class="st8" points="194.1,51.8 193.6,65.5 198,64.3 198.4,52 					"/>
				</g>
			</g>
			<g>
				<g>
					<path class="st8" d="M161.8,46.7c-0.1,4.3,3.2,7.8,7.5,8c4.3,0.1,7.8-3.2,8-7.5c0.1-4.3-3.2-7.8-7.5-8S161.9,42.4,161.8,46.7z"
						/>
				</g>
			</g>
			<g>
				<g>
					<path class="st4" d="M169.5,50.7c-0.3,0-0.6,0-0.8-0.1l-10.8-2.5c-2-0.5-3.3-2.5-2.8-4.5c0.5-2,2.5-3.3,4.5-2.8l10.8,2.5
						c2,0.5,3.3,2.5,2.8,4.5C172.8,49.5,171.2,50.7,169.5,50.7z"/>
				</g>
			</g>
			<g>
				<g>
					<g>
						<path class="st8" d="M33.8,138.5c0.7,5.4,5.6,9.2,11,8.5c5.4-0.7,9.2-5.6,8.5-11c-0.7-5.4-5.6-9.2-11-8.5
							S33.1,133.2,33.8,138.5z"/>
					</g>
					<g>
						<path class="st4" d="M43.5,149c-5.8,0-10.8-4.3-11.6-10.2c-0.8-6.4,3.7-12.2,10.1-13.1c3.1-0.4,6.2,0.4,8.6,2.3
							c2.5,1.9,4,4.7,4.4,7.8c0.4,3.1-0.4,6.2-2.3,8.6c-1.9,2.5-4.7,4-7.8,4.4C44.5,148.9,44,149,43.5,149z M43.6,129.4
							c-0.3,0-0.7,0-1,0.1c-4.3,0.6-7.4,4.5-6.9,8.9c0.6,4.3,4.6,7.4,8.9,6.9c4.3-0.6,7.4-4.5,6.9-8.9
							C50.9,132.3,47.5,129.4,43.6,129.4z"/>
					</g>
				</g>
				<g>
					<g>
						<path class="st4" d="M47.5,142.5l56.4-12l-0.3-15.3l-60.2,15.4c-4,1.4-6.5,4.8-5.7,7.8l0,0.2C38.6,141.9,43,143.7,47.5,142.5z
							"/>
					</g>
				</g>
			</g>
			<g>
				<g>
					
						<ellipse transform="matrix(0.57 -0.8217 0.8217 0.57 -22.8781 227.9524)" class="st8" cx="206.3" cy="135.8" rx="8.2" ry="8.2"/>
				</g>
				<g>
					<path class="st4" d="M206.3,146.5c-0.1,0-0.2,0-0.3,0c-2.8-0.1-5.5-1.3-7.4-3.4c-1.9-2.1-3-4.8-2.9-7.6l2.4,0.1l-2.4-0.1
						c0.1-2.8,1.3-5.5,3.4-7.4c2.1-1.9,4.8-3,7.6-2.9c2.8,0.1,5.5,1.3,7.4,3.4c1.9,2.1,3,4.8,2.9,7.6
						C216.8,141.9,212.1,146.5,206.3,146.5z M206.3,130c-1.5,0-2.9,0.6-4,1.6c-1.1,1.1-1.8,2.5-1.8,4c0,1.5,0.5,3,1.6,4.2
						c1.1,1.1,2.5,1.8,4.1,1.8c3.2,0.1,5.9-2.4,6-5.6c0-1.5-0.5-3-1.6-4.2c-1.1-1.1-2.5-1.8-4.1-1.8C206.5,130,206.4,130,206.3,130z
						"/>
				</g>
			</g>
			<g>
				<g>
					<g>
						
							<rect x="146.4" y="80.3" transform="matrix(0.3617 -0.9323 0.9323 0.3617 12.1644 194.7446)" class="st9" width="3.9" height="16.4"/>
					</g>
				</g>
				<g>
					<g>
						
							<rect x="144.3" y="85.7" transform="matrix(0.3617 -0.9323 0.9323 0.3617 5.8114 196.2388)" class="st9" width="3.9" height="16.4"/>
					</g>
				</g>
				<g>
					<g>
						
							<rect x="142.2" y="91.1" transform="matrix(0.3617 -0.9323 0.9323 0.3617 -0.5398 197.7355)" class="st9" width="3.9" height="16.4"/>
					</g>
				</g>
				<g>
					<g>
						
							<rect x="140.1" y="96.4" transform="matrix(0.3617 -0.9323 0.9323 0.3617 -6.8991 199.2211)" class="st9" width="3.9" height="16.4"/>
					</g>
				</g>
			</g>
			<g>
				<g>
					<path class="st3" d="M133.4,128.4c-0.1,0-0.3,0-0.4,0c-6.7-0.2-12-5.8-11.8-12.5c0.1-3.2,1.5-6.3,3.8-8.5
						c2.4-2.2,5.4-3.4,8.7-3.3c3.2,0.1,6.3,1.5,8.5,3.8c2.2,2.4,3.4,5.5,3.3,8.7C145.3,123.2,139.9,128.4,133.4,128.4z M133.4,109.1
						c-1.8,0-3.5,0.7-4.9,1.9c-1.4,1.3-2.2,3.1-2.2,5c-0.1,3.9,3,7.2,6.9,7.3c3.8,0.1,7.2-3,7.3-6.9c0.1-1.9-0.6-3.7-1.9-5.1
						c-1.3-1.4-3.1-2.2-5-2.2C133.5,109.1,133.4,109.1,133.4,109.1z"/>
				</g>
			</g>
			<g>
				<g>
					<path class="st9" d="M99.3,117.3l16.5,0.5c3,0.1,5.6-2.3,5.7-5.3l0,0c0.1-3-2.3-5.6-5.3-5.7l-16.5-0.5c-3-0.1-5.6,2.3-5.7,5.3
						l0,0C93.9,114.6,96.3,117.2,99.3,117.3z"/>
				</g>
			</g>
			<g>
				<g>
					<path class="st7" d="M116.7,140.2c0,0-0.1,0-0.1,0c-2.1-0.1-3.7-1.8-3.6-3.9l0.4-13.2c0.1-2.1,1.7-3.7,3.9-3.6
						c2.1,0.1,3.7,1.8,3.6,3.9l-0.4,13.2C120.4,138.6,118.7,140.2,116.7,140.2z"/>
				</g>
			</g>
			<g>
				<g>
					<path class="st7" d="M106.8,139.9c0,0-0.1,0-0.1,0c-2.1-0.1-3.7-1.8-3.6-3.9l0.4-13.2c0.1-2,1.7-3.6,3.7-3.6c0,0,0.1,0,0.1,0
						c2.1,0.1,3.7,1.8,3.6,3.9l-0.4,13.2C110.5,138.3,108.8,139.9,106.8,139.9z"/>
				</g>
			</g>
			<g>
				<g>
					<path class="st0" d="M129.4,68.6c-0.1,4.2,4.3,7.7,9.9,7.9c5.6,0.2,10.2-3.1,10.4-7.3s-4.3-7.7-9.9-7.9
						C134.2,61.1,129.5,64.4,129.4,68.6z"/>
				</g>
			</g>
			<g>
				<g>
					<path class="st3" d="M53.2,72.2c-5.6-2.7-9.9-2.9-13.4-0.7L37,67c5.1-3.3,11.2-3.2,18.5,0.4L53.2,72.2z"/>
				</g>
			</g>
			<g>
				<g>
					<path class="st4" d="M53.5,64.8c5,2.4,9.9,4.9,14.7,7.6c4.8,2.6,9.6,5.4,14.3,8.2c2.4,1.4,4.7,2.8,7.1,4.3
						c2.3,1.4,4.7,2.8,7,4.4c4.6,3.1,9,6.3,13,10.4l-3.9,6.3c-5.4-1.7-10.3-4.3-15.1-7c-2.4-1.4-4.7-2.9-7-4.3
						c-2.3-1.5-4.7-2.9-6.9-4.4c-4.6-3-9.2-6.1-13.7-9.2c-4.5-3.1-9-6.4-13.3-9.8L53.5,64.8z"/>
				</g>
			</g>
		</g>
	</g>
</g>
</svg>
