<?xml version="1.0" encoding="utf-8"?>
<!-- Generator: Adobe Illustrator 22.0.0, SVG Export Plug-In . SVG Version: 6.00 Build 0)  -->
<svg version="1.1" id="Layer_1" xmlns="http://www.w3.org/2000/svg" xmlns:xlink="http://www.w3.org/1999/xlink" x="0px" y="0px"
	 viewBox="0 0 714 270.1" style="enable-background:new 0 0 714 270.1;" xml:space="preserve">
<style type="text/css">
	.st0{fill:#FFC70A;}
	.st1{fill:#E1E1E1;}
</style>
<g>
	<path class="st0" d="M253.2,270.4c0.2-0.2,0.4-0.3,0.5-0.5c-5.1-15.7-10.2-31.5-15.3-47.3c13.7-10,27.3-19.9,40.9-29.8
		c-0.1-0.2-0.2-0.5-0.2-0.7c-1.4,0-2.8,0-4.2,0c-14.5,0-29,0-43.4,0c-1.9,0-2.9-0.4-3.5-2.5c-4.5-14.4-9.2-28.7-13.8-43.1
		c-0.2-0.7-0.6-1.5-1-2.6c-0.4,1.1-0.7,1.6-0.9,2.1c-4.7,14.6-9.4,29.2-14,43.8c-0.6,1.8-1.3,2.3-3.2,2.3c-15-0.1-30.1,0-45.1,0
		c-1,0-2,0.1-3.6,0.2c1.1,0.9,1.7,1.4,2.3,1.9c12.2,8.9,24.4,17.8,36.7,26.6c1.8,1.3,2.2,2.5,1.5,4.7c-4.4,13.1-8.5,26.3-12.8,39.4
		c-0.6,1.7-1.1,3.4-1.6,5.1c1.1-0.1,1.9-0.6,2.5-1.1c12.1-8.8,24.2-17.5,36.3-26.3c1.3-1,2.2-1,3.5,0c9.7,7.1,19.4,14.1,29.1,21.1
		C247,265.9,250.1,268.1,253.2,270.4z M526.4,222.7c13.7-10,27.3-19.9,40.9-29.8c-0.1-0.2-0.2-0.5-0.3-0.7c-1.4,0-2.9,0-4.3,0
		c-14.4,0-28.8,0-43.2,0.1c-2,0-3-0.4-3.7-2.6c-3.8-12.2-7.7-24.3-11.7-36.5c-0.9-2.9-1.9-5.8-3.1-9.3c-0.5,1.4-0.8,2-1,2.6
		c-4.7,14.5-9.3,29-13.9,43.5c-0.5,1.6-1.2,2.2-3,2.2c-15.1-0.1-30.2,0-45.4,0c-1,0-1.9,0.1-3.5,0.2c1.2,0.9,1.8,1.4,2.4,1.9
		c12.1,8.8,24.3,17.7,36.5,26.5c1.9,1.4,2.4,2.5,1.6,4.8c-4.7,14.1-9.2,28.2-13.8,42.4c-0.2,0.7-0.4,1.4-0.7,2.8
		c1.3-0.9,2-1.3,2.7-1.8c12-8.7,24-17.3,35.9-26c1.5-1.1,2.5-1.2,4.1-0.1c12.1,8.8,24.2,17.6,36.3,26.3c0.6,0.4,1.3,0.8,1.9,1.3
		c0.2-0.1,0.3-0.2,0.5-0.4C536.7,254.3,531.6,238.5,526.4,222.7z M28.4,269.9c0.2,0.2,0.4,0.3,0.5,0.5c13.4-9.7,26.7-19.3,40.1-29
		c13.5,9.7,26.8,19.4,40.2,29c0.2-0.2,0.3-0.3,0.5-0.5c-5.1-15.7-10.2-31.5-15.3-47.2c13.7-10,27.3-19.9,40.9-29.8
		c-0.1-0.2-0.1-0.5-0.2-0.7c-1.3,0-2.5,0-3.8,0c-14.8,0-29.6,0-44.4,0c-1.3,0-2.3,0-2.8-1.7c-3.8-12.3-7.8-24.6-11.8-36.9
		c-1-3-2-6.1-3.2-9.6c-0.5,1.2-0.8,1.6-0.9,2.2c-4.7,14.5-9.4,29-13.9,43.5c-0.6,1.9-1.2,2.6-3.4,2.6c-14.8-0.1-29.6-0.1-44.4,0
		c-1.2,0-2.4,0.1-4.1,0.2c1,0.8,1.5,1.2,2,1.6c12.4,9,24.8,18.1,37.2,27.1c1.6,1.1,2,2.1,1.4,4.1c-2.9,8.5-5.6,17-8.3,25.5
		C32.5,257,30.5,263.5,28.4,269.9z M316.4,269.9c0.2,0.1,0.4,0.3,0.6,0.4c13.4-9.7,26.7-19.3,40.1-28.9c13.5,9.8,26.8,19.4,40.1,29
		c0.2-0.1,0.4-0.3,0.5-0.4c-5.1-15.7-10.2-31.5-15.3-47.3c13.7-10,27.3-19.9,40.9-29.8c-0.1-0.2-0.2-0.4-0.2-0.7c-1.3,0-2.5,0-3.8,0
		c-14.7,0-29.4,0-44.2,0c-1.8,0-2.6-0.4-3.2-2.3c-4.6-14.5-9.2-28.9-13.9-43.3c-0.2-0.8-0.6-1.5-1-2.6c-0.5,1.1-0.7,1.5-0.9,2.1
		c-4.7,14.6-9.4,29.2-14,43.8c-0.5,1.7-1.2,2.3-3.1,2.3c-14.8-0.1-29.6,0-44.4,0c-1.2,0-2.5,0-3.7,0c0.4,1,1,1.5,1.6,2
		c12.4,9,24.8,18.1,37.2,27.1c1.5,1.1,1.7,2,1.2,3.7c-3.2,9.6-6.3,19.3-9.4,28.9C319.8,259.2,318.1,264.6,316.4,269.9z"/>
	<path class="st0" d="M670.4,222.7c13.7-10,27.3-19.9,40.9-29.8c-0.1-0.2-0.2-0.5-0.3-0.7c-1.4,0-2.9,0-4.3,0
		c-14.4,0-28.8,0-43.2,0.1c-2,0-3-0.4-3.7-2.6c-3.8-12.2-7.7-24.3-11.7-36.5c-0.9-2.9-1.9-5.8-3.1-9.3c-0.5,1.4-0.8,2-1,2.6
		c-4.7,14.5-9.3,29-13.9,43.5c-0.5,1.6-1.2,2.2-3,2.2c-15.1-0.1-30.2,0-45.4,0c-1,0-1.9,0.1-3.5,0.2c1.2,0.9,1.8,1.4,2.4,1.9
		c12.1,8.8,24.3,17.7,36.5,26.5c1.9,1.4,2.4,2.5,1.6,4.8c-4.7,14.1-9.2,28.2-13.8,42.4c-0.2,0.7-0.4,1.4-0.7,2.8
		c1.3-0.9,2-1.3,2.7-1.8c12-8.7,24-17.3,35.9-26c1.5-1.1,2.5-1.2,4.1-0.1c12.1,8.8,24.2,17.6,36.3,26.3c0.6,0.4,1.3,0.8,1.9,1.3
		c0.2-0.1,0.3-0.2,0.5-0.4C680.7,254.3,675.6,238.5,670.4,222.7z"/>
</g>
<g>
	<path class="st1" d="M253.5,127.4c0.2-0.2,0.4-0.3,0.5-0.5c-5.1-15.7-10.2-31.5-15.3-47.3c13.7-10,27.3-19.9,40.9-29.8
		c-0.1-0.2-0.2-0.5-0.2-0.7c-1.4,0-2.8,0-4.2,0c-14.5,0-29,0-43.4,0c-1.9,0-2.9-0.4-3.5-2.5C223.7,32.3,219,18,214.4,3.6
		c-0.2-0.7-0.6-1.5-1-2.6c-0.4,1.1-0.7,1.6-0.9,2.1c-4.7,14.6-9.4,29.2-14,43.8c-0.6,1.8-1.3,2.3-3.2,2.3c-15-0.1-30.1,0-45.1,0
		c-1,0-2,0.1-3.6,0.2c1.1,0.9,1.7,1.4,2.3,1.9c12.2,8.9,24.4,17.8,36.7,26.6c1.8,1.3,2.2,2.5,1.5,4.7c-4.4,13.1-8.5,26.3-12.8,39.4
		c-0.6,1.7-1.1,3.4-1.6,5.1c1.1-0.1,1.9-0.6,2.5-1.1c12.1-8.8,24.2-17.5,36.3-26.3c1.3-1,2.2-1,3.5,0c9.7,7.1,19.4,14.1,29.1,21.1
		C247.3,122.9,250.4,125.1,253.5,127.4z M526.8,79.7c13.7-10,27.3-19.9,40.9-29.8c-0.1-0.2-0.2-0.5-0.3-0.7c-1.4,0-2.9,0-4.3,0
		c-14.4,0-28.8,0-43.2,0.1c-2,0-3-0.4-3.7-2.6c-3.8-12.2-7.7-24.3-11.7-36.5c-0.9-2.9-1.9-5.8-3.1-9.3c-0.5,1.4-0.8,2-1,2.6
		c-4.7,14.5-9.3,29-13.9,43.5c-0.5,1.6-1.2,2.2-3,2.2c-15.1-0.1-30.2,0-45.4,0c-1,0-1.9,0.1-3.5,0.2c1.2,0.9,1.8,1.4,2.4,1.9
		c12.1,8.8,24.3,17.7,36.5,26.5c1.9,1.4,2.4,2.5,1.6,4.8c-4.7,14.1-9.2,28.2-13.8,42.4c-0.2,0.7-0.4,1.4-0.7,2.8
		c1.3-0.9,2-1.3,2.7-1.8c12-8.7,24-17.3,35.9-26c1.5-1.1,2.5-1.2,4.1-0.1c12.1,8.8,24.2,17.6,36.3,26.3c0.6,0.4,1.3,0.8,1.9,1.3
		c0.2-0.1,0.3-0.2,0.5-0.4C537,111.3,531.9,95.5,526.8,79.7z M28.7,126.9c0.2,0.2,0.4,0.3,0.5,0.5c13.4-9.7,26.7-19.3,40.1-29
		c13.5,9.7,26.8,19.4,40.2,29c0.2-0.2,0.3-0.3,0.5-0.5c-5.1-15.7-10.2-31.5-15.3-47.2c13.7-10,27.3-19.9,40.9-29.8
		c-0.1-0.2-0.1-0.5-0.2-0.7c-1.3,0-2.5,0-3.8,0c-14.8,0-29.6,0-44.4,0c-1.3,0-2.3,0-2.8-1.7c-3.8-12.3-7.8-24.6-11.8-36.9
		c-1-3-2-6.1-3.2-9.6C68.9,2,68.7,2.5,68.5,3c-4.7,14.5-9.4,29-13.9,43.5c-0.6,1.9-1.2,2.6-3.4,2.6c-14.8-0.1-29.6-0.1-44.4,0
		c-1.2,0-2.4,0.1-4.1,0.2c1,0.8,1.5,1.2,2,1.6C17.1,60,29.5,69.1,41.9,78c1.6,1.1,2,2.1,1.4,4.1c-2.9,8.5-5.6,17-8.3,25.5
		C32.9,114,30.8,120.5,28.7,126.9z M316.7,126.9c0.2,0.1,0.4,0.3,0.6,0.4c13.4-9.7,26.7-19.3,40.1-28.9c13.5,9.8,26.8,19.4,40.1,29
		c0.2-0.1,0.4-0.3,0.5-0.4c-5.1-15.7-10.2-31.5-15.3-47.3c13.7-10,27.3-19.9,40.9-29.8c-0.1-0.2-0.2-0.4-0.2-0.7c-1.3,0-2.5,0-3.8,0
		c-14.7,0-29.4,0-44.2,0c-1.8,0-2.6-0.4-3.2-2.3c-4.6-14.5-9.2-28.9-13.9-43.3c-0.2-0.8-0.6-1.5-1-2.6c-0.5,1.1-0.7,1.5-0.9,2.1
		c-4.7,14.6-9.4,29.2-14,43.8c-0.5,1.7-1.2,2.3-3.1,2.3c-14.8-0.1-29.6,0-44.4,0c-1.2,0-2.5,0-3.7,0c0.4,1,1,1.5,1.6,2
		c12.4,9,24.8,18.1,37.2,27.1c1.5,1.1,1.7,2,1.2,3.7c-3.2,9.6-6.3,19.3-9.4,28.9C320.1,116.2,318.4,121.6,316.7,126.9z"/>
	<path class="st1" d="M253.5,127.4c-3.1-2.2-6.2-4.4-9.3-6.7c-9.7-7-19.5-14-29.1-21.1c-1.4-1-2.2-0.9-3.5,0
		c-12.1,8.8-24.2,17.5-36.3,26.3c-0.7,0.5-1.4,0.9-2.5,1.1c0.5-1.7,1.1-3.4,1.6-5.1c4.2-13.1,8.4-26.3,12.8-39.4
		c0.7-2.2,0.4-3.3-1.5-4.7C173.4,69,161.2,60.1,149,51.2c-0.6-0.5-1.2-1-2.3-1.9c1.6-0.1,2.6-0.2,3.6-0.2c15,0,30.1,0,45.1,0
		c1.8,0,2.6-0.5,3.2-2.3c4.6-14.6,9.3-29.2,14-43.8c0.2-0.5,0.4-1,0.9-2.1c0.5,1.2,0.8,1.9,1,2.6c4.6,14.4,9.3,28.7,13.8,43.1
		c0.6,2,1.6,2.5,3.5,2.5c14.5-0.1,29,0,43.4,0c1.4,0,2.8,0,4.2,0c0.1,0.2,0.2,0.5,0.2,0.7c-13.6,9.9-27.2,19.8-40.9,29.8
		c5.1,15.8,10.2,31.5,15.3,47.3C253.9,127.1,253.7,127.2,253.5,127.4z"/>
	<path class="st1" d="M526.8,79.7c5.1,15.9,10.2,31.6,15.3,47.3c-0.2,0.1-0.3,0.2-0.5,0.4c-0.6-0.4-1.3-0.8-1.9-1.3
		c-12.1-8.8-24.3-17.5-36.3-26.3c-1.6-1.2-2.6-1-4.1,0.1c-11.9,8.7-23.9,17.4-35.9,26c-0.7,0.5-1.4,0.9-2.7,1.8
		c0.3-1.3,0.5-2.1,0.7-2.8c4.6-14.1,9-28.3,13.8-42.4c0.8-2.4,0.3-3.5-1.6-4.8C461.3,69,449.2,60.1,437,51.2c-0.6-0.5-1.2-1-2.4-1.9
		c1.5-0.1,2.5-0.2,3.5-0.2c15.1,0,30.2,0,45.4,0c1.8,0,2.5-0.5,3-2.2c4.6-14.5,9.3-29,13.9-43.5c0.2-0.7,0.5-1.3,1-2.6
		c1.2,3.5,2.2,6.4,3.1,9.3c3.9,12.2,7.9,24.3,11.7,36.5c0.7,2.1,1.7,2.6,3.7,2.6c14.4-0.1,28.8,0,43.2-0.1c1.4,0,2.9,0,4.3,0
		c0.1,0.2,0.2,0.5,0.3,0.7C554,59.8,540.4,69.7,526.8,79.7z"/>
	<path class="st1" d="M670.8,79.7c13.7-10,27.3-19.9,40.9-29.8c-0.1-0.2-0.2-0.5-0.3-0.7c-1.4,0-2.9,0-4.3,0
		c-14.4,0-28.8,0-43.2,0.1c-2,0-3-0.4-3.7-2.6c-3.8-12.2-7.7-24.3-11.7-36.5c-0.9-2.9-1.9-5.8-3.1-9.3c-0.5,1.4-0.8,2-1,2.6
		c-4.7,14.5-9.3,29-13.9,43.5c-0.5,1.6-1.2,2.2-3,2.2c-15.1-0.1-30.2,0-45.4,0c-1,0-1.9,0.1-3.5,0.2c1.2,0.9,1.8,1.4,2.4,1.9
		c12.1,8.8,24.3,17.7,36.5,26.5c1.9,1.4,2.4,2.5,1.6,4.8c-4.7,14.1-9.2,28.2-13.8,42.4c-0.2,0.7-0.4,1.4-0.7,2.8
		c1.3-0.9,2-1.3,2.7-1.8c12-8.7,24-17.3,35.9-26c1.5-1.1,2.5-1.2,4.1-0.1c12.1,8.8,24.2,17.6,36.3,26.3c0.6,0.4,1.3,0.8,1.9,1.3
		c0.2-0.1,0.3-0.2,0.5-0.4C681,111.3,675.9,95.5,670.8,79.7z"/>
	<path class="st1" d="M670.8,79.7c5.1,15.9,10.2,31.6,15.3,47.3c-0.2,0.1-0.3,0.2-0.5,0.4c-0.6-0.4-1.3-0.8-1.9-1.3
		c-12.1-8.8-24.3-17.5-36.3-26.3c-1.6-1.2-2.6-1-4.1,0.1c-11.9,8.7-23.9,17.4-35.9,26c-0.7,0.5-1.4,0.9-2.7,1.8
		c0.3-1.3,0.5-2.1,0.7-2.8c4.6-14.1,9-28.3,13.8-42.4c0.8-2.4,0.3-3.5-1.6-4.8C605.3,69,593.2,60.1,581,51.2c-0.6-0.5-1.2-1-2.4-1.9
		c1.5-0.1,2.5-0.2,3.5-0.2c15.1,0,30.2,0,45.4,0c1.8,0,2.5-0.5,3-2.2c4.6-14.5,9.3-29,13.9-43.5c0.2-0.7,0.5-1.3,1-2.6
		c1.2,3.5,2.2,6.4,3.1,9.3c3.9,12.2,7.9,24.3,11.7,36.5c0.7,2.1,1.7,2.6,3.7,2.6c14.4-0.1,28.8,0,43.2-0.1c1.4,0,2.9,0,4.3,0
		c0.1,0.2,0.2,0.5,0.3,0.7C698,59.8,684.4,69.7,670.8,79.7z"/>
	<path class="st1" d="M28.7,126.9c2.1-6.4,4.1-12.9,6.2-19.3c2.8-8.5,5.4-17,8.3-25.5c0.7-2,0.2-2.9-1.4-4.1
		C29.5,69.1,17.1,60,4.7,51c-0.5-0.4-1-0.8-2-1.6c1.7-0.1,2.9-0.2,4.1-0.2c14.8,0,29.6-0.1,44.4,0c2.1,0,2.8-0.7,3.4-2.6
		C59.1,32,63.8,17.5,68.5,3c0.2-0.5,0.4-1,0.9-2.2c1.2,3.6,2.2,6.6,3.2,9.6c4,12.3,7.9,24.6,11.8,36.9c0.5,1.7,1.5,1.7,2.8,1.7
		c14.8,0,29.6,0,44.4,0c1.3,0,2.5,0,3.8,0c0.1,0.2,0.1,0.5,0.2,0.7c-13.6,9.9-27.2,19.8-40.9,29.8c5.1,15.8,10.2,31.5,15.3,47.2
		c-0.2,0.2-0.3,0.3-0.5,0.5c-13.3-9.6-26.7-19.2-40.2-29c-13.4,9.6-26.7,19.3-40.1,29C29.1,127.2,28.9,127,28.7,126.9z"/>
	<path class="st1" d="M316.7,126.9c1.7-5.4,3.4-10.7,5.1-16.1c3.1-9.6,6.2-19.3,9.4-28.9c0.6-1.7,0.3-2.6-1.2-3.7
		c-12.5-9-24.8-18-37.2-27.1c-0.6-0.4-1.2-0.9-1.6-2c1.2,0,2.5,0,3.7,0c14.8,0,29.6,0,44.4,0c1.9,0,2.6-0.6,3.1-2.3
		c4.6-14.6,9.3-29.2,14-43.8c0.2-0.5,0.4-1,0.9-2.1c0.4,1.2,0.8,1.9,1,2.6c4.7,14.4,9.3,28.8,13.9,43.3c0.6,1.8,1.4,2.3,3.2,2.3
		c14.7-0.1,29.4,0,44.2,0c1.3,0,2.5,0,3.8,0c0.1,0.2,0.2,0.4,0.2,0.7c-13.6,9.9-27.3,19.9-40.9,29.8c5.1,15.9,10.2,31.6,15.3,47.3
		c-0.2,0.1-0.4,0.3-0.5,0.4c-13.3-9.6-26.6-19.2-40.1-29c-13.3,9.6-26.7,19.3-40.1,28.9C317.1,127.2,316.9,127.1,316.7,126.9z"/>
</g>
</svg>
