<?xml version="1.0" encoding="utf-8"?>
<!-- Generator: Adobe Illustrator 22.0.0, SVG Export Plug-In . SVG Version: 6.00 Build 0)  -->
<svg version="1.1" id="Layer_1" xmlns="http://www.w3.org/2000/svg" xmlns:xlink="http://www.w3.org/1999/xlink" x="0px" y="0px"
	 viewBox="0 0 44 38.8" style="enable-background:new 0 0 44 38.8;" xml:space="preserve">
<path d="M35.8,25.1c-2.1-2.1-4.6-3.7-7.4-4.6c2.9-2,4.9-5.4,4.9-9.2C33.3,5,28.2,0,22.1,0c-6.2,0-11.2,5-11.2,11.2
	c0,3.8,1.9,7.2,4.9,9.2c-2.7,0.9-5.3,2.5-7.4,4.6c-3.7,3.7-5.7,8.5-5.7,13.7h3c0-9,7.3-16.3,16.3-16.3s16.3,7.3,16.3,16.3h3
	C41.4,33.6,39.4,28.7,35.8,25.1z M22.1,19.4c-4.5,0-8.2-3.7-8.2-8.2S17.6,3,22.1,3s8.2,3.7,8.2,8.2C30.2,15.7,26.6,19.4,22.1,19.4z"
	/>
</svg>
