<?xml version="1.0" encoding="utf-8"?>
<!-- Generator: Adobe Illustrator 22.0.0, SVG Export Plug-In . SVG Version: 6.00 Build 0)  -->
<svg version="1.1" id="Layer_1" xmlns="http://www.w3.org/2000/svg" xmlns:xlink="http://www.w3.org/1999/xlink" x="0px" y="0px"
	 viewBox="0 0 256.5 205.8" style="enable-background:new 0 0 256.5 205.8;" xml:space="preserve">
<style type="text/css">
	.st0{fill:#FFFFFF;}
	.st1{fill:#DFDFDF;}
	.st2{fill:#8996A8;}
	.st3{fill:#31283A;}
	.st4{fill:#FFD6A1;}
	.st5{fill:#445265;}
	.st6{fill:#FFC15A;}
	.st7{fill:#2E2239;}
	.st8{fill:#FFD6A1;stroke:#FFBA5F;stroke-miterlimit:10;}
</style>
<g id="Layer_2_1_">
	<circle class="st0" cx="154.1" cy="103.4" r="102.4"/>
</g>
<g id="Layer_3">
	<ellipse class="st1" cx="114.9" cy="173.6" rx="114.4" ry="16.1"/>
</g>
<g id="Layer_4">
	<g>
		<g>
			<g>
				<g>
					<circle class="st2" cx="213.4" cy="143.5" r="28.1"/>
					<path class="st3" d="M213.4,177.9c-18.9,0-34.4-15.4-34.4-34.4c0-18.9,15.4-34.4,34.4-34.4s34.4,15.4,34.4,34.4
						C247.8,162.5,232.4,177.9,213.4,177.9z M213.4,121.7c-12,0-21.8,9.8-21.8,21.8s9.8,21.8,21.8,21.8s21.8-9.8,21.8-21.8
						S225.5,121.7,213.4,121.7z"/>
				</g>
				<g>
					<g>
						<path class="st4" d="M176.4,130.1l-0.9-0.3c3.3-10.8,11.1-19.5,21.8-23.9c7.2-2.9,15.1-3.5,22.7-1.7
							c5.9,1.4,11.1,4.1,15.6,7.9l0,0c-3.2,3.8-8.5,5-13,3c-1.2-0.5-2.5-1-3.8-1.4c-5.9-1.6-12.2-1.3-17.8,1s-10.2,6.2-13.3,11.1
							C185.2,129.7,180.6,131.4,176.4,130.1z"/>
					</g>
				</g>
				<g>
					<path class="st3" d="M200.4,143.5c0,7.2,5.8,13,13,13s13-5.8,13-13s-5.8-13-13-13C206.3,130.5,200.4,136.3,200.4,143.5z"/>
				</g>
			</g>
			<g>
				<g>
					<circle class="st2" cx="55.7" cy="144.5" r="28.1"/>
					<path class="st3" d="M55.7,178.8c-18.9,0-34.4-15.4-34.4-34.4S36.7,110,55.7,110s34.4,15.4,34.4,34.4S74.7,178.8,55.7,178.8z
						 M55.7,122.6c-12,0-21.8,9.8-21.8,21.8s9.8,21.8,21.8,21.8s21.8-9.8,21.8-21.8S67.8,122.6,55.7,122.6z"/>
				</g>
				<g>
					<circle class="st3" cx="55.7" cy="144.5" r="13"/>
				</g>
			</g>
			<g>
				<path class="st5" d="M213.4,149.8c-1.1,0-2.2-0.3-3.2-0.9c-8.2-4.9-14.3-12.6-17.2-21.7l-10-31.1c-1.1-3.3,0.7-6.8,4-7.9
					s6.8,0.7,7.9,4l10,31.1c2,6.2,6.2,11.5,11.7,14.8c3,1.8,3.9,5.6,2.1,8.6C217.6,148.7,215.5,149.8,213.4,149.8z"/>
			</g>
			<g>
				<path class="st4" d="M21,139.1c24.7,4.1,49.6,10.7,72,20h58.7c9.2,0,17.9-4,24-10.9l31.2-49.3l-18-55.2
					c-2.1-7.3-8.7-12.4-16.3-12.4H171l5.1,92.3c0.4,7.5-5.6,13.7-13,13.7l-39-0.5c-6.9-0.1-12.6-5.2-13.4-12.1l0,0
					c-1.5-12.7,3.9-25.3,14.2-32.9l0,0c6.1-4.5,2.9-14.2-4.7-14.1l-84.5,0.7c-10.8,6.2-20.2,14.3-28.4,24.1
					C-3.7,115.9,3.9,136.2,21,139.1z"/>
			</g>
			<g>
				<path class="st6" d="M175.7,127.6L175.7,127.6c-0.1,10.5-8.7,19-19.2,19h-26.7c-10.6,0-19.2-8.6-19.2-19.1c0-1.5,0-2.5,0-2.7
					c-1.5-12.7,3.9-25.3,14.2-32.9l0.6-0.6c5-5,1.4-13.6-5.7-13.5l0,0l0,0c0,6.9-5.6,12.4-12.4,12.4H33.6c-9.9,0-19.4,4.2-25.8,11.8
					c-0.2,0.2-0.3,0.4-0.5,0.6c-11,13.3-3.3,33.7,13.7,36.5c24.7,4.1,49.6,10.7,71.9,20h58.7c9.2,0,17.9-4,24-10.9l31.2-49.3
					C189.1,101.2,177.1,109.1,175.7,127.6z"/>
			</g>
			<g>
				<path class="st7" d="M34.9,78.7h92.2c4.6,0,8.3-3.7,8.3-8.3l0,0c0-4.6-3.7-8.3-8.3-8.3H48.9c-7.8,0-14.1,6.3-14.1,14.1
					L34.9,78.7L34.9,78.7z"/>
			</g>
			<g>
				<path class="st4" d="M171.1,34.3l20.5-1.2l-0.4-18.7l-7.3,0.4c-7.7,0.5-13.6,7.1-13.2,14.8L171.1,34.3z"/>
			</g>
			<g>
				<path class="st6" d="M171.3,25.1c-0.4,1.5-0.6,3-0.5,4.6l0.3,4.7l20.5-1.2l-0.2-8h-20.1V25.1z"/>
			</g>
			<g>
				<path class="st3" d="M159.4,32.2l10.7,7.6c2.9,2.1,7,1.4,9-1.5l0,0c2.1-2.9,1.4-7-1.5-9l-10.7-7.6c-2.9-2.1-7-1.4-9,1.5l0,0
					C155.8,26.1,156.5,30.1,159.4,32.2z"/>
			</g>
			<g>
				<path class="st2" d="M150.5,34.2c-2.2,0-4.2-1.5-4.7-3.8c-0.6-2.6,1.1-5.1,3.7-5.7l11.3-2.4c2.6-0.6,5.1,1.1,5.7,3.7
					c0.6,2.6-1.1,5.1-3.7,5.7l-11.3,2.4C151.2,34.1,150.8,34.2,150.5,34.2z"/>
			</g>
			<g>
				<circle class="st3" cx="213.4" cy="143.5" r="3.6"/>
			</g>
			<g>
				<path class="st8" d="M36.4,119.4c1.9,0,3.7-0.7,5.1-1.9c4.4-3.6,10-5.8,16.1-5.8l0,0c6.1,0,11.7,2.2,16.1,5.8
					c1.4,1.2,3.2,1.9,5.1,1.9h0.4c3.3,0,5-3.9,2.7-6.3c-6.1-6.5-14.8-10.5-24.4-10.5l0,0c-9.6,0-18.3,4-24.4,10.5
					c-2.3,2.4-0.5,6.3,2.7,6.3H36.4z"/>
			</g>
		</g>
	</g>
</g>
</svg>
