<svg xmlns="http://www.w3.org/2000/svg" height="759pt" version="1.1" viewBox="-68 0 759 759.99703" width="759pt">
<g id="surface1">
<path d="M 191.480469 160.730469 L 166.847656 185.375 C 164.320312 187.910156 162.996094 191.417969 163.238281 194.996094 C 163.480469 198.574219 165.25 201.878906 168.09375 204.0625 L 273.507812 283.917969 L 216.847656 342.3125 L 154.179688 318.832031 C 149.601562 317.097656 144.433594 318.210938 140.96875 321.671875 L 128.734375 333.90625 C 126.207031 336.441406 124.894531 339.957031 125.128906 343.53125 C 125.367188 347.109375 127.136719 350.410156 129.984375 352.59375 L 191.007812 398.691406 L 201.097656 408.757812 L 245.847656 468.460938 C 248.015625 471.367188 251.332031 473.1875 254.945312 473.441406 L 255.816406 473.441406 C 259.121094 473.457031 262.296875 472.136719 264.625 469.792969 L 276.859375 457.558594 C 280.289062 454.125 281.417969 449.023438 279.75 444.464844 L 257.148438 382.816406 L 315.535156 326.167969 L 394.445312 430.324219 C 396.625 433.191406 399.9375 434.988281 403.527344 435.246094 C 407.105469 435.421875 410.601562 434.105469 413.1875 431.621094 L 437.804688 407.054688 C 441.363281 403.484375 442.425781 398.125 440.496094 393.46875 L 385.472656 260.867188 L 435.695312 217.152344 C 436.496094 216.464844 437.175781 215.820312 437.765625 215.222656 C 448.960938 204.054688 452.1875 187.175781 445.894531 172.664062 C 439.601562 158.15625 425.078125 148.972656 409.273438 149.511719 C 398.589844 149.886719 388.542969 154.660156 381.5 162.695312 L 337.660156 213.050781 L 205.054688 158.085938 C 200.414062 156.140625 195.058594 157.183594 191.480469 160.730469 Z M 350.589844 236.171875 L 400.289062 179.101562 C 402.761719 176.242188 406.316406 174.550781 410.09375 174.425781 C 413.863281 174.15625 417.5625 175.609375 420.140625 178.386719 C 422.691406 180.933594 424.117188 184.398438 424.097656 188.011719 C 424.039062 191.914062 422.359375 195.613281 419.460938 198.226562 L 362.351562 247.9375 C 358.3125 251.453125 356.96875 257.15625 359.015625 262.105469 L 414.246094 395.289062 L 405.683594 403.859375 L 326.921875 299.894531 C 324.761719 297.046875 321.496094 295.265625 317.933594 294.996094 C 314.382812 294.722656 310.878906 295.988281 308.320312 298.472656 L 233.886719 370.734375 C 230.484375 374.140625 229.351562 379.210938 230.988281 383.742188 L 247.691406 429.3125 L 220.488281 393.058594 C 220.136719 392.585938 219.75 392.140625 219.335938 391.726562 L 208.039062 380.402344 C 207.628906 379.984375 207.1875 379.605469 206.730469 379.253906 L 169.484375 351.144531 L 215.757812 368.585938 C 220.507812 370.371094 225.851562 369.101562 229.289062 365.390625 L 301.253906 291.230469 C 303.738281 288.671875 304.996094 285.164062 304.722656 281.609375 C 304.449219 278.054688 302.664062 274.789062 299.820312 272.632812 L 194.582031 192.898438 L 203.226562 184.261719 L 336.410156 239.492188 C 341.359375 241.550781 347.066406 240.214844 350.589844 236.171875 Z M 350.589844 236.171875 " style=" stroke:none;fill-rule:nonzero;fill:#fff;fill-opacity:1;" />
<path d="M 75.25 299.019531 C 75.25 429.757812 181.226562 535.734375 311.972656 535.734375 C 442.710938 535.734375 548.6875 429.757812 548.6875 299.019531 C 548.6875 168.285156 442.710938 62.300781 311.972656 62.300781 C 181.289062 62.449219 75.394531 168.347656 75.25 299.019531 Z M 523.769531 299.019531 C 523.769531 415.996094 428.9375 510.816406 311.972656 510.816406 C 195 510.816406 100.167969 415.996094 100.167969 299.019531 C 100.167969 182.046875 195 87.21875 311.972656 87.21875 C 428.886719 87.351562 523.644531 182.097656 523.769531 299.019531 Z M 523.769531 299.019531 " style=" stroke:none;fill-rule:nonzero;fill:#fff;fill-opacity:1;" />
<path d="M 614 75.136719 L 314.988281 0.382812 C 313.011719 -0.128906 310.925781 -0.128906 308.949219 0.382812 L 9.9375 75.136719 C 4.394531 76.515625 0.5 81.5 0.5 87.21875 L 0.5 203.234375 C 0.503906 386.460938 79.597656 560.769531 217.496094 681.421875 L 303.769531 756.921875 C 308.460938 761.023438 315.476562 761.023438 320.167969 756.921875 L 406.441406 681.421875 C 544.339844 560.769531 623.433594 386.460938 623.4375 203.234375 L 623.4375 87.21875 C 623.4375 81.5 619.550781 76.515625 614 75.136719 Z M 598.523438 203.234375 C 598.523438 379.277344 522.527344 546.75 390.050781 662.667969 L 311.972656 730.984375 L 233.886719 662.667969 C 101.410156 546.75 25.414062 379.277344 25.414062 203.234375 L 25.414062 96.949219 L 311.972656 25.3125 L 598.523438 96.949219 Z M 598.523438 203.234375 " style=" stroke:none;fill-rule:nonzero;fill:#fff;fill-opacity:1;" />
</g>
</svg>