<?xml version="1.0" encoding="utf-8"?>
<!-- Generator: Adobe Illustrator 22.0.0, SVG Export Plug-In . SVG Version: 6.00 Build 0)  -->
<svg version="1.1" xmlns="http://www.w3.org/2000/svg" xmlns:xlink="http://www.w3.org/1999/xlink" x="0px" y="0px"
	 viewBox="0 0 256.5 205.8" style="enable-background:new 0 0 256.5 205.8;" xml:space="preserve">
<style type="text/css">
	.st0{fill:#FFFFFF;}
	.st1{fill:#DFDFDF;}
	.st2{fill:#A1AABF;}
	.st3{fill:#2E2239;}
	.st4{fill:#8996A8;}
	.st5{fill:#B7282F;}
	.st6{fill:#E4483F;}
	.st7{fill:#A9E7E8;}
	.st8{fill:#88ADB8;}
	.st9{fill:#AAC2CB;}
</style>
<g id="Layer_1">
	<g id="Layer_2_1_">
		<circle class="st0" cx="154.1" cy="103.4" r="102.4"/>
	</g>
	<g id="Layer_3">
		<ellipse class="st1" cx="114.9" cy="173.6" rx="114.4" ry="16.1"/>
	</g>
</g>
<g id="Layer_2">
	<g>
		<g>
			<path class="st2" d="M244.6,177.4H5.1c-1.1,0-2-0.9-2-2c0-1.1,0.9-2,2-2h239.5c1.1,0,2,0.9,2,2
				C246.6,176.5,245.7,177.4,244.6,177.4z"/>
		</g>
		<g>
			<g>
				<g>
					<path class="st3" d="M210.4,177.6c-0.2,0-0.3,0-0.5,0c-20.6-0.3-37.1-17.2-36.8-37.8c0.3-20.6,17.2-37.1,37.8-36.8
						c20.6,0.3,37.1,17.2,36.8,37.8c-0.1,10-4.1,19.3-11.3,26.2C229.4,173.9,220.1,177.6,210.4,177.6z M210.3,112.3
						c-7.3,0-14.3,2.8-19.5,7.9c-5.4,5.2-8.4,12.2-8.4,19.7c-0.1,7.5,2.7,14.5,7.9,19.9c5.2,5.4,12.2,8.3,19.7,8.4
						c7.5,0.1,14.5-2.7,19.9-7.9c5.4-5.2,8.4-12.2,8.4-19.7c0.2-15.4-12.2-28.1-27.6-28.3C210.6,112.3,210.5,112.3,210.3,112.3z"/>
				</g>
				<g>
					<path class="st4" d="M210.4,168.5c-0.1,0-0.2,0-0.4,0c-15.5-0.2-28-13-27.8-28.5c0.2-15.5,13-27.9,28.5-27.8
						c7.5,0.1,14.5,3.1,19.8,8.5c5.2,5.4,8.1,12.5,8,20C238.3,156.1,225.7,168.5,210.4,168.5z M186.9,140
						c-0.2,12.9,10.2,23.6,23.2,23.8c12.9,0.1,23.6-10.2,23.8-23.2c0.1-6.3-2.3-12.2-6.7-16.7c-4.4-4.5-10.2-7-16.5-7.1
						C197.7,116.6,187,127.1,186.9,140L186.9,140z"/>
				</g>
				<g>
					<path class="st4" d="M201.6,140.2c-0.1,4.8,3.8,8.8,8.7,8.9c4.8,0.1,8.8-3.8,8.9-8.7c0.1-4.8-3.8-8.8-8.7-8.9
						C205.6,131.5,201.6,135.4,201.6,140.2z"/>
				</g>
				<g>
					<g>
						<g>
							
								<rect x="205" y="150.2" transform="matrix(1.281027e-02 -0.9999 0.9999 1.281027e-02 61.3309 367.1409)" class="st4" width="23.3" height="4.7"/>
						</g>
						<g>
							
								<rect x="192.2" y="150" transform="matrix(1.281027e-02 -0.9999 0.9999 1.281027e-02 48.8713 354.195)" class="st4" width="23.3" height="4.7"/>
						</g>
					</g>
					<g>
						<g>
							
								<rect x="221.5" y="126.5" transform="matrix(0.3211 -0.9471 0.9471 0.3211 21.1789 305.8072)" class="st4" width="4.7" height="23.3"/>
						</g>
						<g>
							
								<rect x="217.4" y="138.6" transform="matrix(0.3211 -0.9471 0.9471 0.3211 6.9232 310.1424)" class="st4" width="4.7" height="23.3"/>
						</g>
					</g>
					<g>
						<g>
							
								<rect x="200.8" y="124.4" transform="matrix(0.5981 -0.8014 0.8014 0.5981 -16.2149 221.2009)" class="st4" width="23.3" height="4.7"/>
						</g>
						<g>
							
								<rect x="211.1" y="132.1" transform="matrix(0.5981 -0.8014 0.8014 0.5981 -18.2221 232.4936)" class="st4" width="23.3" height="4.7"/>
						</g>
					</g>
					<g>
						<g>
							
								<rect x="195.8" y="122.5" transform="matrix(0.8164 -0.5774 0.5774 0.8164 -41.0804 139.0217)" class="st4" width="4.7" height="23.3"/>
						</g>
						<g>
							
								<rect x="206.2" y="115.1" transform="matrix(0.8164 -0.5774 0.5774 0.8164 -34.8999 143.6957)" class="st4" width="4.7" height="23.3"/>
						</g>
					</g>
					<g>
						<g>
							
								<rect x="189" y="147.7" transform="matrix(0.9549 -0.2969 0.2969 0.9549 -35.4978 66.3537)" class="st4" width="23.3" height="4.7"/>
						</g>
						<g>
							
								<rect x="185.2" y="135.5" transform="matrix(0.9549 -0.2969 0.2969 0.9549 -32.0438 64.6777)" class="st4" width="23.3" height="4.7"/>
						</g>
					</g>
				</g>
			</g>
			<g>
				<g>
					<g>
						<path class="st3" d="M210.4,158.9c-0.1,0-0.2,0-0.2,0c-10.2-0.1-18.4-8.6-18.3-18.8l0,0c0.1-10.2,8.6-18.4,18.8-18.3
							c5,0.1,9.6,2.1,13,5.6c3.5,3.5,5.3,8.2,5.3,13.2c-0.1,5-2.1,9.6-5.6,13C219.8,157,215.2,158.9,210.4,158.9z M195,140.1
							c-0.1,8.5,6.7,15.4,15.1,15.5c0.1,0,0.1,0,0.2,0c8.4,0,15.2-6.8,15.3-15.1c0.1-4.1-1.5-8-4.4-10.9c-2.9-2.9-6.7-4.6-10.8-4.6
							C202.1,124.9,195.1,131.7,195,140.1L195,140.1z"/>
					</g>
				</g>
				<g>
					<g>
						<path class="st3" d="M210.4,153.1c-0.1,0-0.1,0-0.2,0c-3.4,0-6.6-1.4-9-3.9c-2.4-2.5-3.7-5.7-3.6-9.1
							c0.1-7,5.8-12.7,12.8-12.7c0.1,0,0.1,0,0.2,0c3.4,0,6.6,1.4,9,3.9c2.4,2.5,3.7,5.7,3.6,9.1c0,3.4-1.4,6.6-3.9,9
							C216.9,151.8,213.7,153.1,210.4,153.1z M210.3,129.7c-5.8,0-10.5,4.7-10.6,10.5c0,2.8,1,5.5,3,7.5c2,2,4.6,3.2,7.5,3.2
							c2.8,0,5.5-1,7.5-3c2-2,3.2-4.6,3.2-7.5c0.1-5.8-4.6-10.7-10.5-10.7C210.4,129.7,210.4,129.7,210.3,129.7z"/>
					</g>
				</g>
				<g>
					<g>
						<path class="st3" d="M210.1,157c-1.3,0-2.5-0.2-3.7-0.5l1.2-5.1c0.8,0.2,1.7,0.3,2.6,0.3L210.1,157z M213.8,156.7l-1.1-5.1
							c0.8-0.2,1.7-0.5,2.4-0.8l2.2,4.7C216.3,156,215.1,156.4,213.8,156.7z M202.9,155.3c-1.1-0.6-2.2-1.2-3.1-2l3.3-4
							c0.7,0.5,1.4,1,2.2,1.4L202.9,155.3z M220.6,153.5l-3.2-4.1c0.7-0.5,1.3-1.1,1.9-1.8l4,3.3
							C222.5,151.9,221.6,152.8,220.6,153.5z M197.1,150.6c-0.8-1-1.4-2.1-2-3.2l4.7-2.2c0.4,0.8,0.8,1.5,1.3,2.2L197.1,150.6z
							 M225.3,147.8l-4.7-2.3c0.4-0.8,0.7-1.6,0.9-2.4l5.1,1.2C226.3,145.5,225.9,146.7,225.3,147.8z M194,143.8
							c-0.2-1.1-0.4-2.3-0.4-3.5l0-0.4l1.9,0.1l3.3,0l0,0.1h0l0,0.2c0,0.8,0.1,1.6,0.3,2.4L194,143.8z M227.1,140.7l-2.2-0.1l-3,0
							l0-0.1h0l0-0.2c0-0.8-0.1-1.6-0.2-2.4l5.1-1.1c0.2,1.1,0.4,2.3,0.4,3.5L227.1,140.7z M199.2,137.6l-5.1-1.2
							c0.3-1.2,0.7-2.4,1.3-3.5l4.7,2.4C199.7,135.9,199.4,136.7,199.2,137.6z M220.8,135.5c-0.4-0.8-0.8-1.5-1.3-2.2l4.1-3.2
							c0.8,1,1.4,2.1,1.9,3.2L220.8,135.5z M201.5,133l-4-3.3c0.8-1,1.7-1.8,2.7-2.6l3.2,4.1C202.6,131.7,202,132.3,201.5,133z
							 M217.7,131.4c-0.7-0.5-1.4-1-2.2-1.4l2.3-4.7c1.1,0.6,2.2,1.2,3.1,2L217.7,131.4z M205.5,129.9l-2.2-4.7
							c1.1-0.5,2.3-0.9,3.6-1.2l1.1,5.1C207.1,129.2,206.3,129.5,205.5,129.9z M213.1,129.1c-0.8-0.2-1.7-0.3-2.6-0.3l0.1-5.2
							c1.3,0,2.5,0.2,3.7,0.5L213.1,129.1z"/>
					</g>
				</g>
			</g>
			<g>
				
					<rect x="192.8" y="71.3" transform="matrix(0.9282 -0.3722 0.3722 0.9282 -25.7068 81.0249)" class="st5" width="8.4" height="71.6"/>
			</g>
			<g>
				<path class="st3" d="M204,140.2c0,3.5,2.8,6.4,6.3,6.5c3.5,0,6.4-2.8,6.5-6.3c0-3.5-2.8-6.4-6.3-6.5S204,136.7,204,140.2z"/>
			</g>
			<g>
				<g>
					<path class="st3" d="M41.4,177.4c-0.2,0-0.3,0-0.5,0c-21.6-0.3-39-18.1-38.7-39.7l0,0c0.3-21.6,18-38.9,39.7-38.7
						c21.6,0.3,39,18.1,38.7,39.7c-0.1,10.5-4.3,20.3-11.8,27.6C61.4,173.4,51.7,177.4,41.4,177.4z M15.3,137.8
						c-0.2,14.4,11.4,26.3,25.8,26.4c7,0.1,13.6-2.5,18.6-7.4c5-4.9,7.8-11.4,7.9-18.4c0.2-14.4-11.4-26.3-25.8-26.4
						c-0.1,0-0.2,0-0.3,0C27.1,112.1,15.4,123.6,15.3,137.8L15.3,137.8z"/>
				</g>
				<g>
					<path class="st4" d="M41.4,166.3c-0.1,0-0.2,0-0.4,0c-15.5-0.2-28-13-27.8-28.5c0.1-7.5,3.1-14.5,8.5-19.8
						c5.4-5.2,12.5-8.1,20-8c7.5,0.1,14.5,3.1,19.8,8.5c5.2,5.4,8.1,12.5,8,20C69.3,153.9,56.7,166.3,41.4,166.3z M17.9,137.9
						c-0.2,12.9,10.2,23.6,23.2,23.8c12.9,0.2,23.6-10.2,23.8-23.2c0.1-6.3-2.3-12.2-6.7-16.7c-4.4-4.5-10.2-7-16.5-7.1
						c-6.3-0.1-12.2,2.3-16.7,6.7C20.5,125.7,18,131.6,17.9,137.9L17.9,137.9z"/>
				</g>
				<g>
					<path class="st4" d="M32.6,138.1c-0.1,4.8,3.8,8.8,8.7,8.9c4.8,0.1,8.8-3.8,8.9-8.7c0.1-4.8-3.8-8.8-8.7-8.9
						C36.6,129.3,32.6,133.2,32.6,138.1z"/>
				</g>
				<g>
					<g>
						<g>
							
								<rect x="36" y="148" transform="matrix(1.284013e-02 -0.9999 0.9999 1.284013e-02 -103.3383 196.0496)" class="st4" width="23.3" height="4.7"/>
						</g>
						<g>
							
								<rect x="23.2" y="147.9" transform="matrix(1.283975e-02 -0.9999 0.9999 1.283975e-02 -115.7986 183.1034)" class="st4" width="23.3" height="4.7"/>
						</g>
					</g>
					<g>
						<g>
							
								<rect x="52.6" y="124.3" transform="matrix(0.3211 -0.9471 0.9471 0.3211 -91.5122 144.3147)" class="st4" width="4.7" height="23.3"/>
						</g>
						<g>
							
								<rect x="48.5" y="136.5" transform="matrix(0.3211 -0.9471 0.9471 0.3211 -105.7689 148.6479)" class="st4" width="4.7" height="23.3"/>
						</g>
					</g>
					<g>
						<g>
							
								<rect x="31.8" y="122.3" transform="matrix(0.5981 -0.8014 0.8014 0.5981 -82.3998 84.9199)" class="st4" width="23.3" height="4.7"/>
						</g>
						<g>
							
								<rect x="42.1" y="129.9" transform="matrix(0.5981 -0.8014 0.8014 0.5981 -84.4094 96.2054)" class="st4" width="23.3" height="4.7"/>
						</g>
					</g>
					<g>
						<g>
							
								<rect x="26.8" y="120.3" transform="matrix(0.8164 -0.5774 0.5774 0.8164 -70.8595 41.0509)" class="st4" width="4.7" height="23.3"/>
						</g>
						<g>
							
								<rect x="37.2" y="113" transform="matrix(0.8164 -0.5774 0.5774 0.8164 -64.6788 45.7236)" class="st4" width="4.7" height="23.3"/>
						</g>
					</g>
					<g>
						<g>
							
								<rect x="20.1" y="145.5" transform="matrix(0.9549 -0.2969 0.2969 0.9549 -42.4773 16.0799)" class="st4" width="23.3" height="4.7"/>
						</g>
						<g>
							
								<rect x="16.3" y="133.3" transform="matrix(0.9549 -0.2969 0.2969 0.9549 -39.0229 14.4021)" class="st4" width="23.3" height="4.7"/>
						</g>
					</g>
				</g>
				<g>
					<g>
						<g>
							<path class="st3" d="M41.4,156.7c-0.1,0-0.2,0-0.2,0c-5-0.1-9.6-2.1-13-5.6c-3.5-3.5-5.3-8.2-5.3-13.2l1.6,0l-1.6,0
								c0.1-10.2,8.6-18.5,18.8-18.3c5,0.1,9.6,2.1,13,5.6c3.5,3.5,5.3,8.2,5.3,13.2C59.8,148.5,51.5,156.7,41.4,156.7z M41.4,122.8
								c-8.4,0-15.2,6.8-15.3,15.1l0,0c-0.1,4.1,1.5,8,4.4,10.9c2.9,2.9,6.7,4.6,10.8,4.6c8.4,0.1,15.4-6.7,15.5-15.1
								c0.1-8.5-6.7-15.4-15.1-15.5C41.5,122.8,41.4,122.8,41.4,122.8z"/>
						</g>
					</g>
					<g>
						<g>
							<path class="st3" d="M41.4,151c-0.1,0-0.1,0-0.2,0c-7.1-0.1-12.8-5.9-12.7-13l0,0c0.1-7.1,6-12.7,13-12.7
								c3.4,0,6.6,1.4,9,3.9c2.4,2.5,3.7,5.7,3.6,9.1c0,3.4-1.4,6.6-3.9,9C47.9,149.7,44.7,151,41.4,151z M30.8,138
								c-0.1,5.8,4.6,10.7,10.5,10.7c2.8,0.1,5.5-1,7.5-3c2-2,3.2-4.6,3.2-7.5c0-2.8-1-5.5-3-7.5c-2-2-4.6-3.2-7.5-3.2
								C35.6,127.5,30.8,132.2,30.8,138L30.8,138z"/>
						</g>
					</g>
					<g>
						<g>
							<path class="st3" d="M41.1,154.9c-1.3,0-2.5-0.2-3.7-0.5l1.2-5.1c0.8,0.2,1.7,0.3,2.6,0.3L41.1,154.9z M44.9,154.5l-1.1-5.1
								c0.8-0.2,1.7-0.5,2.4-0.8l2.2,4.7C47.3,153.9,46.1,154.3,44.9,154.5z M33.9,153.1c-1.1-0.6-2.2-1.2-3.1-2l3.3-4
								c0.7,0.5,1.4,1,2.2,1.4L33.9,153.1z M51.6,151.4l-3.2-4.1c0.7-0.5,1.3-1.1,1.9-1.8l4,3.3C53.5,149.8,52.6,150.6,51.6,151.4z
								 M28.1,148.4c-0.8-1-1.4-2.1-2-3.2l4.7-2.2c0.4,0.8,0.8,1.5,1.3,2.2L28.1,148.4z M56.3,145.6l-4.7-2.3
								c0.4-0.8,0.7-1.6,0.9-2.4l5.1,1.2C57.3,143.3,56.9,144.5,56.3,145.6z M25,141.7c-0.2-1.1-0.4-2.3-0.4-3.5l0-0.2l5.2,0l0,0.2
								l0,0.1c0,0.8,0.1,1.6,0.3,2.4L25,141.7z M58.1,138.5l-2.2-0.1l-3,0l0-0.1h0l0-0.2c0-0.8-0.1-1.6-0.2-2.4l5.1-1.1
								c0.2,1.1,0.4,2.3,0.4,3.5L58.1,138.5z M30.2,135.4l-5.1-1.2c0.3-1.2,0.7-2.4,1.3-3.5l4.7,2.4
								C30.7,133.8,30.4,134.6,30.2,135.4z M51.8,133.3c-0.4-0.8-0.8-1.5-1.3-2.2l4.1-3.2c0.8,1,1.4,2.1,1.9,3.2L51.8,133.3z
								 M32.5,130.8l-4-3.3c0.8-1,1.7-1.8,2.7-2.6l3.2,4.1C33.7,129.6,33,130.2,32.5,130.8z M48.7,129.3c-0.7-0.5-1.4-1-2.2-1.4
								l2.3-4.7c1.1,0.6,2.2,1.2,3.1,2L48.7,129.3z M36.5,127.7l-2.2-4.7c1.1-0.5,2.3-0.9,3.6-1.2l1.1,5.1
								C38.1,127.1,37.3,127.4,36.5,127.7z M44.1,127c-0.8-0.2-1.7-0.3-2.6-0.3l0.1-5.2c1.3,0,2.5,0.2,3.7,0.5L44.1,127z"/>
						</g>
					</g>
				</g>
				<g>
					<path class="st3" d="M41.5,129.8l67.1-9.3l-0.2,19.4l-65.3,4.9c-4.4,0.3-8.1-3.2-8.1-7.6l0,0C35,133.5,37.8,130.4,41.5,129.8z"
						/>
					<path class="st4" d="M42.5,145.8c-2.1,0-4.2-0.8-5.8-2.3c-1.7-1.6-2.7-3.9-2.7-6.3c0.1-4.2,3.1-7.7,7.3-8.3l68.2-9.4l-0.3,21.3
						l-66.1,5C43,145.8,42.7,145.8,42.5,145.8z M107.7,121.6l-66.1,9.1c-3.3,0.5-5.6,3.2-5.7,6.4c0,1.9,0.7,3.6,2.1,4.9
						c1.4,1.3,3.1,1.9,5,1.8l64.4-4.8L107.7,121.6z"/>
				</g>
			</g>
			<g>
				<path class="st6" d="M232.7,105.6c-9.6-8-23.8-9.3-33.9-5.3l9.6,24l7.6-17.7L232.7,105.6z"/>
			</g>
			<g>
				<path class="st3" d="M21.6,86.1c16.1-1.7,32.1-0.4,48,4.3l-4.5-12.9c-16.1-1.8-32.8-0.2-50,4L21.6,86.1z"/>
			</g>
			<g>
				<path class="st6" d="M95.5,158.6l73,0.9l8.7-38.5c8.4-10.7,23.9-19.9,37.1-25.2c4.1-1.6,5.9-6.4,4-10.4
					c-7-14.7-18.5-26.4-28.9-31.5l-11.7,8.6c11.9,6.3,19.2,9,24.4,16.9L175,79.7L173.2,69l-22.8-3.9c-12.8-2.2-25.4,4.7-30.5,16.7
					l-2.2,5.2c-20.5,3.5-41.2-4.7-50.1-22.7c-7.8-3.2-16.6-3.8-26.1-2.9l9.3,5.1c8.4,15.6,23.6,35.4,45,46.6l-13.4,39.5L95.5,158.6z
					"/>
			</g>
			<g>
				<path class="st7" d="M211.9,84.1l6.4,1.2c-7-14.6-18.4-26.3-28.9-31.4l-7,5.1C198.5,66.4,202.5,69.4,211.9,84.1z"/>
			</g>
			<g>
				<path class="st5" d="M183.5,85.5c-1-1,15.9-5.1,14.8-6L175,79.7l-6.2,1.2c-40.5-6.1-42.1,11.2-51.4,14
					c-32.7-3.4-48.2-21.1-49.2-23l-17.3-5.5c8.1,15,22.5,34,42.7,45.3l34.1-7.6C143.6,93,180.2,86.6,183.5,85.5z"/>
			</g>
			<g>
				<polygon class="st5" points="86.3,141.2 82.4,152.5 95.5,158.6 168.5,159.5 171.2,147.7 131.8,141.7 				"/>
			</g>
			<g>
				<polygon class="st8" points="106.5,144 85.7,142.8 82.4,152.5 95.5,158.6 134.3,159.1 				"/>
			</g>
			<g>
				<path class="st3" d="M117.4,95l0.1-8C97,90.3,76.6,82.2,67.7,64.2l0.5,7.8C78.2,92.4,102.1,106.3,117.4,95z"/>
			</g>
			<g>
				<polygon class="st3" points="203.6,83.3 201.8,79.5 175,79.7 173.2,69 168.8,80.9 183.5,85.5 				"/>
			</g>
			<g>
				<path class="st3" d="M86.1,136.4l50.5,0.6c0.8-14-1.4-25.6-8.9-32.8l-46.3-0.6L86.1,136.4z"/>
			</g>
			<g>
				<path class="st5" d="M119.7,132.7C119.7,132.7,119.7,132.7,119.7,132.7l-16.5-0.2c-1.3,0-2.3-1.1-2.3-2.4c0-1.3,1.1-2.3,2.3-2.3
					c0,0,0,0,0,0l16.5,0.2c1.3,0,2.3,1.1,2.3,2.4C122,131.7,121,132.7,119.7,132.7z"/>
			</g>
			<g>
				
					<ellipse transform="matrix(0.716 -0.6981 0.6981 0.716 -58.1748 128.3461)" class="st7" cx="128.7" cy="135.7" rx="10" ry="10"/>
				<path class="st6" d="M128.7,147.1c0,0-0.1,0-0.1,0c-3,0-5.9-1.3-8-3.4c-2.1-2.2-3.3-5-3.2-8.1l0,0c0-3,1.3-5.9,3.4-8
					c2.2-2.1,5.1-3.3,8.1-3.2c3,0,5.9,1.3,8,3.4c2.1,2.2,3.3,5,3.2,8.1c0,3-1.3,5.9-3.4,8C134.5,145.9,131.7,147.1,128.7,147.1z
					 M120.1,135.6c0,2.3,0.8,4.5,2.4,6.1s3.7,2.6,6,2.6c4.7,0.1,8.6-3.7,8.7-8.5c0-2.3-0.8-4.5-2.4-6.1c-1.6-1.6-3.7-2.6-6-2.6
					c-2.3-0.1-4.5,0.8-6.1,2.4C121,131.1,120.1,133.3,120.1,135.6L120.1,135.6z"/>
			</g>
			<g>
				<path class="st4" d="M179.6,85.9l9.8-1.1c2.7-0.3,4.6-2.7,4.3-5.4l0,0c-0.3-2.7-2.7-4.6-5.4-4.3l-9.8,1.1
					c-2.7,0.3-4.6,2.7-4.3,5.4l0,0C174.5,84.3,176.9,86.2,179.6,85.9z"/>
			</g>
			<g>
				<path class="st3" d="M173.7,91.9c-1.1,0-2.3-0.5-3-1.6c-1.1-1.6-0.7-3.9,0.9-5l8.8-6.1c1.6-1.1,3.9-0.7,5,0.9
					c1.1,1.6,0.7,3.9-0.9,5l-8.8,6.1C175.1,91.7,174.4,91.9,173.7,91.9z"/>
			</g>
			<g>
				<g>
					
						<rect x="93.4" y="94.1" transform="matrix(1.270800e-02 -0.9999 0.9999 1.270800e-02 -13.592 200.5369)" class="st4" width="2.8" height="26.2"/>
				</g>
				<g>
					
						<rect x="94.2" y="100" transform="matrix(1.269739e-02 -0.9999 0.9999 1.269739e-02 -17.6913 206.3072)" class="st4" width="2.8" height="24.3"/>
				</g>
				<g>
					
						<rect x="95.1" y="105.9" transform="matrix(1.269825e-02 -0.9999 0.9999 1.269825e-02 -21.7916 212.0762)" class="st4" width="2.8" height="22.4"/>
				</g>
				<g>
					
						<rect x="96" y="111.8" transform="matrix(1.269162e-02 -0.9999 0.9999 1.269162e-02 -25.8913 217.8461)" class="st4" width="2.8" height="20.6"/>
				</g>
			</g>
			<g>
				<g>
					
						<rect x="119.5" y="99.1" transform="matrix(1.271653e-02 -0.9999 0.9999 1.271653e-02 11.9079 227.028)" class="st4" width="2.8" height="16.8"/>
				</g>
				<g>
					
						<rect x="118.5" y="104.9" transform="matrix(1.271958e-02 -0.9999 0.9999 1.271958e-02 5.9866 230.905)" class="st4" width="2.8" height="14.9"/>
				</g>
				<g>
					
						<rect x="117.5" y="110.8" transform="matrix(1.270230e-02 -0.9999 0.9999 1.270230e-02 6.708910e-02 234.7837)" class="st4" width="2.8" height="13.1"/>
				</g>
				<g>
					
						<rect x="116.5" y="116.7" transform="matrix(1.275391e-02 -0.9999 0.9999 1.275391e-02 -5.8602 238.6552)" class="st4" width="2.8" height="11.2"/>
				</g>
			</g>
			<g>
				<path class="st9" d="M88.4,136.3c-0.4,0-0.8,0-1.2-0.2c-10.6-2.6-10.4-11.5-10.4-16.3c0.1-5-0.2-5.1-1.8-5.5
					c-2.8-0.7-4.4-3.5-3.8-6.2c0.7-2.8,3.5-4.4,6.2-3.8c9.9,2.4,9.7,11,9.7,15.6c-0.1,5.5,0.4,5.6,2.5,6.2c2.8,0.7,4.4,3.5,3.8,6.2
					C92.8,134.7,90.7,136.3,88.4,136.3z"/>
			</g>
			<g>
				<polygon class="st5" points="134.9,116.5 160,106.6 177.9,109.9 158.9,102.3 131.4,108.7 				"/>
			</g>
		</g>
	</g>
</g>
</svg>
