<?xml version="1.0" encoding="iso-8859-1"?>
<!-- Generator: Adobe Illustrator 19.0.0, SVG Export Plug-In . SVG Version: 6.00 Build 0)  -->
<svg fill="#fff" version="1.1" id="Capa_1" xmlns="http://www.w3.org/2000/svg" xmlns:xlink="http://www.w3.org/1999/xlink" x="0px" y="0px"
	 viewBox="0 0 360.4 360.4" style="enable-background:new 0 0 360.4 360.4;" xml:space="preserve">
<g>
	<g>
		<path d="M256.597,0h-152.8c-21.2,0-38,17.2-38,38v284.4c0,21.2,17.2,38,38,38h152.8c21.2,0,38-17.2,38-38v-284
			C294.997,17.2,277.797,0,256.597,0z M282.197,322.4c0,14-11.6,25.6-25.6,25.6h-152.8c-14,0-25.6-11.6-25.6-25.6v-29.2h204V322.4z
			 M282.197,280.8h-204V63.6h204V280.8z M282.197,51.2h-204V38.4c0-14,11.6-25.6,25.6-25.6h152.8c14,0,25.6,11.6,25.6,25.6V51.2z"/>
	</g>
</g>
<g>
	<g>
		<path d="M205.397,153.2c-2.4-2-6.4-2-8.8,0l-27.6,24l-9.2-12.8c-2-2.8-6-3.6-8.8-1.6s-3.6,6-1.6,8.8l13.2,18.4
			c1.2,1.6,2.8,2.4,4.4,2.4c0.4,0,0.4,0,0.8,0c1.6,0,3.2-0.4,4-1.6l32.8-28.8C207.397,159.6,207.397,155.6,205.397,153.2z"/>
	</g>
</g>
<g>
	<g>
		<path d="M180.197,118.4c-30,0-54,24.4-54,54c0,30,24.4,54,54,54c30,0,54-24.4,54-54C234.197,142.8,210.197,118.4,180.197,118.4z
			 M180.197,214c-22.8,0-41.2-18.4-41.2-41.2c0-22.8,18.4-41.6,41.2-41.6s41.2,18.4,41.2,41.2S202.997,214,180.197,214z"/>
	</g>
</g>
<g>
	<g>
		<circle cx="180.197" cy="320" r="15.2"/>
	</g>
</g>
<g>
</g>
<g>
</g>
<g>
</g>
<g>
</g>
<g>
</g>
<g>
</g>
<g>
</g>
<g>
</g>
<g>
</g>
<g>
</g>
<g>
</g>
<g>
</g>
<g>
</g>
<g>
</g>
<g>
</g>
</svg>
