<?xml version="1.0"?>
<svg xmlns="http://www.w3.org/2000/svg" viewBox="0 0 64 64" width="512px" height="512px" class=""><g><g id="Wallet"><path d="M61,42H60V33a1,1,0,0,0-1-1H56V25a1,1,0,0,0-1-1H51.414l3.573-3.573a1,1,0,0,0,0-1.414L38.017,2.043a1,1,0,0,0-1.414,0L14.646,24H7a4.995,4.995,0,0,0-5,5V57a5.006,5.006,0,0,0,5,5H59a1,1,0,0,0,1-1V52h1a1,1,0,0,0,1-1V43A1,1,0,0,0,61,42ZM54,26v2H47.414l2-2ZM37.31,4.164,52.866,19.72l-4.572,4.572,0,0L44.586,28H41.764l5.453-5.453a1,1,0,0,0,0-1.414,1.984,1.984,0,0,1,0-2.836,1,1,0,0,0,0-1.414l-7.07-7.07a1,1,0,0,0-1.414,0,2.042,2.042,0,0,1-2.836,0,1.029,1.029,0,0,0-1.414,0L16.306,28H13.474l2.292-2.292v0ZM37.054,28A5.991,5.991,0,0,0,35.9,21.134,6.005,6.005,0,0,0,26.257,28H19.133L35.278,11.847a4.077,4.077,0,0,0,4.075,0l5.832,5.832a4.02,4.02,0,0,0,0,4.071L38.936,28Zm-8.4,0a3.885,3.885,0,0,1-.961-2.127,3.959,3.959,0,0,1,1.137-3.328,4.077,4.077,0,0,1,5.657,0,3.944,3.944,0,0,1,1.141,3.329A3.892,3.892,0,0,1,34.662,28ZM4.872,26.882A3.018,3.018,0,0,1,7,26h5.646l-2,2H9a1,1,0,0,0,0,2H54v2H7a3,3,0,0,1-2.128-5.118ZM58,60H7a3,3,0,0,1-3-3V32.974A4.948,4.948,0,0,0,7,34H58v8H51a5,5,0,0,0,0,10h7Zm2-10H51a3,3,0,0,1,0-6h9Z" data-original="#000000" class="active-path" data-old_color="#000000" fill="#FFFFFF"/><circle cx="51" cy="47" r="2" data-original="#000000" class="active-path" data-old_color="#000000" fill="#FFFFFF"/></g></g> </svg>
