<?xml version="1.0" encoding="utf-8"?>
<!-- Generator: Adobe Illustrator 13.0.0, SVG Export Plug-In  -->
<!DOCTYPE svg PUBLIC "-//W3C//DTD SVG 1.1//EN" "http://www.w3.org/Graphics/SVG/1.1/DTD/svg11.dtd" [
	<!ENTITY ns_flows "http://ns.adobe.com/Flows/1.0/">
]>
<svg version="1.1"
	 xmlns="http://www.w3.org/2000/svg" xmlns:xlink="http://www.w3.org/1999/xlink" xmlns:a="http://ns.adobe.com/AdobeSVGViewerExtensions/3.0/"
	 x="0px" y="0px" width="20px" height="20px" viewBox="0 0 20 20" enable-background="new 0 0 20 20" xml:space="preserve">
<defs>
</defs>
<path fill="#FFFFFF" d="M10,0C4.455,0,0,4.455,0,10s4.455,10,10,10s10-4.455,10-10S15.545,0,10,0z M11.455,10.182l3.408,3.409
	C14.955,13.682,15,13.818,15,13.909s-0.045,0.228-0.137,0.317l-0.637,0.637C14.137,14.955,14,15,13.909,15
	c-0.136,0-0.228-0.045-0.318-0.137l-3.409-3.408c-0.091-0.092-0.227-0.092-0.318,0l-3.409,3.408C6.364,14.955,6.227,15,6.136,15
	C6,15,5.909,14.955,5.818,14.863l-0.637-0.637c-0.09-0.09-0.136-0.227-0.136-0.317s0.045-0.228,0.136-0.318l3.409-3.409
	c0.091-0.091,0.091-0.227,0-0.318L5.182,6.455C5.091,6.364,5.045,6.227,5.045,6.136c0-0.091,0.045-0.227,0.136-0.318l0.637-0.637
	C5.909,5.09,6.045,5.045,6.136,5.045c0.091,0,0.228,0.045,0.318,0.136L9.863,8.59c0.091,0.091,0.227,0.091,0.318,0l3.409-3.409
	c0.092-0.091,0.229-0.136,0.318-0.136c0.136,0,0.229,0.045,0.316,0.136l0.637,0.637C14.955,5.909,15,6.045,15,6.136
	c0,0.091-0.045,0.229-0.137,0.318l-3.408,3.409C11.363,9.909,11.363,10.091,11.455,10.182z"/>
</svg>
