<?xml version="1.0" encoding="utf-8"?>
<!-- Generator: Adobe Illustrator 24.1.2, SVG Export Plug-In . SVG Version: 6.00 Build 0)  -->
<svg version="1.1" id="Capa_1" xmlns="http://www.w3.org/2000/svg" xmlns:xlink="http://www.w3.org/1999/xlink" x="0px" y="0px"
	 viewBox="0 0 512 512" style="enable-background:new 0 0 512 512;" xml:space="preserve">
<style type="text/css">
	.st0{fill:#38C85E;}
</style>
<path class="st0" d="M383.5,0h-255C107.8,0,91,16.8,91,37.5V270c0,4.1,3.4,7.5,7.5,7.5s7.5-3.4,7.5-7.5V75h300v332H106V300
	c0-4.1-3.4-7.5-7.5-7.5S91,295.9,91,300v174.5c0,20.7,16.8,37.5,37.5,37.5h255c20.7,0,37.5-16.8,37.5-37.5v-437
	C421,16.8,404.2,0,383.5,0z M106,60V37.5c0-12.4,10.1-22.5,22.5-22.5h255c12.4,0,22.5,10.1,22.5,22.5V60H106z M383.5,497h-255
	c-12.4,0-22.5-10.1-22.5-22.5V422h300v52.5C406,486.9,395.9,497,383.5,497z"/>
<path class="st0" d="M256,437c-12.4,0-22.5,10.1-22.5,22.5S243.6,482,256,482c12.4,0,22.5-10.1,22.5-22.5S268.4,437,256,437z
	 M256,467c-4.1,0-7.5-3.4-7.5-7.5s3.4-7.5,7.5-7.5c4.1,0,7.5,3.4,7.5,7.5S260.1,467,256,467z"/>
<path class="st0" d="M271,30h-30c-4.1,0-7.5,3.4-7.5,7.5s3.4,7.5,7.5,7.5h30c4.1,0,7.5-3.4,7.5-7.5S275.1,30,271,30z"/>
<circle class="st0" cx="301" cy="37.5" r="7.5"/>
<circle class="st0" cx="211" cy="37.5" r="7.5"/>
<path class="st0" d="M368.5,210c4.1,0,7.5-3.4,7.5-7.5v-30c0-37.2-30.3-67.5-67.5-67.5h-105c-37.2,0-67.5,30.3-67.5,67.5v30
	c0,4.1,3.4,7.5,7.5,7.5H368.5z M151,172.5c0-28.9,23.6-52.5,52.5-52.5h105c28.9,0,52.5,23.6,52.5,52.5V195H151V172.5z"/>
<path class="st0" d="M121,285c0,16.5,13.5,30,30,30h71.9l15,15h-94.4c-4.1,0-7.5,3.4-7.5,7.5v2c0,20.7,16.8,37.5,37.5,37.5h165
	c20.7,0,37.5-16.8,37.5-37.5v-2c0-4.1-3.4-7.5-7.5-7.5h-94.4l15-15H361c16.5,0,30-13.5,30-30c0-9.8-4.7-18.5-12-24
	c3.2-4.2,4.7-9.3,4.5-14.6c-0.6-12-10.6-21.4-22.9-21.4H151.4c-12.3,0-22.3,9.4-22.9,21.4c-0.3,5.3,1.3,10.4,4.5,14.6
	C125.7,266.5,121,275.2,121,285L121,285z M338.5,362h-165c-10.5,0-19.4-7.2-21.8-17h208.6C357.9,354.8,349,362,338.5,362z M151,300
	c-8.3,0-15-6.7-15-15s6.7-15,15-15h26.9l30,30H151z M361,300h-56.9l30-30H361c8.3,0,15,6.7,15,15S369.3,300,361,300z M145.6,252.7
	c-1.4-1.5-2.2-3.5-2.1-5.5c0.2-3.9,3.7-7.1,7.9-7.1h209.2c4.2,0,7.7,3.2,7.9,7.1c0.1,2.1-0.6,4.1-2.1,5.5c-1.4,1.5-3.4,2.3-5.4,2.3
	h-30c-2,0-3.9,0.8-5.3,2.2l-45,45c0,0-24.7,24.7-24.7,24.7l-69.7-69.7c-1.4-1.4-3.3-2.2-5.3-2.2h-30
	C148.9,255,147,254.2,145.6,252.7L145.6,252.7z"/>
<circle class="st0" cx="301" cy="142.5" r="7.5"/>
<circle class="st0" cx="256" cy="157.5" r="7.5"/>
<circle class="st0" cx="211" cy="142.5" r="7.5"/>
</svg>
