<?xml version="1.0" encoding="utf-8"?>
<!-- Generator: Adobe Illustrator 24.1.2, SVG Export Plug-In . SVG Version: 6.00 Build 0)  -->
<svg version="1.1" id="Capa_1" xmlns="http://www.w3.org/2000/svg" xmlns:xlink="http://www.w3.org/1999/xlink" x="0px" y="0px"
	 viewBox="0 0 512 512" style="enable-background:new 0 0 512 512;" xml:space="preserve">
<style type="text/css">
	.st0{fill:#38C85E;}
</style>
<g>
	<path class="st0" d="M27.2,158C12.2,158,0,170.2,0,185.2l0,87.7c0,15,12.2,27.2,27.2,27.2h37.9v20.6c0,6.9,3.6,13,9,16.5
		c-8.5,17.3-14.3,39.4-8.3,75.6c-1.8,6.5-2.9,13.3-3.1,20.3c-0.1,3.7,1.4,6,2.7,7.3c2.5,2.6,5.6,2.8,7.8,2.8c0.3,0,1.4,0,1.4,0h5.7
		c5,31.2,31.6,54.7,63.2,54.7s58.2-23.5,63.2-54.7h156.9c0.3,2.5,0.7,5,1.2,7.5c0.5,2.4,2,4.6,4.2,5.8c2.4,1.3,4.7,1,7.2,0.4
		l8.4-1.9c4.4,11.8,12.5,21.8,23.3,28.6c9.2,5.8,19.7,8.8,30.4,8.8c4.3,0,8.7-0.5,13-1.5c28.4-6.5,47-33.2,44.3-61.4l10.6-2.5
		c4-0.9,6.6-5,5.6-9c-8-34.8-39.4-59.1-74.6-58.5l-11.4-39.2c-1.2-4-5.3-6.3-9.3-5.1s-6.3,5.3-5.1,9.3l11.9,41l-56.2,62.8h-13.5
		c23.3-54.6,38.4-108.6,11.9-189.5h21.3l14.9,51.5c1.2,4,5.3,6.3,9.3,5.1c4-1.2,6.3-5.3,5.1-9.3l-13.7-47.3h8.9
		c4.1,0,7.5-3.4,7.5-7.5v-39c0-1.9,0-7.8-4.7-11.2c-4.7-3.4-10.2-1.6-15,0l-52.5,17.4l-45.5-3.7l-18.7-16.1
		c0-12.4-1.2-23.4-3.7-32.6c23.8-4.7,41.8-25.8,41.8-51c0-2.9-0.3-5.8-0.7-8.6h5.1c4.1,0,7.5-3.4,7.5-7.5
		c0-35.8-28.5-64.9-63.6-64.9s-63.6,29.1-63.6,64.9c0,19.9,6.8,37.1,18.6,49.3c-10,7-21.7,18.7-31.8,38.3
		c-12.9,25.2-19.8,57.3-20.5,95.3v0c-0.4,9,0.2,16.7,2,23.3h-32.5v-99.9c0-15-12.2-27.2-27.2-27.2L27.2,158L27.2,158z M415.9,470.9
		c-7.4-4.7-13.1-11.4-16.5-19.3l81.4-18.7c1,20.1-12.6,38.7-32.9,43.4h0C436.9,478.8,425.5,476.9,415.9,470.9L415.9,470.9z
		 M378.2,438.5l57.2-63.9c26.5-1.4,50.7,14.9,59.7,39.6L378.4,441C378.3,440.2,378.2,439.4,378.2,438.5z M265.1,310.3
		c-2.9-7.7-9.2-11.5-18.8-11.5l-26.9,0c-12.5,0-21-2.6-26-7.8c-4.3-4.5-6.5-11.6-6.8-21.5H260c10.8,1.3,34.7,9.1,34.7,53v38.8h-27.5
		V333C267.3,323.2,267.3,316.1,265.1,310.3L265.1,310.3z M302.2,376.3c3.2,0,9.1,0.7,13.4,5.1c2.8,3,4.6,7.3,5.2,12.8h-53.3
		c-0.1,0-0.1,0-0.2,0v-17.9H302.2z M186.8,254.4c3.4-79.9,35.1-107.8,49.6-116.5c5.3,3.1,11.2,5.5,17.5,6.9c3.1,0.9,6.3,1.5,9.5,1.9
		c1.8,5.4,3,11.8,3.6,19c-7.9-5.1-16.9-6.1-25.2-2.8c-9.1,3.6-15.6,12.2-16.5,21.7c-1.1,10.8,4.8,21.1,16.2,28.5l20.7,13.5
		c-2,9.7-4.5,19.1-7.2,27.8L186.8,254.4L186.8,254.4z M264.1,71.4c-0.2,0-0.5,0-0.7,0c-12.5,1.1-15.1,9.5-15.1,16.3v39.5
		c-17.3-7.9-28-26-28-48.3c0-27.5,21.8-49.9,48.6-49.9c24.3,0,44.5,18.4,48.1,42.4L264.1,71.4z M305.7,95c0,20.4-16.6,37-36.9,37
		c0,0,0,0-0.1,0c-1.8,0-3.6-0.1-5.4-0.4V87.8c0-0.5,0-0.9,0.1-1.2c0.2,0,0.6-0.1,1-0.2h40.2C305.3,89.2,305.7,92.1,305.7,95
		L305.7,95z M315.4,211v12.9h-30l-35.7-23.2c-6.6-4.3-9.9-9.4-9.4-14.5c0.4-4,3.2-7.7,7.2-9.2c1.4-0.6,2.8-0.8,4.2-0.8
		c3.2,0,6.5,1.4,9.6,4l0,0l32.1,27.6c1.2,1,2.7,1.7,4.3,1.8L315.4,211L315.4,211z M353,220c-0.1,1.8-0.7,3.8-3.2,3.8h-19.4v-11.7
		l16.7,1.4C353,214,353.1,219,353,220z M364.9,208.3C364.8,208.3,364.8,208.3,364.9,208.3l39.1-13v28.5h-36.3c0,0,0,0,0-0.1
		c0.2-1,0.3-2.1,0.4-3.2C368.2,216.4,367.1,212,364.9,208.3L364.9,208.3z M349.8,238.8c22.2,64.7,16.4,111.4,1.2,155.4h-15.1
		c-0.8-9.7-3.9-17.4-9.4-23.2c-5.2-5.4-11.4-7.9-16.7-9v-39.6c0-47.1-24.3-61.6-39.6-66.2c2-6.6,3.9-13.7,5.5-20.9l3.4,2.2
		c1.2,0.8,2.6,1.2,4.1,1.2L349.8,238.8L349.8,238.8z M225.8,428.3c-1.7-19.4-9.9-37.4-23.6-51.2c-15.4-15.6-36-24.2-57.8-24.2
		c-27.3,0-51.3,13.3-66.1,33.9c-0.3-21.6,5-35.3,10.9-46.3h70.3c4.1,0,7.5-3.4,7.5-7.5s-3.4-7.5-7.5-7.5H84.8
		c-2.6,0-4.7-2.2-4.7-4.8v-20.6h53.6h47.7c0.3,0.4,0.7,0.8,1.1,1.2c8,8.4,20,12.5,36.9,12.5l26.9,0c4.1,0,4.4,0.9,4.8,1.9
		c0.8,2.1,1.1,5.5,1.1,9.8h-59.1c-4.1,0-7.5,3.4-7.5,7.5s3.4,7.5,7.5,7.5h59.2v28.3v26.8c0,9.1,5.1,13.7,15.2,13.7h77.9
		c-2.5,6.4-5.2,12.7-8,19.1L225.8,428.3z M143.4,483c-23.4,0-43.2-16.9-48-39.7h96C186.7,466.1,166.9,483,143.4,483L143.4,483z
		 M78,428.3c0.5-4.3,1.3-8.4,2.5-12.4c0-0.1,0.1-0.2,0.1-0.3c8.4-27.8,33.7-47.7,63.8-47.7c34.3,0,62.7,26.5,66.4,60.4H200h-113
		L78,428.3z M15,246.4h111.2v38.7h-99c-6.7,0-12.2-5.5-12.2-12.2V246.4z M15,215.4h111.2v16H15V215.4z M15,185.2
		c0-6.7,5.5-12.2,12.2-12.2H114c6.7,0,12.2,5.5,12.2,12.2v15.3H15V185.2z"/>
</g>
</svg>
