<svg height="512" viewBox="0 0 64 64" width="512" xmlns="http://www.w3.org/2000/svg"><g id="Online_Order-Tablet" data-name="Online Order-Tablet"><path d="m61 13v28a4 4 0 0 1 -4 4h-6v-36h6a4 4 0 0 1 4 4z" fill="#c6c5ca"/><path d="m51 9v36h-38a4 4 0 0 1 -4-4v-28a4 4 0 0 1 4-4z" fill="#5aaae7"/><g fill="#3d9ae2"><path d="m22.14 39.75a1.861 1.861 0 0 1 -.07.52l-1.27 4.73h-5.56a1.973 1.973 0 0 0 1.81-1.46l1.16-4.3a2 2 0 0 1 3.93.51z"/><path d="m34 20a1.833 1.833 0 0 1 -.16.77 9.823 9.823 0 0 0 -3.84-.77 2.006 2.006 0 0 0 2-2 2.006 2.006 0 0 1 2 2z"/><path d="m20 30 .48 1.93a1.913 1.913 0 0 1 -.89-.52 1.955 1.955 0 0 1 -.59-1.41z"/><path d="m39.16 26a9.316 9.316 0 0 0 -1.18-2 9.481 9.481 0 0 1 2 2z"/><path d="m45 30a2.006 2.006 0 0 1 -2 2h-1l-.81 3.24a1 1 0 0 1 -.97.76h-16.44a1 1 0 0 1 -.97-.76l-.31-1.24h15.72a1 1 0 0 0 .97-.76l.81-3.24h1a2.006 2.006 0 0 0 2-2 2.015 2.015 0 0 1 2 2z"/></g><path d="m58.41 45.59a1.955 1.955 0 0 0 -1.41-.59 2.006 2.006 0 0 0 -2 2v-1a2 2 0 0 0 -.27-1 1.813 1.813 0 0 0 -.32-.41 1.955 1.955 0 0 0 -1.41-.59 2 2 0 0 0 -2 2v-1a2.015 2.015 0 0 0 -2-2 2.006 2.006 0 0 0 -2 2v-8a2.015 2.015 0 0 0 -2-2 2.006 2.006 0 0 0 -2 2v10a2.015 2.015 0 0 0 -2-2 2.006 2.006 0 0 0 -2 2v9l3 5h15l2-5v-9a1.955 1.955 0 0 0 -.59-1.41z" fill="#ffc477"/><path d="m49 39v6h-4v-6a2.006 2.006 0 0 1 2-2 2.015 2.015 0 0 1 2 2z" fill="#3d9ae2"/><circle cx="56" cy="27" fill="#acabb1" r="2"/><circle cx="30" cy="18" fill="#d1d3d4" r="2"/><path d="m41 26a2.015 2.015 0 0 1 2 2 2.006 2.006 0 0 1 -2 2h-22a2.015 2.015 0 0 1 -2-2 2.006 2.006 0 0 1 2-2z" fill="#acabb1"/><path d="m40 30-.81 3.24a1 1 0 0 1 -.97.76h-16.44a1 1 0 0 1 -.97-.76l-.81-3.24z" fill="#898890"/><path d="m39.16 26h-18.32a9.991 9.991 0 0 1 9.16-6 9.873 9.873 0 0 1 7.46 3.37 9.643 9.643 0 0 1 1.7 2.63z" fill="#e6e7e8"/><path d="m39.16 26h-9.87a15.912 15.912 0 0 0 8.17-2.63 9.643 9.643 0 0 1 1.7 2.63z" fill="#e0e0e2"/><path d="m40 30-.5 2h-19l-.5-2z" fill="#787680"/><path d="m13.43 44.05-2.43-4.05v-11h-2v12a4 4 0 0 0 4 4h1.98a1.958 1.958 0 0 1 -1.55-.95z" fill="#3d9ae2"/><path d="m18.66 35.82a2 2 0 0 0 -2.45 1.42l-1.16 4.3a1.981 1.981 0 0 1 -1.92 1.47h-.02a1.96 1.96 0 0 1 -1.68-.96l-2.43-4.05v-9a6 6 0 0 0 -6 6v26h12v-4.11a8.081 8.081 0 0 1 .84-3.58l1.53-3.04a6.108 6.108 0 0 0 .63-2.69v-.79a6.216 6.216 0 0 1 .2-1.55l.06-.24 1.81-6.73a1.861 1.861 0 0 0 .07-.52 2 2 0 0 0 -1.48-1.93z" fill="#ffc477"/><path d="m58.41 45.59a1.955 1.955 0 0 0 -1.41-.59 2.006 2.006 0 0 0 -2 2v-1a2 2 0 0 0 -.27-1 1.813 1.813 0 0 0 -.32-.41 1.955 1.955 0 0 0 -1.41-.59 2 2 0 0 0 -2 2v-1a2.015 2.015 0 0 0 -2-2 2.006 2.006 0 0 0 -2 2v-8a2.015 2.015 0 0 0 -2-2 2.006 2.006 0 0 0 -2 2v10a2.015 2.015 0 0 0 -2-2 2.006 2.006 0 0 0 -2 2v9l3 5h15l2-5v-9a1.955 1.955 0 0 0 -.59-1.41z" fill="#ffc477"/><path d="m43 46a1 1 0 0 0 -1 1v5a1 1 0 0 0 2 0v-5a1 1 0 0 0 -1-1z" fill="#ffb655"/><path d="m47 44a1 1 0 0 0 -1 1v3a1 1 0 0 0 2 0v-3a1 1 0 0 0 -1-1z" fill="#ffb655"/><path d="m51 45a1 1 0 0 0 -1 1v2a1 1 0 0 0 2 0v-2a1 1 0 0 0 -1-1z" fill="#ffb655"/><path d="m55 46a1 1 0 0 0 -1 1v1a1 1 0 0 0 2 0v-1a1 1 0 0 0 -1-1z" fill="#ffb655"/></g></svg>