<?xml version="1.0" encoding="utf-8"?>
<!-- Generator: Adobe Illustrator 24.1.2, SVG Export Plug-In . SVG Version: 6.00 Build 0)  -->
<svg version="1.1" id="Capa_1" xmlns="http://www.w3.org/2000/svg" xmlns:xlink="http://www.w3.org/1999/xlink" x="0px" y="0px"
	 viewBox="0 0 472 472" style="enable-background:new 0 0 472 472;" xml:space="preserve">
<style type="text/css">
	.st0{fill:#38C85E;}
</style>
<g>
	<g>
		<g>
			<path class="st0" d="M404,336h-64v104h64V336z M388,424h-32v-72h32V424z"/>
			<path class="st0" d="M260,264H68c-13.3,0-24,10.7-24,24v152h240V288C284,274.7,273.2,264,260,264z M268,424H60V320h208V424z
				 M268,304H60v-16c0-4.4,3.6-8,8-8h192c4.4,0,8,3.6,8,8V304z"/>
			<path class="st0" d="M467.4,109.3c-0.1-0.2-0.2-0.4-0.3-0.7s-0.1-0.3-0.2-0.5l-39-70.2V8c0-4.4-3.6-8-8-8H44c-4.4,0-8,3.6-8,8
				v30.3L4.7,108.8v0.1c0,0.1,0,0.2-0.1,0.3c-0.3,0.8-0.5,1.7-0.5,2.6c0,0.1-0.1,0.2-0.1,0.3v360h464V112c0,0,0-0.1,0-0.1
				C468,111,467.8,110.1,467.4,109.3z M446.4,104h-92.6l-18.7-56h80.2L446.4,104z M340,120v80c0,17.7-14.3,32-32,32h-32
				c-17.7,0-32-14.3-32-32v-8v-72H340z M244,104V48h74.2l18.7,56H244z M52,16h360v16H52C52,32,52,16,52,16z M135.1,104l18.7-56H228
				v56H135.1z M228,120v72c0,22.1-17.9,40-40,40h-16c-22.1,0-40-17.9-40-40v-72H228z M49.2,48h87.7l-18.7,56H24.3L49.2,48z M20,120
				h96v68.8c0,23.8-19.4,43.2-43.2,43.2H60c-22.1,0-40-17.9-40-40C20,192,20,120,20,120z M420,456h-96V320h96V456z M420,304h-96
				v-9.6c0-8,6.4-14.4,14.4-14.4h67.2c8,0,14.4,6.4,14.4,14.4L420,304L420,304z M452,456h-16V294.4c0-16.8-13.6-30.4-30.4-30.4
				h-67.2c-16.8,0-30.4,13.6-30.4,30.4V456H20V231.1C30.5,241.9,44.9,248,60,248h12.8c20.6,0,39.8-10.8,50.5-28.5
				c9.9,17.6,28.5,28.4,48.7,28.5h16c18.5,0,35.8-9.2,46.2-24.4c8.5,15.1,24.5,24.4,41.8,24.4h32c17.3,0,33.3-9.4,41.8-24.4
				c10.4,15.3,27.7,24.4,46.2,24.4h16c15.1,0,29.5-6.1,40-16.9L452,456L452,456z M452,192c0,22.1-17.9,40-40,40h-16
				c-22.1,0-40-17.9-40-40v-72h96V192z"/>
		</g>
	</g>
</g>
</svg>
