<?xml version="1.0" encoding="iso-8859-1"?>
<!-- Generator: Adobe Illustrator 19.0.0, SVG Export Plug-In . SVG Version: 6.00 Build 0)  -->
<svg version="1.1" id="Capa_1" xmlns="http://www.w3.org/2000/svg" xmlns:xlink="http://www.w3.org/1999/xlink" x="0px" y="0px"
	 viewBox="0 0 480 480" style="enable-background:new 0 0 480 480;" xml:space="preserve">
<path style="fill:#00DDC2;" d="M401.04,232c-0.714-2.606-1.064-5.298-1.04-8c0.024,2.702-0.326,5.394-1.04,8
	c-4.469,17.099-21.953,27.337-39.052,22.868c-11.197-2.927-19.942-11.671-22.868-22.868c-0.714-2.606-1.064-5.298-1.04-8
	c0.024,2.702-0.326,5.394-1.04,8c-4.469,17.099-21.953,27.337-39.052,22.868c-11.197-2.927-19.942-11.671-22.868-22.868
	c-0.714-2.606-1.064-5.298-1.04-8c0.024,2.702-0.326,5.394-1.04,8c-4.469,17.099-21.953,27.337-39.052,22.868
	c-11.197-2.927-19.942-11.671-22.868-22.868c-0.714-2.606-1.064-5.298-1.04-8c0.024,2.702-0.326,5.394-1.04,8
	c-4.469,17.099-21.953,27.337-39.052,22.868c-11.197-2.927-19.942-11.671-22.868-22.868c-0.714-2.606-1.064-5.298-1.04-8
	c0.024,2.702-0.326,5.394-1.04,8c-4.469,17.099-21.953,27.337-39.052,22.868C92.711,251.942,83.967,243.197,81.04,232
	c-0.714-2.606-1.064-5.298-1.04-8c0.024,2.702-0.326,5.394-1.04,8c-2.133,8.307-7.527,15.402-14.96,19.68V448h352V251.68
	C408.567,247.402,403.173,240.307,401.04,232z"/>
<path style="fill:#BCBEC0;" d="M472,448h-56h-48h-80H64H8v32h464V448z"/>
<path style="fill:#FF9275;" d="M208,152v72c-0.024,2.702,0.326,5.394,1.04,8c4.469,17.099,21.953,27.337,39.052,22.868
	c11.197-2.927,19.942-11.671,22.868-22.868c0.714-2.606,1.064-5.298,1.04-8v-72H208z"/>
<path style="fill:#FF5023;" d="M152,152l-8,72c-0.024,2.702,0.326,5.394,1.04,8c4.469,17.099,21.953,27.337,39.052,22.868
	c11.197-2.927,19.942-11.671,22.868-22.868c0.714-2.606,1.064-5.298,1.04-8v-72H152z"/>
<path style="fill:#FF9275;" d="M88,152l-8,72c-0.024,2.702,0.326,5.394,1.04,8c4.469,17.099,21.953,27.337,39.052,22.868
	c11.197-2.927,19.942-11.671,22.868-22.868c0.714-2.606,1.064-5.298,1.04-8l8-72H88z"/>
<g>
	<path style="fill:#FF5023;" d="M78.96,232c0.714-2.606,1.064-5.298,1.04-8l8-72H38.4c-3.749,0.001-6.994,2.604-7.808,6.264L16,224
		c0.05,17.673,14.418,31.959,32.091,31.909C62.614,255.867,75.288,246.051,78.96,232z"/>
	<path style="fill:#FF5023;" d="M272,152v72c-0.024,2.702,0.326,5.394,1.04,8c4.469,17.099,21.953,27.337,39.052,22.868
		c11.197-2.927,19.942-11.671,22.868-22.868c0.714-2.606,1.064-5.298,1.04-8l-8-72H272z"/>
</g>
<path style="fill:#FF9275;" d="M328,152l8,72c-0.024,2.702,0.326,5.394,1.04,8c4.469,17.099,21.953,27.337,39.052,22.868
	c11.197-2.927,19.942-11.671,22.868-22.868c0.714-2.606,1.064-5.298,1.04-8l-8-72H328z"/>
<path style="fill:#FF5023;" d="M400,224c-0.024,2.702,0.326,5.394,1.04,8c4.469,17.099,21.953,27.337,39.052,22.869
	C454.142,251.197,463.959,238.523,464,224l-14.608-65.736c-0.812-3.654-4.049-6.256-7.792-6.264H392L400,224z"/>
<path style="fill:#FF9811;" d="M288,312v136h80V312c0-4.418-3.582-8-8-8h-64C291.582,304,288,307.582,288,312z"/>
<path style="fill:#E6E7E8;" d="M112,312h128v80H112V312z"/>
<g>
	<path style="fill:#808285;" d="M336,80h16v48h-16V80z"/>
	<path style="fill:#808285;" d="M128,80h16v48h-16V80z"/>
</g>
<path style="fill:#C49A6C;" d="M368,72V8c0-4.418-3.582-8-8-8H120c-4.418,0-8,3.582-8,8v64c0,4.418,3.582,8,8,8h240
	C364.418,80,368,76.418,368,72z"/>
<path style="fill:#00D7DF;" d="M152,152h264v-40c0-4.418-3.582-8-8-8H72c-4.418,0-8,3.582-8,8v40H152z"/>
<g>
</g>
<g>
</g>
<g>
</g>
<g>
</g>
<g>
</g>
<g>
</g>
<g>
</g>
<g>
</g>
<g>
</g>
<g>
</g>
<g>
</g>
<g>
</g>
<g>
</g>
<g>
</g>
<g>
</g>
</svg>
