<?xml version="1.0" encoding="utf-8"?>
<!-- Generator: Adobe Illustrator 22.0.0, SVG Export Plug-In . SVG Version: 6.00 Build 0)  -->
<svg version="1.1" id="Layer_1" xmlns="http://www.w3.org/2000/svg" xmlns:xlink="http://www.w3.org/1999/xlink" x="0px" y="0px"
	 viewBox="0 0 1024 1024" style="enable-background:new 0 0 1024 1024;" xml:space="preserve">
<style type="text/css">
	.st0{opacity:5.000000e-02;stroke:#000000;stroke-miterlimit:10;}
	.st1{fill:#2EAA0C;}
	.st2{fill:#FFFFFF;}
	.st3{fill:#FFB05F;}
	.st4{fill:#FF904E;}
	.st5{fill:#FF733D;}
	.st6{fill:#FE5E47;}
	.st7{fill:#F53737;}
	.st8{fill:#AF2B2B;}
	.st9{fill:#7CC3AC;}
	.st10{fill:#4A7273;}
	.st11{fill:#61AE9F;}
	.st12{fill:#FFECA1;}
	.st13{fill:#FFD178;}
</style>
<circle class="st0" cx="512.7" cy="513" r="510.2"/>
<g>
	<path class="st1" d="M511.9,824c-172.4,0-312.1-139.7-312.1-312.1s139.7-312.1,312.1-312.1S824,339.5,824,511.9
		c0,59.6-16.7,115.3-45.7,162.6c10.8,4.8,20.6,11.5,28.8,19.8C840,641.3,859,578.8,859,512c0-191.3-155.7-347-347-347
		S165,320.7,165,512s155.7,347,347,347c55.6,0,108.1-13.1,154.7-36.4c-7.5-8.9-13.3-19.3-17.1-30.5C608,812.5,561.3,824,511.9,824z"
		/>
	<path class="st2" d="M511.9,199.8c-172.4,0-312.1,139.7-312.1,312.1S339.5,824,511.9,824c49.4,0,96.2-11.5,137.7-31.9
		c-3.2-9.6-5-19.8-5-30.5c0-11,1.9-21.6,5.3-31.4H489.8c-5.1,0-10-2.3-13.2-6.3l-43.8-53.7c-1.3-1.6-1.3-3.8,0-5.4l43.8-53.7
		c3.2-4,8.1-6.3,13.2-6.3h200.3c0,0,0,0,0,0h23c9.4,0,17,7.6,17,17v0v44.9c3.2-0.3,6.4-0.5,9.6-0.5c13.7,0,26.7,2.9,38.5,8.1
		c29-47.4,45.7-103,45.7-162.6C824,339.5,684.2,199.8,511.9,199.8z M293.8,487.1c0-9.4,7.6-17,17-17h65h3.2c0.6,0,1.2,0,1.7,0.1
		c8.6,0.9,15.3,8.1,15.3,17v49.9c0,8.8-6.7,16.1-15.3,17c-0.6,0.1-1.2,0.1-1.7,0.1h-3.2h-65c-9.4,0-17-7.6-17-17V487.1z
		 M293.8,642.6c0-9.4,7.6-17,17-17h50.6l7.5-16.9c1.4-3.2,5.2-4.7,8.4-3.2c3.2,1.4,4.7,5.2,3.2,8.4l-5.2,11.7h0.4h3.2
		c2.9,0,5.7,0.7,8.1,2.1c5.3,2.9,8.9,8.5,8.9,15v0v49.9v0c0,9.4-7.6,17-17,17h-68.2c-9.4,0-17-7.6-17-17V642.6z M396.1,381.4
		c0,9.4-7.6,17-17,17h-3.2h-65c-9.4,0-17-7.6-17-17v-49.9c0-9.4,7.6-17,17-17h50.6l7.5-16.9c1.4-3.2,5.2-4.7,8.4-3.2
		c3.2,1.4,4.7,5.2,3.2,8.4l-5.2,11.7h0.4h3.2c9.4,0,17,7.6,17,17V381.4z M730.2,512v45.6c0,9.4-7.6,17-17,17h-23H489.8
		c-5.1,0-10-2.3-13.2-6.3l-43.8-53.7c-1.3-1.6-1.3-3.8,0-5.4l43.8-53.7c3.2-4,8.1-6.3,13.2-6.3h200.3h23c9.4,0,17,7.6,17,17V512z
		 M730.2,356.5v45.6c0,9.4-7.6,17-17,17h-23H489.8c-5.1,0-10-2.3-13.2-6.3l-43.8-53.7c-1.3-1.6-1.3-3.8,0-5.4l43.8-53.7
		c3.2-4,8.1-6.3,13.2-6.3h200.3h23c9.4,0,17,7.6,17,17V356.5z"/>
	<path class="st3" d="M707.2,621.9c0-9.4-7.6-17-17-17H489.8c-5.1,0-10,2.3-13.2,6.3l-43.8,53.7c-1.3,1.6-1.3,3.8,0,5.4l43.8,53.7
		c3.2,4,8.1,6.3,13.2,6.3h160.1c9.4-26.9,30.5-48.3,57.3-58.1v-4.6V621.9z M529.9,635.6h87.8c3.5,0,6.4,2.9,6.4,6.4
		c0,3.5-2.9,6.4-6.4,6.4h-87.8c-3.5,0-6.4-2.9-6.4-6.4C523.5,638.4,526.3,635.6,529.9,635.6z M660.3,699.5H529.9
		c-3.5,0-6.4-2.9-6.4-6.4c0-3.5,2.9-6.4,6.4-6.4h130.4c3.5,0,6.4,2.9,6.4,6.4C666.7,696.6,663.8,699.5,660.3,699.5z M685.8,673.9
		h-156c-3.5,0-6.4-2.9-6.4-6.4s2.9-6.4,6.4-6.4h156c3.5,0,6.4,2.9,6.4,6.4S689.4,673.9,685.8,673.9z M685.8,648.3h-42.6
		c-3.5,0-6.4-2.9-6.4-6.4c0-3.5,2.9-6.4,6.4-6.4h42.6c3.5,0,6.4,2.9,6.4,6.4C692.2,645.5,689.4,648.3,685.8,648.3z"/>
	<path class="st4" d="M730.2,621.9c0-9.4-7.6-17-17-17h-23c0,0,0,0,0,0c9.4,0,17,7.6,17,17v45.6v4.6c7.3-2.7,15-4.4,23-5.3V621.9
		L730.2,621.9z"/>
	<path class="st5" d="M660.3,686.7H529.9c-3.5,0-6.4,2.9-6.4,6.4c0,3.5,2.9,6.4,6.4,6.4h130.4c3.5,0,6.4-2.9,6.4-6.4
		C666.7,689.6,663.8,686.7,660.3,686.7z"/>
	<path class="st5" d="M529.9,648.3h87.8c3.5,0,6.4-2.9,6.4-6.4c0-3.5-2.9-6.4-6.4-6.4h-87.8c-3.5,0-6.4,2.9-6.4,6.4
		C523.5,645.5,526.3,648.3,529.9,648.3z"/>
	<path class="st5" d="M685.8,661.1h-156c-3.5,0-6.4,2.9-6.4,6.4s2.9,6.4,6.4,6.4h156c3.5,0,6.4-2.9,6.4-6.4S689.4,661.1,685.8,661.1
		z"/>
	<path class="st5" d="M685.8,635.6h-42.6c-3.5,0-6.4,2.9-6.4,6.4c0,3.5,2.9,6.4,6.4,6.4h42.6c3.5,0,6.4-2.9,6.4-6.4
		C692.2,638.4,689.4,635.6,685.8,635.6z"/>
	<path class="st6" d="M707.2,557.6V512v-45.6c0-9.4-7.6-17-17-17H489.8c-5.1,0-10,2.3-13.2,6.3l-43.8,53.7c-1.3,1.6-1.3,3.8,0,5.4
		l43.8,53.7c3.2,4,8.1,6.3,13.2,6.3h200.3C699.6,574.6,707.2,567,707.2,557.6z M529.9,480h87.8c3.5,0,6.4,2.9,6.4,6.4
		c0,3.5-2.9,6.4-6.4,6.4h-87.8c-3.5,0-6.4-2.9-6.4-6.4C523.5,482.9,526.3,480,529.9,480z M592.1,544h-62.2c-3.5,0-6.4-2.9-6.4-6.4
		c0-3.5,2.9-6.4,6.4-6.4h62.2c3.5,0,6.4,2.9,6.4,6.4C598.5,541.1,595.6,544,592.1,544z M685.8,518.4h-156c-3.5,0-6.4-2.9-6.4-6.4
		c0-3.5,2.9-6.4,6.4-6.4h156c3.5,0,6.4,2.9,6.4,6.4C692.2,515.5,689.4,518.4,685.8,518.4z M685.8,492.8h-42.6
		c-3.5,0-6.4-2.9-6.4-6.4c0-3.5,2.9-6.4,6.4-6.4h42.6c3.5,0,6.4,2.9,6.4,6.4C692.2,490,689.4,492.8,685.8,492.8z"/>
	<path class="st7" d="M713.1,449.4h-23c9.4,0,17,7.6,17,17V512v45.6c0,9.4-7.6,17-17,17h23c9.4,0,17-7.6,17-17V512v-45.6
		C730.2,457,722.5,449.4,713.1,449.4z"/>
	<path class="st8" d="M529.9,492.8h87.8c3.5,0,6.4-2.9,6.4-6.4c0-3.5-2.9-6.4-6.4-6.4h-87.8c-3.5,0-6.4,2.9-6.4,6.4
		C523.5,490,526.3,492.8,529.9,492.8z"/>
	<path class="st8" d="M592.1,531.2h-62.2c-3.5,0-6.4,2.9-6.4,6.4c0,3.5,2.9,6.4,6.4,6.4h62.2c3.5,0,6.4-2.9,6.4-6.4
		C598.5,534,595.6,531.2,592.1,531.2z"/>
	<path class="st8" d="M685.8,505.6h-156c-3.5,0-6.4,2.9-6.4,6.4c0,3.5,2.9,6.4,6.4,6.4h156c3.5,0,6.4-2.9,6.4-6.4
		C692.2,508.5,689.4,505.6,685.8,505.6z"/>
	<path class="st8" d="M685.8,480h-42.6c-3.5,0-6.4,2.9-6.4,6.4c0,3.5,2.9,6.4,6.4,6.4h42.6c3.5,0,6.4-2.9,6.4-6.4
		C692.2,482.9,689.4,480,685.8,480z"/>
	<path class="st9" d="M707.2,402.1v-45.6v-45.6c0-9.4-7.6-17-17-17H489.8c-5.1,0-10,2.3-13.2,6.3l-43.8,53.7c-1.3,1.6-1.3,3.8,0,5.4
		l43.8,53.7c3.2,4,8.1,6.3,13.2,6.3h200.3C699.6,419.1,707.2,411.5,707.2,402.1z M634.7,388.4H529.9c-3.5,0-6.4-2.9-6.4-6.4
		c0-3.5,2.9-6.4,6.4-6.4h104.8c3.5,0,6.4,2.9,6.4,6.4C641.1,385.6,638.2,388.4,634.7,388.4z M523.5,356.5c0-3.5,2.9-6.4,6.4-6.4
		h36.7c3.5,0,6.4,2.9,6.4,6.4s-2.9,6.4-6.4,6.4h-36.7C526.3,362.9,523.5,360,523.5,356.5z M685.8,362.9h-93.7
		c-3.5,0-6.4-2.9-6.4-6.4s2.9-6.4,6.4-6.4h93.7c3.5,0,6.4,2.9,6.4,6.4S689.4,362.9,685.8,362.9z M685.8,337.3h-156
		c-3.5,0-6.4-2.9-6.4-6.4c0-3.5,2.9-6.4,6.4-6.4h156c3.5,0,6.4,2.9,6.4,6.4C692.2,334.4,689.4,337.3,685.8,337.3z"/>
	<path class="st10" d="M634.7,375.7H529.9c-3.5,0-6.4,2.9-6.4,6.4c0,3.5,2.9,6.4,6.4,6.4h104.8c3.5,0,6.4-2.9,6.4-6.4
		C641.1,378.5,638.2,375.7,634.7,375.7z"/>
	<path class="st10" d="M685.8,350.1h-93.7c-3.5,0-6.4,2.9-6.4,6.4s2.9,6.4,6.4,6.4h93.7c3.5,0,6.4-2.9,6.4-6.4
		S689.4,350.1,685.8,350.1z"/>
	<path class="st10" d="M529.9,362.9h36.7c3.5,0,6.4-2.9,6.4-6.4s-2.9-6.4-6.4-6.4h-36.7c-3.5,0-6.4,2.9-6.4,6.4
		S526.3,362.9,529.9,362.9z"/>
	<path class="st10" d="M685.8,324.5h-156c-3.5,0-6.4,2.9-6.4,6.4c0,3.5,2.9,6.4,6.4,6.4h156c3.5,0,6.4-2.9,6.4-6.4
		C692.2,327.4,689.4,324.5,685.8,324.5z"/>
	<path class="st11" d="M713.1,293.8h-23c9.4,0,17,7.6,17,17v45.6v45.6c0,9.4-7.6,17-17,17h23c9.4,0,17-7.6,17-17v-45.6v-45.6
		C730.2,301.5,722.5,293.8,713.1,293.8z"/>
	<path class="st12" d="M310.9,554h65c2-3.4,3.2-7.5,3.2-12v-60c0-4.5-1.2-8.6-3.2-12h-65c-9.4,0-17,7.6-17,17v49.9
		C293.8,546.3,301.5,554,310.9,554z M365.9,505.6h0.9c3.5,0,6.4,2.9,6.4,6.4c0,3.5-2.9,6.4-6.4,6.4h-0.9c-3.5,0-6.4-2.9-6.4-6.4
		C359.5,508.5,362.3,505.6,365.9,505.6z M345,505.6h0.9c3.5,0,6.4,2.9,6.4,6.4c0,3.5-2.9,6.4-6.4,6.4H345c-3.5,0-6.4-2.9-6.4-6.4
		C338.6,508.5,341.4,505.6,345,505.6z M323.2,505.6h0.9c3.5,0,6.4,2.9,6.4,6.4c0,3.5-2.9,6.4-6.4,6.4h-0.9c-3.5,0-6.4-2.9-6.4-6.4
		C316.9,508.5,319.7,505.6,323.2,505.6z"/>
	<path class="st12" d="M310.9,709.5h68.2c9.4,0,17-7.6,17-17v0c0,9.4-7.6,17-17,17h-3.2c2-3.4,3.2-7.5,3.2-12v-60
		c0-4.5-1.2-8.6-3.2-12h-0.4l-28.9,65c-0.9,2.1-3,3.6-5.3,3.8c-0.2,0-0.4,0-0.5,0c-2.1,0-4.1-1.1-5.3-2.8l-17-25.6
		c-2-2.9-1.2-6.9,1.8-8.9c2.9-2,6.9-1.2,8.9,1.8l10.6,15.9l21.9-49.2h-50.6c-9.4,0-17,7.6-17,17v49.9
		C293.8,701.9,301.5,709.5,310.9,709.5z"/>
	<path class="st12" d="M379.1,326.5c0-4.5-1.2-8.6-3.2-12h-0.4l-28.9,65c-0.9,2.1-3,3.6-5.3,3.8c-0.2,0-0.4,0-0.5,0
		c-2.1,0-4.1-1.1-5.3-2.8l-17-25.6c-2-2.9-1.2-6.9,1.8-8.9c2.9-2,6.9-1.2,8.9,1.8l10.6,15.9l21.9-49.2h-50.6c-9.4,0-17,7.6-17,17
		v49.9c0,9.4,7.6,17,17,17h65c2-3.4,3.2-7.5,3.2-12V326.5z"/>
	<path class="st13" d="M379.1,542c0,4.5-1.2,8.6-3.2,12h3.2c0.6,0,1.2,0,1.7-0.1c8.6-0.9,15.3-8.1,15.3-17v-49.9
		c0-8.8-6.7-16.1-15.3-17c-0.6-0.1-1.2-0.1-1.7-0.1h-3.2c2,3.4,3.2,7.5,3.2,12V542z"/>
	<path class="st13" d="M379.1,697.5c0,4.5-1.2,8.6-3.2,12h3.2c9.4,0,17-7.6,17-17v-49.9v0c0-6.5-3.6-12.1-8.9-15
		c-2.4-1.3-5.2-2.1-8.1-2.1h-3.2c2,3.4,3.2,7.5,3.2,12V697.5z"/>
	<path class="st13" d="M379.1,314.5h-3.2c2,3.4,3.2,7.5,3.2,12v60c0,4.5-1.2,8.6-3.2,12h3.2c9.4,0,17-7.6,17-17v-49.9
		C396.1,322.1,388.5,314.5,379.1,314.5z"/>
	<path class="st3" d="M345,518.4h0.9c3.5,0,6.4-2.9,6.4-6.4c0-3.5-2.9-6.4-6.4-6.4H345c-3.5,0-6.4,2.9-6.4,6.4
		C338.6,515.5,341.4,518.4,345,518.4z"/>
	<path class="st3" d="M365.9,518.4h0.9c3.5,0,6.4-2.9,6.4-6.4c0-3.5-2.9-6.4-6.4-6.4h-0.9c-3.5,0-6.4,2.9-6.4,6.4
		C359.5,515.5,362.3,518.4,365.9,518.4z"/>
	<path class="st3" d="M323.2,518.4h0.9c3.5,0,6.4-2.9,6.4-6.4c0-3.5-2.9-6.4-6.4-6.4h-0.9c-3.5,0-6.4,2.9-6.4,6.4
		C316.9,515.5,319.7,518.4,323.2,518.4z"/>
	<path class="st7" d="M329,347.8c-2-2.9-5.9-3.7-8.9-1.8c-2.9,2-3.7,5.9-1.8,8.9l17,25.6c1.2,1.8,3.2,2.8,5.3,2.8c0.2,0,0.4,0,0.5,0
		c2.3-0.2,4.4-1.6,5.3-3.8l28.9-65l5.2-11.7c1.4-3.2,0-7-3.2-8.4c-3.2-1.4-7,0-8.4,3.2l-7.5,16.9l-21.9,49.2L329,347.8z"/>
	<path class="st7" d="M329,658.9c-2-2.9-5.9-3.7-8.9-1.8c-2.9,2-3.7,5.9-1.8,8.9l17,25.6c1.2,1.8,3.2,2.8,5.3,2.8c0.2,0,0.4,0,0.5,0
		c2.3-0.2,4.4-1.6,5.3-3.8l28.9-65l5.2-11.7c1.4-3.2,0-7-3.2-8.4c-3.2-1.4-7,0-8.4,3.2l-7.5,16.9l-21.9,49.2L329,658.9z"/>
	<path class="st1" d="M778.3,674.5c-11.8-5.2-24.8-8.1-38.5-8.1c-3.3,0-6.5,0.2-9.6,0.5c-8,0.8-15.7,2.6-23,5.3
		c-26.7,9.8-47.9,31.2-57.3,58.1c-3.4,9.8-5.3,20.4-5.3,31.4c0,10.7,1.8,20.9,5,30.5c3.8,11.3,9.7,21.6,17.1,30.5
		c17.5,20.9,43.7,34.2,73.1,34.2c52.6,0,95.2-42.6,95.2-95.2c0-26.3-10.6-50-27.8-67.3C798.9,686,789.1,679.3,778.3,674.5z
		 M764.3,789.5c0,5.7-4.6,10.3-10.3,10.3h-28.6c-5.7,0-10.3-4.6-10.3-10.3v-28.2c0-2.9,2.3-5.2,5.2-5.2h0.7V742
		c0-10.3,8.4-18.6,18.6-18.6c10.3,0,18.6,8.4,18.6,18.6v14.1h0.7c2.9,0,5.2,2.3,5.2,5.2V789.5z"/>
	<path class="st1" d="M732.3,741.9v14.2h15h0v-14.2c0-4.1-3.4-7.5-7.5-7.5S732.3,737.8,732.3,741.9z"/>
	<path class="st1" d="M739.8,768.4c-3.5,0-6.4,2.9-6.4,6.4c0,2.8,1.7,5.1,4.2,6v3.7c0,1.2,1,2.2,2.2,2.2c1.2,0,2.2-1,2.2-2.2v-3.7
		c2.4-0.9,4.2-3.3,4.2-6C746.2,771.3,743.3,768.4,739.8,768.4z"/>
	<path class="st2" d="M759.2,756.1h-0.7V742c0-10.3-8.4-18.6-18.6-18.6c-10.3,0-18.6,8.4-18.6,18.6v14.1h-0.7
		c-2.9,0-5.2,2.3-5.2,5.2v28.2c0,5.7,4.6,10.3,10.3,10.3h28.6c5.7,0,10.3-4.6,10.3-10.3v-28.2C764.3,758.4,762,756.1,759.2,756.1z
		 M747.3,741.9v14.2h0h-15v-14.2c0-4.1,3.4-7.5,7.5-7.5S747.3,737.8,747.3,741.9z M742,780.9v3.7c0,1.2-1,2.2-2.2,2.2
		c-1.2,0-2.2-1-2.2-2.2v-3.7c-2.4-0.9-4.2-3.3-4.2-6c0-3.5,2.9-6.4,6.4-6.4c3.5,0,6.4,2.9,6.4,6.4C746.2,777.6,744.5,780,742,780.9z
		"/>
</g>
</svg>
