<?xml version="1.0" encoding="utf-8"?>
<!-- Generator: Adobe Illustrator 22.0.0, SVG Export Plug-In . SVG Version: 6.00 Build 0)  -->
<svg version="1.1" id="Layer_1" xmlns="http://www.w3.org/2000/svg" xmlns:xlink="http://www.w3.org/1999/xlink" x="0px" y="0px"
	 viewBox="0 0 492 492" style="enable-background:new 0 0 492 492;" xml:space="preserve">
<g>
	<g>
		<path d="M300.2,246l184-184c5.1-5.1,7.9-11.8,7.9-19s-2.8-14-7.9-19L468,7.9C463,2.8,456.2,0,449,0s-14,2.8-19,7.9L246,191.8
			L62,7.9C57,2.8,50.2,0,43,0S29,2.8,24,7.9L7.9,24c-10.5,10.5-10.5,27.6,0,38l184,184L7.9,430C2.8,435,0,441.8,0,449s2.8,14,7.9,19
			L24,484.1c5.1,5.1,11.8,7.9,19,7.9s14-2.8,19-7.9l184-184l184,184c5.1,5.1,11.8,7.9,19,7.9l0,0c7.2,0,14-2.8,19-7.9l16.1-16.1
			c5.1-5.1,7.9-11.8,7.9-19s-2.8-14-7.9-19L300.2,246z"/>
	</g>
</g>
</svg>
