<?xml version="1.0" encoding="utf-8"?>
<!-- Generator: Adobe Illustrator 22.0.0, SVG Export Plug-In . SVG Version: 6.00 Build 0)  -->
<svg version="1.1" id="Layer_1" xmlns="http://www.w3.org/2000/svg" xmlns:xlink="http://www.w3.org/1999/xlink" x="0px" y="0px"
	 viewBox="0 0 512 512" style="enable-background:new 0 0 512 512;" xml:space="preserve">
<style type="text/css">
	.st0{fill:#FC1D1D;}
</style>
<g>
	<g>
		<path class="st0" d="M496.4,418.5l-214.7-356c-5.4-9-15.2-14.5-25.7-14.5c-10.5,0-20.2,5.5-25.7,14.5l-214.7,356
			c-5.6,9.3-5.7,20.8-0.4,30.2c5.3,9.4,15.3,15.2,26.1,15.2h429.4c10.8,0,20.8-5.8,26.1-15.2C502.1,439.3,501.9,427.8,496.4,418.5z
			 M256.2,171.2c12.3,0,22.8,7,22.8,19.3c0,37.6-4.4,91.7-4.4,129.3c0,9.8-10.7,13.9-18.3,13.9c-10.1,0-18.7-4.1-18.7-13.9
			c0-37.6-4.4-91.7-4.4-129.3C233.1,178.1,243.2,171.2,256.2,171.2z M256.5,404.2c-13.9,0-24.3-11.4-24.3-24.3
			c0-13.3,10.4-24.3,24.3-24.3c13,0,24,11.1,24,24.3C280.5,392.8,269.4,404.2,256.5,404.2z"/>
	</g>
</g>
</svg>
