<?xml version="1.0" encoding="utf-8"?>
<!-- Generator: Adobe Illustrator 15.1.0, SVG Export Plug-In . SVG Version: 6.00 Build 0)  -->
<!DOCTYPE svg PUBLIC "-//W3C//DTD SVG 1.1//EN" "http://www.w3.org/Graphics/SVG/1.1/DTD/svg11.dtd">
<svg version="1.1" id="Capa_1" xmlns="http://www.w3.org/2000/svg" xmlns:xlink="http://www.w3.org/1999/xlink" x="0px" y="0px"
	 width="20px" height="20px" viewBox="0 0 20 20" enable-background="new 0 0 20 20" xml:space="preserve">
<path fill="#855345" d="M18.67,10.259c-0.08-0.165-0.08-0.353,0-0.518l0.746-1.526c0.416-0.85,0.086-1.862-0.749-2.305l-1.501-0.796
	c-0.161-0.086-0.272-0.239-0.305-0.419l-0.293-1.673c-0.163-0.932-1.025-1.558-1.961-1.425l-1.682,0.238
	c-0.182,0.026-0.361-0.033-0.492-0.16l-1.222-1.181c-0.68-0.658-1.744-0.658-2.424,0L7.567,1.674
	C7.436,1.802,7.256,1.86,7.074,1.834L5.393,1.596C4.456,1.464,3.595,2.09,3.432,3.021L3.138,4.694
	c-0.032,0.18-0.143,0.333-0.305,0.419l-1.5,0.796C0.498,6.353,0.169,7.365,0.584,8.215L1.33,9.741c0.08,0.165,0.08,0.354,0,0.518
	l-0.746,1.526c-0.416,0.85-0.086,1.862,0.749,2.306l1.5,0.796c0.162,0.086,0.273,0.238,0.305,0.419l0.293,1.673
	c0.148,0.848,0.875,1.443,1.711,1.443c0.082,0,0.166-0.006,0.25-0.018l1.682-0.238c0.181-0.025,0.361,0.033,0.493,0.16l1.221,1.181
	C9.128,19.836,9.564,20,10,20s0.873-0.164,1.212-0.493l1.222-1.181c0.131-0.127,0.311-0.186,0.492-0.16l1.682,0.238
	c0.937,0.132,1.798-0.494,1.961-1.426l0.293-1.673c0.032-0.181,0.144-0.333,0.305-0.419l1.501-0.796
	c0.835-0.443,1.165-1.456,0.749-2.306L18.67,10.259z M7.693,4.809c1.166,0,2.115,0.949,2.115,2.115S8.859,9.039,7.693,9.039
	S5.578,8.09,5.578,6.924S6.527,4.809,7.693,4.809z M6.602,14.215c-0.113,0.112-0.26,0.168-0.408,0.168
	c-0.147,0-0.295-0.057-0.408-0.168c-0.225-0.226-0.225-0.591,0-0.816l7.613-7.613c0.226-0.225,0.591-0.225,0.816,0
	c0.225,0.226,0.225,0.59,0,0.816L6.602,14.215z M12.307,15.191c-1.166,0-2.114-0.949-2.114-2.115s0.948-2.115,2.114-2.115
	s2.115,0.949,2.115,2.115S13.473,15.191,12.307,15.191z"/>
</svg>
