<?xml version="1.0" encoding="utf-8"?>
<!-- Generator: Adobe Illustrator 22.0.0, SVG Export Plug-In . SVG Version: 6.00 Build 0)  -->
<svg version="1.1" id="Layer_1" xmlns="http://www.w3.org/2000/svg" xmlns:xlink="http://www.w3.org/1999/xlink" x="0px" y="0px"
	 viewBox="0 0 50 50" style="enable-background:new 0 0 50 50;" xml:space="preserve">
<g>
	<g>
		<path d="M25,0C15.3,0,7.4,7.9,7.4,17.6c0,3.3,0.9,6.5,2.6,9.2l14,22.5c0.3,0.4,0.7,0.7,1.2,0.7c0,0,0,0,0,0c0.5,0,1-0.3,1.2-0.7
			l13.6-22.7c1.6-2.7,2.5-5.8,2.5-9C42.6,7.9,34.7,0,25,0z M37.6,25.1L25.2,45.7L12.5,25.3c-1.4-2.3-2.2-5-2.2-7.7
			c0-8.1,6.6-14.7,14.7-14.7c8.1,0,14.7,6.6,14.7,14.7C39.7,20.2,38.9,22.8,37.6,25.1z M25,8.8c-4.8,0-8.8,3.9-8.8,8.8
			c0,4.8,3.9,8.8,8.8,8.8c5,0,8.8-4,8.8-8.8C33.8,12.7,29.8,8.8,25,8.8z M25,23.5c-3.2,0-5.9-2.6-5.9-5.9c0-3.2,2.6-5.9,5.9-5.9
			c3.2,0,5.9,2.6,5.9,5.9C30.9,20.8,28.3,23.5,25,23.5z"/>
	</g>
</g>
</svg>
