<svg height="480pt" viewBox="0 0 480 480" width="480pt" xmlns="http://www.w3.org/2000/svg"><path d="m472 240c0 128.128906-103.871094 232-232 232s-232-103.871094-232-232 103.871094-232 232-232 232 103.871094 232 232zm0 0" fill="#91dc5a"/><path d="m412.800781 240c0 17.28125-27.679687 29.921875-32.800781 45.519531-5.199219 16.160157 9.601562 42.640625-.160156 56.082031-9.917969 13.519532-39.761719 7.597657-53.359375 17.519532-13.359375 9.757812-16.960938 40-33.039063 45.277344-15.601562 5.042968-36.160156-17.199219-53.441406-17.199219s-37.839844 22.242187-53.441406 17.199219c-16.078125-5.277344-19.679688-35.519532-33.117188-45.277344-13.519531-9.921875-43.363281-4-53.28125-17.519532-9.761718-13.441406 5.039063-39.921874-.160156-56.082031-5.121094-15.597656-32.800781-28.238281-32.800781-45.519531s27.679687-29.921875 32.800781-45.519531c5.199219-16.160157-9.601562-42.640625.160156-56.082031 9.917969-13.519532 39.761719-7.597657 53.359375-17.519532 13.359375-9.757812 16.960938-40 33.039063-45.277344 15.601562-5.042968 36.160156 17.199219 53.441406 17.199219s37.839844-22.242187 53.441406-17.199219c16.078125 5.277344 19.679688 35.519532 33.117188 45.277344 13.519531 9.921875 43.363281 4 53.28125 17.519532 9.761718 13.441406-5.039063 39.921874.160156 56.082031 5.121094 15.597656 32.800781 28.238281 32.800781 45.519531zm0 0" fill="#ffeb99"/><path d="m232 176c0 13.253906-10.746094 24-24 24s-24-10.746094-24-24 10.746094-24 24-24 24 10.746094 24 24zm0 0" fill="#ff5023"/><path d="m296 296c0 13.253906-10.746094 24-24 24s-24-10.746094-24-24 10.746094-24 24-24 24 10.746094 24 24zm0 0" fill="#ff5023"/><g fill="#231f20"><path d="m240 0c-132.546875 0-240 107.453125-240 240s107.453125 240 240 240 240-107.453125 240-240c-.148438-132.484375-107.515625-239.851562-240-240zm0 464c-123.710938 0-224-100.289062-224-224s100.289062-224 224-224 224 100.289062 224 224c-.140625 123.652344-100.347656 223.859375-224 224zm0 0"/><path d="m401.152344 208.265625c-5.578125-4.429687-10.175782-9.96875-13.503906-16.265625-1.117188-7.359375-.675782-14.871094 1.289062-22.046875 2.320312-12.800781 4.726562-26.113281-2.664062-36.265625-7.394532-10.152344-21.519532-12.144531-33.921876-13.816406-7.355468-.328125-14.558593-2.191406-21.152343-5.472656-5.058594-5.199219-8.980469-11.394532-11.519531-18.191407-5.441407-11.375-11.589844-24.253906-23.824219-28.230469-11.742188-3.808593-23.519531 2.503907-34.894531 8.632813-6.332032 4.179687-13.472657 6.972656-20.960938 8.191406-7.492188-1.207031-14.644531-3.988281-20.984375-8.160156-11.375-6.128906-23.152344-12.441406-34.894531-8.632813-12.234375 4-18.402344 16.855469-23.824219 28.230469-2.53125 6.789063-6.445313 12.972657-11.496094 18.160157-6.582031 3.277343-13.777343 5.140624-21.121093 5.472656-12.40625 1.664062-26.464844 3.554687-33.925782 13.808594-7.464844 10.257812-4.984375 23.441406-2.65625 36.28125 1.953125 7.175781 2.382813 14.683593 1.261719 22.039062-3.335937 6.289062-7.929687 11.820312-13.503906 16.246094-9.214844 8.761718-19.65625 18.675781-19.65625 31.753906s10.402343 22.992188 19.648437 31.734375c5.578125 4.429687 10.175782 9.96875 13.503906 16.265625 1.117188 7.359375.675782 14.871094-1.289062 22.046875-2.320312 12.800781-4.726562 26.113281 2.664062 36.265625 7.394532 10.152344 21.519532 12.144531 33.921876 13.816406 7.355468.328125 14.558593 2.191406 21.152343 5.472656 5.058594 5.199219 8.980469 11.394532 11.519531 18.191407 5.441407 11.375 11.589844 24.253906 23.824219 28.230469 11.726563 3.816406 23.511719-2.511719 34.894531-8.632813 6.332032-4.179687 13.472657-6.972656 20.960938-8.191406 7.492188 1.207031 14.644531 3.988281 20.984375 8.160156 8.242187 5.410156 17.664063 8.769531 27.472656 9.792969 2.519531.011718 5.027344-.382813 7.421875-1.160156 12.234375-4 18.402344-16.855469 23.824219-28.230469 2.53125-6.789063 6.445313-12.972657 11.496094-18.160157 6.582031-3.277343 13.777343-5.140624 21.121093-5.472656 12.40625-1.664062 26.464844-3.554687 33.925782-13.808594 7.464844-10.257812 4.984375-23.441406 2.65625-36.28125-1.953125-7.175781-2.382813-14.683593-1.261719-22.039062 3.335937-6.289062 7.929687-11.820312 13.503906-16.246094 9.253907-8.761718 19.65625-18.675781 19.65625-31.753906s-10.402343-22.992188-19.648437-31.734375zm-11.023438 51.871094c-7.664062 6.09375-13.734375 13.953125-17.703125 22.902343-2.128906 9.867188-1.855469 20.097657.796875 29.832032 1.730469 9.527344 3.519532 19.386718.152344 24-3.367188 4.617187-13.445312 6.074218-23.117188 7.375-10.007812.464844-19.757812 3.34375-28.410156 8.394531-7.382812 6.621094-13.058594 14.929687-16.542968 24.214844-4.242188 8.886719-8.625 18.074219-14.320313 19.921875-5.230469 1.71875-13.960937-2.976563-22.398437-7.503906-8.574219-5.621094-18.382813-9.074219-28.585938-10.074219-10.195312 1.003906-19.992188 4.457031-28.558594 10.074219-8.410156 4.519531-17.082031 9.207031-22.402344 7.503906-5.6875-1.847656-10.078124-11.035156-14.320312-19.914063-3.484375-9.292969-9.164062-17.605469-16.550781-24.230469-8.652344-5.046874-18.394531-7.925781-28.398438-8.394531-9.671875-1.292969-19.679687-2.636719-23.121093-7.367187-3.441407-4.726563-1.601563-14.472656.152343-24 2.636719-9.742188 2.894531-19.976563.75-29.839844-3.964843-8.949219-10.039062-16.804688-17.703125-22.894531-7.199218-6.847657-14.664062-13.929688-14.664062-20.136719s7.464844-13.289062 14.671875-20.136719c7.660156-6.09375 13.734375-13.953125 17.703125-22.902343 2.144531-9.863282 1.882812-20.09375-.757813-29.832032-1.730469-9.527344-3.519531-19.386718-.152343-24 3.367187-4.617187 13.449218-6.074218 23.121093-7.375 10.007813-.464844 19.753907-3.34375 28.40625-8.394531 7.382813-6.621094 13.058594-14.929687 16.542969-24.214844 4.242188-8.886719 8.625-18.074219 14.320312-19.921875.800782-.246094 1.636719-.367187 2.472657-.359375 7.105469 1.230469 13.882812 3.90625 19.914062 7.863281 8.570313 5.617188 18.375 9.074219 28.574219 10.074219 10.195312-1.003906 19.992188-4.457031 28.558594-10.074219 8.410156-4.519531 17.089844-9.222656 22.402344-7.503906 5.6875 1.847656 10.078124 11.035156 14.320312 19.914063 3.484375 9.292969 9.164062 17.605469 16.550781 24.230469 8.652344 5.046874 18.394531 7.925781 28.398438 8.394531 9.671875 1.292969 19.679687 2.636719 23.121093 7.367187 3.441407 4.726563 1.601563 14.472656-.152343 24-2.636719 9.742188-2.894531 19.976563-.75 29.839844 3.964843 8.949219 10.039062 16.804688 17.703125 22.894531 7.199218 6.847657 14.664062 13.929688 14.664062 20.136719s-7.480468 13.289062-14.6875 20.136719zm0 0"/><path d="m160.800781 307.882812 147.082031-147.078124 11.3125 11.3125-147.078124 147.078124zm0 0"/><path d="m208 208c17.671875 0 32-14.328125 32-32s-14.328125-32-32-32-32 14.328125-32 32 14.328125 32 32 32zm0-48c8.835938 0 16 7.164062 16 16s-7.164062 16-16 16-16-7.164062-16-16 7.164062-16 16-16zm0 0"/><path d="m272 264c-17.671875 0-32 14.328125-32 32s14.328125 32 32 32 32-14.328125 32-32-14.328125-32-32-32zm0 48c-8.835938 0-16-7.164062-16-16s7.164062-16 16-16 16 7.164062 16 16-7.164062 16-16 16zm0 0"/></g></svg>