<?xml version="1.0" encoding="utf-8"?>
<!-- Generator: Adobe Illustrator 13.0.0, SVG Export Plug-In . SVG Version: 6.00 Build 14948)  -->
<!DOCTYPE svg PUBLIC "-//W3C//DTD SVG 1.1//EN" "http://www.w3.org/Graphics/SVG/1.1/DTD/svg11.dtd">
<svg version="1.1" id="Layer_1" xmlns="http://www.w3.org/2000/svg" xmlns:xlink="http://www.w3.org/1999/xlink" x="0px" y="0px"
	 width="612px" height="454px" viewBox="0 169.5 612 454" enable-background="new 0 169.5 612 454" xml:space="preserve">
<g>
	<path fill="#050505" d="M283.888,533.534c-24.632,0-44.499,19.842-44.499,44.499c0,24.505,19.866,44.406,44.499,44.406
		c24.53,0,44.51-19.901,44.51-44.406C328.398,553.376,308.418,533.534,283.888,533.534z"/>
	<path fill="#050505" d="M465.248,533.534c-24.59,0-44.493,19.842-44.493,44.499c0,24.505,19.902,44.406,44.493,44.406
		c24.529,0,44.479-19.901,44.479-44.406C509.728,553.376,489.777,533.534,465.248,533.534z"/>
	<polygon fill="#050505" points="501.564,335.583 247.499,335.583 257.639,368.967 491.503,368.967 	"/>
	<polygon fill="#050505" points="471.313,435.627 481.398,402.304 267.774,402.304 277.897,435.627 	"/>
	<polygon fill="#050505" points="222.615,253.098 237.327,302.29 545.696,302.29 495.42,468.791 253.851,468.791 163.208,169.561 
		0,169.561 0,218.379 126.611,218.379 217.461,517.953 531.65,517.953 612,253.098 	"/>
</g>
</svg>
