<?xml version="1.0" encoding="utf-8"?>
<!-- Generator: Adobe Illustrator 22.0.0, SVG Export Plug-In . SVG Version: 6.00 Build 0)  -->
<svg version="1.1" id="Capa_1" xmlns="http://www.w3.org/2000/svg" xmlns:xlink="http://www.w3.org/1999/xlink" x="0px" y="0px"
	 viewBox="0 0 512 512" style="enable-background:new 0 0 512 512;" xml:space="preserve">
<style type="text/css">
	.st0{fill:#FF0000;}
</style>
<g>
	<g>
		<path class="st0" d="M501.4,369.1L320.6,66.3c-13.7-23-37.8-36.7-64.6-36.7s-50.9,13.7-64.6,36.7L10.7,369.1
			c-14,23.5-14.2,51.7-0.7,75.5c13.5,23.8,37.9,38,65.3,38h361.6c27.3,0,51.7-14.2,65.3-38C515.6,420.8,515.3,392.6,501.4,369.1z
			 M256,122.1c16.6,0,30,13.4,30,30v120.1c0,16.6-13.4,30-30,30s-30-13.4-30-30V152.1l0,0C226,135.5,239.4,122.1,256,122.1z
			 M256,422.4c-24.8,0-45-20.2-45-45s20.2-45,45-45s45,20.2,45,45C301,402.2,280.8,422.4,256,422.4z"/>
	</g>
</g>
</svg>
2.417c-24.841,0-45.049-20.208-45.049-45.049
			c0-24.841,20.208-45.049,45.049-45.049c24.841,0,45.049,20.208,45.049,45.049C301.047,402.21,280.84,422.417,255.999,422.417z"/>
	</g>
</g>
<g>
</g>
<g>
</g>
<g>
</g>
<g>
</g>
<g>
</g>
<g>
</g>
<g>
</g>
<g>
</g>
<g>
</g>
<g>
</g>
<g>
</g>
<g>
</g>
<g>
</g>
<g>
</g>
<g>
</g>
</svg>
