<?xml version="1.0" encoding="iso-8859-1"?>
<!-- Generator: Adobe Illustrator 19.0.0, SVG Export Plug-In . SVG Version: 6.00 Build 0)  -->
<svg version="1.1" id="Layer_1" xmlns="http://www.w3.org/2000/svg" xmlns:xlink="http://www.w3.org/1999/xlink" x="0px" y="0px"
	 viewBox="0 0 511.997 511.997" style="enable-background:new 0 0 511.997 511.997;" xml:space="preserve">
<polygon style="fill:#ED5564;" points="485.32,433.309 477.32,405.324 433.321,388.497 365.321,355.497 317.321,345.748 
	251.994,351.981 201.166,351.981 164.659,345.748 143.987,355.497 98.66,379.31 48.66,402.653 24.66,415.996 21.324,452.652 
	24.66,499.996 492.648,499.996 "/>
<polygon style="fill:#EAC6BB;" points="130.995,194.498 135.995,228.998 156.995,271.998 201.166,319.998 238.494,344.248 
	261.494,345.748 293.493,336.998 334.181,305.998 372.993,255.998 388.993,194.498 "/>
<rect x="222.498" y="355.498" style="fill:#FFCE54;" width="64.5" height="144.5"/>
<polygon style="fill:#ED5564;" points="383.493,127.999 338.993,43.141 269.994,23.5 223.995,27 178.495,50 150.995,81.499 
	131.495,120.499 126.995,174.498 126.995,191.998 326.993,194.498 388.993,181.498 "/>
<g>
	<polygon style="fill:#FFCE54;" points="327.493,159.999 260.994,147.999 167.495,159.499 121.995,184.498 129.995,192.498 
		381.993,191.498 381.993,178.498 	"/>
	<polygon style="fill:#FFCE54;" points="165.495,299.998 156.995,345.748 205.416,391.497 245.33,357.997 	"/>
	<polygon style="fill:#FFCE54;" points="343.493,299.998 257.994,354.997 309.993,388.497 349.993,348.497 	"/>
</g>
<g>
	<path style="fill:#080808;" d="M248.455,451.121c-4.172,4.156-4.172,10.906,0,15.078c4.164,4.172,10.914,4.172,15.078,0
		c4.172-4.172,4.172-10.922,0-15.078C259.369,446.949,252.619,446.949,248.455,451.121z"/>
	<path style="fill:#080808;" d="M248.455,408.449c-4.172,4.172-4.172,10.922,0,15.078c4.164,4.172,10.914,4.172,15.078,0
		c4.172-4.156,4.172-10.906,0-15.078C259.369,404.277,252.619,404.277,248.455,408.449z"/>
	<path style="fill:#080808;" d="M460.212,386.356l-1.812-0.531c-26.469-7.109-35.438-13.938-47.219-18.422
		c-28.031-10.688-42.156-19.375-49.25-25.562l-6.094-45.25c19.875-26.875,34.578-59.625,37.25-93.938h11.469
		c5.859,0,8.406-4.234,5.656-9.406c0,0-3.266-6.125-12.281-14.25v-26.405c0-74.75-59-135.999-131.288-141.53
		c0-0.125,0.016-0.266,0.016-0.406C266.659,4.781,261.886,0,255.995,0s-10.664,4.781-10.664,10.656c0,0.141,0.016,0.281,0.016,0.406
		c-72.296,5.531-131.288,66.78-131.288,141.53l-0.009,26.406c-9.008,8.125-12.266,14.25-12.266,14.25
		c-2.758,5.172-0.211,9.406,5.656,9.406h11.453c2.68,34.312,17.375,67.062,37.25,93.938l-6.078,45.25
		c-7.094,6.187-21.219,14.874-49.265,25.562c-11.781,4.484-20.742,11.312-47.21,18.422l-1.812,0.531
		c-24.102,7.953-40.305,30.296-40.305,55.515v70.125h201.858h85.319h201.874v-70.125
		C500.523,416.652,484.305,394.31,460.212,386.356z M340.587,343.201l-32.219,35.874l-25.358-21.922
		c17.89-7.25,37.015-20.796,54.265-38.608L340.587,343.201z M203.612,379.075l-32.203-35.874l3.312-24.656
		c17.242,17.812,36.375,31.358,54.258,38.608L203.612,379.075z M148.128,181.326c11.227-5.938,24.438-10.702,39.312-14.218
		c20.039-4.719,43.102-7.109,68.554-7.109c25.438,0,48.515,2.391,68.562,7.109c14.875,3.516,28.078,8.28,39.312,14.218H148.128z
		 M145.003,105.765c6.156-14.344,14.953-27.266,26.164-38.391c11.171-11.093,24.117-19.812,38.476-25.921
		C224.424,35.187,240.018,32,255.994,32s31.562,3.188,46.343,9.453c14.375,6.109,27.312,14.828,38.5,25.921
		c11.188,11.125,20,24.047,26.156,38.391c6.375,14.859,9.609,30.625,9.609,46.828v11.375
		c-23.266-12.938-61.047-25.312-120.608-25.312c-59.57,0-97.351,12.359-120.608,25.312v-11.375
		C135.386,136.39,138.62,120.624,145.003,105.765z M371.681,202.654c-2.969,31.953-18.375,65.656-43.312,94.094
		c-12.25,13.953-25.969,25.625-39.688,33.766c-12.233,7.266-23.843,11.266-32.687,11.266s-20.453-4-32.687-11.266
		c-13.719-8.141-27.438-19.812-39.688-33.766c-24.937-28.438-40.343-62.141-43.312-94.094H371.681z M32.801,490.652v-48.781
		c0-15.906,10.164-29.969,25.328-35.156l1.195-0.344c19.945-5.374,30.961-10.64,39.812-14.874c3.422-1.641,6.383-3.062,9.258-4.156
		c16.148-6.156,36.414-14.719,50.953-25.641l35.375,39.422c2.109,2.344,5.016,3.53,7.945,3.53c2.469,0,4.953-0.843,6.969-2.593
		l3.695-3.188v91.78L32.801,490.652L32.801,490.652z M234.658,490.652V380.435l20.094-17.344c0.414,0,0.828,0.016,1.242,0.016
		s0.828-0.016,1.242-0.016l20.102,17.344v110.218h-42.68V490.652z M479.18,490.652H298.65v-91.78l3.703,3.188
		c2.016,1.75,4.5,2.593,6.969,2.593c2.922,0,5.828-1.187,7.953-3.53l35.375-39.438c14.531,10.953,34.812,19.5,50.969,25.656
		c2.844,1.094,5.812,2.516,9.234,4.156c8.859,4.234,19.859,9.5,39.812,14.874l1.203,0.344c15.155,5.188,25.312,19.25,25.312,35.156
		L479.18,490.652L479.18,490.652z"/>
	<path style="fill:#080808;" d="M234.658,96.233h22.656l-10.172,15.141c-3.289,4.906-1.984,11.531,2.906,14.812
		c1.82,1.219,3.891,1.812,5.938,1.812c3.43,0,6.805-1.656,8.859-4.719l21.336-31.766c2.188-3.266,2.405-7.484,0.562-10.953
		c-1.859-3.484-5.469-5.656-9.406-5.656h-22.664l10.172-15.156c3.289-4.874,1.984-11.499-2.906-14.796
		c-4.891-3.281-11.516-1.984-14.797,2.922l-21.335,31.749c-2.195,3.266-2.414,7.484-0.562,10.969
		C227.104,94.061,230.721,96.233,234.658,96.233z"/>
</g>
<g>
</g>
<g>
</g>
<g>
</g>
<g>
</g>
<g>
</g>
<g>
</g>
<g>
</g>
<g>
</g>
<g>
</g>
<g>
</g>
<g>
</g>
<g>
</g>
<g>
</g>
<g>
</g>
<g>
</g>
</svg>
