<?xml version="1.0" encoding="utf-8"?>
<!-- Generator: Adobe Illustrator 15.1.0, SVG Export Plug-In . SVG Version: 6.00 Build 0)  -->
<!DOCTYPE svg PUBLIC "-//W3C//DTD SVG 1.1//EN" "http://www.w3.org/Graphics/SVG/1.1/DTD/svg11.dtd">
<svg version="1.1" id="Layer_1" xmlns="http://www.w3.org/2000/svg" xmlns:xlink="http://www.w3.org/1999/xlink" x="0px" y="0px"
	 width="50px" height="49px" viewBox="0 0 50 49" enable-background="new 0 0 50 49" xml:space="preserve">
<g>
	<path fill-rule="evenodd" clip-rule="evenodd" fill="#AFB8C9" stroke="#000000" stroke-width="0.5" stroke-miterlimit="10" d="
		M9.739,26.655c-1.414,0.364-2.464,0.2-3.187,1.274c-1.572,2.335,2.259,7.907-3.399,6.796c4.162-0.616-1.189-5.986,1.275-9.134
		c1.145-1.46,2.854-1.105,5.098-2.123c-0.034-0.248,0.047-0.378,0.213-0.425c0.022-2.492-2.445-4.255-2.762-6.797
		c-0.297-2.383,0.693-3.98,1.487-6.16c0.627,3.851,4.14,6.54,2.761,11.045c0.265,0.514,0.871,0.688,1.487,0.85
		c-0.346,2.257,1.87,1.954,1.698,4.035c2.225,0.796,3.203-1.269,4.886-1.698c-0.027,1.53,0.316,3.431-1.062,3.611
		c-0.808,0.17-0.27-1.004-0.425-1.488c-0.702-0.082-1.125,1.351-2.124,1.488c-1.824,0.249-3.396-1.595-5.31-1.274
		c-3.357,0.562-2.664,4.369-2.974,8.708C7,35.6,6.399,35.634,5.915,35.788C8.738,33.876,4.752,26.883,9.739,26.655z M9.951,26.441
		c1.039-0.17,2.75-0.782,2.549-1.486C12.034,25.833,10.551,25.697,9.951,26.441z"/>
	<path fill-rule="evenodd" clip-rule="evenodd" fill="#AFB8C9" stroke="#000000" stroke-width="0.5" stroke-miterlimit="10" d="
		M17.385,38.762c3.692-1.5,9.881-0.967,11.684,1.911c-0.899,2.643-3.011,4.071-4.25,6.373c-2.603-3.021-8.112-5.3-13.381-4.249
		c-0.561-2.441-1.728-6.33,0.637-7.646C14.033,36.166,15.602,37.572,17.385,38.762z"/>
	<path fill-rule="evenodd" clip-rule="evenodd" fill="#AFB8C9" stroke="#000000" stroke-width="0.5" stroke-miterlimit="10" d="
		M40.75,22.832c3.767,1.612,8.988,6.282,4.885,11.681c0.223,3.834-1.665,5.558-5.098,5.735c-1.098,2.348-5.961,5.137-2.761,7.858
		c-2.092,0.812-4.791,0.456-5.311-1.485c1.288-2.979,9.406-5.562,6.159-10.196c-1.753-2.505-5.912-3.135-8.707-5.521
		c-3.264-2.786-2.511-6.173-4.037-10.196c-0.199-0.651-1.178-0.522-1.487-1.063c2.736,2.33,1.106,8.185,0,11.895
		c0.252,0.571,1.108-0.002,1.487,0c-0.283,0.426-0.943,0.473-1.487,0.637c-0.914,4.018,4.453,5.105,5.099,1.699
		c0.174-0.991-1.549-0.705-1.063-0.849c0.302-1.021,1.981-0.096,2.337,0.211c1.644,6.42-9.664,4.976-8.284-0.849
		c-0.704-1.152-1.599-1.315-1.912-2.762c-0.324-1.502,0.279-3.459,0.213-5.098C20.441,16.118,9.433,17.299,9.102,9.45
		c1.878,2.885,4.695,6.189,8.92,6.796c3.435,0.494,7.091-1.033,10.197,0.637c-6.42-2.431-17.062-0.639-18.693-7.859
		c1.534,2.127,3.738,4.423,6.797,5.31c4.552,1.322,11.189-0.058,14.02,3.186c1.875,2.149,1.54,6.631,3.186,9.134
		c1.75,2.661,4.497,2.778,8.071,3.397c-1.602-2.222-7.963-1.525-8.496-5.522c0.851,0.778,1.389,1.867,2.548,2.337
		c-3.337-2.093-2.148-6.201-4.034-9.346c-3.316-5.526-14.861-1.993-19.755-6.16c-1.161-0.988-3.077-2.961-1.274-4.672
		c3.221,5.771,14.629,3.353,20.391,6.583c-3.142-4.929-16.195-1.788-19.753-7.009c5.703-4.914,13.618-0.129,17.843,2.549
		c-1.196-1.235-2.129-3.211-4.25-4.461c-5.346-3.148-14.538-0.826-15.93,4.461C9.972,0.75,23.887-2.196,29.28,3.291
		c1.093,1.112,1.654,3.086,2.761,4.248c3.043,3.192,9.378,2.306,8.709,9.133c-0.201,2.047-1.889,3.881-0.637,5.947
		c1.091,0.048,3.163-1.011,3.186-0.637C42.531,22.347,41.771,22.72,40.75,22.832z M34.803,15.185c0.617,2,0.127,4.752,2.123,5.522
		c0.808-4.631-1.874-10.202-5.947-10.621C32.632,11.253,34.144,13.05,34.803,15.185z M22.482,31.54
		c2.408-4.112,2.083-11.487-2.761-11.895C22.935,21.776,19.303,29.611,22.482,31.54z M41.6,27.292
		c2.247,1.611,1.669,4.099,3.822,5.946c0.211-1.43,0.596-2.789,0.213-4.247c-2.44-2.656-8.126-2.07-8.709-6.584
		c-1.269-0.147-1.649-1.184-2.548-1.699C34.604,25.33,38.861,25.328,41.6,27.292z M28.856,26.867
		c3.807,5.179,13.321,5.39,11.469,13.168c1.576-0.617,2.607-1.782,2.762-3.822c0.006-0.572-1.069,0.572-1.063,0
		c0.304-0.333,1.107-0.168,1.063-0.85c-1.044-2.941-4.764-2.863-7.436-3.823c-3.474-1.249-4.541-3.586-6.159-6.798
		c-0.642-1.273-1.607-3.161-2.55-2.973C27.461,23.883,27.805,25.438,28.856,26.867z"/>
	<path fill-rule="evenodd" clip-rule="evenodd" fill="#AFB8C9" stroke="#000000" stroke-width="0.5" stroke-miterlimit="10" d="
		M8.039,23.256c-1.46,1.373-5,0.665-4.886,3.611c-1.657-4.033,4.386-2.702,4.674-5.523c0.208-2.044-1.78-3.62-1.912-5.735
		c-0.13-2.077,0.626-2.949,1.912-5.31c-0.6,1.978-1.555,3.064-1.275,5.523C6.859,18.517,9.585,20.646,8.039,23.256z"/>
</g>
</svg>
