<?xml version="1.0" encoding="iso-8859-1"?>
<!-- Generator: Adobe Illustrator 19.0.0, SVG Export Plug-In . SVG Version: 6.00 Build 0)  -->
<svg version="1.1" id="Capa_1" xmlns="http://www.w3.org/2000/svg" xmlns:xlink="http://www.w3.org/1999/xlink" x="0px" y="0px"
	 viewBox="0 0 512.001 512.001" style="enable-background:new 0 0 512.001 512.001;" xml:space="preserve">
<path style="fill:#FFC850;" d="M408.038,7.729H87.528c-9.529,0-17.325,7.796-17.325,17.325v84.892
	c0,9.529,7.796,17.325,17.325,17.325h320.51c9.529,0,17.325-7.796,17.325-17.325V25.055C425.363,15.525,417.568,7.729,408.038,7.729
	z"/>
<path style="fill:#F9B428;" d="M408.038,107.27H87.528c-9.529,0-17.325-7.796-17.325-17.325v20.001
	c0,9.529,7.796,17.325,17.325,17.325h320.51c9.529,0,17.325-7.796,17.325-17.325V89.945
	C425.363,99.474,417.568,107.27,408.038,107.27z"/>
<path style="fill:#9E6B57;" d="M295.271,450.678l-14.738-147.904h-34.194h-34.194l-14.738,147.904
	c-2.884,28.943,19.846,54.05,48.932,54.05l0,0l0,0C275.425,504.729,298.156,479.62,295.271,450.678z M246.339,470.651
	c-9.812,0-17.766-7.954-17.766-17.766c0-9.812,7.954-17.766,17.766-17.766c9.812,0,17.766,7.954,17.766,17.766
	C264.106,462.696,256.151,470.651,246.339,470.651z"/>
<path style="fill:#8C5A4B;" d="M217.409,450.678l14.738-147.904h-20.001l-14.738,147.904c-2.884,28.943,19.846,54.05,48.932,54.05
	l0,0c3.434,0,6.775-0.361,10.001-1.026C232.249,498.734,214.866,476.203,217.409,450.678z"/>
<path style="fill:#FC932B;" d="M105.9,126.014v31.747c0,12.443,9.979,22.53,22.287,22.53c12.31,0,22.288-10.088,22.288-22.53
	v-31.747C150.476,126.014,105.9,126.014,105.9,126.014z"/>
<path style="fill:#FFC850;" d="M150.476,126.014v94.303c0,12.443,9.979,22.53,22.287,22.53c12.31,0,22.288-10.088,22.288-22.53
	v-94.303L150.476,126.014L150.476,126.014z"/>
<path style="fill:#E87B18;" d="M125.901,157.761v-31.747H105.9v31.747c0,12.443,9.979,22.53,22.288,22.53
	c3.597,0,6.992-0.867,10.001-2.396C130.902,174.189,125.901,166.567,125.901,157.761z"/>
<path style="fill:#F9B428;" d="M170.477,220.316v-94.303h-20.001v94.303c0,12.443,9.979,22.53,22.287,22.53
	c3.597,0,6.992-0.867,10.001-2.396C175.479,236.745,170.477,229.124,170.477,220.316z"/>
<path style="fill:#FC932B;" d="M70.203,25.055v84.892c0,9.529,7.796,17.325,17.325,17.325h106.759l0,0
	c12.732,0,23.052-10.321,23.052-23.052V40.212c0,12.732,10.321,23.053,23.053,23.053c12.732,0,23.052-10.322,23.052-23.053V7.729
	l0,0H87.528C77.999,7.729,70.203,15.525,70.203,25.055z"/>
<path style="fill:#E87B18;" d="M194.287,108.609H87.528c-9.529,0-17.325-7.796-17.325-17.325v18.663
	c0,9.529,7.796,17.325,17.325,17.325h106.759c12.732,0,23.052-10.321,23.052-23.052V85.556
	C217.341,98.288,207.019,108.609,194.287,108.609z"/>
<path style="fill:#AD7B64;" d="M290.249,270.49h-83.557c-6.401,0-11.64,5.238-11.64,11.64v10.329c0,6.402,5.238,11.64,11.64,11.64
	h83.557c6.402,0,11.64-5.238,11.64-11.64V282.13C301.889,275.729,296.651,270.49,290.249,270.49z"/>
<path style="fill:#9E6B57;" d="M290.249,284.097h-83.557c-4.676,0-8.722-2.801-10.568-6.803c-0.681,1.476-1.072,3.111-1.072,4.836
	v10.329c0,6.402,5.238,11.64,11.64,11.64h83.557c6.402,0,11.64-5.238,11.64-11.64V282.13c0-1.725-0.391-3.36-1.072-4.836
	C298.972,281.296,294.926,284.097,290.249,284.097z"/>
<path style="fill:#E87B18;" d="M240.394,44.602c-8.815,0-16.47-4.948-20.348-12.216l-0.001,0.001c0,0-2.704-5.003-2.704,0.83v6.995
	c0,12.732,10.321,23.053,23.053,23.053c12.732,0,23.052-10.322,23.052-23.053V21.549C263.446,34.281,253.126,44.602,240.394,44.602z
	"/>
<path d="M457.211,59.772h-24.31V24.826C432.901,11.137,421.764,0,408.076,0H87.565C73.876,0,62.739,11.137,62.739,24.826v34.945
	H39.921c-4.143,0-7.5,3.357-7.5,7.5s3.357,7.5,7.5,7.5h22.818v34.945c0,13.689,11.137,24.826,24.824,24.826h10.872v23.904
	c0,16.425,13.363,29.788,29.788,29.788c5.38,0,10.427-1.441,14.788-3.946v36.041c0,16.425,13.363,29.788,29.789,29.788
	s29.789-13.363,29.789-29.788v-85.787h28.417c4.143,0,7.5-3.357,7.5-7.5c0-4.143-3.357-7.5-7.5-7.5h-10.399
	c2.708-4.559,4.269-9.876,4.269-15.553V66.274c4.559,2.707,9.879,4.263,15.554,4.263c16.847,0,30.553-13.706,30.553-30.554V15.001
	h137.093c5.417,0,9.824,4.407,9.824,9.825v84.892c0,5.417-4.406,9.825-9.824,9.825H266.009c-4.143,0-7.5,3.357-7.5,7.5
	c0,4.143,3.357,7.5,7.5,7.5h142.068c13.689,0,24.824-11.137,24.824-24.826V74.773h24.31c4.063,0,7.37,3.306,7.37,7.369v76.531
	c0,6.645-4.447,12.61-10.816,14.508l-201.133,59.909c-7.249,2.159-12.313,8.95-12.313,16.514v13.158h-33.591
	c-10.554,0-19.14,8.587-19.14,19.14v10.329c0,9.674,7.221,17.674,16.553,18.944l-13.84,138.886
	c-3.295,33.068,22.708,61.941,56.074,61.941c33.233,0,59.383-28.74,56.073-61.94l-4.859-48.778c-0.41-4.121-4.078-7.133-8.206-6.72
	c-4.122,0.41-7.131,4.085-6.72,8.206l4.859,48.779c2.418,24.263-16.664,45.451-41.148,45.451c-24.384,0-43.577-21.088-41.148-45.451
	l13.969-140.178h54.357l5.62,56.398c0.411,4.121,4.069,7.14,8.208,6.719c4.121-0.41,7.13-4.085,6.719-8.207l-5.471-54.909h1.656
	c10.554,0,19.14-8.587,19.14-19.14v-10.329c0-10.554-8.587-19.14-19.14-19.14h-34.966v-13.158c0-0.979,0.655-1.856,1.593-2.137
	l201.134-59.91c12.68-3.776,21.534-15.654,21.534-28.884V82.142C479.583,69.807,469.547,59.772,457.211,59.772z M128.224,173.235
	c-8.154,0-14.787-6.633-14.787-14.787v-23.904h29.575v23.904C143.012,166.602,136.378,173.235,128.224,173.235z M187.589,220.33
	c0,8.154-6.634,14.787-14.788,14.787c-8.154,0-14.788-6.633-14.788-14.787c0-10.454,0-76.026,0-85.787h29.576V220.33z
	 M255.983,39.982c0,8.576-6.976,15.553-15.552,15.553c-8.577,0-15.554-6.977-15.554-15.553c0-4.143-3.357-7.5-7.5-7.5
	c-4.143,0-7.5,3.357-7.5,7.5v64.007c0,8.576-6.976,15.553-15.552,15.553c-54.873,0-52.145,0-106.76,0
	c-5.417,0-9.824-4.407-9.824-9.825V24.826c0-5.417,4.406-9.825,9.824-9.825h168.418L255.983,39.982L255.983,39.982z
	 M294.425,281.901v10.329c0,2.243-1.896,4.139-4.139,4.139c-30.366,0-52.838,0-83.558,0c-2.243,0-4.139-1.896-4.139-4.139v-10.329
	c0-2.243,1.896-4.139,4.139-4.139h83.558C292.53,277.762,294.425,279.658,294.425,281.901z"/>
<path d="M221.226,452.995c0,13.868,11.283,25.15,25.151,25.15s25.15-11.282,25.15-25.15c0-13.868-11.282-25.151-25.15-25.151
	C232.509,427.845,221.226,439.128,221.226,452.995z M256.526,452.995c0,5.596-4.553,10.149-10.149,10.149
	c-5.597,0-10.15-4.553-10.15-10.149c0-5.597,4.553-10.15,10.15-10.15C251.973,442.845,256.526,447.398,256.526,452.995z"/>
<g>
</g>
<g>
</g>
<g>
</g>
<g>
</g>
<g>
</g>
<g>
</g>
<g>
</g>
<g>
</g>
<g>
</g>
<g>
</g>
<g>
</g>
<g>
</g>
<g>
</g>
<g>
</g>
<g>
</g>
</svg>
