<svg height="480pt" viewBox="0 -32 480.15576 480" width="480pt" xmlns="http://www.w3.org/2000/svg"><path d="m472.15625 296.078125v48c-.027344 8.824219-7.175781 15.972656-16 16h-408v-72c0-22.089844 17.90625-40 40-40h336c26.507812 0 48 21.488281 48 48zm0 0" fill="#ff6243"/><path d="m408.15625 352.078125c0 30.925781-25.074219 56-56 56-30.929688 0-56-25.074219-56-56 0-30.929687 25.070312-56 56-56 30.925781 0 56 25.070313 56 56zm0 0" fill="#57565c"/><path d="m424.15625 344.078125c.027344 5.425781-.78125 10.820313-2.402344 16h-14.15625c.386719-2.648437.574219-5.324219.558594-8 0-17.773437-8.4375-34.492187-22.734375-45.050781-14.300781-10.554688-32.757813-13.699219-49.746094-8.46875 9.4375-6.859375 20.816407-10.527344 32.480469-10.480469 30.925781 0 56 25.070313 56 56zm0 0" fill="#ff5023"/><path d="m296.796875 360.078125h-232.640625v32h248.878906c-8.808594-8.574219-14.519531-19.828125-16.238281-32zm0 0" fill="#d1d3d4"/><path d="m88.15625 368.078125c0 22.089844-17.910156 40-40 40-22.09375 0-40-17.910156-40-40s17.90625-40 40-40c22.089844 0 40 17.910156 40 40zm0 0" fill="#57565c"/><path d="m104.15625 360.078125c.035156 8.660156-2.777344 17.09375-8 24-2.300781 3.035156-5.023438 5.726563-8.082031 8h-7.917969c5.222656-6.90625 8.035156-15.339844 8-24 .019531-2.6875-.25-5.371094-.800781-8zm0 0" fill="#d1d3d4"/><path d="m296.15625 200.078125c0-8.835937-7.164062-16-16-16h-176c-8.835938 0-16 7.164063-16 16v48h208zm0 0" fill="#d1d3d4"/><path d="m472.15625 8.078125v32h-72l-36.960938 192-3.039062 16h-32l3.199219-16 42.242187-211.121094c1.484375-7.480469 8.050782-12.871093 15.679688-12.878906zm0 0" fill="#57565c"/><path d="m56.15625 368.078125c0 4.417969-3.582031 8-8 8s-8-3.582031-8-8 3.582031-8 8-8 8 3.582031 8 8zm0 0" fill="#3e3d42"/><path d="m368.15625 352.078125c0 8.835937-7.164062 16-16 16s-16-7.164063-16-16 7.164062-16 16-16 16 7.164063 16 16zm0 0" fill="#3e3d42"/><g fill="#ffa733"><path d="m184.15625 280.078125h32v48h-32zm0 0"/><path d="m120.15625 280.078125h32v48h-32zm0 0"/><path d="m248.15625 280.078125h32v48h-32zm0 0"/></g><path d="m88.15625 232.078125h208v16h-208zm0 0" fill="#bcbec0"/><path d="m363.195312 232.078125-3.039062 16h-32l3.199219-16zm0 0" fill="#3e3d42"/><path d="m104.15625 360.078125h-16.800781c-3.800781-18.625-20.1875-32.003906-39.199219-32v-4.640625c5.039062-2.222656 10.492188-3.367188 16-3.359375 19.011719-.003906 35.398438 13.375 39.199219 32 .550781 2.628906.820312 5.3125.800781 8zm0 0" fill="#ff5023"/><path d="m96.15625 384.078125c5.222656-6.90625 8.035156-15.339844 8-24h-16.800781c.550781 2.628906.820312 5.3125.800781 8 .035156 8.660156-2.777344 17.09375-8 24h7.917969c3.058593-2.273437 5.78125-4.964844 8.082031-8zm0 0" fill="#bcbec0"/><path d="m472.15625 48.078125c4.417969 0 8-3.582031 8-8v-32c0-4.417969-3.582031-8-8-8h-82.878906c-11.425782.027344-21.257813 8.089844-23.523438 19.289063l-44.15625 220.710937h-17.441406v-40c0-13.253906-10.746094-24-24-24h-176c-13.253906 0-24 10.746094-24 24v40.71875c-23.066406 3.921875-39.957031 23.882813-40 47.28125v32.71875c-20.8125 3.449219-36.933594 20.078125-39.730469 40.984375-2.800781 20.910156 8.378907 41.195312 27.546875 49.996094 19.171875 8.796875 41.839844 4.050781 55.871094-11.699219h226.152344c11.613281 10.328125 26.617187 16.023437 42.160156 16 29.140625-.085937 54.5625-19.796875 61.902344-48h42.097656c13.253906 0 24-10.746094 24-24v-48c-.035156-30.914063-25.085938-55.964844-56-56h-54.3125l36.921875-192zm-376 152c0-4.417969 3.582031-8 8-8h176c4.417969 0 8 3.582031 8 8v40h-192zm-48 200c-16.851562-.003906-30.8125-13.078125-31.921875-29.894531s11.015625-31.609375 27.722656-33.828125c16.703125-2.214844 32.265625 8.902343 35.582031 25.425781.429688 2.070312.632813 4.183594.617188 6.296875.042969 6.929687-2.207031 13.683594-6.402344 19.199219-6.0625 8.03125-15.535156 12.765625-25.597656 12.800781zm45.296875-16c0-.121094.054687-.25.09375-.367187.53125-1.667969.96875-3.359376 1.3125-5.074219.191406-.863281.488281-1.695313.632813-2.574219.4375-2.640625.660156-5.308594.664062-7.984375h194.085938c.160156.640625.441406 1.246094.625 1.886719.328124 1.136718.71875 2.242187 1.113281 3.359375.695312 1.96875 1.480469 3.898437 2.398437 5.785156.503906 1.089844 1.007813 2.152344 1.601563 3.199219.3125.578125.535156 1.191406.863281 1.761718zm258.703125 16c-23.96875-.03125-44.242188-17.734375-47.496094-41.480469-.171875-.933594-.289062-1.875-.359375-2.824218 0-.335938 0-.726563-.058593-1.078126 0-.664062-.0625-1.351562-.070313-2.089843 0-2.242188.140625-4.480469.425781-6.703125.101563-.800782.214844-1.535156.351563-2.289063.199219-1.160156.480469-2.28125.75-3.40625 4.710937-18.246093 19.644531-32.058593 38.199219-35.328125 1.3125-.21875 2.625-.433594 3.9375-.546875.320312 0 .65625 0 .984374-.046875 1.542969-.09375 3.085938-.144531 4.625-.101562.390626 0 .796876 0 1.167969.0625 1.429688.070312 2.847657.199218 4.253907.398437.472656.066407.9375.136719 1.410156.21875 1.277344.214844 2.542968.496094 3.796875.796875.546875.136719 1.089843.257813 1.601562.417969 1.175781.34375 2.328125.757813 3.472657 1.191406.542968.207031 1.101562.375 1.640624.609375 1.472657.621094 2.914063 1.316406 4.320313 2.085938.796875.464844 1.597656.984375 2.398437 1.488281.648438.402344 1.289063.800781 1.910157 1.234375.800781.574219 1.601562 1.183594 2.402343 1.8125.535157.425781 1.054688.859375 1.597657 1.304688.800781.65625 1.523437 1.320312 2.234375 2.023437.542968.53125 1.046875 1.089844 1.597656 1.601563.554688.511718 1.25 1.320312 1.832031 2.015624 1.042969 1.253907 2.019531 2.558594 2.929688 3.914063.230469.34375.425781.710937.640625 1.054687.726562 1.160157 1.429687 2.335938 2.0625 3.542969.207031.417969.402344.800781.601562 1.265625.582032 1.191406 1.121094 2.398438 1.597656 3.640625.167969.4375.328126.871094.480469 1.3125.449219 1.261719.800781 2.535157 1.167969 3.832031.113281.445313.242188.894532.34375 1.34375.3125 1.335938.539062 2.695313.730469 4.054688.0625.421875.152343.839844.199219 1.273438.207031 1.789062.3125 3.59375.320312 5.398437.027344 2.304687-.160156 4.609375-.558594 6.878906-3.453125 23.5625-23.628906 41.050781-47.441406 41.121094zm112-104v48c0 4.417969-3.582031 8-8 8h-40c-.011719-2.40625-.152344-4.808594-.433594-7.199219-.0625-.570312-.175781-1.128906-.253906-1.695312-.257812-1.824219-.570312-3.632813-.976562-5.402344-.136719-.605469-.304688-1.199219-.464844-1.800781-.449219-1.734375-.960938-3.4375-1.550782-5.109375-.199218-.585938-.417968-1.160156-.632812-1.738282-.644531-1.664062-1.355469-3.296874-2.136719-4.894531-.261719-.542969-.511719-1.097656-.800781-1.601562-.855469-1.65625-1.796875-3.253907-2.796875-4.800781-.273437-.429688-.511719-.878907-.800781-1.300782-1.234375-1.824218-2.546875-3.582031-3.945313-5.273437-.71875-.863281-1.503906-1.664063-2.261719-2.488281-.761718-.824219-1.496093-1.597657-2.289062-2.398438s-1.855469-1.722656-2.816406-2.5625c-.753906-.648438-1.511719-1.285156-2.296875-1.902344-.582031-.457031-1.101563-.976562-1.703125-1.417968-.441406-.328126-.921875-.574219-1.367188-.886719-.875-.609375-1.777344-1.167969-2.679687-1.726563-1.058594-.65625-2.089844-1.335937-3.203125-1.929687-1.238282-.679688-2.535156-1.261719-3.824219-1.863281-1.539063-.714844-3.109375-1.363282-4.703125-1.945313-1.253906-.460937-2.503906-.933594-3.789062-1.320313-.953126-.277343-1.914063-.503906-2.875-.742187-1.367188-.335937-2.734376-.648437-4.125-.894531-.90625-.160156-1.808594-.296875-2.722657-.417969-1.503906-.207031-3.03125-.34375-4.566406-.441406-.800781-.054688-1.671875-.109375-2.519531-.125-.503906 0-1-.082031-1.511719-.082031-1.1875 0-2.34375.113281-3.511719.175781-.746094.039062-1.480468.050781-2.234375.113281-1.597656.152344-3.199219.390625-4.800781.65625-3.394531.507812-6.746094 1.269531-10.03125 2.269531-20.292969 6.53125-35.785156 23.066407-40.976562 43.746094-.480469 1.710937-.902344 3.449219-1.230469 5.214844-.175781.96875-.320313 1.945312-.449219 2.929687-.445312 2.929688-.6875 5.890625-.71875 8.855469h-194.726562c-.113282-.320313-.28125-.601563-.402344-.921875-.273438-.726562-.609375-1.414062-.917969-2.125-.695313-1.621094-1.480469-3.199219-2.355469-4.730469-.421875-.726562-.796875-1.4375-1.292968-2.144531-1-1.53125-2.085938-3.007812-3.25-4.421875-.414063-.496094-.800782-1.023437-1.214844-1.511719-1.621094-1.824218-3.378906-3.523437-5.257813-5.082031-.390625-.320313-.796875-.582031-1.222656-.894531-1.53125-1.203125-3.132813-2.308594-4.800781-3.3125-.703125-.414063-1.414063-.800782-2.136719-1.175782-1.523437-.804687-3.089844-1.53125-4.695313-2.167968-.742187-.304688-1.480468-.609375-2.238281-.871094-2.039062-.699219-4.125-1.257812-6.242187-1.671875-.34375-.074219-.664063-.183594-1.007813-.242187l-.238281-.054688v-32.671875c0-17.671875 14.328125-32 32-32h336c22.078125.027344 39.972656 17.917969 40 40zm-71.855469-257.503906-38.753906 201.503906h-15.632813l43.515626-217.601563c.757812-3.726562 4.039062-6.402343 7.847656-6.398437h74.878906v16h-64c-3.839844 0-7.136719 2.726563-7.855469 6.496094zm0 0"/><path d="m216.15625 272.078125h-32c-4.417969 0-8 3.582031-8 8v48c0 4.417969 3.582031 8 8 8h32c4.417969 0 8-3.582031 8-8v-48c0-4.417969-3.582031-8-8-8zm-8 48h-16v-32h16zm0 0"/><path d="m152.15625 272.078125h-32c-4.417969 0-8 3.582031-8 8v48c0 4.417969 3.582031 8 8 8h32c4.417969 0 8-3.582031 8-8v-48c0-4.417969-3.582031-8-8-8zm-8 48h-16v-32h16zm0 0"/><path d="m280.15625 272.078125h-32c-4.417969 0-8 3.582031-8 8v48c0 4.417969 3.582031 8 8 8h32c4.417969 0 8-3.582031 8-8v-48c0-4.417969-3.582031-8-8-8zm-8 48h-16v-32h16zm0 0"/><path d="m64.15625 368.078125c0 8.835937-7.164062 16-16 16s-16-7.164063-16-16 7.164062-16 16-16 16 7.164063 16 16zm0 0"/><path d="m352.15625 328.078125c-13.253906 0-24 10.746094-24 24s10.746094 24 24 24 24-10.746094 24-24-10.746094-24-24-24zm0 32c-4.417969 0-8-3.582031-8-8s3.582031-8 8-8 8 3.582031 8 8-3.582031 8-8 8zm0 0"/></svg>