<?xml version="1.0" encoding="iso-8859-1"?>
<!-- Generator: Adobe Illustrator 19.0.0, SVG Export Plug-In . SVG Version: 6.00 Build 0)  -->
<svg version="1.1" id="Capa_1" xmlns="http://www.w3.org/2000/svg" xmlns:xlink="http://www.w3.org/1999/xlink" x="0px" y="0px"
	 viewBox="0 0 490.88 490.88" style="enable-background:new 0 0 490.88 490.88;" xml:space="preserve">
<path style="fill:#FFA64D;" d="M202.88,1.44c-79.4,0-144,64.6-144,144v72h9.128c-0.664-2.568-1.128-5.224-1.128-8
	c0-17.672,14.328-32,32-32v-22.176c0-15.832,8.944-30.296,23.104-37.376c5.848-2.928,12.304-4.448,18.848-4.448
	c9.12,0,17.992,2.96,25.288,8.432l7.96,5.968c8.312,6.232,18.416,9.6,28.8,9.6s20.488-3.368,28.8-9.6l7.96-5.968
	c7.296-5.472,16.168-8.432,25.288-8.432c6.544,0,13,1.52,18.848,4.448c14.16,7.08,23.104,21.552,23.104,37.376v22.176
	c17.672,0,32,14.328,32,32c0,2.776-0.464,5.432-1.128,8h9.128v-72C346.88,66.04,282.28,1.44,202.88,1.44z"/>
<path style="fill:#333333;" d="M317.816,440.448l-15.872,1.984l3.872,31.008h-89.272l79.64-57.512l-9.368-12.968l-43.144,31.16
	l61.76-84.56l-6.464-4.72l1.216-7.904l-41.304-6.36v-0.288c29.208-16.96,50.032-46.696,54.832-81.536
	c18.792-3.264,33.168-19.592,33.168-39.312c0-19.312-13.768-35.472-32-39.192v-14.984c0-18.984-10.544-36.048-27.52-44.536
	c-16.568-8.28-37.704-6.376-52.512,4.736l-7.968,5.976c-13.752,10.32-34.248,10.328-48,0l-7.96-5.968
	c-14.816-11.112-35.944-13.016-52.512-4.736c-16.984,8.488-27.528,25.544-27.528,44.536v14.984c-18.232,3.712-32,19.872-32,39.184
	c0,19.72,14.376,36.048,33.168,39.312c4.8,34.848,25.616,64.576,54.832,81.536v0.288l-41.304,6.352
	c-36.96,5.688-68.048,32.424-79.2,68.112L0,489.44h394.88v-16h-72.936L317.816,440.448z M218.032,406.056L202.88,438.52
	l-41.472-88.872l41.472,20.736l41.472-20.736L224.216,392.8l14.496,6.768l24.336-52.152l21.688,3.336l-64.384,88.152l12.168-26.072
	L218.032,406.056z M202.88,352.496l-16.96-8.48c5.544,0.848,11.184,1.424,16.96,1.424s11.416-0.576,16.96-1.424L202.88,352.496z
	 M185.368,438.84l-64.288-88.104l21.624-3.328L185.368,438.84z M162.152,434.16l-90.936-65.672
	c9.48-7.112,20.44-12.184,32.28-14.712L162.152,434.16z M330.88,209.44c0,10.416-6.712,19.216-16,22.528V186.92
	C324.168,190.224,330.88,199.024,330.88,209.44z M74.88,209.44c0-10.416,6.712-19.216,16-22.528v45.048
	C81.592,228.656,74.88,219.856,74.88,209.44z M106.88,233.44v-78.168c0-12.88,7.16-24.464,18.68-30.224
	c4.712-2.36,9.992-3.608,15.272-3.608c7.344,0,14.624,2.424,20.488,6.832l7.96,5.968c19.256,14.456,47.944,14.448,67.2,0l7.96-5.976
	c10.08-7.568,24.48-8.864,35.76-3.224c11.52,5.76,18.68,17.344,18.68,30.232v78.168c0,52.936-43.064,96-96,96
	S106.88,286.376,106.88,233.44z M41.648,409.816c3.568-11.424,9.608-21.728,17.392-30.392l130.176,94.016h-89.28l6.872-55.008
	l-15.872-1.984l-7.12,56.992H21.76L41.648,409.816z"/>
<circle style="fill:#FFA64D;" cx="386.88" cy="385.44" r="104"/>
<g>
	<path style="fill:#333333;" d="M170.88,181.44c0-11.024-8.976-20-20-20s-20,8.976-20,20s8.976,20,20,20
		S170.88,192.464,170.88,181.44z M146.88,181.44c0-2.208,1.792-4,4-4s4,1.792,4,4s-1.792,4-4,4S146.88,183.648,146.88,181.44z"/>
	<path style="fill:#333333;" d="M254.88,201.44c11.024,0,20-8.976,20-20s-8.976-20-20-20s-20,8.976-20,20
		S243.856,201.44,254.88,201.44z M254.88,177.44c2.208,0,4,1.792,4,4s-1.792,4-4,4s-4-1.792-4-4S252.672,177.44,254.88,177.44z"/>
	<path style="fill:#333333;" d="M266.88,225.44h-16c0,26.472-21.528,48-48,48s-48-21.528-48-48h-16c0,35.288,28.712,64,64,64
		S266.88,260.728,266.88,225.44z"/>
	<polygon style="fill:#333333;" points="450.88,337.44 394.88,337.44 394.88,313.44 378.88,313.44 378.88,337.44 322.88,337.44 
		322.88,369.44 338.88,369.44 338.88,353.44 378.88,353.44 378.88,433.44 346.88,433.44 346.88,449.44 426.88,449.44 426.88,433.44 
		394.88,433.44 394.88,353.44 434.88,353.44 434.88,369.44 450.88,369.44 	"/>
	<path style="fill:#333333;" d="M450.88,369.44c0,4.408-3.592,8-8,8s-8-3.592-8-8h-16c0,13.232,10.768,24,24,24s24-10.768,24-24
		H450.88z"/>
	<path style="fill:#333333;" d="M330.88,377.44c-4.408,0-8-3.592-8-8h-16c0,13.232,10.768,24,24,24s24-10.768,24-24h-16
		C338.88,373.848,335.288,377.44,330.88,377.44z"/>
</g>
<g>
</g>
<g>
</g>
<g>
</g>
<g>
</g>
<g>
</g>
<g>
</g>
<g>
</g>
<g>
</g>
<g>
</g>
<g>
</g>
<g>
</g>
<g>
</g>
<g>
</g>
<g>
</g>
<g>
</g>
</svg>
