<?xml version="1.0" encoding="iso-8859-1"?>
<!-- Generator: Adobe Illustrator 19.0.0, SVG Export Plug-In . SVG Version: 6.00 Build 0)  -->
<svg version="1.1" id="Capa_1" xmlns="http://www.w3.org/2000/svg" xmlns:xlink="http://www.w3.org/1999/xlink" x="0px" y="0px"
	 viewBox="0 0 512 512" style="enable-background:new 0 0 512 512;" xml:space="preserve">
<rect y="354.338" style="fill:#80CBC4;" width="511.002" height="41.14"/>
<g>
	<path style="fill:#26A69A;" d="M511.002,365.401v-11.063H355.306v41.14h155.696v-4.709c-0.986-1.162-2.012-2.298-3.101-3.387
		c-4.034-4.034-8.586-7.363-13.505-9.924C500.741,374.616,506.385,370.483,511.002,365.401z"/>
	<rect x="87.828" y="354.338" style="fill:#26A69A;" width="163.68" height="41.14"/>
</g>
<path style="fill:#82B1FF;" d="M388.447,120.268c-6.119-11.229-17.885-18.217-30.673-18.217h-26.92v13.973
	c0,13.78-11.171,24.951-24.951,24.951s-24.951-11.171-24.951-24.951v-13.973h-26.959c-12.793,0-24.562,6.993-30.68,18.228
	l-25.89,47.553l26.539,14.959l21.56-36.826h4.198l11.771,67.867v72.858h84.834v-72.858l15.048-67.867h3.915l22.326,36.956
	l26.757-15.081L388.447,120.268z"/>
<path style="fill:#448AFF;" d="M346.324,222.217l-39.749,39.749c-0.231,0.231-0.448,0.469-0.672,0.705
	c-0.224-0.236-0.441-0.475-0.672-0.705l-43.742-43.743v68.466h84.834V222.217z"/>
<path style="fill:#FDD8A8;" d="M493.786,401.496c6.318,6.318,10.23,15.061,10.23,24.702H395.228
	c-11.028,0-19.961-8.933-19.961-19.961v-51.899H0v-43.914h107.789c12.715-26.588,42.627-40.301,71.071-32.566l31.728,8.613
	c0,0,169.898,0.01,170.257,0.02c7.974,0.279,15.16,3.633,20.43,8.903c5.509,5.509,8.923,13.114,8.923,21.518h23.953l10.979-14.971
	h28.943c8.264,0,15.749,3.353,21.169,8.773c5.419,5.419,8.773,12.905,8.773,21.169c0,16.538-13.404,29.941-29.942,29.941h-28.943
	l-10.979-14.971h-23.953v44.413h58.885C478.725,391.266,487.468,395.178,493.786,401.496z"/>
<g>
	<path style="fill:#FFC477;" d="M251.509,307.04l3.867,3.867c6.658,6.658,15.629,10.655,25.045,10.684
		c4.71,0.015,9.27-0.894,13.485-2.645c4.192-1.727,8.024-4.292,11.328-7.585c0.23-0.23,0.449-0.469,0.669-0.699
		c0.22,0.23,0.439,0.469,0.669,0.699c6.597,6.597,15.37,10.23,24.702,10.23c4.671,0,9.192-0.908,13.374-2.645
		c4.192-1.727,8.024-4.292,11.328-7.585l24.871-24.871c-0.006-0.014-0.002-0.006-0.008-0.02H210.589l-31.728-8.613
		c-28.444-7.735-58.356,5.978-71.071,32.566H87.828v23.953H0v19.961h375.267l0,0c0-11.024-8.937-19.961-19.961-19.961H251.509
		V307.04z"/>
	<path style="fill:#FFC477;" d="M474.074,342.581h-28.943l-10.979-8.982v13.254l10.979,14.971h28.943
		c16.538,0,29.942-13.404,29.942-29.941c0-3.644-0.654-7.135-1.847-10.367C497.949,332.94,486.965,341.084,474.074,342.581z"/>
</g>
<path style="fill:#FDD8A8;" d="M305.903,140.975c13.78,0,24.951-11.171,24.951-24.951v-13.973h-10.22V82.09l14.971-10.979V38.175
	c0-16.537-13.405-29.942-29.941-29.942c-16.536,0-29.942,13.405-29.942,29.942v32.936l14.971,10.979v19.961h-9.741v13.973
	C280.951,129.803,292.122,140.975,305.903,140.975z"/>
<g>
	<rect x="41.751" y="395.478" style="fill:#B0BEC5;" width="29.942" height="115.774"/>
	<rect x="427.166" y="426.198" style="fill:#B0BEC5;" width="29.942" height="85.054"/>
</g>
<path style="fill:#F8BBD0;" d="M210.589,286.471l-31.73-8.618c-28.446-7.726-58.35,5.979-71.069,32.571v130.963h123.758V286.471
	H210.589z"/>
<g>
	<path style="fill:#FDD8A8;" d="M177.364,204.675l92.584,92.575c5.846,5.846,15.323,5.845,21.169,0l0,0
		c5.846-5.846,5.846-15.323,0-21.169l-76.805-76.805l9.65-16.485l-26.539-14.959L177.364,204.675z"/>
	<path style="fill:#FDD8A8;" d="M414.37,167.839l-26.757,15.081l9.881,16.355l-76.805,76.805c-5.846,5.846-5.846,15.323,0,21.169
		l0,0c5.846,5.846,15.323,5.846,21.169,0l92.584-92.575L414.37,167.839z"/>
</g>
<g>
	<rect x="427.166" y="426.198" style="fill:#90A4AE;" width="29.942" height="19.961"/>
	<rect x="41.751" y="395.478" style="fill:#90A4AE;" width="29.942" height="19.961"/>
</g>
<path style="fill:#FFC477;" d="M305.903,119.018c-10.987,0-20.308-7.104-23.639-16.967h-1.312v13.973
	c0,13.78,11.171,24.951,24.951,24.951s24.951-11.171,24.951-24.951v-13.973h-1.312C326.211,111.913,316.889,119.018,305.903,119.018
	z"/>
<rect x="261.489" y="395.478" style="fill:#82B1FF;" width="84.834" height="115.774"/>
<rect x="261.489" y="395.478" style="fill:#448AFF;" width="84.834" height="19.961"/>
<path d="M512,387.992h-24.453c-5.685-2.753-11.961-4.212-18.463-4.212h-51.4v-29.442h12.674l10.979,14.971h32.737
	c20.638,0,37.427-16.789,37.427-37.427c0-9.992-3.893-19.39-10.965-26.461c-7.071-7.071-16.469-10.966-26.462-10.966h-32.737
	l-10.979,14.971h-13.411c-1.45-7.271-5.011-13.958-10.379-19.325c-7.168-7.168-16.689-11.115-26.811-11.115h-9.047l72.982-72.974
	l-48.673-89.325c-7.435-13.644-21.708-22.121-37.246-22.121h-29.655v-8.683l14.971-10.979V38.175
	c0-20.638-16.789-37.427-37.427-37.427c-20.638,0-37.427,16.789-37.427,37.427v36.728l14.971,10.979v8.683h-29.214
	c-15.546,0-29.821,8.481-37.253,22.135l-48.626,89.312l72.981,72.973h-29.508l-30.762-8.351
	c-30.387-8.263-62.241,5.249-77.569,32.304H0v14.971h100.304v28.943H0v14.971h100.304v26.169H0v14.971h34.266v108.288h14.971
	V402.963h14.971v108.288h14.971V402.963h21.126v45.91h138.729v-45.91h14.971v108.288h14.971V402.963h26.947v108.288h14.971V402.963
	h27.945v108.288h14.971V402.963h13.973v3.274c0,15.134,12.313,27.446,27.446,27.446h24.452v77.569h14.971v-77.569h14.971v77.569
	h14.971v-77.569h46.908v-7.485c0-8.383-2.42-16.39-6.919-23.235H512V387.992z M336.566,291.957
	c-1.414,1.414-3.294,2.192-5.293,2.192c-1.998,0-3.877-0.779-5.292-2.193c-1.413-1.413-2.191-3.293-2.191-5.291
	c0-1.999,0.777-3.878,2.192-5.292l80.949-80.95l-8.922-14.768l13.422-7.564l13.759,25.25L336.566,291.957z M388.055,198.129
	l-34.246,34.245v-17.722l11.874-53.554L388.055,198.129z M283.207,38.175c0-12.383,10.074-22.456,22.456-22.456
	c12.382,0,22.456,10.073,22.456,22.456v29.143l-14.971,10.979v31.239h10.22v6.487c0,9.63-7.836,17.466-17.466,17.466
	c-9.63,0-17.466-7.836-17.466-17.466v-6.487h9.741V78.297l-14.971-10.979V38.175z M200.365,178.082l13.293,7.493l-8.726,14.906
	l80.891,80.891c1.414,1.414,2.192,3.293,2.192,5.292c0,1.998-0.777,3.877-2.192,5.292c-1.413,1.413-3.293,2.192-5.291,2.192
	c-1.999,0-3.878-0.778-5.293-2.192l-88.626-88.618L200.365,178.082z M244.88,161.874l9.124,52.602v13.906l-30.312-30.313
	L244.88,161.874z M115.275,433.903V312.204c11.543-22.385,37.18-33.774,61.625-27.123l32.691,8.875h14.472v139.947H115.275z
	 M239.033,387.992v-26.169h128.749v26.169H239.033z M395.228,418.712c-6.88,0-12.476-5.596-12.476-12.476v-59.384H239.033v-52.897
	h17.034l8.588,8.587c4.241,4.241,9.88,6.576,15.877,6.576c5.998,0,11.636-2.336,15.876-6.576c4.242-4.242,6.577-9.88,6.577-15.878
	c0-5.998-2.335-11.636-6.576-15.878l-27.434-27.434v-30.165l-12.957-74.708h-14.789l-20.007,34.176l-13.698-7.722l22.363-41.075
	c4.81-8.835,14.047-14.323,24.105-14.323h19.474v6.487c0,17.885,14.551,32.437,32.437,32.437c17.886,0,32.437-14.552,32.437-32.437
	v-6.487h19.435c10.054,0,19.289,5.484,24.1,14.313l22.393,41.095l-14.002,7.892L369.51,138.48h-14.146l-16.526,74.533v34.332
	l-23.442,23.442c-4.241,4.242-6.576,9.88-6.576,15.878c0,5.998,2.335,11.636,6.576,15.877c4.241,4.241,9.879,6.576,15.877,6.577
	c0,0,0,0,0.001,0c5.997,0,11.635-2.335,15.876-6.576l8.588-8.587h24.02c6.123,0,11.885,2.39,16.225,6.731
	c4.341,4.34,6.73,10.101,6.73,16.224v7.485h35.232l10.979-14.971h25.15c5.994,0,11.632,2.337,15.875,6.58
	c4.244,4.244,6.581,9.882,6.581,15.876c0,12.383-10.074,22.456-22.456,22.456h-25.15l-10.979-14.971h-35.232v59.384h66.37
	c7.333,0,14.225,2.854,19.408,8.037c3.369,3.368,5.754,7.459,7.01,11.924H395.228z"/>
<g>
	<path style="fill:#FFFFFF;" d="M145.216,420.429h-14.971v-14.971h14.971V420.429z M145.216,390.487h-14.971v-14.971h14.971V390.487
		z M145.216,360.546h-14.971v-14.971h14.971V360.546z M145.216,330.604h-14.971v-14.971h14.971V330.604z"/>
	<path style="fill:#FFFFFF;" d="M209.092,420.429h-14.971v-14.971h14.971V420.429z M209.092,390.487h-14.971v-14.971h14.971V390.487
		z M209.092,360.546h-14.971v-14.971h14.971V360.546z M209.092,330.604h-14.971v-14.971h14.971V330.604z"/>
	<rect x="295.922" y="161.435" style="fill:#FFFFFF;" width="14.971" height="14.971"/>
	<rect x="295.922" y="197.115" style="fill:#FFFFFF;" width="14.971" height="14.971"/>
	<rect x="295.922" y="232.795" style="fill:#FFFFFF;" width="14.971" height="14.971"/>
</g>
<g>
</g>
<g>
</g>
<g>
</g>
<g>
</g>
<g>
</g>
<g>
</g>
<g>
</g>
<g>
</g>
<g>
</g>
<g>
</g>
<g>
</g>
<g>
</g>
<g>
</g>
<g>
</g>
<g>
</g>
</svg>
