<svg height="472pt" viewBox="-120 0 472 472.25215" width="472pt" xmlns="http://www.w3.org/2000/svg"><path d="m168.125 254.5v190c.003906 11.046875-8.953125 20.003906-20 20h-120c-11.046875.003906-20.003906-8.953125-20-20v-190c.007812-32.597656 19.785156-61.9375 50-74.179688v-34.820312h60v34.820312c30.222656 12.234376 50.003906 41.578126 50 74.179688zm-35.667969 170.332031v-166h-88.660156v166zm0 0" fill="#00acea"/><path d="m43.796875 258.832031h88.660156v166h-88.660156zm0 0" fill="#00efd1"/><path d="m88.125 79.980469h-21v-49.148438h42v49.148438zm0 0" fill="#fedb41"/><path d="m107.625 106.5v39h-39v-39zm0 0" fill="#00efd1"/><g fill="#083863"><path d="m126.125 175.109375v-29.609375c.019531-4.464844-3.53125-8.128906-8-8.25h-3v-30.75c0-4.417969-3.082031-8.25-7.5-8.25h-11.5v-10h13c4.472656-.125 8.023438-3.796875 8-8.269531v-49.148438c0-4.417969-3.582031-7.582031-8-7.582031h-42c-4.417969 0-8 3.164062-8 7.582031v49.148438c-.019531 4.472656 3.53125 8.144531 8 8.269531h13v10h-11.5c-4.566406.078125-8.285156 3.691406-8.5 8.25v30.75h-2c-4.464844.121094-8.019531 3.785156-8 8.25v29.609375c-30.546875 14.644531-49.988281 45.515625-50 79.390625v190c.019531 7.398438 2.984375 14.484375 8.238281 19.691406 5.253907 5.207032 12.367188 8.109375 19.761719 8.058594h120c7.398438.050781 14.511719-2.851562 19.765625-8.058594 5.253906-5.207031 8.21875-12.292968 8.234375-19.691406v-190c.101562-33.90625-19.375-64.832031-50-79.390625zm-51-135.859375h26v33h-26zm1 75h23v23h-23zm84 330.25c-.011719 3.15625-1.289062 6.175781-3.542969 8.382812-2.253906 2.210938-5.300781 3.421876-8.457031 3.367188h-120c-3.15625.054688-6.199219-1.15625-8.453125-3.367188-2.257813-2.207031-3.53125-5.226562-3.546875-8.382812v-190c.011719-29.339844 17.808594-55.746094 45-66.761719 3.023438-1.222656 5-4.15625 5-7.417969v-27.070312h44v27.070312c0 3.261719 1.980469 6.195313 5 7.417969 27.253906 10.941407 45.082031 37.394531 45 66.761719zm0 0"/><path d="m224.125 50.25h-77c-4.417969 0-8 3.582031-8 8s3.582031 8 8 8h77c4.417969 0 8-3.582031 8-8s-3.582031-8-8-8zm0 0"/><path d="m139.578125 30.652344c.699219 2.003906 2.167969 3.644531 4.082031 4.566406 1.914063.917969 4.113282 1.039062 6.117188.332031l57-20c4.167968-1.460937 6.363281-6.03125 4.898437-10.199219-1.460937-4.167968-6.027343-6.363281-10.199219-4.898437l-57 20c-4.167968 1.460937-6.363281 6.027344-4.898437 10.199219zm0 0"/><path d="m206.773438 100.453125-57-20c-4.167969-1.464844-8.734376.730469-10.199219 4.898437-1.460938 4.167969.730469 8.738282 4.902343 10.199219l57 20c4.167969 1.464844 8.734376-.730469 10.199219-4.898437 1.460938-4.171875-.730469-8.738282-4.902343-10.199219zm0 0"/><path d="m141.125 259.25c0-4.417969-3.582031-8-8-8h-89c-4.417969 0-8 3.582031-8 8v166c0 4.417969 3.582031 8 8 8h89c4.417969 0 8-3.582031 8-8zm-17 158h-72v-150h72zm0 0"/></g></svg>