<?xml version="1.0" encoding="utf-8"?>
<!-- Generator: Adobe Illustrator 15.1.0, SVG Export Plug-In . SVG Version: 6.00 Build 0)  -->
<!DOCTYPE svg PUBLIC "-//W3C//DTD SVG 1.1//EN" "http://www.w3.org/Graphics/SVG/1.1/DTD/svg11.dtd">
<svg version="1.1" id="Layer_1" xmlns="http://www.w3.org/2000/svg" xmlns:xlink="http://www.w3.org/1999/xlink" x="0px" y="0px"
	 width="50px" height="49px" viewBox="0 0 50 49" enable-background="new 0 0 50 49" xml:space="preserve">
<path fill="#F9BC35" stroke="#000000" stroke-width="1.5" stroke-miterlimit="10" d="M43.637,36.589v7.494
	c0,1.585-1.195,2.946-2.775,3.073c-1.771,0.144-3.269-1.271-3.269-3.012V38.1c0-0.834-0.677-1.511-1.512-1.511h-4.532
	c-1.109,0-2.137-0.292-3.023-0.815c-1.803-1.039-3.021-2.99-3.021-5.229v-9.508c0-1.585,1.195-2.946,2.774-3.074
	c1.771-0.143,3.271,1.268,3.271,3.012v9.57h6.044C40.93,30.544,43.637,33.251,43.637,36.589z"/>
<path fill="#5C5F66" stroke="#000000" stroke-width="1.5" stroke-miterlimit="10" d="M25.504,45.656V38.1
	c0-0.834,0.676-1.511,1.512-1.511h9.065c0.835,0,1.512,0.677,1.512,1.511v7.559c0,0.834-0.677,1.511-1.512,1.511h-9.065
	C26.18,47.167,25.504,46.49,25.504,45.656z"/>
<path fill="#4BB8E6" stroke="#000000" stroke-width="1.5" stroke-miterlimit="10" d="M20.971,10.9c-2.5,0-4.534-2.033-4.534-4.533
	s2.034-4.533,4.534-4.533c2.499,0,4.533,2.034,4.533,4.533C25.504,8.867,23.47,10.9,20.971,10.9z"/>
<path fill="#54CCFF" stroke="#000000" stroke-width="1.5" stroke-miterlimit="10" d="M30.54,14.93c0,1.672-1.358,3.022-3.021,3.022
	h-6.044c-0.463,0-0.937-0.111-1.35-0.323l-4.302-2.146c-1.944,2.448-3.415,4.765-3.415,8.512v20.147c0,1.662-1.36,3.021-3.022,3.021
	c-1.662,0-3.021-1.359-3.021-3.021V23.996c0-0.745,0.051-1.511,0.141-2.267c0.353-2.77,1.36-5.43,2.881-7.736
	c1.108-1.683,2.499-3.184,4.11-4.413c0.563-0.464,1.229-0.695,1.914-0.695c1.007,0,1.128,0.201,6.78,3.022h5.331
	C29.182,11.907,30.54,13.268,30.54,14.93z"/>
<path fill="#F39E31" stroke="#000000" stroke-width="1.5" stroke-miterlimit="10" d="M34.568,21.478
	c-2.498,0-4.531-2.034-4.531-4.533c0-2.5,2.033-4.533,4.531-4.533c2.502,0,4.535,2.033,4.535,4.533
	C39.104,19.444,37.07,21.478,34.568,21.478z"/>
</svg>
