<svg height="496pt" viewBox="0 0 496 496" width="496pt" xmlns="http://www.w3.org/2000/svg"><g fill="#f0bc5e"><path d="m168 0c-66.167969 0-120 53.832031-120 120v64h8c0-17.671875 14.328125-32 32-32v-32s32 8 80 8 80-8 80-8v32c17.671875 0 32 14.328125 32 32h8v-64c0-66.167969-53.832031-120-120-120zm0 0"/><path d="m352 400h80v80h-80zm0 0"/><path d="m440 272h-96v-48h96zm0 0"/></g><path d="m136 168c0 4.417969-3.582031 8-8 8s-8-3.582031-8-8 3.582031-8 8-8 8 3.582031 8 8zm0 0"/><path d="m216 168c0 4.417969-3.582031 8-8 8s-8-3.582031-8-8 3.582031-8 8-8 8 3.582031 8 8zm0 0"/><path d="m200 216h-16c0 8.824219-7.175781 16-16 16s-16-7.175781-16-16h-16c0 17.648438 14.351562 32 32 32s32-14.351562 32-32zm0 0"/><path d="m472 333.40625v-125.40625h22.953125l-42.664063-64h-120.5625l-42.664062 64h22.9375v116.679688c-4.375-3.046876-9.175781-5.503907-14.289062-7.207032l-81.710938-27.242187v-16.574219c17.679688-11.558594 30.910156-29.304688 36.710938-50.136719 19.816406-2.359375 35.289062-19.078125 35.289062-39.519531 0-19.3125-13.769531-35.472656-32-39.191406v-35.039063l-9.929688 2.46875c-.316406.074219-31.757812 7.761719-78.070312 7.761719s-77.753906-7.6875-78.0625-7.769531l-9.9375-2.460938v35.039063c-18.230469 3.71875-32 19.878906-32 39.191406 0 20.441406 15.472656 37.160156 35.289062 39.519531 5.789063 20.839844 19.03125 38.578125 36.710938 50.136719v16.574219l-81.703125 27.25c-22.914063 7.625-38.296875 28.976562-38.296875 53.113281v69.40625h224v56h256v-128h16v-20.59375zm-216-133.40625v-38.527344c9.296875 3.3125 16 12.113282 16 22.527344 0 10.535156-6.871094 19.414062-16.335938 22.632812.167969-2.199218.335938-4.394531.335938-6.632812zm-192-16c0-10.414062 6.710938-19.214844 16-22.527344v38.527344c0 2.238281.167969 4.433594.335938 6.632812-9.464844-3.21875-16.335938-12.097656-16.335938-22.632812zm276.28125-24h103.4375l21.335938 32h-146.101563zm115.71875 48v116.070312l-64-37.328124-64 37.328124v-116.070312zm-227.921875 103.128906-22.652344 50.984375-26.113281-26.113281 30.847656-30.847656zm-132.078125-111.128906v-70.167969c13.214844 2.449219 38.785156 6.167969 72 6.167969s58.785156-3.71875 72-6.167969v70.167969c0 39.703125-32.304688 72-72 72s-72-32.296875-72-72zm29.839844 105.152344 30.847656 30.847656-26.113281 26.113281-22.652344-50.984375zm34.160156 118.847656h-144v-53.40625c0-17.242188 10.992188-32.496094 27.351562-37.945312l49.320313-16.441407 32.753906 73.679688 34.574219-34.574219zm-24-131.3125v-10.800781c9.9375 3.898437 20.703125 6.113281 32 6.113281s22.0625-2.214844 32-6.113281v10.800781l-32 32zm168 187.3125h-32v-32h32zm0-48h-48v48h-16v-58.046875l64-19.199219zm0-45.953125-80 24v13.953125h-48v-68.6875l34.574219 34.574219 32.753906-73.679688 49.328125 16.449219c3.9375 1.3125 7.574219 3.265625 10.886719 5.679688l-15.542969 9.070312v20.59375h16zm160 93.953125h-144v-112h144zm-152.121094-128 80.121094-46.742188 80.121094 46.742188zm0 0"/></svg>