<?xml version="1.0" encoding="iso-8859-1"?>
<!-- Generator: Adobe Illustrator 19.0.0, SVG Export Plug-In . SVG Version: 6.00 Build 0)  -->
<svg version="1.1" id="Capa_1" xmlns="http://www.w3.org/2000/svg" xmlns:xlink="http://www.w3.org/1999/xlink" x="0px" y="0px"
	 viewBox="0 0 512 512" style="enable-background:new 0 0 512 512;" xml:space="preserve">
<polygon style="fill:#C0E3F0;" points="306.23,300.69 205.76,300.68 140.16,326.65 245,499 267,499 371.84,326.66 "/>
<g>
	<path style="fill:#4DBBEB;" d="M446,410.38V502H266l20.83-34.5l85.01-140.84l23.59,9.33C425.95,348.07,446,377.56,446,410.38z"/>
	<path style="fill:#4DBBEB;" d="M386,73v30l-20,10l-20,40H166l-20-40l-20-10V73l30-10l70-53h60l70,53L386,73z"/>
</g>
<path style="fill:#57555C;" d="M174.09,188.68L166,186v-33h180v33l-8.01,2.63c-17.12,4.742-41.982,17.37-82.1,17.37
	C218.63,206,195.316,195.298,174.09,188.68z"/>
<path style="fill:#FEBDAD;" d="M306.23,300.69c-9.04,6.1-19.25,10.59-30.23,13.08c-6.43,1.46-13.13,2.23-20,2.23
	s-13.57-0.77-20-2.23c-10.98-2.49-21.2-6.99-30.24-13.09C181.77,284.52,166,257.1,166,226c0-13.32,2.89-25.95,8.09-37.32
	c21.801,6.797,44.485,17.32,81.8,17.32c40.132,0,65.048-12.647,82.1-17.37c1.061,3.226,8.01,16.633,8.01,37.37
	C346,257.11,330.22,284.53,306.23,300.69z"/>
<circle style="fill:#C0E3F0;" cx="256" cy="83" r="30"/>
<g>
	<path style="fill:#57555C;" d="M286,467v-64.33c0-4.33-1.4-8.54-4-12L256,356l-26,34.67c-2.6,3.46-4,7.67-4,12V467l-0.83,0.5
		L246,502h20l20.83-34.5L286,467z"/>
	<path style="fill:#57555C;" d="M276,336v-22.23c-6.43,1.46-13.13,2.23-20,2.23s-13.57-0.77-20-2.23V336
		c0,5.52,2.24,10.52,5.86,14.14S250.48,356,256,356C267.05,356,276,347.05,276,336z"/>
</g>
<path style="fill:#4DBBEB;" d="M225.17,467.5L246,502H66v-91.63c0-32.81,20.04-62.3,50.56-74.38l23.6-9.34L225.17,467.5z"/>
<path d="M346,449c-5.52,0-10,4.48-10,10s4.48,10,10,10s10-4.48,10-10S351.52,449,346,449z"/>
<path d="M440.43,359.785c-10.185-14.982-24.474-26.425-41.322-33.094L325.75,297.66C344.933,278.998,356,253.273,356,226
	c0-10.783-1.686-21.285-5.013-31.341c3.054-1.758,5.013-5.034,5.013-8.659v-30.639l17.453-34.907l17.019-8.509
	C393.86,110.25,396,106.788,396,103V73c0-4.304-2.754-8.125-6.838-9.487l-28.438-9.479L292.036,2.027C290.299,0.712,288.18,0,286,0
	h-60c-2.18,0-4.299,0.712-6.036,2.027l-68.688,52.006l-28.438,9.479C118.754,64.875,116,68.696,116,73v30
	c0,3.788,2.14,7.25,5.528,8.944l17.019,8.509L156,155.361V186c0,3.625,1.957,6.9,5.012,8.659C157.683,204.712,156,215.212,156,226
	c0,27.272,11.066,52.996,30.242,71.652l-73.363,29.04c-16.845,6.667-31.131,18.111-41.314,33.093
	C61.382,374.766,56,392.258,56,410.37V502c0,5.523,4.478,10,10,10c11.52,0,362.956,0,380,0c5.522,0,10-4.477,10-10v-91.62
	C456,392.264,450.616,374.769,440.43,359.785z M251.644,492L236,466.09v-63.42c0-2.153,0.708-4.281,2-6l18-24.002l18.005,24.009
	c1.287,1.712,1.995,3.84,1.995,5.993v63.413L260.356,492H251.644z M226,321.402V336c0,8.01,3.121,15.543,8.79,21.212
	c1.495,1.494,3.122,2.806,4.85,3.936l-17.635,23.515c-3.872,5.154-6.005,11.549-6.005,18.007v30.284l-61.174-101.357l49.889-19.749
	C211.431,315.875,218.554,319.067,226,321.402z M256,346c-2.668,0-5.179-1.041-7.068-2.931c-1.891-1.89-2.932-4.401-2.932-7.069
	v-10.505c3.317,0.33,6.655,0.505,10,0.505s6.683-0.175,10-0.505V336C266,341.514,261.514,346,256,346z M290,384.67l-17.651-23.536
	C280.559,355.775,286,346.514,286,336v-14.597c7.449-2.335,14.568-5.524,21.275-9.545l49.899,19.747L296,432.95v-30.28
	C296,396.212,293.867,389.817,290,384.67z M182.276,180.855c-0.86-1.003-1.932-1.853-3.195-2.47
	c-0.998-0.487-2.037-0.785-3.081-0.923V163h160v15.758l-26.151,8.601C244.986,208.665,195.752,184.505,182.276,180.855z
	 M150.472,104.056L136,96.82V80.208l23.162-7.721c1.034-0.345,2.005-0.856,2.874-1.514L229.358,20h53.283l67.322,50.973
	c0.869,0.658,1.84,1.169,2.874,1.514L376,80.208V96.82l-14.472,7.236c-1.936,0.968-3.505,2.537-4.473,4.472L339.82,143H172.18
	l-17.236-34.472C153.977,106.593,152.407,105.023,150.472,104.056z M176,226c0-8.558,1.329-16.883,3.941-24.852
	c8.892,2.01,64.27,28.822,136.153,5.212l15.96-5.247C334.672,209.093,336,217.432,336,226c0,26.541-13.103,51.256-35.069,66.196
	c-0.155,0.097-0.304,0.203-0.454,0.308c-8.146,5.469-17.123,9.345-26.691,11.515c-11.584,2.631-23.986,2.631-35.574,0
	c-9.622-2.182-18.658-6.094-26.865-11.631C189.214,277.478,176,252.66,176,226z M76,410.37c0-28.899,17.365-54.445,44.239-65.082
	l15.731-6.227l80.639,133.607L228.281,492H76V410.37z M436,492H283.717l92.314-152.932l15.719,6.221
	C418.631,355.928,436,381.478,436,410.38V492z"/>
<path d="M256,123c22.056,0,40-17.944,40-40s-17.944-40-40-40s-40,17.944-40,40S233.944,123,256,123z M256,63
	c11.028,0,20,8.972,20,20s-8.972,20-20,20s-20-8.972-20-20S244.972,63,256,63z"/>
<path d="M406,449h-20c-5.522,0-10,4.477-10,10s4.478,10,10,10h20c5.522,0,10-4.477,10-10S411.522,449,406,449z"/>
<g>
</g>
<g>
</g>
<g>
</g>
<g>
</g>
<g>
</g>
<g>
</g>
<g>
</g>
<g>
</g>
<g>
</g>
<g>
</g>
<g>
</g>
<g>
</g>
<g>
</g>
<g>
</g>
<g>
</g>
</svg>
