<?xml version="1.0" encoding="utf-8"?>
<!-- Generator: Adobe Illustrator 15.1.0, SVG Export Plug-In . SVG Version: 6.00 Build 0)  -->
<!DOCTYPE svg PUBLIC "-//W3C//DTD SVG 1.1//EN" "http://www.w3.org/Graphics/SVG/1.1/DTD/svg11.dtd">
<svg version="1.1" id="Layer_1" xmlns="http://www.w3.org/2000/svg" xmlns:xlink="http://www.w3.org/1999/xlink" x="0px" y="0px"
	 width="50px" height="49px" viewBox="0 0 50 49" enable-background="new 0 0 50 49" xml:space="preserve">
<path fill="#EAEBED" stroke="#000000" stroke-miterlimit="10" d="M5.377,15.693c-2.104,0.54-3.66,2.45-3.66,4.723l3.178,0.593
	l7.433-9.573C9.295,11.436,6.669,13.167,5.377,15.693z"/>
<path fill="#DCDFE3" stroke="#000000" stroke-miterlimit="10" d="M18.768,14.83c-1.406-2.05-3.766-3.394-6.439-3.394
	c-2.124,0-3.964,1.731-4.869,4.258c-1.474,0.54-2.564,2.45-2.564,4.723v0.593l13.872,2.585V14.83z"/>
<polygon fill="#9D0200" stroke="#000000" stroke-miterlimit="10" points="23.924,20.416 17.443,20.416 19.562,32.248 21.805,32.248 
	"/>
<polygon fill="#F13936" stroke="#000000" stroke-miterlimit="10" points="0.5,20.416 0.5,32.248 3.54,32.248 4.738,31.144 
	3.678,20.416 "/>
<path fill="#EA1A17" stroke="#000000" stroke-miterlimit="10" d="M18.768,11.032c-0.439,0-0.795,0.356-0.795,0.795v8.589H3.678
	v11.787l7.465-2.391l7.604,2.435h0.815v-20.42C19.562,11.388,19.206,11.032,18.768,11.032z"/>
<g>
	<rect x="40.115" y="30.658" fill="#90784E" stroke="#000000" stroke-miterlimit="10" width="5.135" height="1.59"/>
	<rect x="40.115" y="26.551" fill="#90784E" stroke="#000000" stroke-miterlimit="10" width="4.516" height="1.59"/>
</g>
<path fill="#37240B" stroke="#000000" stroke-miterlimit="10" d="M48.705,37.967c-0.203,0-0.406-0.077-0.562-0.232
	c-2.777-2.777-4.307-6.467-4.307-10.389c0-3.922,1.53-7.612,4.307-10.389c0.311-0.31,0.813-0.31,1.124,0
	c0.311,0.311,0.311,0.813,0,1.124c-2.478,2.477-3.842,5.768-3.842,9.266s1.364,6.788,3.842,9.266c0.311,0.311,0.311,0.813,0,1.123
	C49.112,37.89,48.908,37.967,48.705,37.967z"/>
<path fill="#6D542E" stroke="#000000" stroke-miterlimit="10" d="M11.143,25.575c-3.891,0-7.112,2.913-7.604,6.672h15.207
	C18.256,28.488,15.034,25.575,11.143,25.575z"/>
<path fill="#AA8F63" stroke="#000000" stroke-miterlimit="10" d="M24.8,11.032c-0.439,0-0.795,0.356-0.795,0.795v4.238h1.589v-4.238
	C25.594,11.388,25.239,11.032,24.8,11.032z"/>
<polygon fill="#B6A07A" stroke="#000000" stroke-miterlimit="10" points="34.998,21.399 32.164,13.946 28.764,13.946 31.641,32.248 
	41.176,32.248 41.176,22.951 "/>
<path fill="#C3B192" stroke="#000000" stroke-miterlimit="10" d="M32.616,24.078l-3.853-10.132H24.8
	c-1.647,0-2.995,1.348-2.995,2.995v15.306h16.191V25.43L32.616,24.078z"/>
<path fill="#90784E" stroke="#000000" stroke-miterlimit="10" d="M27.744,24.577h-1.967c-0.438,0-0.794-0.355-0.794-0.794
	s0.356-0.795,0.794-0.795h1.967c0.438,0,0.794,0.356,0.794,0.795S28.183,24.577,27.744,24.577z"/>
<circle fill="#49300F" stroke="#000000" stroke-miterlimit="10" cx="33.522" cy="33.245" r="4.722"/>
<path fill="#AA8F63" stroke="#000000" stroke-miterlimit="10" d="M18.814,34.04c-0.439,0-0.795-0.355-0.795-0.794
	c0-3.792-3.084-6.877-6.876-6.877s-6.876,3.085-6.876,6.877c0,0.438-0.355,0.794-0.794,0.794s-0.795-0.355-0.795-0.794
	c0-4.668,3.798-8.466,8.465-8.466c4.668,0,8.465,3.798,8.465,8.466C19.608,33.685,19.252,34.04,18.814,34.04z"/>
<circle fill="#49300F" stroke="#000000" stroke-miterlimit="10" cx="11.144" cy="33.245" r="4.722"/>
<polygon fill="#FFFFFF" stroke="#000000" stroke-miterlimit="10" points="29.973,17.125 24.983,17.125 24.983,21.399 31.598,21.399 
	"/>
</svg>
