<svg height="500pt" viewBox="-5 0 500 500.00615" width="500pt" xmlns="http://www.w3.org/2000/svg"><path d="m482.234375 235.558594v74.960937h-73.316406c-.535157-26.066406-21.820313-46.921875-47.890625-46.921875-26.074219 0-47.359375 20.855469-47.890625 46.921875l-24.628907-.328125h-.152343v-56.441406c1.550781-15.285156-9.585938-28.933594-24.871094-30.480469-.929687-.097656-1.863281-.144531-2.796875-.140625h-14.101562l-24.589844 23.070313-23.730469-23.070313h-14.960937c-15.363282 0-27.824219 12.453125-27.828126 27.820313 0 .9375.050782 1.871093.148438 2.800781v56.769531h-17.898438c-.53125-26.066406-21.816406-46.921875-47.890624-46.921875-26.074219 0-47.355469 20.855469-47.890626 46.921875h-34.167968v-230.300781h305.199218v65.820312c0 16.570313 13.429688 30 30 30h93.53125l32.757813 30.039063c8.269531 7.574219 12.972656 18.269531 12.96875 29.480469zm-209.257813-59.519532v-65.820312h-90v65.820312h11.300782v8.582032c0 14.789062 11.988281 26.777344 26.777344 26.777344 14.792968 0 26.78125-11.988282 26.78125-26.777344v-8.582032zm-130 0v-65.820312h-90v65.820312zm0 0" fill="#00efd1"/><path d="m378.796875 96.699219 57.710937 79.339843h-93.53125c-16.570312 0-30-13.429687-30-30v-65.820312h33.46875c12.800782.003906 24.824219 6.128906 32.351563 16.480469zm0 0" fill="#fedb41"/><path d="m408.917969 310.519531c.019531.359375.019531.730469.019531 1.089844 0 26.460937-21.453125 47.910156-47.910156 47.910156-26.460938 0-47.910156-21.449219-47.910156-47.910156 0-.359375 0-.730469.019531-1.089844.53125-26.066406 21.816406-46.921875 47.890625-46.921875 26.070312 0 47.355468 20.855469 47.890625 46.921875zm0 0" fill="#fedb41"/><path d="m185.667969 329.21875h-.5v6.429688c.078125 8.195312-6.414063 14.945312-14.601563 15.179687h-.171875c-3.914062.007813-7.671875-1.546875-10.445312-4.316406-2.769531-2.769531-4.324219-6.523438-4.324219-10.441407v-82.320312c-.097656-.929688-.148438-1.863281-.148438-2.800781.003907-15.367188 12.464844-27.820313 27.828126-27.820313h14.960937l23.730469 23.070313 24.589844-23.070313h14.101562c.933594-.003906 1.867188.042969 2.796875.140625 15.285156 1.546875 26.421875 15.195313 24.871094 30.480469v82.308594c0 8.167968-6.617188 14.785156-14.785157 14.785156-8.164062 0-14.785156-6.617188-14.785156-14.785156v-17.917969l-.328125 11.078125zm0 0" fill="#00acea"/><path d="m285.777344 48v32.21875h-246v-32.21875zm0 0" fill="#00acea"/><path d="m272.976562 110.21875v65.820312h-25.140624v-2.128906c0-14.789062-11.988282-26.78125-26.78125-26.78125-14.789063 0-26.777344 11.992188-26.777344 26.78125v2.128906h-11.300782v-65.820312zm0 0" fill="#fedb41"/><path d="m222.066406 475.988281c.007813 8.738281-6.988281 15.871094-15.726562 16.027344-8.734375.160156-15.984375-6.714844-16.292969-15.445313l-4.378906-147.351562h72.789062l-4.378906 147.351562c-.308594 8.730469-7.558594 15.601563-16.292969 15.441407-8.730468-.15625-15.726562-7.285157-15.71875-16.023438zm0 0" fill="#fedb41"/><path d="m247.835938 176.039062v8.582032c0 14.789062-11.988282 26.777344-26.78125 26.777344-14.789063 0-26.777344-11.988282-26.777344-26.777344v-10.710938c0-14.789062 11.988281-26.78125 26.777344-26.78125 14.792968 0 26.78125 11.992188 26.78125 26.78125zm0 0" fill="#00acea"/><g fill="#fedb41"><path d="m112.976562 8h67.480469v40h-67.480469zm0 0"/><path d="m52.976562 110.21875h90v65.820312h-90zm0 0"/><path d="m41.945312 310.519531c.535157-26.066406 21.816407-46.921875 47.890626-46.921875 26.074218 0 47.359374 20.855469 47.890624 46.921875.019532.359375.019532.730469.019532 1.089844 0 26.460937-21.449219 47.910156-47.910156 47.910156-26.460938 0-47.910157-21.449219-47.910157-47.910156 0-.359375 0-.730469.019531-1.089844zm0 0"/></g><path d="m474.558594 200.183594-32.113282-29.5-57.207031-78.800782c-9.027343-12.429687-23.433593-19.8125-38.792969-19.882812h-52.4375v-24c-.109374-4.460938-3.769531-8.019531-8.230468-8h-97.769532v-32c0-4.417969-3.132812-8-7.550781-8h-67.480469c-2.117187 0-4.148437.84375-5.644531 2.347656-1.496093 1.5-2.332031 3.535156-2.324219 5.652344v32h-65.230468c-2.097656.007812-4.105469.863281-5.566406 2.367188-1.460938 1.503906-2.257813 3.535156-2.203126 5.632812v24h-24.230468c-4.417969.125-7.894532 3.804688-7.7695315 8.21875v230.300781c0 4.417969 3.3515625 8.480469 7.7695315 8.480469h26.589844c3.417968 27 26.980468 49 55.46875 49 28.488281 0 52.050781-22 55.46875-49h2.703124v17.070312c-.089843 6.046876 2.246094 11.878907 6.484376 16.191407 4.167968 4.289062 9.894531 6.71875 15.875 6.738281h.285156c2.695312-.042969 5.355468-.589844 7.84375-1.609375l3.554687 119.519531c.351563 9.296875 6.046875 17.558594 14.613281 21.191406 8.566407 3.632813 18.464844 1.984376 25.390626-4.226562 6.945312 6.222656 16.863281 7.863281 25.441406 4.203125 8.578125-3.65625 14.261718-11.949219 14.574218-21.269531l3.550782-119.398438c2.484375.949219 5.121094 1.433594 7.78125 1.433594 6.019531-.015625 11.789062-2.425781 16.03125-6.699219 4.242187-4.273437 6.605468-10.0625 6.574218-16.085937v-17.757813l9.363282.121094c3.375 28.027344 27.078125 49.15625 55.304687 49.304687 28.230469.148438 52.152344-20.738281 55.820313-48.726562h65.738281c4.417969 0 7.773437-4.0625 7.773437-8.480469v-74.960937c.03125-13.433594-5.574218-26.265625-15.449218-35.375zm-102.230469-98.90625 48.46875 66.722656h-77.820313c-12.132812.003906-21.96875-9.828125-21.96875-21.960938v-58.039062h25.4375c10.25.054688 19.859376 4.984375 25.882813 13.277344zm-251.320313-85.277344h51v24h-51zm-73 40h230v16h-230zm41.828126 295.519531c-22.03125-.023437-39.882813-17.878906-39.910157-39.910156 0-.210937 0-.429687.007813-.644531.003906-.089844.007812-.179688.011718-.269532.433594-21.71875 18.167969-39.101562 39.890626-39.101562 21.726562 0 39.457031 17.382812 39.890624 39.101562 0 .089844.007813.179688.011719.269532.011719.214844.007813.433594.007813.644531-.023438 22.03125-17.878906 39.886719-39.910156 39.910156zm148.242187 132.480469c-4.4375.003906-8.042969-3.574219-8.070313-8.011719v-120.976562c0-4.421875-3.582031-8-8-8-4.417968 0-8 3.578125-8 8v120.976562c.003907 4.421875-3.574218 8.007813-7.992187 8.011719-2.074219.003906-4.066406-.804688-5.546875-2.257812-1.488281-1.460938-2.355469-3.4375-2.433594-5.519532l-4.128906-139.222656h56.308594l-4.132813 139.171875c-.132812 4.335937-3.667969 7.792969-8.003906 7.828125zm42.144531-231.058594c-.027344.269532-.214844.539063-.214844.808594v82.308594c.101563 2.390625-1.113281 4.644531-3.167968 5.867187-2.054688 1.226563-4.613282 1.226563-6.667969 0-2.050781-1.222656-3.269531-3.476562-3.164063-5.867187v-17.785156l.085938-2.925782c.011719-.472656-.085938-.9375-.085938-1.390625v-32.988281c0-4.417969-3.582031-8-8-8-4.417968 0-8 3.582031-8 8v37.054688l-.316406 2.976562h-57.257812l-.269532-6.238281c-.011718-.300781-.15625-.476563-.15625-.765625v-33.027344c0-4.417969-3.582031-8-8-8-4.417968 0-8 3.582031-8 8v54.679688c0 3.921874-2.839843 7.351562-6.441406 7.351562h-.1875c-1.746094-.027344-3.402344-.773438-4.582031-2.058594-1.222656-1.320312-1.867187-3.074218-1.789063-4.871094v-82.320312c0-.285156-.207031-.570312-.238281-.855469-.101562-.664062-.167969-1.332031-.199219-2-.035156-10.941406 8.796876-19.839843 19.734376-19.894531h11.714843l21.398438 20.871094c.050781.050781.109375.125.164062.175781.105469.097656.210938.210937.324219.300781.109375.089844.195312.164063.292969.238282.113281.085937.230469.171874.347656.253906.101563.066406.210937.136718.316406.199218s.238281.140626.359375.207032c.121094.0625.222656.117187.335938.167968.117187.054688.242187.113282.367187.164063.121094.050781.238281.101563.355469.140625.121094.039062.246094.085938.371094.121094.121094.039062.246094.074218.371094.101562.128906.027344.25.058594.375.085938.125.023437.253906.046875.378906.066406.128906.019531.253906.035156.378906.050781.128906.011719.253906.019531.382812.027344.128907.007813.257813.011719.386719.015625.132813 0 .25 0 .375-.007812.125-.003907.265625-.011719.394531-.023438.132813-.011719.246094-.023438.367188-.042969.125-.015625.265625-.039062.402344-.0625.136718-.023437.242187-.046875.359375-.074219.117187-.027343.261719-.066406.390625-.101562s.238281-.070312.355468-.109375c.121094-.042969.25-.089844.371094-.136719.125-.050781.238282-.101562.359375-.152344.117188-.050781.234375-.109374.351563-.167968.113281-.0625.234375-.128906.351562-.195313.117188-.066406.21875-.128906.328125-.199219.105469-.070312.230469-.15625.34375-.238281s.207031-.152343.304688-.230469c.101562-.082031.21875-.179687.324219-.273437.054687-.050781.113281-.15625.167968-.207031l22.28125-20.964844h10.933594c.664062.019531 1.332031.074219 1.992188.164062 5.21875.554688 10 3.160157 13.292968 7.25 3.289063 4.085938 4.820313 9.3125 4.25 14.527344zm80.800782 98.578125c-22.03125-.023437-39.886719-17.878906-39.910157-39.910156 0-.210937 0-.429687.007813-.644531 0-.089844.007812-.179688.007812-.269532.4375-21.71875 18.167969-39.101562 39.894532-39.101562 21.722656 0 39.457031 17.382812 39.890624 39.101562 0 .089844 0 .179688.011719.269532.011719.214844.007813.433594.007813.644531-.027344 22.03125-17.878906 39.882813-39.90625 39.910156zm112.984374-48.519531h-57.820312c-4.347656-27.042969-27.621094-46.96875-55.007812-47.105469-27.390626-.132812-50.859376 19.5625-55.476563 46.558594l-9.699219-.160156v-48.164063c.996094-9.300781-1.796875-18.609375-7.746094-25.824218-5.9375-7.386719-14.582031-12.085938-24.007812-13.054688-1.183594-.148438-2.371094-.234375-3.5625-.25h-14.101562c-2.039063.023438-3.996094.820312-5.472657 2.230469l-19.019531 17.875-18.25-17.792969c-1.488281-1.464844-3.488281-2.292969-5.578125-2.3125h-14.960937c-19.746094.074219-35.699219 16.136719-35.636719 35.886719 0 1.0625.339843 2.199219.339843 3.261719v48.851562h-3.007812c-4.34375-27.117188-27.699219-47.09375-55.164062-47.179688-14.652344.03125-28.703126 5.828126-39.117188 16.140626-8.578125 8.324218-14.210938 19.222656-16.046875 31.039062h-18.664063v-215h289v58.039062c.011719 20.964844 17.003907 37.953126 37.96875 37.960938h90.417969l30.355469 27.960938c6.574219 6.082031 10.292969 14.644531 10.257812 23.597656zm0 0" fill="#083863"/><path d="m272.976562 102h-90c-4.453124.105469-8 3.765625-7.96875 8.21875v65.820312c-.007812 2.117188.832032 4.144532 2.328126 5.636719 1.496093 1.496094 3.527343 2.332031 5.640624 2.324219h3.03125v.621094c0 19.328125 15.667969 35 35 35 19.328126 0 35-15.671875 35-35v-.621094h16.96875c2.121094.011719 4.160157-.824219 5.664063-2.316406 1.507813-1.492188 2.355469-3.523438 2.367187-5.644532v-65.820312c0-4.464844-3.566406-8.117188-8.03125-8.21875zm-32.96875 82.621094c-.054687 10.382812-8.484374 18.773437-18.867187 18.777344-5.03125.015624-9.867187-1.957032-13.453125-5.488282-3.582031-3.5-5.625-8.28125-5.679688-13.289062v-10.710938c0-10.492187 8.503907-19 19-19 10.492188 0 19 8.507813 19 19zm25-16.621094h-9.675781c-3.011719-16.601562-17.390625-28.726562-34.261719-28.890625-12.402343.011719-23.863281 6.632813-30.0625 17.375v-38.484375h74zm0 0" fill="#083863"/><path d="m151.007812 110c0-4.417969-3.582031-8-8-8h-90c-4.417968 0-8 3.582031-8 8v66c0 4.417969 3.582032 8 8 8h90c4.417969 0 8-3.582031 8-8zm-16 58h-74v-50h74zm0 0" fill="#083863"/></svg>