<?xml version="1.0" encoding="iso-8859-1"?>
<!-- Generator: Adobe Illustrator 19.0.0, SVG Export Plug-In . SVG Version: 6.00 Build 0)  -->
<svg version="1.1" id="Capa_1" xmlns="http://www.w3.org/2000/svg" xmlns:xlink="http://www.w3.org/1999/xlink" x="0px" y="0px"
	 viewBox="0 0 497.9 497.9" style="enable-background:new 0 0 497.9 497.9;" xml:space="preserve">
<path style="fill:#ED664C;" d="M470.1,383.7v28.4c0,16.3-13.2,29.5-29.5,29.5h-17.2h-0.6c0.1-1.1,0.2-2.2,0.2-3.4
	c0-22-17.8-39.8-39.8-39.8s-39.8,17.8-39.8,39.8c0,1.1,0.1,2.3,0.2,3.4l-0.6,0.1H182.5l-0.6-0.1c0.1-1.1,0.1-2.2,0.1-3.4
	c0-22-17.8-39.8-39.8-39.8s-39.8,17.8-39.8,39.8c0,1.2,0,2.3,0.2,3.4h-13c-16.3,0-29.5-13.2-29.5-29.5v-24.9
	c0-13.3,8.9-25,21.7-28.5l68.3-18.6l40.8-53.6c7.4-9.8,19-15.5,31.3-15.5H351c13.6,0,26.1,7,33.3,18.5l31.7,50.6l36.8,16.7
	C463.3,361.6,470.1,372.1,470.1,383.7z"/>
<path style="fill:#FDC75B;" d="M422.9,438.2c0,1.1-0.1,2.3-0.2,3.4C421,462,403.9,478,383.1,478c-20.9,0-38-16-39.7-36.4
	c-0.1-1.1-0.2-2.2-0.2-3.4c0-22,17.8-39.8,39.8-39.8C405.1,398.4,422.9,416.2,422.9,438.2z"/>
<path style="fill:#ED664C;" d="M336,128.8v7h-0.5H220.1v-7c0-32,25.9-57.9,57.9-57.9c16,0,30.5,6.5,41,17
	C329.5,98.3,336,112.8,336,128.8z"/>
<path style="fill:#FDC75B;" d="M102.5,441.6c-0.1-1.1-0.2-2.3-0.2-3.4c0-22,17.8-39.8,39.8-39.8s39.8,17.8,39.8,39.8
	c0,1.1-0.1,2.3-0.1,3.4C180.1,462,163,478,142.1,478C121.3,478,104.2,462,102.5,441.6z"/>
<path d="M479.9,478h-67.5c8.9-6,15.6-15,18.7-26h9.6c21.8,0,39.4-18.1,39.4-39.9v-28.5c0-15.5-9-29.6-23.1-36l-34-15.5L392.9,284
	c-9.1-14.5-24.7-23.2-41.8-23.2h-129c-15.3,0-30,7.3-39.2,19.5l-38.7,50.9l-65,17.8C62,353.8,50,369.4,50,387.2v24.9
	c0,21.8,17.8,39.9,39.5,39.9h4.6c2.5,8,7.3,16.5,14.2,22.8c1.4,1.3,2.8,2.2,4.3,3.2H28V70.8C28,42.6,51.1,20,79.3,20h137.6
	c25.1,0,46,18,50.3,41.9C234.8,67.1,210,95,210,128.8v7c0,5.5,4.6,10.2,10.1,10.2H336c5.5,0,10-4.7,10-10.2v-7
	c0-18.1-7.1-35.2-19.9-48c-10.6-10.6-24.1-17.1-38.7-19.1C282.8,26.8,253,0,216.9,0H79.3C40.1,0,8,31.6,8,70.8v417.5
	c0,5.5,4.6,9.6,10.1,9.6h461.8c5.5,0,10-4.5,10-10S485.4,478,479.9,478z M325.9,126h-95.7c1.5-25,22.4-45.1,47.8-45.1
	c12.8,0,24.8,5,33.9,14.1C320.3,103.4,325.2,114,325.9,126z M412.8,440.7c-1.3,15.3-14.3,27.3-29.7,27.3c-15.4,0-28.4-12-29.7-27.3
	c0,0,0,0,0-0.1c-0.1-0.8-0.1-1.6-0.1-2.5c0-16.4,13.4-29.8,29.8-29.8s29.8,13.4,29.8,29.8C412.9,439,412.9,439.9,412.8,440.7z
	 M92.8,432h-3.2c-10.8,0-19.5-9.1-19.5-19.9v-24.9c0-8.8,5.9-16.5,14.4-18.8l68.3-18.6c2.1-0.6,4-1.8,5.3-3.6l40.8-53.6
	c5.5-7.2,14.2-11.6,23.3-11.6H351c10.2,0,19.5,5.2,24.9,13.8l31.7,50.6c1,1.7,2.5,3,4.3,3.8l36.8,16.7c6.9,3.1,11.4,10.1,11.4,17.7
	v28.5c0,10.8-8.7,19.9-19.4,19.9h-8.1c-3.2-25-24.1-43.3-49.4-43.3c-25.2,0-46.2,18.3-49.4,43.3H191.5c-3.2-25-24.1-43.3-49.4-43.3
	C116.9,388.7,96,407,92.8,432z M112.4,440.7c-0.1-0.8-0.1-1.7-0.1-2.6c0-16.4,13.4-29.8,29.8-29.8s29.8,13.4,29.8,29.8
	c0,0.8,0,1.7-0.1,2.5c-1.3,15.3-14.3,27.3-29.7,27.3C126.8,468,113.7,456,112.4,440.7C112.4,440.8,112.4,440.8,112.4,440.7z
	 M190.1,452h145c3.1,11,9.8,20,18.7,26H171.4C180.3,472,187.1,463,190.1,452z"/>
<path d="M288,165.1c0-5.5-4.5-10-10-10s-10,4.5-10,10v17.3c0,5.5,4.5,10,10,10s10-4.5,10-10V165.1z"/>
<path d="M337,165.1c0-5.5-4.5-10-10-10s-10,4.5-10,10v17.3c0,5.5,4.5,10,10,10s10-4.5,10-10V165.1z"/>
<path d="M239,165.1c0-5.5-4.5-10-10-10s-10,4.5-10,10v17.3c0,5.5,4.5,10,10,10s10-4.5,10-10V165.1z"/>
<path d="M278,203.8c-5.5,0-10,4.5-10,10v17.3c0,5.5,4.5,10,10,10s10-4.5,10-10v-17.3C288,208.3,283.5,203.8,278,203.8z"/>
<path d="M327,203.8c-5.5,0-10,4.5-10,10v17.3c0,5.5,4.5,10,10,10s10-4.5,10-10v-17.3C337,208.3,332.5,203.8,327,203.8z"/>
<path d="M229,203.8c-5.5,0-10,4.5-10,10v17.3c0,5.5,4.5,10,10,10s10-4.5,10-10v-17.3C239,208.3,234.5,203.8,229,203.8z"/>
<g>
</g>
<g>
</g>
<g>
</g>
<g>
</g>
<g>
</g>
<g>
</g>
<g>
</g>
<g>
</g>
<g>
</g>
<g>
</g>
<g>
</g>
<g>
</g>
<g>
</g>
<g>
</g>
<g>
</g>
</svg>
