<svg xmlns="http://www.w3.org/2000/svg" height="511pt" version="1.1" viewBox="0 -71 511.99978 511" width="511pt">
<g id="surface1">
<path d="M 89.554688 8.875 C 76.203125 5.296875 62.480469 13.21875 58.902344 26.570312 L 17.757812 180.136719 C 23.101562 175.242188 30.21875 172.25 38.039062 172.25 C 51.09375 172.25 62.199219 180.582031 66.335938 192.21875 L 107.25 39.523438 C 110.824219 26.175781 102.902344 12.453125 89.554688 8.875 Z M 89.554688 8.875 " style=" stroke:none;fill-rule:nonzero;fill:rgb(69.019608%,70.588235%,72.54902%);fill-opacity:1;" />
<path d="M 0 242.25 L 194.195312 242.25 L 194.195312 312.320312 L 0 312.320312 Z M 0 242.25 " style=" stroke:none;fill-rule:nonzero;fill:rgb(66.666667%,52.156863%,29.411765%);fill-opacity:1;" />
<path d="M 137.074219 262.269531 C 127.042969 255.9375 115.175781 252.257812 102.460938 252.257812 C 75.449219 252.257812 52.234375 268.808594 42.410156 292.300781 L 0 292.300781 L 0 312.320312 L 194.195312 312.320312 L 194.195312 262.269531 Z M 137.074219 262.269531 " style=" stroke:none;fill-rule:nonzero;fill:rgb(56.862745%,43.137255%,25.098039%);fill-opacity:1;" />
<path d="M 38.039062 172.25 C 21.453125 172.25 8.007812 185.695312 8.007812 202.28125 L 8.007812 242.25 L 68.066406 242.25 L 68.066406 202.28125 C 68.066406 185.695312 54.625 172.25 38.039062 172.25 Z M 38.039062 172.25 " style=" stroke:none;fill-rule:nonzero;fill:rgb(14.901961%,34.901961%,85.882353%);fill-opacity:1;" />
<path d="M 89.550781 8.875 C 76.199219 5.296875 62.476562 13.21875 58.902344 26.570312 C 55.324219 39.917969 63.246094 53.640625 76.597656 57.21875 C 89.945312 60.796875 103.667969 52.871094 107.246094 39.523438 C 110.820312 26.171875 102.898438 12.453125 89.550781 8.875 Z M 89.550781 8.875 " style=" stroke:none;fill-rule:nonzero;fill:rgb(14.901961%,34.901961%,85.882353%);fill-opacity:1;" />
<path d="M 130.765625 282.289062 C 139.753906 289.558594 145.886719 300.214844 147.222656 312.320312 L 207.207031 312.320312 L 207.207031 282.289062 Z M 130.765625 282.289062 " style=" stroke:none;fill-rule:nonzero;fill:rgb(69.019608%,70.588235%,72.54902%);fill-opacity:1;" />
<path d="M 147.507812 317.324219 C 147.507812 342.203125 127.339844 362.371094 102.460938 362.371094 C 77.585938 362.371094 57.417969 342.203125 57.417969 317.324219 C 57.417969 292.445312 77.585938 272.28125 102.460938 272.28125 C 127.339844 272.28125 147.507812 292.445312 147.507812 317.324219 Z M 147.507812 317.324219 " style=" stroke:none;fill-rule:nonzero;fill:rgb(24.313725%,19.215686%,23.921569%);fill-opacity:1;" />
<path d="M 102.460938 332.339844 C 94.183594 332.339844 87.449219 325.605469 87.449219 317.324219 C 87.449219 309.046875 94.183594 302.308594 102.460938 302.308594 C 110.742188 302.308594 117.476562 309.046875 117.476562 317.324219 C 117.476562 325.605469 110.742188 332.339844 102.460938 332.339844 Z M 102.460938 332.339844 " style=" stroke:none;fill-rule:nonzero;fill:rgb(69.019608%,70.588235%,72.54902%);fill-opacity:1;" />
<path d="M 102.460938 292.300781 C 123.898438 292.300781 141.824219 307.277344 146.378906 327.335938 C 147.109375 324.113281 147.507812 320.765625 147.507812 317.324219 C 147.507812 292.445312 127.339844 272.28125 102.460938 272.28125 C 77.585938 272.28125 57.417969 292.445312 57.417969 317.324219 C 57.417969 320.765625 57.816406 324.113281 58.546875 327.335938 C 63.101562 307.277344 81.027344 292.300781 102.460938 292.300781 Z M 102.460938 292.300781 " style=" stroke:none;fill-rule:nonzero;fill:rgb(20%,14.509804%,20%);fill-opacity:1;" />
<path d="M 102.460938 317.324219 C 108.007812 317.324219 112.84375 320.351562 115.445312 324.832031 C 116.730469 322.621094 117.476562 320.058594 117.476562 317.324219 C 117.476562 309.046875 110.742188 302.308594 102.460938 302.308594 C 94.183594 302.308594 87.449219 309.046875 87.449219 317.324219 C 87.449219 320.058594 88.195312 322.621094 89.480469 324.832031 C 92.082031 320.351562 96.917969 317.324219 102.460938 317.324219 Z M 102.460938 317.324219 " style=" stroke:none;fill-rule:nonzero;fill:rgb(61.568627%,63.529412%,64.705882%);fill-opacity:1;" />
<path d="M 8.007812 222.230469 L 68.066406 222.230469 L 68.066406 242.25 L 8.007812 242.25 Z M 8.007812 222.230469 " style=" stroke:none;fill-rule:nonzero;fill:rgb(6.666667%,28.627451%,78.823529%);fill-opacity:1;" />
<path d="M 97.238281 22.1875 C 93.660156 35.535156 79.941406 43.457031 66.589844 39.882812 C 63.472656 39.046875 60.65625 37.652344 58.210938 35.847656 C 59.328125 45.773438 66.367188 54.476562 76.601562 57.21875 C 89.949219 60.796875 103.671875 52.875 107.25 39.523438 C 109.992188 29.289062 105.972656 18.84375 97.933594 12.910156 C 98.277344 15.933594 98.074219 19.070312 97.238281 22.1875 Z M 97.238281 22.1875 " style=" stroke:none;fill-rule:nonzero;fill:rgb(6.666667%,28.627451%,78.823529%);fill-opacity:1;" />
<path d="M 157.246094 282.289062 L 130.765625 282.289062 C 139.753906 289.558594 145.886719 300.214844 147.222656 312.320312 L 167.316406 312.320312 C 166.476562 301.324219 162.894531 291.089844 157.246094 282.289062 Z M 157.246094 282.289062 " style=" stroke:none;fill-rule:nonzero;fill:rgb(61.568627%,63.529412%,64.705882%);fill-opacity:1;" />
<path d="M 193.90625 197.199219 L 223.9375 145.183594 C 232.230469 130.820312 250.59375 125.898438 264.960938 134.191406 L 489.484375 263.820312 C 503.851562 272.117188 508.769531 290.480469 500.476562 304.84375 L 470.449219 356.859375 Z M 193.90625 197.199219 " style=" stroke:none;fill-rule:nonzero;fill:rgb(84.313725%,28.627451%,27.843137%);fill-opacity:1;" />
<path d="M 469.671875 333.292969 C 474.164062 308.984375 463.261719 283.359375 440.660156 270.308594 C 418.058594 257.261719 390.417969 260.628906 371.609375 276.675781 L 323.167969 248.710938 C 327.660156 224.398438 316.757812 198.773438 294.15625 185.726562 C 271.554688 172.675781 243.914062 176.046875 225.105469 192.09375 L 203.917969 179.859375 L 193.90625 197.199219 L 470.445312 356.855469 L 480.457031 339.519531 Z M 469.671875 333.292969 " style=" stroke:none;fill-rule:nonzero;fill:rgb(80.784314%,21.176471%,21.176471%);fill-opacity:1;" />
<path d="M 284.136719 203.070312 C 264.988281 192.015625 240.5 198.574219 229.441406 217.726562 C 218.386719 236.875 224.949219 261.363281 244.097656 272.421875 C 263.25 283.476562 287.734375 276.917969 298.792969 257.765625 C 309.847656 238.617188 303.289062 214.128906 284.136719 203.070312 Z M 284.136719 203.070312 " style=" stroke:none;fill-rule:nonzero;fill:rgb(24.313725%,19.215686%,23.921569%);fill-opacity:1;" />
<path d="M 430.640625 287.660156 C 411.492188 276.601562 387.003906 283.164062 375.945312 302.3125 C 364.890625 321.464844 371.449219 345.953125 390.601562 357.007812 C 409.75 368.066406 434.238281 361.503906 445.296875 342.355469 C 456.351562 323.203125 449.792969 298.714844 430.640625 287.660156 Z M 430.640625 287.660156 " style=" stroke:none;fill-rule:nonzero;fill:rgb(24.313725%,19.215686%,23.921569%);fill-opacity:1;" />
<path d="M 307.4375 158.71875 L 368.480469 113.050781 L 489.84375 183.121094 L 472.148438 253.8125 Z M 307.4375 158.71875 " style=" stroke:none;fill-rule:nonzero;fill:rgb(43.921569%,64.705882%,95.294118%);fill-opacity:1;" />
<path d="M 274.136719 220.402344 C 290.292969 229.730469 297.488281 248.617188 292.703125 265.796875 C 295.019531 263.4375 297.074219 260.753906 298.800781 257.757812 C 309.859375 238.609375 303.296875 214.121094 284.144531 203.0625 C 264.996094 192.007812 240.507812 198.566406 229.449219 217.71875 C 227.722656 220.710938 226.425781 223.835938 225.535156 227.019531 C 238.023438 214.285156 257.976562 211.074219 274.136719 220.402344 Z M 274.136719 220.402344 " style=" stroke:none;fill-rule:nonzero;fill:rgb(20%,14.509804%,20%);fill-opacity:1;" />
<path d="M 420.640625 304.984375 C 436.796875 314.3125 443.992188 333.203125 439.210938 350.382812 C 441.523438 348.023438 443.578125 345.335938 445.304688 342.34375 C 456.363281 323.191406 449.800781 298.707031 430.652344 287.648438 C 411.5 276.589844 387.011719 283.152344 375.953125 302.304688 C 374.226562 305.296875 372.929688 308.421875 372.042969 311.601562 C 384.527344 298.871094 404.484375 295.65625 420.640625 304.984375 Z M 420.640625 304.984375 " style=" stroke:none;fill-rule:nonzero;fill:rgb(20%,14.509804%,20%);fill-opacity:1;" />
<path d="M 477.203125 233.613281 L 324.878906 145.667969 L 307.4375 158.71875 L 472.148438 253.8125 Z M 477.203125 233.613281 " style=" stroke:none;fill-rule:nonzero;fill:rgb(29.019608%,50.588235%,81.960784%);fill-opacity:1;" />
<path d="M 102.460938 264.773438 C 73.484375 264.773438 49.910156 288.347656 49.910156 317.324219 C 49.910156 346.300781 73.484375 369.878906 102.460938 369.878906 C 131.441406 369.878906 155.015625 346.300781 155.015625 317.324219 C 155.015625 288.347656 131.441406 264.773438 102.460938 264.773438 Z M 102.460938 354.863281 C 81.765625 354.863281 64.925781 338.023438 64.925781 317.324219 C 64.925781 296.625 81.765625 279.789062 102.460938 279.789062 C 123.160156 279.789062 140 296.625 140 317.324219 C 140 338.023438 123.160156 354.863281 102.460938 354.863281 Z M 102.460938 354.863281 " style=" stroke:none;fill-rule:nonzero;fill:rgb(0%,0%,0%);fill-opacity:1;" />
<path d="M 102.460938 294.800781 C 90.042969 294.800781 79.941406 304.90625 79.941406 317.324219 C 79.941406 329.742188 90.042969 339.847656 102.460938 339.847656 C 114.882812 339.847656 124.984375 329.742188 124.984375 317.324219 C 124.984375 304.90625 114.882812 294.800781 102.460938 294.800781 Z M 102.460938 324.832031 C 98.324219 324.832031 94.957031 321.464844 94.957031 317.324219 C 94.957031 313.183594 98.324219 309.816406 102.460938 309.816406 C 106.601562 309.816406 109.96875 313.183594 109.96875 317.324219 C 109.96875 321.464844 106.601562 324.832031 102.460938 324.832031 Z M 102.460938 324.832031 " style=" stroke:none;fill-rule:nonzero;fill:rgb(0%,0%,0%);fill-opacity:1;" />
<path d="M 0 304.8125 L 34.035156 304.8125 L 34.035156 319.828125 L 0 319.828125 Z M 0 304.8125 " style=" stroke:none;fill-rule:nonzero;fill:rgb(0%,0%,0%);fill-opacity:1;" />
<path d="M 493.238281 257.320312 L 480.804688 250.140625 L 498.503906 179.449219 L 367.945312 104.074219 L 306.902344 149.738281 L 268.710938 127.691406 C 260.03125 122.675781 249.914062 121.34375 240.226562 123.941406 C 230.542969 126.535156 222.449219 132.746094 217.433594 141.429688 L 199.597656 172.324219 L 112.5 48.933594 L 114.492188 41.488281 C 114.496094 41.480469 114.496094 41.472656 114.5 41.46875 C 116.75 33.074219 115.597656 24.304688 111.25 16.78125 C 106.90625 9.253906 99.890625 3.871094 91.496094 1.625 C 83.101562 -0.628906 74.335938 0.527344 66.8125 4.871094 C 59.285156 9.21875 53.902344 16.234375 51.652344 24.625 C 51.636719 24.691406 51.621094 24.753906 51.605469 24.816406 L 11.027344 176.253906 C 4.515625 183.007812 0.5 192.179688 0.5 202.28125 L 0.5 249.757812 L 186.6875 249.757812 L 186.6875 274.78125 L 170.894531 274.78125 L 170.894531 289.796875 L 199.699219 289.796875 L 199.699219 304.8125 L 170.894531 304.8125 L 170.894531 319.828125 L 214.714844 319.828125 L 214.714844 274.78125 L 201.703125 274.78125 L 201.703125 234.742188 L 75.574219 234.742188 L 75.574219 202.28125 C 75.574219 198.734375 75.070312 195.308594 74.148438 192.054688 L 107.441406 67.804688 L 191.332031 186.644531 L 183.652344 199.945312 L 219.714844 220.765625 C 211.511719 242.195312 219.859375 267.085938 240.351562 278.917969 C 247.824219 283.230469 255.984375 285.277344 264.046875 285.277344 C 278.101562 285.277344 291.828125 279.027344 301.015625 267.707031 L 366.21875 305.351562 C 358.015625 326.785156 366.363281 351.671875 386.859375 363.503906 C 394.328125 367.8125 402.488281 369.863281 410.550781 369.863281 C 424.605469 369.863281 438.332031 363.613281 447.519531 352.292969 L 473.195312 367.113281 L 506.980469 308.601562 C 517.328125 290.671875 511.164062 267.667969 493.238281 257.320312 Z M 60.5625 234.742188 L 15.515625 234.742188 L 15.515625 202.28125 C 15.515625 189.859375 25.621094 179.757812 38.039062 179.757812 C 50.457031 179.757812 60.5625 189.859375 60.5625 202.28125 Z M 63.296875 174.539062 C 56.625 168.457031 47.757812 164.742188 38.039062 164.742188 C 35.058594 164.742188 32.164062 165.101562 29.382812 165.761719 L 59.0625 54.996094 C 63.207031 59.550781 68.566406 62.839844 74.65625 64.46875 C 77.464844 65.222656 80.289062 65.582031 83.066406 65.582031 C 86.453125 65.582031 89.761719 65.03125 92.910156 64.027344 Z M 99.996094 37.582031 C 99.996094 37.582031 99.996094 37.582031 99.996094 37.585938 L 99.992188 37.597656 C 97.488281 46.914062 87.871094 52.464844 78.542969 49.96875 C 74.023438 48.757812 70.246094 45.859375 67.90625 41.804688 C 65.585938 37.78125 64.960938 33.101562 66.136719 28.609375 L 66.160156 28.515625 L 66.15625 28.515625 C 66.15625 28.515625 66.15625 28.515625 66.15625 28.511719 C 67.367188 23.992188 70.265625 20.214844 74.320312 17.875 C 77.019531 16.316406 80.011719 15.519531 83.050781 15.519531 C 84.570312 15.519531 86.101562 15.722656 87.613281 16.125 C 92.132812 17.335938 95.910156 20.234375 98.25 24.289062 C 100.589844 28.339844 101.207031 33.0625 99.996094 37.582031 Z M 481.1875 186.789062 L 467.28125 242.335938 L 426.921875 219.03125 L 454.449219 171.355469 Z M 369.011719 122.027344 L 441.445312 163.847656 L 413.917969 211.527344 L 321.050781 157.910156 Z M 292.300781 254.003906 C 286.28125 264.433594 275.324219 270.265625 264.070312 270.265625 C 258.554688 270.265625 252.96875 268.863281 247.859375 265.914062 C 232.324219 256.945312 226.984375 237.007812 235.953125 221.472656 C 240.296875 213.945312 247.3125 208.5625 255.707031 206.316406 C 258.507812 205.5625 261.355469 205.191406 264.179688 205.191406 C 269.816406 205.191406 275.378906 206.671875 280.394531 209.566406 C 287.917969 213.910156 293.300781 220.925781 295.550781 229.320312 C 297.800781 237.710938 296.644531 246.480469 292.300781 254.003906 Z M 438.804688 338.589844 C 432.785156 349.015625 421.828125 354.851562 410.574219 354.847656 C 405.0625 354.847656 399.472656 353.449219 394.363281 350.496094 C 386.839844 346.152344 381.457031 339.136719 379.207031 330.746094 C 376.957031 322.351562 378.109375 313.582031 382.457031 306.058594 C 388.476562 295.632812 399.433594 289.796875 410.683594 289.796875 C 416.199219 289.796875 421.789062 291.199219 426.898438 294.152344 C 442.433594 303.117188 447.773438 323.054688 438.804688 338.589844 Z M 493.976562 301.089844 L 467.699219 346.601562 L 455.042969 339.296875 C 463.246094 317.867188 454.898438 292.976562 434.402344 281.148438 C 413.910156 269.3125 388.183594 274.523438 373.722656 292.347656 L 308.539062 254.710938 C 316.742188 233.28125 308.390625 208.394531 287.898438 196.5625 C 267.40625 184.730469 241.675781 189.941406 227.21875 207.761719 L 204.160156 194.449219 L 230.4375 148.9375 C 233.445312 143.726562 238.304688 140 244.113281 138.445312 C 249.921875 136.886719 255.992188 137.683594 261.203125 140.695312 L 485.730469 270.324219 C 496.484375 276.53125 500.183594 290.335938 493.976562 301.089844 Z M 493.976562 301.089844 " style=" stroke:none;fill-rule:nonzero;fill:rgb(0%,0%,0%);fill-opacity:1;" />
<path d="M 214.214844 80.585938 L 229.230469 80.585938 L 229.230469 95.601562 L 214.214844 95.601562 Z M 214.214844 80.585938 " style=" stroke:none;fill-rule:nonzero;fill:rgb(0%,0%,0%);fill-opacity:1;" />
<path d="M 244.246094 80.585938 L 259.261719 80.585938 L 259.261719 95.601562 L 244.246094 95.601562 Z M 244.246094 80.585938 " style=" stroke:none;fill-rule:nonzero;fill:rgb(0%,0%,0%);fill-opacity:1;" />
<path d="M 184.183594 80.585938 L 199.199219 80.585938 L 199.199219 95.601562 L 184.183594 95.601562 Z M 184.183594 80.585938 " style=" stroke:none;fill-rule:nonzero;fill:rgb(0%,0%,0%);fill-opacity:1;" />
<path d="M 214.214844 40.546875 L 229.230469 40.546875 L 229.230469 55.5625 L 214.214844 55.5625 Z M 214.214844 40.546875 " style=" stroke:none;fill-rule:nonzero;fill:rgb(0%,0%,0%);fill-opacity:1;" />
<path d="M 274.273438 40.546875 L 289.289062 40.546875 L 289.289062 55.5625 L 274.273438 55.5625 Z M 274.273438 40.546875 " style=" stroke:none;fill-rule:nonzero;fill:rgb(0%,0%,0%);fill-opacity:1;" />
<path d="M 244.246094 40.546875 L 259.261719 40.546875 L 259.261719 55.5625 L 244.246094 55.5625 Z M 244.246094 40.546875 " style=" stroke:none;fill-rule:nonzero;fill:rgb(0%,0%,0%);fill-opacity:1;" />
<path d="M 30.53125 197.777344 L 45.546875 197.777344 L 45.546875 212.792969 L 30.53125 212.792969 Z M 30.53125 197.777344 " style=" stroke:none;fill-rule:nonzero;fill:rgb(100%,100%,100%);fill-opacity:1;" />
<path d="M 390.960938 250.285156 L 377.957031 242.777344 L 385.464844 229.773438 L 398.46875 237.28125 Z M 364.957031 235.269531 L 335.480469 218.253906 L 342.988281 205.25 L 372.464844 222.265625 Z M 364.957031 235.269531 " style=" stroke:none;fill-rule:nonzero;fill:rgb(100%,100%,100%);fill-opacity:1;" />
<path d="M 253.863281 240.492188 L 261.371094 227.488281 L 274.375 234.996094 L 266.867188 248 Z M 253.863281 240.492188 " style=" stroke:none;fill-rule:nonzero;fill:rgb(100%,100%,100%);fill-opacity:1;" />
<path d="M 400.367188 325.078125 L 407.875 312.074219 L 420.875 319.582031 L 413.367188 332.585938 Z M 400.367188 325.078125 " style=" stroke:none;fill-rule:nonzero;fill:rgb(100%,100%,100%);fill-opacity:1;" />
</g>
</svg>