<svg height="480pt" viewBox="0 0 480 480" width="480pt" xmlns="http://www.w3.org/2000/svg"><g fill="#9bc9ff"><path d="m24 392h224c8.835938 0 16-7.164062 16-16v-352c0-8.835938-7.164062-16-16-16h-224c-8.835938 0-16 7.164062-16 16v352c0 8.835938 7.164062 16 16 16zm16-78.648438v-273.351562h192v320h-192zm0 0"/><path d="m40 313.351562v46.648438h184l-115.328125-115.328125s-68.671875 67.328125-68.671875 68.679687zm0 0"/><path d="m168.785156 223.214844 63.214844 63.21875v-126.433594zm0 0"/><path d="m32 440v32h208v-32zm0 0"/><path d="m120 72c-26.507812 0-48 21.492188-48 48 0 26.511719 48 88 48 88s48-61.488281 48-88c0-26.507812-21.492188-48-48-48zm0 64c-8.835938 0-16-7.164062-16-16s7.164062-16 16-16 16 7.164062 16 16-7.164062 16-16 16zm0 0"/><path d="m416 160c0 17.671875-14.328125 32-32 32s-32-14.328125-32-32 14.328125-32 32-32 32 14.328125 32 32zm0 0"/><path d="m460 312c6.628906 0 12-5.371094 12-12v-60c0-17.671875-14.328125-32-32-32h-32c0 13.253906-10.746094 24-24 24s-24-10.746094-24-24h-32c-17.671875 0-32 14.328125-32 32v60c0 6.628906 5.371094 12 12 12s12-5.371094 12-12v-52c0-8.835938 7.164062-16 16-16h8v104h80v-104h8c8.835938 0 16 7.164062 16 16v52c0 6.628906 5.371094 12 12 12zm0 0"/><path d="m344 460c0 6.628906 5.371094 12 12 12s12-5.371094 12-12v-124h-24zm0 0"/><path d="m400 460c0 6.628906 5.371094 12 12 12s12-5.371094 12-12v-124h-24zm0 0"/></g><path d="m248 0h-224c-13.253906 0-24 10.746094-24 24v352c0 13.253906 10.746094 24 24 24h48v32h-40c-4.417969 0-8 3.582031-8 8v32c0 4.417969 3.582031 8 8 8h208c4.417969 0 8-3.582031 8-8v-32c0-4.417969-3.582031-8-8-8h-40v-32h48c13.253906 0 24-10.746094 24-24v-352c0-13.253906-10.746094-24-24-24zm-16 464h-192v-16h192zm-48-32h-96v-32h96zm72-56c0 4.417969-3.582031 8-8 8h-224c-4.417969 0-8-3.582031-8-8v-352c0-4.417969 3.582031-8 8-8h224c4.417969 0 8 3.582031 8 8zm0 0" fill="#1e81ce"/><path d="m235.054688 32.617188c-.96875-.402344-2.003907-.613282-3.054688-.617188h-192c-4.417969 0-8 3.582031-8 8v320c0 4.417969 3.582031 8 8 8h192c4.417969 0 8-3.582031 8-8v-320c-.003906-3.234375-1.953125-6.148438-4.945312-7.382812zm-11.054688 234.503906-43.902344-43.921875 43.902344-43.886719zm-176-49.191406c5.160156-4.496094 13.511719-13.242188 28.800781-29.554688 2.890625-3.242188 2.660157-8.199219-.511719-11.164062-3.175781-2.96875-8.136718-2.859376-11.175781.246093-5.761719 6.109375-11.914062 12.574219-17.113281 17.925781v-147.382812h164.6875l-34.34375 34.34375c-2.078125 2.007812-2.914062 4.984375-2.179688 7.78125.730469 2.796875 2.914063 4.980469 5.710938 5.710938 2.796875.734374 5.773438-.101563 7.78125-2.179688l34.34375-34.34375v97.375l-60.871094 60.914062c-3.125 3.121094-3.125 8.1875 0 11.308594l60.871094 60.832032v58.945312l-109.664062-109.671875c-3.105469-3.105469-8.132813-3.125-11.265626-.046875-27.925781 27.375-44.796874 43.925781-55.070312 54.328125zm0 98.398437c7.457031-7.9375 38.207031-38.351563 60.625-60.367187l96.0625 96.039062h-156.6875zm0 0" fill="#1e81ce"/><path d="m144 120c0-13.253906-10.746094-24-24-24s-24 10.746094-24 24 10.746094 24 24 24 24-10.746094 24-24zm-32 0c0-4.417969 3.582031-8 8-8s8 3.582031 8 8-3.582031 8-8 8-8-3.582031-8-8zm0 0" fill="#1e81ce"/><path d="m120 216c2.464844 0 4.789062-1.136719 6.304688-3.078125 5.085937-6.523437 49.695312-64.480469 49.695312-92.921875 0-30.929688-25.070312-56-56-56s-56 25.070312-56 56c0 28.441406 44.609375 86.398438 49.695312 92.921875 1.515626 1.941406 3.839844 3.078125 6.304688 3.078125zm0-136c22.082031.027344 39.972656 17.917969 40 40 0 15.367188-22.398438 50.929688-40 74.753906-17.601562-23.816406-40-59.371094-40-74.753906.027344-22.082031 17.917969-39.972656 40-40zm0 0" fill="#1e81ce"/><path d="m424 160c0-22.089844-17.910156-40-40-40s-40 17.910156-40 40 17.910156 40 40 40c22.082031-.027344 39.972656-17.917969 40-40zm-40 24c-13.253906 0-24-10.746094-24-24s10.746094-24 24-24 24 10.746094 24 24-10.746094 24-24 24zm0 0" fill="#1e81ce"/><path d="m440 200h-112c-22.082031.027344-39.972656 17.917969-40 40v60c0 11.046875 8.953125 20 20 20s20-8.953125 20-20v-52c0-4.417969 3.582031-8 8-8v220c0 11.046875 8.953125 20 20 20s20-8.953125 20-20v-116h16v116c0 11.046875 8.953125 20 20 20s20-8.953125 20-20v-220c4.417969 0 8 3.582031 8 8v52c0 11.046875 8.953125 20 20 20s20-8.953125 20-20v-60c-.027344-22.082031-17.917969-39.972656-40-40zm-42.222656 16c-2.824219 4.945312-8.082032 7.996094-13.777344 7.996094s-10.953125-3.050782-13.777344-7.996094zm-37.777344 244c0 2.210938-1.789062 4-4 4s-4-1.789062-4-4v-116h8zm56 0c0 2.210938-1.789062 4-4 4s-4-1.789062-4-4v-116h8zm48-160c0 2.210938-1.789062 4-4 4s-4-1.789062-4-4v-52c0-13.253906-10.746094-24-24-24h-8c-4.417969 0-8 3.582031-8 8v96h-64v-96c0-4.417969-3.582031-8-8-8h-8c-13.253906 0-24 10.746094-24 24v52c0 2.210938-1.789062 4-4 4s-4-1.789062-4-4v-60c0-13.253906 10.746094-24 24-24h25.136719c3.589843 14.113281 16.300781 23.992188 30.863281 23.992188s27.273438-9.878907 30.863281-23.992188h25.136719c13.253906 0 24 10.746094 24 24zm0 0" fill="#1e81ce"/></svg>