<svg height="480pt" viewBox="0 0 480 480" width="480pt" xmlns="http://www.w3.org/2000/svg"><path d="m8 8h280v272h-280zm0 0" fill="#ffd422"/><path d="m440 80c0 22.089844-17.910156 40-40 40s-40-17.910156-40-40 17.910156-40 40-40 40 17.910156 40 40zm0 0" fill="#ffb398"/><path d="m456 120v160h-112v-128h-96v-32zm0 0" fill="#1e81ce"/><path d="m456 352c0 22.089844-17.910156 40-40 40s-40-17.910156-40-40 17.910156-40 40-40 40 17.910156 40 40zm0 0" fill="#ffb398"/><path d="m360 392h112v80h-112zm0 0" fill="#ed539d"/><path d="m280 352c0 22.089844-17.910156 40-40 40s-40-17.910156-40-40 17.910156-40 40-40 40 17.910156 40 40zm0 0" fill="#ffb398"/><path d="m184 392h112v80h-112zm0 0" fill="#6dc82a"/><path d="m104 352c0 22.089844-17.910156 40-40 40s-40-17.910156-40-40 17.910156-40 40-40 40 17.910156 40 40zm0 0" fill="#ffb398"/><path d="m8 392h112v80h-112zm0 0" fill="#ff0c38"/><path d="m178.34375 61.65625 11.3125-11.3125 64 64-11.3125 11.3125zm0 0" fill="#29485a"/><path d="m464 280v-160c0-4.417969-3.578125-8-8-8h-20.324219c7.636719-8.503906 12.324219-19.699219 12.324219-32 0-26.46875-21.53125-48-48-48s-48 21.53125-48 48c0 12.300781 4.6875 23.496094 12.324219 32h-68.324219v-104c0-4.417969-3.578125-8-8-8h-280c-4.421875 0-8 3.582031-8 8v272c0 4.417969 3.578125 8 8 8h280c4.421875 0 8-3.582031 8-8v-120h40v120c0 4.417969 3.578125 8 8 8h112c4.421875 0 8-3.582031 8-8zm-96-200c0-17.644531 14.351562-32 32-32s32 14.355469 32 32-14.351562 32-32 32-32-14.355469-32-32zm-88 192h-264v-256h264v96h-28.6875l-61.65625-61.65625-11.3125 11.3125 61.65625 61.65625v28.6875c0 4.417969 3.578125 8 8 8h32zm168 0h-96v-120c0-4.417969-3.578125-8-8-8h-88v-16h192zm0 0"/><path d="m472 384h-20.324219c7.636719-8.503906 12.324219-19.699219 12.324219-32 0-26.46875-21.53125-48-48-48s-48 21.53125-48 48c0 12.300781 4.6875 23.496094 12.324219 32h-20.324219c-4.421875 0-8 3.582031-8 8v80c0 4.417969 3.578125 8 8 8h112c4.421875 0 8-3.582031 8-8v-80c0-4.417969-3.578125-8-8-8zm-88-32c0-17.644531 14.351562-32 32-32s32 14.355469 32 32-14.351562 32-32 32-32-14.355469-32-32zm80 112h-96v-64h96zm0 0"/><path d="m296 384h-20.324219c7.636719-8.503906 12.324219-19.699219 12.324219-32 0-26.46875-21.53125-48-48-48s-48 21.53125-48 48c0 12.300781 4.6875 23.496094 12.324219 32h-20.324219c-4.421875 0-8 3.582031-8 8v80c0 4.417969 3.578125 8 8 8h112c4.421875 0 8-3.582031 8-8v-80c0-4.417969-3.578125-8-8-8zm-88-32c0-17.644531 14.351562-32 32-32s32 14.355469 32 32-14.351562 32-32 32-32-14.355469-32-32zm80 112h-96v-64h96zm0 0"/><path d="m120 384h-20.324219c7.636719-8.503906 12.324219-19.699219 12.324219-32 0-26.46875-21.53125-48-48-48s-48 21.53125-48 48c0 12.300781 4.6875 23.496094 12.324219 32h-20.324219c-4.421875 0-8 3.582031-8 8v80c0 4.417969 3.578125 8 8 8h112c4.421875 0 8-3.582031 8-8v-80c0-4.417969-3.578125-8-8-8zm-88-32c0-17.644531 14.351562-32 32-32s32 14.355469 32 32-14.351562 32-32 32-32-14.355469-32-32zm80 112h-96v-64h96zm0 0"/></svg>