<?xml version="1.0" encoding="iso-8859-1"?>
<!-- Generator: Adobe Illustrator 19.0.0, SVG Export Plug-In . SVG Version: 6.00 Build 0)  -->
<svg version="1.1" id="Capa_1" xmlns="http://www.w3.org/2000/svg" xmlns:xlink="http://www.w3.org/1999/xlink" x="0px" y="0px"
	 viewBox="0 0 512 512" style="enable-background:new 0 0 512 512;" xml:space="preserve">
<path style="fill:#E6E5EA;" d="M440.037,200.831c-7.169-31.899-35.495-54.565-68.19-54.565h-143.34
	c-25.327,0-48.672,13.701-61.02,35.813l-39.157,70.117h323.252L440.037,200.831z"/>
<path style="fill:#7CC1EE;" d="M467.471,252.197h-15.889H128.33H91.565v21.979c0,14.134-11.458,25.591-25.591,25.591H30.241v-13.042
	c0-16.09,11.006-29.61,25.899-33.442c-14.894,3.832-25.9,17.352-25.9,33.442v55.313c0.604-0.049,1.213-0.082,1.829-0.082H55.69
	c2.879,0,5.212,2.334,5.212,5.212v27.677h45.011c-0.63-3.216-0.969-6.537-0.969-9.937c0-28.381,23.007-51.388,51.388-51.388
	s51.388,23.007,51.388,51.388c0,3.4-0.339,6.721-0.969,9.937h153.526c-0.63-3.216-0.969-6.537-0.969-9.937
	c0-28.381,23.007-51.388,51.388-51.388s51.388,23.007,51.388,51.388c0,3.4-0.339,6.721-0.969,9.937H502v-88.121
	C502,267.656,486.541,252.197,467.471,252.197z"/>
<g>
	<path style="fill:#E6E5EA;" d="M156.333,313.522c-28.381,0-51.388,23.007-51.388,51.388c0,3.4,0.339,6.721,0.969,9.937
		c4.63,23.624,25.439,41.451,50.419,41.451s45.789-17.827,50.419-41.451c0.63-3.216,0.969-6.537,0.969-9.937
		C207.72,336.529,184.713,313.522,156.333,313.522z"/>
	<path style="fill:#E6E5EA;" d="M410.696,313.522c-28.381,0-51.388,23.007-51.388,51.388c0,3.4,0.339,6.721,0.969,9.937
		c4.63,23.624,25.438,41.451,50.419,41.451c24.98,0,45.789-17.827,50.419-41.451c0.63-3.216,0.969-6.537,0.969-9.937
		C462.083,336.529,439.076,313.522,410.696,313.522z"/>
</g>
<g>
	<path style="fill:#EECC77;" d="M359.308,117.719c0-12.158-9.856-22.014-22.014-22.014h-54.101
		c-12.158,0-22.014,9.856-22.014,22.014v26.382h98.129L359.308,117.719L359.308,117.719z"/>
	<path style="fill:#EECC77;" d="M30.241,286.726v13.042h35.733c14.133,0,25.591-11.458,25.591-25.591v-21.979H64.77l0,0
		c-1.192,0-2.37,0.061-3.53,0.178c-1.741,0.177-3.444,0.483-5.099,0.909C41.247,257.116,30.241,270.635,30.241,286.726z"/>
</g>
<path style="fill:#E6E5EA;" d="M55.691,341.957H32.07c-0.617,0-1.226,0.032-1.829,0.082C18.909,342.97,10,352.455,10,364.027v6.763
	c0,12.189,9.881,22.07,22.07,22.07h23.621c2.879,0,5.212-2.333,5.212-5.212v-12.802v-27.677
	C60.903,344.291,58.57,341.957,55.691,341.957z"/>
<g>
	<path style="fill:#040507;" d="M467.471,242.196h-7.886l-9.79-43.558c-3.964-17.636-13.919-33.567-28.031-44.86
		c-14.113-11.293-31.84-17.513-49.915-17.513h-2.54v-18.547c0-17.653-14.361-32.015-32.014-32.015h-54.101
		c-17.653,0-32.015,14.361-32.015,32.015v18.547h-22.671c-28.922,0-55.649,15.687-69.751,40.938l-36.295,64.992H91.565H64.77
		c-2.302,0-4.563,0.176-6.772,0.514c-1.472,0.226-2.921,0.523-4.343,0.89c-0.711,0.184-1.415,0.384-2.112,0.601
		c-1.698,0.529-3.353,1.158-4.958,1.879c-15.514,6.968-26.344,22.565-26.344,40.645v47.502C8.397,338.946,0,350.521,0,364.027v6.763
		c0,17.684,14.387,32.07,32.07,32.07h23.621c8.388,0,15.212-6.824,15.212-15.212v-2.802h27.383
		c2.765,8.028,7.138,15.313,12.752,21.451H83.825c-5.523,0-10,4.478-10,10s4.477,10,10,10H225.47c5.523,0,10-4.478,10-10
		s-4.477-10-10-10h-23.843c5.614-6.139,9.987-13.423,12.752-21.451H352.65c2.765,8.028,7.138,15.313,12.752,21.451h-23.107
		c-5.522,0-10,4.478-10,10s4.478,10,10,10h130.831c5.522,0,10-4.478,10-10s-4.478-10-10-10H455.99
		c5.614-6.139,9.987-13.423,12.753-21.451H502c5.522,0,10-4.478,10-10v-88.121C512,262.172,492.024,242.196,467.471,242.196z
		 M371.848,156.266c28.217,0,52.246,19.228,58.433,46.759l8.805,39.172H312.424v-85.931H371.848z M271.179,117.719
		c0-6.625,5.39-12.015,12.015-12.015h54.101c6.624,0,12.014,5.39,12.014,12.015v16.382H271.18v-16.382H271.179z M176.218,186.956
		c10.572-18.931,30.608-30.69,52.29-30.69h63.917v85.931H145.368L176.218,186.956z M64.77,262.196h16.796v11.979
		c0,8.598-6.994,15.592-15.591,15.592H40.241v-3.042C40.241,273.2,51.245,262.196,64.77,262.196z M50.903,364.847v18.014H32.07
		c-5.835,0-10.715-4.163-11.83-9.673c-0.156-0.776-0.24-1.577-0.24-2.398v-6.763c0-0.821,0.084-1.622,0.241-2.397
		c1.115-5.511,5.995-9.673,11.83-9.673h8.17h10.663L50.903,364.847L50.903,364.847z M120.077,384.847
		c-3.267-5.917-5.132-12.713-5.132-19.938c0-0.021,0.001-0.042,0.002-0.063c0.034-22.792,18.586-41.325,41.386-41.325
		s41.353,18.533,41.387,41.325c0,0.021,0.002,0.042,0.002,0.063c0,7.225-1.865,14.02-5.132,19.938
		c-7.054,12.776-20.659,21.451-36.256,21.451S127.131,397.623,120.077,384.847z M374.44,384.847
		c-3.267-5.917-5.132-12.713-5.132-19.938c0-0.021,0.001-0.042,0.002-0.063c0.034-22.792,18.586-41.325,41.386-41.325
		c22.801,0,41.353,18.533,41.387,41.325c0,0.021,0.002,0.042,0.002,0.063c0,7.225-1.865,14.02-5.132,19.938
		c-7.053,12.776-20.659,21.451-36.256,21.451C395.098,406.298,381.493,397.623,374.44,384.847z M492,364.847h-19.918
		c-0.034-33.821-27.558-61.325-61.387-61.325s-61.352,27.504-61.386,61.325h-131.59c-0.034-33.821-27.558-61.325-61.387-61.325
		c-33.828,0-61.352,27.504-61.386,61.325H70.903V347.17c0-8.389-6.824-15.213-15.212-15.213h-15.45v-22.189h25.733
		c19.625,0,35.591-15.967,35.591-35.592v-11.979h26.765h174.094h149.158h15.889c13.525,0,24.529,11.004,24.529,24.529L492,364.847
		L492,364.847z"/>
	<path style="fill:#040507;" d="M286.708,324.84h-48.479c-5.523,0-10,4.478-10,10s4.477,10,10,10h48.479c5.522,0,10-4.478,10-10
		S292.23,324.84,286.708,324.84z"/>
	<path style="fill:#040507;" d="M335.939,331.011c-0.25-0.6-0.56-1.18-0.92-1.72c-0.359-0.55-0.779-1.061-1.239-1.521
		c-2.33-2.33-5.78-3.39-9.03-2.74c-0.63,0.131-1.26,0.33-1.87,0.58c-0.6,0.25-1.18,0.551-1.72,0.91
		c-0.551,0.37-1.061,0.79-1.521,1.25s-0.88,0.971-1.25,1.521c-0.359,0.54-0.67,1.12-0.92,1.72c-0.25,0.61-0.439,1.24-0.57,1.87
		c-0.13,0.649-0.189,1.31-0.189,1.96s0.06,1.31,0.189,1.95c0.131,0.64,0.32,1.27,0.57,1.87c0.25,0.609,0.561,1.189,0.92,1.729
		c0.37,0.55,0.79,1.061,1.25,1.521s0.97,0.88,1.521,1.239c0.54,0.36,1.12,0.67,1.72,0.92c0.61,0.25,1.24,0.45,1.87,0.57
		c0.649,0.13,1.31,0.2,1.96,0.2c0.649,0,1.31-0.07,1.95-0.2c0.64-0.12,1.27-0.32,1.87-0.57c0.609-0.25,1.189-0.56,1.729-0.92
		c0.55-0.359,1.06-0.779,1.521-1.239c0.46-0.46,0.88-0.971,1.239-1.521c0.36-0.54,0.67-1.12,0.92-1.729
		c0.25-0.601,0.44-1.23,0.57-1.87c0.13-0.641,0.2-1.3,0.2-1.95s-0.07-1.311-0.2-1.96
		C336.38,332.251,336.189,331.621,335.939,331.011z"/>
</g>
<g>
</g>
<g>
</g>
<g>
</g>
<g>
</g>
<g>
</g>
<g>
</g>
<g>
</g>
<g>
</g>
<g>
</g>
<g>
</g>
<g>
</g>
<g>
</g>
<g>
</g>
<g>
</g>
<g>
</g>
</svg>
