<?xml version="1.0" encoding="utf-8"?>
<!-- Generator: Adobe Illustrator 15.1.0, SVG Export Plug-In . SVG Version: 6.00 Build 0)  -->
<!DOCTYPE svg PUBLIC "-//W3C//DTD SVG 1.1//EN" "http://www.w3.org/Graphics/SVG/1.1/DTD/svg11.dtd">
<svg version="1.1" id="Layer_1" xmlns="http://www.w3.org/2000/svg" xmlns:xlink="http://www.w3.org/1999/xlink" x="0px" y="0px"
	 width="200px" height="200px" viewBox="0 0 200 200" enable-background="new 0 0 200 200" xml:space="preserve">
<g>
	<path stroke="#000000" stroke-width="2" stroke-miterlimit="10" d="M92.389,23.446c-0.677,3.848,1.799,7.957,0.788,12.857
		c-0.523,2.535-3.287,4.022-3.412,6.036c-0.166,2.677,3.738,7.208,5.774,9.972c3.371,4.578,7.381,8.646,7.609,16.007
		c0.08,2.606-0.625,5.263-0.789,7.872c-0.203,3.311,0.226,6.602,0,9.71c-0.539,7.547-3.027,14.827-3.672,22.567
		c-0.664,7.986-1.112,16.037,0.263,24.932c3.714,1.447,7.938,2.384,8.397,7.086c-9.798,0-19.594,0-29.391,0
		c-1.354-2.321-2.094-5.256-4.987-6.037c2.027-4.163,3.768-7.934,3.413-14.17c-1.113-19.485-17.181-30.11-18.633-49.596
		c4.245-3.377,8.693-10.115,6.035-17.844c0.774-3.141,6.267-6.477,6.035-10.497c-0.11-1.937-2.958-3.926-3.411-6.036
		c-0.981-4.566,1.112-7.844,1.05-12.857c-1.383,1.789-2.11,9.644-6.037,8.66c-1.522-0.382-1.988-4.258-2.624-5.774
		c-1.37-3.267-4.283-9.902,0-12.595c1.093-0.687,3.307-0.731,5.249-1.313c2.904-0.869,6.055-2.901,8.921-3.149
		c2.052-0.177,4.445,0.798,6.823,0.788c1.965-0.009,4.078-0.834,5.773-0.788c3.206,0.088,6.165,2.111,9.447,3.149
		c4.743,1.5,9.016,0.889,8.135,8.135c-0.207,1.703-1.644,4.323-2.362,6.036c-0.405,0.969-1.264,5.17-2.623,5.511
		C94.455,33.036,93.705,26.448,92.389,23.446z"/>
	<path fill="#87888C" stroke="#000000" stroke-width="2" stroke-miterlimit="10" d="M28.623,38.666
		c2.862,1.512,5.298,3.449,8.134,4.986c4.185-1.512,11.172-1.931,14.958,0.262c2.889-1.659,5.311-3.785,8.397-5.248
		c0.387,4.04-0.519,7.976,0,11.809c0.27,1.996,1.434,3.753,1.575,5.51c0.521,6.507-3.254,9.795-7.086,13.121
		c0.376,21.772,18.483,31.271,18.632,52.484c0.038,5.323-1.653,9.559-3.937,13.121c3.655,1.807,6.228,4.178,4.461,8.659
		c-2.645,6.709-17.326,6.256-27.554,6.821c-5.399,0.3-7.616,1.789-10.758,4.461c-0.416,0.354-1.961,2.891-4.986,1.052
		c-1.36-0.828-1.987-3.274-1.313-5.513c1.403-4.646,9.296-6.192,15.22-6.821c7.172-0.761,14.996-0.2,19.682-2.362
		c-8.613-0.949-19.768-0.523-29.653-0.523c-3.077,0-6.737,0.771-8.922-1.051c-1.147-3.104,3-3.354,4.199-5.248
		c1.192-1.884,1.879-6.849,2.099-9.709c0.384-4.974-0.072-10.078-1.312-14.694c-1.178-4.39-2.624-8.582-2.624-13.122
		c0-4.708,1.595-9.587,2.885-13.646c1.167-3.667,4.121-9.531,3.412-13.121c-0.459-2.322-4.621-4.633-5.773-6.822
		c-0.908-1.724-1.748-4.162-1.312-7.873c0.151-1.285,1.058-2.509,1.312-4.199C28.882,47.51,27.757,42.239,28.623,38.666z"/>
	<path fill="#1CBDE2" stroke="#000000" stroke-width="2" stroke-miterlimit="10" d="M151.434,99.021
		c-4.342-2.636-9.43-6.479-13.647-10.234c-8.118-7.228-17.117-14.589-23.88-24.929c-3.033-4.64-6.986-11.629-6.559-18.631
		c0.814-13.363,8.996-24.116,23.092-24.143c10.996-0.02,16.805,6.257,20.994,13.646c2.063-4.071,4.43-7.21,8.396-9.709
		c1.955-1.233,6.955-3.858,12.071-3.937c14.14-0.218,23.423,10.96,23.617,24.143c0.131,8.831-4.688,15.304-7.873,20.205
		c-4.633,7.129-10.332,12.628-16.27,18.107C165.348,89.103,158.736,94.285,151.434,99.021z M145.921,42.865
		c-1.112,2.909-0.255,7.792-0.522,11.546c-3.697,0.152-8.02-0.32-11.287,0.262c-0.414,3.186-0.446,8.103,0,11.283
		c3.182,0.758,8.115-0.239,11.287,0.525c0.149,3.609-0.319,7.84,0.262,11.021c2.708,0.833,8.58,0.863,11.283,0
		c0.777-3.16-0.254-8.126,0.523-11.284c3.635-0.303,8.508,0.635,11.285-0.525c0.436-2.994,0.436-7.764,0-10.758
		c-2.861-1.163-7.828-0.221-11.547-0.525c-0.166-3.682,0.34-8.036-0.262-11.284C154.27,42.135,149.02,42.587,145.921,42.865z"/>
	<path fill="#87888C" stroke="#000000" stroke-width="2" stroke-miterlimit="10" d="M34.92,179.583
		c22.045,8.724,58.639,10.001,87.91,4.196c14.188-2.812,26.102-6.645,37.262-12.855c10.262-5.712,26.663-16.645,22.567-32.803
		c-2.865-11.303-14.772-18.066-25.192-22.307c-13.051-5.307-26.855-7.568-43.563-8.396c-1.991-0.221,1.113-0.343,1.839-0.265
		c16.866,0.863,32.427,3.033,46.448,8.66c12.302,4.938,32.248,16.713,25.979,35.689c-3.785,11.456-15.712,19.289-26.505,24.668
		c-11.604,5.78-23.853,9.549-38.836,12.069C92.897,193.279,55.777,190.876,34.92,179.583z"/>
	<path fill="#1DBDE2" stroke="#000000" stroke-width="2" stroke-miterlimit="10" d="M16.814,125.264
		c-3.629,4.582-7.383,10.786-6.299,17.844c0.63,4.101,2.745,8.009,4.724,10.498c6.513,8.189,19.255,13.81,32.277,17.58
		c41.107,11.907,97.935,4.211,123.335-15.22c-16.752,15.595-48.326,25.979-86.073,25.979c-26.696,0-52.347-6.408-66.916-16.271
		C11.33,161.252,4.48,155.35,4.48,145.732C4.48,135.602,11.61,130.85,16.814,125.264z"/>
</g>
</svg>
