<svg height="496pt" viewBox="0 0 496 496" width="496pt" xmlns="http://www.w3.org/2000/svg"><path d="m176 344-131.121094 31.214844c-21.621094 5.152344-36.878906 24.472656-36.878906 46.695312v66.089844h480v-66.089844c0-22.222656-15.257812-41.542968-36.878906-46.695312l-131.121094-31.214844-72 40zm0 0" fill="#5789d6"/><path d="m472 437.910156c0-22.222656-15.257812-41.542968-36.878906-46.695312l-131.121094-31.214844-72 40-72-40-131.121094 31.214844c-4.96875 1.183594-9.542968 3.183594-13.726562 5.730468-4.496094 7.351563-7.152344 15.878907-7.152344 24.964844v66.089844h464zm0 0" fill="#699ce6"/><path d="m96 488v-136l48-16v88h208v-88l48 16v136" fill="#eebc5a"/><path d="m96 488v-136l48-16v88h208v-88l48 16v136" fill="#eebc5a"/><path d="m352 424h-16v16h-208v-88l-32 10.664062v125.335938h288v-120l-32-10.664062zm0 0" fill="#f8cf6a"/><path d="m296 304 17.457031 43.640625-65.457031 36.359375-65.457031-36.359375 17.457031-43.640625" fill="#ceb2aa"/><path d="m289.457031 339.640625-14.257812-35.640625h-75.199219l-17.457031 43.640625 46.257812 25.695313zm0 0" fill="#e5c7bd"/><path d="m248 312c-48.601562 0-88-39.398438-88-88v-56h176v56c0 48.601562-39.398438 88-88 88zm0 0" fill="#ceb2aa"/><path d="m240 311.601562c44.847656-4.050781 80-41.699218 80-87.601562v-56h-160v56c0 45.902344 35.152344 83.550781 80 87.601562zm0 0" fill="#e5c7bd"/><path d="m160 232c-17.671875 0-32-14.328125-32-32v-32h32" fill="#ceb2aa"/><path d="m336 232c17.671875 0 32-14.328125 32-32v-32h-32" fill="#ceb2aa"/><path d="m352 200v-32h-16v59.558594c9.527344-5.542969 16-15.742188 16-27.558594zm0 0" fill="#e5c7bd"/><path d="m160 200 16 16h56l16-16 16 16h56l16-16v-32h-176zm0 0" fill="#abb2bc"/><path d="m160 168h160v32h-160zm0 0" fill="#cdd1d8"/><path d="m144 136v-40c0-39.769531 32.230469-72 72-72h64c39.769531 0 72 32.230469 72 72v40" fill="#eebc5a"/><path d="m328 96c0-26.511719-21.488281-48-48-48h-112c-2.007812 0-3.976562.160156-5.929688.398438-11.207031 12.699218-18.070312 29.328124-18.070312 47.601562v40h184zm0 0" fill="#f8cf6a"/><path d="m264 104 24-96h-80l24 96" fill="#eebc5a"/><path d="m244 104 20-80h-52l20 80zm0 0" fill="#f8cf6a"/><path d="m128 136h240v32h-240zm0 0" fill="#eebc5a"/><path d="m128 152h240v16h-240zm0 0" fill="#f8cf6a"/><path d="m368 176h-240c-4.425781 0-8-3.585938-8-8v-32c0-4.414062 3.574219-8 8-8h240c4.425781 0 8 3.585938 8 8v32c0 4.414062-3.574219 8-8 8zm-232-16h224v-16h-224zm0 0"/><path d="m248 320c-52.9375 0-96-43.0625-96-96v-56c0-4.414062 3.574219-8 8-8h176c4.425781 0 8 3.585938 8 8v56c0 52.9375-43.0625 96-96 96zm-80-144v48c0 44.113281 35.886719 80 80 80s80-35.886719 80-80v-48zm0 0"/><path d="m288.414062 298.527344-14.183593-42.527344h-52.46875l-14.175781 42.527344-15.171876-5.0625 16-48c1.089844-3.265625 4.136719-5.464844 7.585938-5.464844h64c3.449219 0 6.496094 2.199219 7.585938 5.472656l16 48zm0 0"/><path d="m160 240c-22.054688 0-40-17.945312-40-40v-32h16v32c0 13.230469 10.769531 24 24 24zm0 0"/><path d="m336 240v-16c13.230469 0 24-10.769531 24-24v-32h16v32c0 22.054688-17.945312 40-40 40zm0 0"/><path d="m232 272h32v16h-32zm0 0"/><path d="m320 224h-56c-2.128906 0-4.160156-.839844-5.65625-2.34375l-10.34375-10.34375-10.34375 10.34375c-1.496094 1.503906-3.527344 2.34375-5.65625 2.34375h-56c-2.128906 0-4.160156-.839844-5.65625-2.34375l-16-16 11.3125-11.3125 13.65625 13.65625h49.375l13.65625-13.65625c3.128906-3.128906 8.183594-3.128906 11.3125 0l13.65625 13.65625h49.375l13.65625-13.65625 11.3125 11.3125-16 16c-1.496094 1.503906-3.527344 2.34375-5.65625 2.34375zm0 0"/><path d="m271.761719 105.945312-15.515625-3.882812 21.507812-86.0625h-59.507812l21.507812 86.054688-15.515625 3.882812-24-96c-.597656-2.394531-.0625-4.921875 1.457031-6.867188 1.519532-1.941406 3.839844-3.070312 6.304688-3.070312h80c2.464844 0 4.792969 1.136719 6.304688 3.078125 1.511718 1.945313 2.054687 4.472656 1.457031 6.867187zm0 0"/><path d="m360 136h-16v-40c0-35.289062-28.710938-64-64-64v-16c44.113281 0 80 35.886719 80 80zm0 0"/><path d="m152 136h-16v-40c0-44.113281 35.886719-80 80-80v16c-35.289062 0-64 28.710938-64 64zm0 0"/><path d="m153.601562 52.800781 12.796876-9.601562 24 32-12.796876 9.601562zm0 0"/><path d="m305.613281 75.195312 24.007813-31.996093 12.796875 9.601562-24.007813 31.996094zm0 0"/><path d="m176.582031 341.054688 15.988281-40.003907 14.855469 5.9375-15.988281 40.003907zm0 0"/><path d="m288.582031 306.972656 14.855469-5.941406 16 40-14.855469 5.941406zm0 0"/><path d="m248 392c-1.335938 0-2.679688-.335938-3.878906-1.007812l-69.289063-38.496094-28.976562 6.894531-3.703125-15.558594 32-7.617187c1.945312-.472656 3.992187-.175782 5.734375.792968l68.113281 37.839844 68.121094-37.839844c1.742187-.96875 3.789062-1.253906 5.734375-.792968l32 7.617187-3.703125 15.558594-28.976563-6.894531-69.289062 38.496094c-1.207031.671874-2.550781 1.007812-3.886719 1.007812zm0 0"/><path d="m488 496h-480c-4.425781 0-8-3.574219-8-8v-66.089844c0-26.046875 17.695312-48.445312 43.03125-54.476562l51.121094-12.167969 3.703125 15.558594-51.121094 12.167969c-18.09375 4.320312-30.734375 20.320312-30.734375 38.917968v58.089844h464v-58.089844c0-18.597656-12.640625-34.597656-30.734375-38.910156l-51.121094-12.167969 3.703125-15.558593 51.121094 12.167968c25.335938 6.03125 43.03125 28.421875 43.03125 54.46875v66.089844c0 4.425781-3.574219 8-8 8zm0 0"/><path d="m408 488h-16v-130.230469l-32-10.664062v76.894531c0 4.425781-3.574219 8-8 8h-208c-4.425781 0-8-3.574219-8-8v-76.894531l-32 10.664062v130.230469h-16v-136c0-3.449219 2.199219-6.496094 5.472656-7.585938l48-16c2.429688-.828124 5.113282-.40625 7.207032 1.097657 2.089843 1.503906 3.320312 3.921875 3.320312 6.488281v80h192v-80c0-2.566406 1.230469-4.984375 3.320312-6.496094 2.09375-1.503906 4.777344-1.929687 7.207032-1.097656l48 16c3.273437 1.097656 5.472656 4.144531 5.472656 7.59375zm0 0"/></svg>