<svg height="512pt" viewBox="-16 0 512 512" width="512pt" xmlns="http://www.w3.org/2000/svg"><path d="m172 160h-42c-2.339844 0-4.578125.398438-6.671875 1.140625v37.71875c2.09375.742187 4.332031 1.140625 6.671875 1.140625h42c11.050781 0 20-8.949219 20-20 0-11.070312-8.988281-20-20-20zm0 0" fill="#537983"/><path d="m149.359375 433.230469-13.488281-11.230469h-102.460938c-2.210937 6.261719-3.410156 12.988281-3.410156 20 0 33.140625 26.859375 60 60 60s60-26.859375 60-60c0-2.980469-.21875-5.910156-.640625-8.769531zm0 0" fill="#537983"/><path d="m330 302c-13.988281 0-26.011719 0-40 0-11.050781 0-20 8.949219-20 20v80h-60c-33.140625 0-60-26.859375-60-60v-142h-20c-2.339844 0-4.578125-.398438-6.671875-1.140625 4.171875-5.148437 6.671875-11.71875 6.671875-18.859375 0-16.535156-13.398438-30-30-30h-30v60h30c3.679688 0 7.210938-.660156 10.46875-1.878906l-26.6875 118.21875c-1.300781 5.199218-1.542969 10.539062-.75 15.71875-40.042969-1.679688-73.03125 30.28125-73.03125 69.941406v10h125.871094c11.46875 12.800781 27.734375 20 44.730468 20h289.398438c0-77.320312-62.679688-140-140-140zm0 0" fill="#ff5d5d"/><path d="m310 442h120c0 33.140625-26.859375 60-60 60s-60-26.859375-60-60zm0 0" fill="#537983"/><path d="m310 262h100c0 22.078125-17.917969 40-40 40-9.101562 0-44.226562 0-60 0-11.050781 0-20-8.949219-20-20 0-11.015625 8.9375-20 20-20zm0 0" fill="#537983"/><path d="m340 40c0 16.570312-13.429688 30-30 30s-30-13.429688-30-30 13.429688-30 30-30 30 13.429688 30 30zm0 0" fill="#4dbaf6"/><path d="m330 110v125c0 7.019531-3.679688 13.539062-9.710938 17.148438-103.476562 62.09375-88.835937 53.3125-90.289062 54.179687v75.671875c0 11.039062-8.960938 20-20 20s-20-8.960938-20-20v-87c0-7.019531 3.679688-13.539062 9.710938-17.148438l90.289062-54.179687v-73.671875l-48 36c-6.769531 5.109375-16.03125 5.371094-23.089844.640625-2.132812-1.421875 13.0625 8.707031-60-40-9.191406-6.121094-11.671875-18.539063-5.550781-27.730469 6.121094-9.199218 18.519531-11.691406 27.730469-5.550781l48.230468 32.152344 68.679688-51.511719c6.058594-4.539062 14.148438-5.300781 20.949219-1.890625 6.769531 3.390625 11.050781 10.3125 11.050781 17.890625zm0 0" fill="#4dbaf6"/><path d="m90 422c11.03125 0 20 8.96875 20 20s-8.96875 20-20 20-20-8.96875-20-20 8.96875-20 20-20zm0 0" fill="#f2f2fc"/><path d="m410 412c5.519531 0 10-4.480469 10-10s-4.480469-10-10-10-10 4.480469-10 10 4.480469 10 10 10zm0 0"/><path d="m10 431.988281h10.722656c-.472656 3.296875-.722656 6.644531-.722656 10.011719 0 38.597656 31.402344 70 70 70 36.304688 0 66.238281-27.785156 69.664062-63.207031 6.746094 2.113281 13.800782 3.207031 20.9375 3.207031h120.125c4.867188 33.875 34.074219 60 69.273438 60s64.40625-26.125 69.273438-60h30.726562c5.523438 0 10-4.476562 10-10 0-60.011719-35.433594-111.898438-86.46875-135.859375 15.589844-8.34375 26.46875-24.832031 26.46875-44.140625 0-5.523438-4.476562-10-10-10h-75.320312c3.394531-4.9375 5.320312-10.855469 5.320312-17v-125c0-11.429688-6.351562-21.710938-16.566406-26.828125-4.132813-2.074219-8.566406-3.113281-12.988282-3.183594 21.851563-.242187 39.554688-18.082031 39.554688-39.988281 0-22.054688-17.945312-40-40-40s-40 17.945312-40 40c0 21.800781 17.535156 39.574219 39.238281 39.980469-6.09375.152343-12.113281 2.179687-17.238281 6.019531l-63.019531 47.265625-42.34375-28.226563c-13.828125-9.21875-32.421875-5.472656-41.601563 8.328126-7.878906 11.828124-6.152344 26.882812 2.59375 36.632812h-17.628906c-1.113281 0-2.21875.082031-3.316406.203125-7.28125-6.542969-16.710938-10.203125-26.683594-10.203125h-30c-5.523438 0-10 4.476562-10 10v60c0 5.523438 4.476562 10 10 10h27.535156l-23.484375 104.035156c-.683593 2.75-1.113281 5.523438-1.324219 8.304688-40.296874 3.597656-72.726562 37.390625-72.726562 79.660156v10c0 5.523438 4.476562 9.988281 10 9.988281zm80 60.011719c-27.570312 0-50-22.429688-50-50 0-3.386719.34375-6.738281 1.003906-10.011719h20.714844c-1.109375 3.132813-1.71875 6.503907-1.71875 10.011719 0 16.542969 13.457031 30 30 30s30-13.457031 30-30c0-3.507812-.609375-6.871094-1.71875-10h13.335938c2.578124 2.527344 5.34375 4.855469 8.28125 6.953125.0625 1.015625.101562 2.03125.101562 3.046875 0 27.570312-22.429688 50-50 50zm10-50c0 5.515625-4.484375 10-10 10s-10-4.484375-10-10 4.484375-10 10-10 10 4.484375 10 10zm270 50c-24.144531 0-44.347656-17.214844-48.992188-40.011719h97.984376c-4.644532 22.796875-24.847657 40.011719-48.992188 40.011719zm0-200h-60c-5.515625 0-10-4.484375-10-10 0-5.5625 4.523438-10.011719 10-10.011719h88.296875c-4.023437 11.410157-15 20.011719-28.296875 20.011719zm-89.457031-4.335938c.359375 1.863282.890625 3.667969 1.578125 5.394532-12.730469 3.46875-22.121094 15.125-22.121094 28.941406v70h-21.71875c1.109375-3.128906 1.71875-6.492188 1.71875-10v-70.007812zm9.457031-247.664062c0-11.027344 8.972656-20 20-20s20 8.972656 20 20-8.972656 20-20 20-20-8.972656-20-20zm-128.3125 84.449219c3.050781-4.589844 9.234375-5.851563 13.855469-2.769531l48.230469 32.152343c3.527343 2.351563 8.15625 2.222657 11.546874-.320312l68.675782-51.507813c3.0625-2.292968 7.070312-2.660156 10.476562-.953125 3.410156 1.707031 5.527344 5.136719 5.527344 8.949219v125c0 3.496094-1.855469 6.78125-4.855469 8.574219l-90.289062 54.183593c-3.011719 1.804688-4.855469 5.0625-4.855469 8.574219v75.667969c0 5.515625-4.484375 10-10 10-5.511719 0-10-4.484375-10-10v-87c0-3.496094 1.859375-6.78125 4.855469-8.574219l90.289062-54.179687c3.011719-1.808594 4.855469-5.0625 4.855469-8.574219v-73.671875c0-8.269531-9.453125-12.910156-16-8l-48.023438 36.019531c-3.367187 2.539063-7.988281 2.664063-11.519531.300781l-60.003906-40.003906c-4.589844-3.054687-5.839844-9.257812-2.765625-13.867187zm-1.6875 217.550781v-132h12c14.183594 0 26.09375-9.898438 29.199219-23.148438l12.144531 8.097657c10.585938 7.089843 24.519531 6.703125 34.65625-.949219l32-24v48.007812l-85.425781 51.261719c-8.988281 5.382813-14.574219 15.242188-14.574219 25.730469v86.972656c-12.136719-9.128906-20-23.648437-20-39.972656zm-21.277344-172h33.277344c5.5625 0 10 4.53125 10 10 0 5.515625-4.484375 10-10 10h-33.277344c.839844-3.25 1.277344-6.609375 1.277344-10s-.4375-6.75-1.277344-10zm-58.722656-10h20c10.953125 0 20 8.847656 20 20 0 11.171875-9.074219 20-20 20h-20zm13.535156 168.542969 25.609375-113.441407c2.699219-1.476562 5.242188-3.257812 7.53125-5.304687 1.101563.121094 2.207031.203125 3.324219.203125h10v132c0 38.597656 31.402344 70 70 70h60c5.523438 0 10-4.476562 10-10v-80c0-5.515625 4.484375-10 10-10h40c68.316406 0 124.496094 52.972656 129.617188 120h-279.015626c-15.78125 0-30.863281-7.445312-40.476562-20.632812l-41.828125-57.65625c-4.960937-6.839844-7.027344-15.535157-4.761719-25.167969zm-18.285156 23.65625c1.609375 4.722656 3.921875 9.207031 6.855469 13.253906l33.769531 46.546875h-95.875c0-31.984375 24.738281-57.433594 55.25-59.800781zm0 0"/><path d="m330 372h40c5.523438 0 10-4.476562 10-10s-4.476562-10-10-10h-40c-5.523438 0-10 4.476562-10 10s4.476562 10 10 10zm0 0"/><path d="m330 412h40c5.523438 0 10-4.476562 10-10s-4.476562-10-10-10h-40c-5.523438 0-10 4.476562-10 10s4.476562 10 10 10zm0 0"/></svg>