<?xml version="1.0" encoding="utf-8"?>
<!-- Generator: Adobe Illustrator 15.1.0, SVG Export Plug-In . SVG Version: 6.00 Build 0)  -->
<!DOCTYPE svg PUBLIC "-//W3C//DTD SVG 1.1//EN" "http://www.w3.org/Graphics/SVG/1.1/DTD/svg11.dtd">
<svg version="1.1" id="Layer_1" xmlns="http://www.w3.org/2000/svg" xmlns:xlink="http://www.w3.org/1999/xlink" x="0px" y="0px"
	 width="512px" height="512px" viewBox="0 0 512 512" enable-background="new 0 0 512 512" xml:space="preserve">
<g>
	<g>
		<path fill="#537983" d="M312.055,180c0,11.051,8.949,20,20,20h42c2.34,0,4.578-0.398,6.672-1.141V161.14
			c-2.094-0.742-4.332-1.14-6.672-1.14h-42C321.043,160,312.055,168.93,312.055,180z"/>
		<path fill="#537983" d="M354.055,442c0,33.141,26.859,60,60,60c33.142,0,60-26.859,60-60c0-7.012-1.198-13.738-3.41-20H368.184
			l-13.487,11.23C354.273,436.09,354.055,439.02,354.055,442z"/>
		<path fill="#FF5D5D" d="M34.055,442h289.398c16.995,0,33.262-7.199,44.729-20h125.872v-10c0-39.66-32.987-71.621-73.03-69.941
			c0.793-5.18,0.551-10.52-0.75-15.719l-26.688-118.219c3.258,1.219,6.789,1.879,10.469,1.879h30v-60h-30c-16.602,0-30,13.465-30,30
			c0,7.141,2.5,13.711,6.672,18.859c-2.094,0.743-4.332,1.141-6.672,1.141h-20v142c0,33.141-26.858,60-59.999,60h-60v-80
			c0-11.051-8.949-20-20-20c-13.987,0-26.012,0-40,0C96.735,302,34.055,364.68,34.055,442z"/>
		<path fill="#537983" d="M134.055,502c-33.141,0-60-26.859-60-60h120C194.055,475.141,167.196,502,134.055,502z"/>
		<path fill="#537983" d="M214.055,282c0,11.051-8.949,20-20,20c-15.772,0-50.897,0-60,0c-22.082,0-40-17.922-40-40h100
			C205.118,262,214.055,270.984,214.055,282z"/>
		<path fill="#EAEA50" d="M194.055,10c16.57,0,30,13.43,30,30s-13.43,30-30,30c-16.569,0-30-13.43-30-30S177.485,10,194.055,10z"/>
		<path fill="#EAEA50" d="M185.105,92.109c6.802-3.41,14.892-2.648,20.949,1.891l68.68,51.512l48.229-32.152
			c9.211-6.141,21.608-3.648,27.729,5.551c6.121,9.191,3.642,21.609-5.552,27.73c-73.063,48.707-57.866,38.578-59.999,40
			c-7.06,4.73-16.319,4.469-23.09-0.641l-48-36v73.672l90.289,54.18c6.032,3.609,9.712,10.129,9.712,17.148v87
			c0,11.039-8.961,20-20,20s-20-8.961-20-20v-75.672c-1.453-0.867,13.188,7.914-90.289-54.18c-6.03-3.609-9.711-10.128-9.711-17.148
			V110C174.055,102.422,178.336,95.5,185.105,92.109z"/>
		<path fill="#F2F2FC" d="M434.055,442c0,11.031-8.969,20-20,20c-11.03,0-20-8.969-20-20s8.97-20,20-20
			C425.086,422,434.055,430.969,434.055,442z"/>
		<path d="M104.055,402c0-5.52-4.479-10-10-10c-5.52,0-10,4.48-10,10s4.48,10,10,10S104.055,407.52,104.055,402z"/>
		<path d="M504.055,422v-10c0-42.27-32.43-76.063-72.727-79.66c-0.211-2.781-0.643-5.555-1.324-8.305L406.52,220h27.535
			c5.523,0,10-4.477,10-10v-60c0-5.523-4.477-10-10-10h-30c-9.973,0-19.401,3.66-26.684,10.203
			c-1.098-0.121-2.203-0.203-3.316-0.203h-17.629c8.746-9.75,10.474-24.805,2.594-36.633c-9.18-13.801-27.771-17.547-41.602-8.328
			l-42.344,28.227L212.055,86c-5.125-3.84-11.145-5.867-17.237-6.02c21.702-0.406,39.237-18.179,39.237-39.98
			c0-22.055-17.944-40-40-40c-22.055,0-40,17.945-40,40c0,21.906,17.703,39.746,39.556,39.988c-4.423,0.07-8.855,1.109-12.988,3.184
			C170.407,88.289,164.055,98.57,164.055,110v125c0,6.145,1.926,12.063,5.32,17h-75.32c-5.522,0-10,4.477-10,10
			c0,19.309,10.879,35.797,26.47,44.141C59.489,330.102,24.055,381.988,24.055,442c0,5.523,4.478,10,10,10h30.728
			c4.866,33.875,34.073,60,69.272,60c35.199,0,64.406-26.125,69.273-60h120.125c7.137,0,14.189-1.094,20.938-3.207
			C347.816,484.215,377.75,512,414.055,512c38.599,0,70-31.402,70-70c0-3.367-0.25-6.715-0.723-10.012h10.723
			C499.578,431.988,504.055,427.523,504.055,422z M364.055,442c0-1.016,0.039-2.031,0.103-3.047c2.938-2.098,5.703-4.426,8.28-6.953
			h13.337c-1.108,3.129-1.72,6.492-1.72,10c0,16.543,13.457,30,30,30s30-13.457,30-30c0-3.508-0.608-6.879-1.719-10.012h20.715
			c0.66,3.271,1.004,6.625,1.004,10.012c0,27.57-22.43,50-50,50C386.485,492,364.055,469.57,364.055,442z M414.055,432
			c5.517,0,10,4.484,10,10s-4.483,10-10,10c-5.516,0-10-4.484-10-10S408.539,432,414.055,432z M85.063,451.988h97.984
			C178.403,474.785,158.2,492,134.055,492S89.707,474.785,85.063,451.988z M105.758,271.988h88.297c5.478,0,10,4.449,10,10.012
			c0,5.516-4.483,10-10,10h-60C120.758,292,109.782,283.398,105.758,271.988z M264.055,311.992V382c0,3.508,0.609,6.871,1.719,10
			h-21.718v-70c0-13.816-9.391-25.473-22.121-28.941c0.688-1.727,1.22-3.531,1.578-5.395L264.055,311.992z M194.055,60
			c-11.026,0-20-8.973-20-20s8.974-20,20-20c11.027,0,20,8.973,20,20S205.082,60,194.055,60z M339.602,138.316l-60.004,40.004
			c-3.531,2.363-8.152,2.238-11.52-0.301L220.055,142c-6.547-4.91-16-0.27-16,8v73.672c0,3.512,1.844,6.766,4.855,8.574
			l90.289,54.18c2.996,1.793,4.854,5.078,4.854,8.574v87c0,5.516-4.487,10-10,10c-5.517,0-10-4.484-10-10v-75.668
			c0-3.512-1.845-6.77-4.854-8.574l-90.289-54.184c-3-1.793-4.855-5.078-4.855-8.574V110c0-3.813,2.117-7.242,5.527-8.949
			c3.406-1.707,7.414-1.34,10.477,0.953l68.675,51.508c3.392,2.543,8.021,2.672,11.548,0.32l48.229-32.152
			c4.621-3.082,10.806-1.82,13.855,2.77C345.441,129.059,344.191,135.262,339.602,138.316z M324.055,381.973V295
			c0-10.488-5.586-20.348-14.573-25.73l-85.426-51.262V170l32,24c10.136,7.652,24.07,8.039,34.656,0.949l12.146-8.098
			C305.961,200.102,317.871,210,332.055,210h12v132C344.055,358.324,336.191,372.844,324.055,381.973z M364.055,180
			c0,3.391,0.438,6.75,1.277,10h-33.277c-5.516,0-10-4.484-10-10c0-5.469,4.438-10,10-10h33.277
			C364.492,173.25,364.055,176.609,364.055,180z M424.055,200h-20c-10.926,0-20-8.828-20-20c0-11.152,9.047-20,20-20h20V200z
			 M405.758,353.711l-41.828,57.656C354.316,424.555,339.234,432,323.453,432H44.438c5.121-67.027,61.302-120,129.617-120h40
			c5.517,0,10,4.484,10,10v80c0,5.523,4.478,10,10,10h60c38.599,0,70-31.402,70-70V210h10c1.117,0,2.224-0.082,3.324-0.203
			c2.289,2.047,4.832,3.828,7.531,5.305l25.607,113.441C412.785,338.176,410.719,346.871,405.758,353.711z M484.055,412H388.18
			l33.771-46.547c2.935-4.047,5.246-8.531,6.854-13.254C459.316,354.566,484.055,380.016,484.055,412z"/>
		<path d="M184.055,362c0-5.523-4.477-10-10-10h-40c-5.522,0-10,4.477-10,10s4.478,10,10,10h40
			C179.578,372,184.055,367.523,184.055,362z"/>
		<path d="M184.055,402c0-5.523-4.477-10-10-10h-40c-5.522,0-10,4.477-10,10s4.478,10,10,10h40
			C179.578,412,184.055,407.523,184.055,402z"/>
	</g>
	<g>
		<g>
			<circle fill="#F2CC77" cx="84.081" cy="166.947" r="71.396"/>
			<path d="M77.416,171.687h13.227c5.416,0,9.791,4.375,9.791,9.791s-4.375,9.791-9.791,9.791H66.845
				c-2.604,0-4.74,2.135-4.74,4.738s2.137,4.739,4.74,4.739h12.446v9.321c0,2.604,2.136,4.74,4.739,4.74s4.738-2.136,4.738-4.74
				v-9.321h1.928c10.623,0,19.269-8.646,19.269-19.268c0-10.624-8.646-19.269-19.269-19.269H77.469c-5.415,0-9.79-4.374-9.79-9.791
				s4.375-9.791,9.79-9.791h23.382c2.604,0,4.738-2.133,4.738-4.738c0-2.604-2.135-4.738-4.738-4.738H88.82v-9.114
				c0-2.604-2.135-4.738-4.738-4.738c-2.604,0-4.74,2.134-4.74,4.738v9.165h-1.926c-10.624,0-19.27,8.644-19.27,19.268
				C58.199,163.043,66.845,171.687,77.416,171.687z"/>
			<path d="M84.082,243.031c41.973,0,76.082-34.163,76.082-76.084c0-41.921-34.162-76.135-76.082-76.135
				c-41.922,0-76.137,34.162-76.137,76.135C7.945,208.92,42.106,243.031,84.082,243.031z M84.081,100.29
				c36.766,0,66.657,29.893,66.657,66.658c0,36.767-29.892,66.658-66.657,66.658c-36.767,0-66.658-29.891-66.658-66.658
				C17.423,130.182,47.315,100.291,84.081,100.29z"/>
		</g>
	</g>
</g>
</svg>
