<?xml version="1.0" encoding="iso-8859-1"?>
<!-- Generator: Adobe Illustrator 19.0.0, SVG Export Plug-In . SVG Version: 6.00 Build 0)  -->
<svg version="1.1" id="Capa_1" xmlns="http://www.w3.org/2000/svg" xmlns:xlink="http://www.w3.org/1999/xlink" x="0px" y="0px"
	 viewBox="0 0 480 480" style="enable-background:new 0 0 480 480;" xml:space="preserve">
<path style="fill:#C49A6C;" d="M100,416h224v56H100V416z"/>
<path style="fill:#FFAF46;" d="M324,360v-32v-96h-56v128H324z"/>
<path style="fill:#C49A6C;" d="M204,344v16h64V232h-16v8c0,22.091-17.909,40-40,40s-40-17.909-40-40v-8h-16v112H204z"/>
<path style="fill:#E6E7E8;" d="M388,360h-64h-56h-64v56h240v-56H388z"/>
<path style="fill:#FFAF46;" d="M100,368h40v-8c0-8.837,7.163-16,16-16V232h-56V368z"/>
<path style="fill:#FFDA44;" d="M300,120c8.837,0,16-7.163,16-16s-7.163-16-16-16H124c-8.837,0-16,7.163-16,16s7.163,16,16,16H300z"
	/>
<g>
	<path style="fill:#C49A6C;" d="M100,232c-35.346,0-64,28.654-64,64v32h64V232z"/>
	<path style="fill:#C49A6C;" d="M388,328v-32c0-35.346-28.654-64-64-64v96H388z"/>
</g>
<path style="fill:#FFEDE8;" d="M212,280c22.091,0,40-17.909,40-40v-32.64c-9.701,5.693-20.752,8.677-32,8.64h-16
	c-11.248,0.037-22.299-2.947-32-8.64V240C172,262.091,189.909,280,212,280z"/>
<path style="fill:#FFAF46;" d="M204,344h-48c-8.837,0-16,7.163-16,16v8c13.255,0,24,10.745,24,24s-10.745,24-24,24v8
	c0,8.837,7.163,16,16,16h48V344z"/>
<g>
	<path style="fill:#FFEDE8;" d="M164,392c0-13.255-10.745-24-24-24h-40v-40H36v88h104C153.255,416,164,405.255,164,392z"/>
	<path style="fill:#FFEDE8;" d="M324,328h64v32h-64V328z"/>
	<path style="fill:#FFEDE8;" d="M220,216c11.248,0.037,22.299-2.947,32-8.64c19.819-11.383,32.028-32.505,32-55.36v-32H140v32
		c-0.028,22.855,12.181,43.977,32,55.36c9.701,5.693,20.752,8.677,32,8.64H220z"/>
</g>
<path style="fill:#FFDA44;" d="M220,8h-8h-8c-44.183,0-80,35.817-80,80h176C300,43.817,264.183,8,220,8z"/>
<path style="fill:#FFEDE8;" d="M324,416h64v56h-64V416z"/>
<path style="fill:#231F20;" d="M451.776,425.12c0.102-0.367,0.177-0.742,0.224-1.12v-64c0-4.418-3.582-8-8-8h-48v-56
	c-0.048-39.744-32.256-71.952-72-72h-64v-12.376c19.942-13.295,31.943-35.657,32-59.624v-24h8
	c13.219,0.033,23.963-10.656,23.996-23.876c0.026-10.311-6.555-19.48-16.332-22.756C304.171,35.516,265.985,0.072,220,0h-16
	c-45.985,0.072-84.171,35.516-87.664,81.368c-12.535,4.2-19.292,17.765-15.092,30.3C104.52,121.445,113.689,128.026,124,128h8v24
	c0.054,23.968,12.056,46.331,32,59.624V224h-64c-39.744,0.048-71.952,32.256-72,72v120c0,4.418,3.582,8,8,8h56v48
	c0,4.418,3.582,8,8,8h288c4.418,0,8-3.582,8-8v-46.936l5.752,4.984c3.006,2.602,7.466,2.602,10.472,0l13.272-11.472l13.272,11.472
	c0.396,0.289,0.819,0.538,1.264,0.744c0.33,0.233,0.677,0.439,1.04,0.616c0.93,0.382,1.923,0.583,2.928,0.592
	c1.102-0.004,2.192-0.235,3.2-0.68c0.207-0.126,0.407-0.262,0.6-0.408c0.761-0.391,1.453-0.905,2.048-1.52
	c0.056-0.072,0.152-0.088,0.208-0.16c0.21-0.31,0.395-0.636,0.552-0.976c0.323-0.464,0.591-0.963,0.8-1.488
	C451.591,426.234,451.714,425.681,451.776,425.12L451.776,425.12z M332,336h48v16h-48V336z M380,296v24h-48v-79.432
	C359.535,244.581,379.965,268.174,380,296z M316,352h-40V240h40V352z M212,352v-8c0-4.418-3.582-8-8-8h-40v-96
	c0,26.51,21.49,48,48,48s48-21.49,48-48v112H212z M148,422.992c1.086-0.321,2.155-0.7,3.2-1.136c0.48-0.176,0.984-0.304,1.456-0.504
	c1.76-0.76,3.447-1.678,5.04-2.744c0.344-0.232,0.64-0.52,0.976-0.76c1.214-0.872,2.368-1.823,3.456-2.848
	c0.48-0.472,0.904-0.984,1.36-1.48c0.856-0.909,1.657-1.868,2.4-2.872c0.424-0.592,0.8-1.2,1.2-1.816
	c0.645-1.031,1.227-2.099,1.744-3.2c0.312-0.656,0.624-1.304,0.896-1.984c0.47-1.236,0.863-2.5,1.176-3.784
	c0.16-0.624,0.36-1.216,0.48-1.848c0.811-3.959,0.811-8.041,0-12c-0.12-0.632-0.32-1.224-0.48-1.848
	c-0.313-1.284-0.706-2.548-1.176-3.784c-0.272-0.68-0.584-1.328-0.896-1.984c-0.517-1.101-1.099-2.169-1.744-3.2
	c-0.384-0.616-0.8-1.224-1.2-1.816c-0.743-1.004-1.544-1.963-2.4-2.872c-0.456-0.496-0.88-1.008-1.36-1.48
	c-1.088-1.025-2.242-1.976-3.456-2.848c-0.336-0.24-0.632-0.528-0.976-0.76c-1.593-1.066-3.28-1.984-5.04-2.744
	c-0.472-0.2-0.976-0.328-1.456-0.504c-1.045-0.436-2.114-0.815-3.2-1.136V360c0-4.418,3.582-8,8-8h40v80h-40c-4.418,0-8-3.582-8-8
	V422.992z M108,360V240h40v97.472c-9.555,3.378-15.958,12.394-16,22.528H108z M185.456,221.6c2.676,0.69,5.39,1.224,8.128,1.6
	c0.656,0.096,1.304,0.176,1.96,0.248c2.805,0.353,5.629,0.537,8.456,0.552h16c2.824-0.019,5.645-0.204,8.448-0.552
	c0.664-0.08,1.32-0.16,1.976-0.256c2.722-0.379,5.419-0.913,8.08-1.6c0.352-0.096,0.696-0.224,1.048-0.328
	c1.496-0.416,2.992-0.848,4.448-1.368V240c0,17.673-14.327,32-32,32s-32-14.327-32-32v-20.12c1.488,0.536,3.016,0.968,4.544,1.4
	C184.856,221.368,185.152,221.48,185.456,221.6L185.456,221.6z M180,20.184V48c0,4.418,3.582,8,8,8s8-3.582,8-8V16.488
	c2.655-0.312,5.326-0.475,8-0.488v40c0,4.418,3.582,8,8,8s8-3.582,8-8V16c2.674,0.013,5.345,0.176,8,0.488V48c0,4.418,3.582,8,8,8
	s8-3.582,8-8V20.184c25.975,9.22,44.43,32.431,47.56,59.816H132.44C135.57,52.615,154.025,29.404,180,20.184z M116,104
	c0-4.418,3.582-8,8-8h176c4.418,0.004,7.996,3.59,7.992,8.008c-0.004,4.412-3.58,7.988-7.992,7.992H124
	C119.582,112,116,108.418,116,104z M148,152v-24h128v24c-0.011,20.014-10.712,38.498-28.064,48.472
	c-8.474,4.955-18.119,7.554-27.936,7.528h-16c-9.843,0.021-19.512-2.598-28-7.584C158.681,190.445,148.004,171.984,148,152z M44,296
	c0.035-27.826,20.465-51.419,48-55.432V320H44V296z M44,336h48v32c0,4.418,3.582,8,8,8h40c8.837,0,16,7.163,16,16s-7.163,16-16,16
	H44V336z M108,424h24c0,13.255,10.745,24,24,24l0,0h48c4.418,0,8-3.582,8-8v-14.472l5.208,4.512c3.007,2.607,7.473,2.607,10.48,0
	l13.2-11.448l13.216,11.448c3.007,2.607,7.473,2.607,10.48,0l13.208-11.448L291,430.04c3.007,2.607,7.473,2.607,10.48,0
	l13.216-11.448l2.192,1.904c-0.564,1.083-0.868,2.283-0.888,3.504v40H108L108,424z M332,464v-32.2c2.288,0.385,4.63-0.259,6.4-1.76
	l13.216-11.456l13.184,11.464c3.007,2.607,7.473,2.607,10.48,0l4.72-4.096V464L332,464z M420.256,401.952l-13.264,11.472
	l-13.24-11.472c-3.007-2.607-7.473-2.607-10.48,0l-13.232,11.464l-13.24-11.464c-3.007-2.607-7.473-2.607-10.48,0l-13.2,11.448
	l-13.184-11.448c-3.007-2.607-7.473-2.607-10.48,0l-13.216,11.456l-13.208-11.448c-3.008-2.611-7.48-2.611-10.488,0l-13.2,11.448
	l-13.216-11.448c-3.007-2.607-7.473-2.607-10.48,0l-13.2,11.448L212,404.352V368h224v38.512l-5.28-4.56
	C427.715,399.355,423.26,399.355,420.256,401.952L420.256,401.952z"/>
<g>
</g>
<g>
</g>
<g>
</g>
<g>
</g>
<g>
</g>
<g>
</g>
<g>
</g>
<g>
</g>
<g>
</g>
<g>
</g>
<g>
</g>
<g>
</g>
<g>
</g>
<g>
</g>
<g>
</g>
</svg>
