<?xml version="1.0" encoding="iso-8859-1"?>
<!-- Generator: Adobe Illustrator 19.0.0, SVG Export Plug-In . SVG Version: 6.00 Build 0)  -->
<svg version="1.1" id="Capa_1" xmlns="http://www.w3.org/2000/svg" xmlns:xlink="http://www.w3.org/1999/xlink" x="0px" y="0px"
	 viewBox="0 0 512.001 512.001" style="enable-background:new 0 0 512.001 512.001;" xml:space="preserve">
<circle style="fill:#885951;" cx="424.329" cy="408.298" r="64.124"/>
<circle style="fill:#E4DAD8;" cx="424.329" cy="408.298" r="32.062"/>
<circle style="fill:#885951;" cx="95.695" cy="408.298" r="64.124"/>
<g>
	<circle style="fill:#E4DAD8;" cx="95.695" cy="408.298" r="32.062"/>
	<path style="fill:#E4DAD8;" d="M264.021,384.248h80.155l100.354-48.093c0,0,24.046-144.278-48.093-176.34H372.39
		c40.063,64.124,21.622,151.832,0,192.371c-34.734,0-73.635,0-108.369,0V384.248z"/>
</g>
<path style="fill:#D7C8C5;" d="M396.437,352.186c21.622-40.539,40.063-128.247,0-192.371H372.39
	c40.063,64.124,21.622,151.832,0,192.371C380.552,352.186,388.604,352.186,396.437,352.186z"/>
<path style="fill:#F56C6C;" d="M256.006,407.536c6.336-6.283,88.17-136.263,0-176.34c-15.782-7.174-109.947-19.477-176.34,24.046
	c-83.6,54.803-70.812,139.555-72.139,152.294C90.353,407.536,173.18,407.536,256.006,407.536z"/>
<path style="fill:#DB4D4D;" d="M103.156,255.242c33.407-21.899,73.842-29.662,107.789-31.059
	c-37.286-1.553-89.722,3.816-131.279,31.059c-83.6,54.803-70.812,139.555-72.139,152.294c7.83,0,15.66,0,23.49,0
	C32.345,394.796,19.556,310.045,103.156,255.242z"/>
<path style="fill:#F56C6C;" d="M424.331,368.217c30.486,0,51.502,18.932,64.343,40.077h15.812c0-44.268-35.886-80.155-80.155-80.155
	s-80.155,35.886-80.155,80.155h16.031C371.795,387.149,389.491,368.217,424.331,368.217z"/>
<path style="fill:#DB4D4D;" d="M436.354,329.04c-3.923-0.59-7.936-0.9-12.023-0.9c-44.268,0-80.155,35.886-80.155,80.155h16.031
	c2.718-4.961,5.779-9.795,9.312-14.296C375.565,360.441,402.476,334.136,436.354,329.04z"/>
<path style="fill:#885951;" d="M167.836,183.861h88.17v48.093H127.758v-8.015C127.758,201.805,145.702,183.861,167.836,183.861z"/>
<path style="fill:#7A463D;" d="M191.882,183.861h-24.046c-22.134,0-40.077,17.944-40.077,40.077v8.015h24.046v-8.015
	C151.805,201.805,169.748,183.861,191.882,183.861z"/>
<rect x="368.22" y="127.757" style="fill:#A27E77;" width="24.046" height="32.062"/>
<g>
	<polygon style="fill:#F56C6C;" points="392.269,127.753 432.346,119.737 432.346,167.83 392.269,159.815 	"/>
	<circle style="fill:#F56C6C;" cx="328.143" cy="63.633" r="24.046"/>
</g>
<rect x="23.557" y="151.803" style="fill:#FBDC40;" width="88.17" height="80.155"/>
<rect x="23.557" y="151.803" style="fill:#FAD000;" width="88.17" height="32.062"/>
<rect x="7.526" y="127.757" style="fill:#FBDC40;" width="120.232" height="40.077"/>
<path d="M453.506,325.623c2.047-18.123,4.276-50.161-0.2-82.487c-0.568-4.112-4.369-6.988-8.473-6.412
	c-4.112,0.568-6.982,4.362-6.412,8.473c4.169,30.118,2.056,60.749,0.379,76.629c-4.708-0.784-9.539-1.2-14.467-1.2
	c-11.802,0-23.064,2.35-33.349,6.596c7.408-22.355,11.869-47.557,12.476-71.439c0.837-32.847-5.438-63.139-18.223-88.453h6.29
	l5.349,1.07c14.885,7.873,26.178,22.299,33.587,42.976c1.4,3.909,5.701,5.94,9.609,4.54c3.907-1.399,5.94-5.701,4.54-9.609
	c-4.489-12.531-10.304-23.145-17.367-31.833l3.631,0.726c4.581,0.916,8.988-2.704,8.988-7.368v-48.093
	c0-4.667-4.409-8.285-8.988-7.368l-31.089,6.218V79.66c0-3.072-1.871-5.835-4.724-6.977L359.26,58.362
	c-2.515-14.904-15.505-26.294-31.113-26.294c-17.403,0-31.561,14.158-31.561,31.561s14.158,31.561,31.561,31.561
	c13.762,0,25.487-8.857,29.794-21.168l26.815,10.726v35.49h-72.64c-4.151,0-7.514,3.363-7.514,7.514s3.363,7.515,7.514,7.515h48.594
	v24.547c0,4.123,3.319,7.465,7.431,7.51c34.405,59.024,18.229,134.41,2.909,170.227c-0.215,0.503-0.368,1.017-0.468,1.533
	c-2.269,1.766-4.451,3.64-6.535,5.617c-0.193-0.015-0.386-0.029-0.583-0.029h-67.945c6.373-19.676,10.856-42.78,7.45-64.087
	c-3.897-24.368-17.179-42.541-39.447-54.066v-42.657c0-4.151-3.363-7.515-7.514-7.515h-88.17c-26.242,0-47.592,21.35-47.592,47.592
	v0.526c-0.166-0.011-0.332-0.025-0.501-0.025h-0.501v-49.095h8.516c4.151,0,7.514-3.363,7.514-7.515v-40.077
	c0-4.151-3.363-7.515-7.514-7.515H7.528c-4.151,0-7.515,3.363-7.515,7.515v40.077c0,4.151,3.363,7.515,7.515,7.515h8.516v49.095
	H7.528c-4.151,0-7.515,3.363-7.515,7.515s3.363,7.514,7.515,7.514h84.503c-5.767,2.907-11.271,6.072-16.483,9.488
	C-1.581,299.516-0.336,375.326,0.074,400.237c0.029,1.773,0.078,3.551,0.038,5.324c-0.031,1.361-0.196,2.662,0.179,4.002
	c0.899,3.205,3.905,5.487,7.236,5.487h16.86c3.417,36.344,34.088,64.883,71.311,64.883s67.894-28.539,71.311-64.883h88.999
	c1.983,0,3.885-0.783,5.291-2.179c2.153-2.135,7.479-10.055,13.572-21.108h63.362c-1.026,5.356-1.57,10.881-1.57,16.532
	c0,4.151,3.363,7.514,7.514,7.514h8.913c3.768,35.982,34.279,64.124,71.241,64.124s67.473-28.141,71.241-64.124h8.913
	c4.151,0,7.515-3.363,7.515-7.514C512,370.178,487.547,337.671,453.506,325.623z M328.145,80.161
	c-9.116,0-16.532-7.416-16.532-16.532s7.416-16.532,16.532-16.532c9.116,0,16.532,7.416,16.532,16.532
	S337.261,80.161,328.145,80.161z M424.832,158.665l-23.022-4.605c-0.672-0.328-1.341-0.662-2.026-0.971v-19.176l25.048-5.01V158.665
	z M376.238,135.267h8.516V152.3h-9.017v-17.033H376.238z M135.273,223.939c0-17.956,14.607-32.563,32.563-32.563h80.656v33.064
	H135.273V223.939z M15.041,135.267h105.203v25.048H15.041C15.041,160.316,15.041,135.267,15.041,135.267z M31.072,175.345h73.141
	v49.095H31.072C31.072,224.44,31.072,175.345,31.072,175.345z M95.697,464.904c-28.928,0-52.841-21.814-56.192-49.854h17.205
	c3.216,18.614,19.469,32.821,38.987,32.821s35.771-14.207,38.987-32.821h17.204C148.538,443.089,124.624,464.904,95.697,464.904z
	 M72.102,415.049h47.189c-2.942,10.26-12.402,17.792-23.595,17.792S75.044,425.309,72.102,415.049z M252.304,400.02H15.102
	c-0.001-0.01-0.001-0.021-0.001-0.03c-0.416-25.283-1.519-92.444,68.685-138.464c12.81-8.397,27.605-15.166,43.974-20.118
	c1.257-0.38,2.34-1.062,3.196-1.94h124.923c17.879,9.014,28.318,22.579,31.897,41.468c4.895,25.834-4.475,56.123-13.197,76.984
	C266.04,378.338,256.335,394.162,252.304,400.02z M282.601,376.733c1.687-3.521,3.357-7.185,4.968-10.947
	c0.835-1.951,1.675-3.986,2.513-6.086h61.317c-3.543,5.3-6.523,11.006-8.856,17.033H282.601z M424.331,464.904
	c-30.583,0-55.562-24.381-56.561-54.726c7.468-13.091,16.128-22.207,26.649-27.754c-6.014,6.943-9.665,15.986-9.665,25.871
	c0,21.822,17.754,39.576,39.576,39.576s39.576-17.754,39.576-39.576c0-8.846-2.919-17.024-7.842-23.621
	c10.951,6.756,19.069,16.366,24.831,25.357C479.973,440.442,454.963,464.904,424.331,464.904z M424.331,383.747
	c13.536,0,24.547,11.011,24.547,24.547s-11.011,24.547-24.547,24.547s-24.547-11.011-24.547-24.547S410.795,383.747,424.331,383.747
	z M492.813,400.78c-17.024-25.884-41.202-40.077-68.482-40.077c-38.956,0-57.749,21.822-68.498,40.077h-3.756
	c3.773-36.536,34.738-65.126,72.254-65.126s68.482,28.59,72.254,65.126H492.813z"/>
<path d="M247.99,272.532h-72.139c-4.151,0-7.514,3.363-7.514,7.514c0,4.151,3.363,7.515,7.514,7.515h72.139
	c4.151,0,7.515-3.363,7.515-7.515C255.505,275.896,252.141,272.532,247.99,272.532z"/>
<path d="M231.959,320.625H127.758c-4.151,0-7.515,3.363-7.515,7.514c0,4.151,3.363,7.515,7.515,7.515h104.201
	c4.151,0,7.514-3.363,7.514-7.515C239.474,323.989,236.111,320.625,231.959,320.625z"/>
<path d="M207.913,368.718H79.666c-4.151,0-7.515,3.363-7.515,7.515c0,4.151,3.363,7.514,7.515,7.514h128.247
	c4.151,0,7.514-3.363,7.514-7.514C215.428,372.081,212.064,368.718,207.913,368.718z"/>
<g>
</g>
<g>
</g>
<g>
</g>
<g>
</g>
<g>
</g>
<g>
</g>
<g>
</g>
<g>
</g>
<g>
</g>
<g>
</g>
<g>
</g>
<g>
</g>
<g>
</g>
<g>
</g>
<g>
</g>
</svg>
