<?xml version="1.0" encoding="iso-8859-1"?>
<!-- Generator: Adobe Illustrator 19.0.0, SVG Export Plug-In . SVG Version: 6.00 Build 0)  -->
<svg version="1.1" id="Capa_1" xmlns="http://www.w3.org/2000/svg" xmlns:xlink="http://www.w3.org/1999/xlink" x="0px" y="0px"
	 viewBox="0 0 512 512" style="enable-background:new 0 0 512 512;" xml:space="preserve">
<path style="fill:#FFD5B3;" d="M389.513,160.061c-15.064-8.771-26.471-23.161-31.392-40.324
	c-16.127,27.31-45.758,45.62-79.649,45.62c-9.434,0-18.533-1.429-27.104-4.072v44.343c0,28.455,14.625,53.462,36.721,67.89
	c0.254-0.052,0.522-0.1,0.768-0.153l90.464-19.843c3.403-0.746,6.886-0.61,10.192,0.232L389.513,160.061L389.513,160.061z"/>
<g style="opacity:0.1;">
	<path d="M272.003,205.627v-40.504c-7.131-0.499-14.041-1.805-20.636-3.839v44.343c0,28.455,14.625,53.462,36.721,67.89
		c0.254-0.052,0.522-0.1,0.768-0.153l15.017-3.294C284.516,255.298,272.003,231.941,272.003,205.627z"/>
</g>
<path style="fill:#FFD5B3;" d="M90.331,205.627v-39.33c-1.925-0.437-3.924-0.674-5.98-0.674c-14.974,0-27.113,12.201-27.113,27.248
	c0,15.051,12.14,27.252,27.113,27.252c2.466,0,4.853-0.337,7.124-0.957C90.736,214.761,90.331,210.242,90.331,205.627z"/>
<path style="fill:#FFB98A;" d="M207.603,134.455l-3.949,16.84l-36.876-19.855l-2.634,18.533l-42.301-15.518h-7.808V181.7H90.331
	v23.927c0,16.425,4.883,31.697,13.25,44.459c2.13-0.258,4.296-0.224,6.433,0.148l109.838,19.585
	c19.156-14.794,31.515-38.037,31.515-64.192v-52.482L207.603,134.455z"/>
<path style="opacity:0.1;fill:#2F003A;enable-background:new    ;" d="M111.003,205.627V181.7H90.331v23.927
	c0,16.425,4.883,31.697,13.25,44.459c2.13-0.258,4.296-0.224,6.433,0.148l16.355,2.916
	C116.71,239.809,111.003,223.393,111.003,205.627z"/>
<g>
	<path style="fill:#A53C29;" d="M90.331,132.807v1.648c0-0.553,0.031-1.098,0.041-1.648H90.331z"/>
	<rect x="90.33" y="134.46" style="fill:#A53C29;" width="23.705" height="47.24"/>
</g>
<path style="fill:#FB8276;" d="M412.981,289.216l-19.107,10.714c-2.399,1.345-4.361,0.195-4.361-2.555v-43.632
	c-3.308-0.837-6.792-0.969-10.192-0.223l-90.464,19.843c-10.029,2.197-25.829,3.34-37.122,2.141l24.405,4.352
	c11.264,2.058,18.232,12.882,15.485,24.053l-35.211,143.198H447.99c1.517,0,4.139-0.303,4.66-2.328
	c1.125-4.36,4.914-7.479,9.372-7.75L412.981,289.216z"/>
<path style="fill:#EF5050;" d="M38.395,444.387c0.448,2.249,2.888,2.72,4.854,2.72h213.165l35.211-143.198
	c2.747-11.171-4.222-21.995-15.485-24.053l-166.126-29.621c-11.282-1.964-23.366,5.395-26.857,16.353l-53.976,169.5
	C33.734,436.493,37.496,439.859,38.395,444.387z"/>
<path style="opacity:0.1;fill:#2F003A;enable-background:new    ;" d="M38.395,444.387c0.448,2.249,2.888,2.72,4.854,2.72h14.786
	c0.098-1.496,0.389-3.055,0.899-4.658l56.001-175.86c1.838-5.77,6.068-10.522,11.299-13.461l-16.221-2.893
	c-11.282-1.964-23.366,5.395-26.857,16.353l-53.976,169.5C33.734,436.493,37.496,439.859,38.395,444.387z"/>
<path style="fill:#FFC554;" d="M370.787,65.909c0-0.006,0-0.011-0.001-0.017c-0.273-0.122-3.63-1.537-4.592-1.907
	c-0.029-0.012-0.058-0.025-0.088-0.036c0,0.001-0.001,0.002-0.001,0.002c-10.576-4.064-22.046-6.311-34.045-6.311
	c-30.22,0-57.156,14.114-74.651,36.137c8.414,13.203,13.411,28.439,13.411,44.281l-13.669-3.604l-0.817,20.812l-4.966-2.121v8.139
	c8.572,2.644,17.67,4.072,27.104,4.072c33.892,0,63.522-18.311,79.649-45.62c4.921,17.163,16.328,31.553,31.392,40.324v137.314
	c0,2.75,1.962,3.899,4.361,2.555l29.306-16.433c2.399-1.345,4.361-4.695,4.361-7.445V153.604
	C427.541,114.468,404.214,80.839,370.787,65.909z"/>
<path style="fill:#F07C3C;" d="M256.333,155.267l0.817-20.812l13.669,3.604c0-46.46-42.95-87.724-89.177-87.724h-7.61
	c-46.227,0-83.701,37.661-83.701,84.12h31.513l42.301,15.518l2.634-18.533l36.876,19.855l3.949-16.84L256.333,155.267z"/>
<path style="fill:#E2EEFD;" d="M33.033,504.5c-8.775,0-16.444-3.679-21.039-10.095c-4.595-6.415-5.634-14.894-2.849-23.256
	l9.334-28.025c1.417-4.25,5.376-7.085,9.787-7.085c0.218,0,0.435,0.008,0.655,0.021c4.67,0.297,8.558,3.713,9.474,8.326
	c0.448,2.249,2.888,2.72,4.854,2.72H447.99c1.517,0,4.139-0.303,4.66-2.328c1.142-4.426,5.028-7.58,9.573-7.767
	c0.142-0.005,0.285-0.008,0.427-0.008c4.373,0,8.294,2.777,9.746,6.96l9.418,27.147c2.898,8.352,1.953,16.832-2.595,23.267
	c-4.547,6.435-12.203,10.122-21.003,10.122H33.033V504.5z"/>
<g style="opacity:0.1;">
	<path d="M53.53,494.405c-4.595-6.415-5.634-14.894-2.849-23.256l8.008-24.043h-15.44c-1.966,0-4.405-0.471-4.854-2.72
		c-0.916-4.613-4.804-8.029-9.474-8.326c-0.22-0.014-0.438-0.021-0.655-0.021c-4.411,0-8.37,2.835-9.787,7.085l-9.334,28.025
		c-2.785,8.362-1.746,16.841,2.849,23.256c4.595,6.416,12.264,10.095,21.039,10.095h41.536
		C65.794,504.5,58.125,500.821,53.53,494.405z"/>
</g>
<path d="M344.789,194.862c4.142,0,7.5-3.357,7.5-7.5v-11.559c0-4.143-3.358-7.5-7.5-7.5s-7.5,3.357-7.5,7.5v11.559
	C337.289,191.505,340.647,194.862,344.789,194.862z"/>
<path d="M329.682,208.93c0-4.143-3.358-7.5-7.5-7.5h-1.115v-7.779c0-4.143-3.358-7.5-7.5-7.5s-7.5,3.357-7.5,7.5v12.279
	c0,5.79,4.71,10.5,10.5,10.5h5.615C326.325,216.43,329.682,213.072,329.682,208.93z"/>
<path d="M351.361,218.5c-4.142,0-7.5,3.357-7.5,7.5c0,5.881-4.744,10.666-10.575,10.666c-4.142,0-7.5,3.357-7.5,7.5
	s3.358,7.5,7.5,7.5c14.102,0,25.575-11.514,25.575-25.666C358.861,221.857,355.503,218.5,351.361,218.5z"/>
<path d="M156.024,190.008c4.142,0,7.5-3.357,7.5-7.5v-11.561c0-4.143-3.358-7.5-7.5-7.5s-7.5,3.357-7.5,7.5v11.561
	C148.524,186.65,151.882,190.008,156.024,190.008z"/>
<path d="M216.824,190.008c4.142,0,7.5-3.357,7.5-7.5v-11.561c0-4.143-3.358-7.5-7.5-7.5s-7.5,3.357-7.5,7.5v11.561
	C209.324,186.65,212.682,190.008,216.824,190.008z"/>
<path d="M172.456,219.731h11.789c5.79,0,10.5-4.71,10.5-10.5v-27.492c0-4.143-3.358-7.5-7.5-7.5s-7.5,3.357-7.5,7.5v22.992h-7.289
	c-4.142,0-7.5,3.357-7.5,7.5C164.956,216.374,168.314,219.731,172.456,219.731z"/>
<path d="M167.526,248.5c4.142,0,7.5-3.357,7.5-7.5s-3.358-7.5-7.5-7.5c-5.831,0-10.576-4.785-10.576-10.668
	c0-4.143-3.358-7.5-7.5-7.5s-7.5,3.357-7.5,7.5C141.95,236.985,153.424,248.5,167.526,248.5z"/>
<path d="M479.481,441.504c-1.922-5.537-6.391-9.661-11.809-11.262l-45.624-137.513l4.798-2.69c4.748-2.661,8.194-8.544,8.194-13.987
	V169.153v-7.99v-7.56c0-21.363-6.432-41.87-18.599-59.304c-10.38-14.872-24.255-26.602-40.439-34.266c0,0-1.341-0.624-2.159-0.989
	c-13.229-5.908-27.288-8.904-41.785-8.904c-29.02,0-55.267,12.13-74.004,31.601c-2.82-3.61-5.906-7.068-9.251-10.334
	c-18.6-18.158-43.08-28.572-67.163-28.572h-7.61c-50.289,0-91.201,41.101-91.201,91.62c0,1.194,0,23.707,0,23.707
	c-18.383,0.802-33.094,16.061-33.094,34.709c0,19.162,15.527,34.752,34.613,34.752c0.413,0,0.819-0.025,1.228-0.039
	c1.622,6.352,3.948,12.42,6.862,18.138c-7.659,3.764-13.838,10.453-16.431,18.591L23.509,429.182
	c-5.615,1.556-10.229,5.824-12.145,11.572L2.03,468.779c-3.553,10.669-2.144,21.601,3.867,29.993
	C11.916,507.179,21.807,512,33.033,512h425.184c11.27,0,21.158-4.846,27.127-13.293c5.961-8.435,7.257-19.389,3.556-30.054
	L479.481,441.504z M64.737,192.871c0-10.372,7.988-18.885,18.094-19.671v32.427c0,2.333,0.092,4.645,0.27,6.933
	C72.868,211.904,64.737,203.338,64.737,192.871z M378.343,78.417c10.09,6.273,18.865,14.534,25.798,24.468
	c10.401,14.903,15.899,32.441,15.899,50.719v8.061c-25.002-1.479-45.963-18.254-53.79-41.122
	C373.159,107.896,377.435,93.606,378.343,78.417z M389.513,221.5c-4.142,0-7.5,3.357-7.5,7.5v16.596
	c-1.451,0.094-2.891,0.29-4.299,0.599l-88.002,19.304c-18.645-13.313-30.844-35.178-30.844-59.871v-34.713
	c5.959,1.194,12.046,1.836,18.237,1.919c-0.394,0.911-0.614,1.915-0.614,2.971v11.559c0,4.143,3.358,7.5,7.5,7.5s7.5-3.357,7.5-7.5
	v-11.559c0-1.338-0.354-2.591-0.968-3.678c26.483-3.21,49.813-16.853,65.788-36.706c5.978,11.662,14.871,21.576,25.702,28.774V193
	c0,4.143,3.358,7.5,7.5,7.5s7.5-3.357,7.5-7.5v-21.099c7.219,2.737,14.959,4.392,23.028,4.773v99.267
	c-0.074,0.314-0.389,0.85-0.625,1.067l-22.403,12.563V229C397.013,224.857,393.655,221.5,389.513,221.5z M269.501,267.932
	c-1.413,0.044-2.837,0.067-4.261,0.067c-6.078,0-11.74-0.403-15.945-1.135l-12.942-2.253c6.147-6.882,11.237-14.733,15.014-23.297
	C255.765,251.288,261.945,260.297,269.501,267.932z M263.827,155.561l0.451-11.471l4.629,1.221c0.642,0.17,1.318,0.233,1.944,0.248
	c4.137-0.007,7.488-3.362,7.488-7.5c0-0.195-0.007-0.389-0.022-0.58c-0.106-14.693-4.224-29.459-11.715-42.879
	c16.117-18.063,39.481-29.459,65.457-29.459c10.849,0,21.411,1.966,31.459,5.848c0.01,0.46,0.014,0.906,0.014,1.342
	c0,47.159-38.158,85.526-85.061,85.526c-5.004,0-9.928-0.438-14.758-1.288C263.772,156.236,263.814,155.901,263.827,155.561z
	 M174.032,57.835h7.61c39.35,0,75.465,32.399,80.957,70.301l-3.537-0.933c-2.202-0.578-4.544-0.13-6.372,1.223
	c-1.829,1.353-2.945,3.462-3.034,5.735l-0.39,9.932l-38.717-16.535c-0.942-0.402-1.945-0.603-2.946-0.603
	c-1.163,0-2.324,0.271-3.386,0.808c-1.977,1-3.41,2.823-3.916,4.979l-1.713,7.307l-28.254-15.213
	c-2.159-1.164-4.75-1.196-6.938-0.091c-2.189,1.106-3.698,3.212-4.043,5.639l-1.33,9.354l-33.597-12.324
	c-0.828-0.304-1.702-0.459-2.583-0.459h-23.65C101.952,88.212,134.531,57.835,174.032,57.835z M97.831,149.476
	c0-2.539,0.133-5.048,0.385-7.521h8.32V174.2h-8.705V149.476z M97.831,189.2h16.205c4.142,0,7.5-3.357,7.5-7.5v-39.369
	l40.025,14.683c2.126,0.781,4.491,0.558,6.433-0.605c1.943-1.162,3.257-3.14,3.576-5.381l1.121-7.888l27.408,14.758
	c2.055,1.107,4.508,1.192,6.636,0.234c2.128-0.958,3.689-2.854,4.221-5.126l1.911-8.148l31,13.239v47.529
	c0,22.33-9.975,42.35-25.669,55.824L111.3,242.846c-1.165-0.203-2.356-0.309-3.551-0.367c-6.292-10.838-9.918-23.422-9.918-36.852
	V189.2z M473.095,490.05c-3.121,4.417-8.544,6.95-14.878,6.95H33.033c-6.327,0-11.773-2.537-14.942-6.962
	c-3.18-4.44-3.848-10.462-1.83-16.519l9.333-28.023c0.391-1.171,1.464-1.957,2.672-1.957c0.063,0,0.126,0.003,0.18,0.007
	c1.273,0.08,2.34,1.027,2.594,2.307c0.844,4.232,4.494,8.754,12.209,8.754h115.754c4.142,0,7.5-3.357,7.5-7.5s-3.358-7.5-7.5-7.5
	H44.751c-1.319-3.208-3.537-5.919-6.317-7.858l27.957-87.793v0.314c0,4.143,3.358,7.5,7.5,7.5s7.5-3.357,7.5-7.5v-1.659
	c0-4.143-3.358-7.5-7.5-7.5c-2.137,0-4.06,0.897-5.426,2.332l21.838-68.578c2.079-6.525,8.96-11.447,16.006-11.447
	c0.819,0,1.633,0.069,2.419,0.206l166.064,29.61c3.374,0.616,6.223,2.486,8.022,5.267c1.819,2.81,2.362,6.226,1.527,9.617
	l-4.202,17.092c-0.989,4.022,1.47,8.085,5.493,9.074c0.602,0.147,1.204,0.219,1.796,0.219c3.372,0,6.436-2.29,7.277-5.711
	l4.202-17.092c1.832-7.45,0.588-15.032-3.502-21.351c-0.948-1.464-2.024-2.811-3.206-4.04l88.727-19.462
	c0.356-0.078,0.721-0.127,1.086-0.177v36.705c0,3.983,1.865,7.454,4.99,9.284c1.509,0.884,3.208,1.325,4.954,1.324
	c1.868,0,3.789-0.505,5.586-1.512l11.182-6.271l43.915,132.361c-2.573,1.745-4.674,4.156-6.052,7.044H265.982l19.379-78.815
	c0.989-4.022-1.47-8.085-5.492-9.074c-4.026-0.987-8.085,1.47-9.074,5.492l-20.26,82.397h-53.532c-4.142,0-7.5,3.357-7.5,7.5
	s3.358,7.5,7.5,7.5H447.99c7.28,0,10.933-4.111,11.922-7.955c0.318-1.232,1.37-2.095,2.569-2.145l0.168-0.003
	c1.193,0,2.262,0.771,2.66,1.918l9.418,27.148C476.825,479.608,476.229,485.615,473.095,490.05z"/>
<path d="M180.052,298.497c-4.142,0-7.5,3.357-7.5,7.5v1.66c0,4.143,3.358,7.5,7.5,7.5s7.5-3.357,7.5-7.5v-1.66
	C187.552,301.854,184.194,298.497,180.052,298.497z"/>
<path d="M112.399,275.054c-4.142,0-7.5,3.357-7.5,7.5v1.655c0,4.143,3.358,7.5,7.5,7.5s7.5-3.357,7.5-7.5v-1.655
	C119.899,278.411,116.541,275.054,112.399,275.054z"/>
<path d="M248.744,317.86c4.142,0,7.5-3.358,7.5-7.5v-1.659c0-4.143-3.358-7.5-7.5-7.5s-7.5,3.357-7.5,7.5v1.659
	C241.244,314.503,244.602,317.86,248.744,317.86z"/>
<path d="M211.275,362.23c4.142,0,7.5-3.358,7.5-7.5v-1.659c0-4.143-3.358-7.5-7.5-7.5s-7.5,3.357-7.5,7.5v1.659
	C203.775,358.873,207.133,362.23,211.275,362.23z"/>
<path d="M92.625,395.344c-4.142,0-7.5,3.357-7.5,7.5v1.659c0,4.143,3.358,7.5,7.5,7.5s7.5-3.357,7.5-7.5v-1.659
	C100.125,398.701,96.767,395.344,92.625,395.344z"/>
<path d="M236.254,418.281c4.142,0,7.5-3.358,7.5-7.5v-1.66c0-4.143-3.358-7.5-7.5-7.5s-7.5,3.357-7.5,7.5v1.66
	C228.754,414.924,232.112,418.281,236.254,418.281z"/>
<path d="M132.175,345.135c-4.142,0-7.5,3.357-7.5,7.5v1.659c0,4.143,3.358,7.5,7.5,7.5s7.5-3.357,7.5-7.5v-1.659
	C139.675,348.492,136.317,345.135,132.175,345.135z"/>
<path d="M161.317,399.964c-4.142,0-7.5,3.357-7.5,7.5v1.657c0,4.143,3.358,7.5,7.5,7.5s7.5-3.357,7.5-7.5v-1.657
	C168.817,403.321,165.459,399.964,161.317,399.964z"/>
<path d="M323.681,328.755c4.142,0,7.5-3.357,7.5-7.5v-1.658c0-4.143-3.358-7.5-7.5-7.5s-7.5,3.357-7.5,7.5v1.658
	C316.181,325.397,319.538,328.755,323.681,328.755z"/>
<path d="M390.29,355.95c4.142,0,7.5-3.357,7.5-7.5v-1.657c0-4.143-3.358-7.5-7.5-7.5s-7.5,3.357-7.5,7.5v1.657
	C382.79,352.593,386.148,355.95,390.29,355.95z"/>
<path d="M345.536,390.036c4.142,0,7.5-3.357,7.5-7.5v-1.657c0-4.143-3.358-7.5-7.5-7.5s-7.5,3.357-7.5,7.5v1.657
	C338.036,386.679,341.394,390.036,345.536,390.036z"/>
<path d="M407.985,428.127c4.142,0,7.5-3.358,7.5-7.5v-1.655c0-4.143-3.358-7.5-7.5-7.5s-7.5,3.357-7.5,7.5v1.655
	C400.485,424.77,403.843,428.127,407.985,428.127z"/>
<path d="M299.743,435.451c4.142,0,7.5-3.357,7.5-7.5v-1.659c0-4.143-3.358-7.5-7.5-7.5s-7.5,3.357-7.5,7.5v1.659
	C292.243,432.094,295.601,435.451,299.743,435.451z"/>
<path d="M482.032,234.465h-12.567c-4.142,0-7.5,3.357-7.5,7.5s3.358,7.5,7.5,7.5h12.567c8.196,0,14.863,6.737,14.863,15.018
	s-6.667,15.019-14.863,15.019h-13.608h-6.068h-4.095c-9.741,0-17.666,8.058-17.666,17.961v17.216c0,4.143,3.358,7.5,7.5,7.5
	s7.5-3.357,7.5-7.5v-17.216c0-1.605,1.221-2.961,2.666-2.961h4.095h6.068h13.608c16.467,0,29.863-13.466,29.863-30.019
	C511.895,247.931,498.499,234.465,482.032,234.465z"/>
<path d="M33.414,98.776h17.017c4.142,0,7.5-3.357,7.5-7.5s-3.358-7.5-7.5-7.5H33.414c-7.333,0-13.299-6.03-13.299-13.443
	s5.966-13.444,13.299-13.444h49.159c15.603,0,28.297-12.76,28.297-28.444C110.87,12.76,98.176,0,82.573,0H33.238
	c-4.142,0-7.5,3.357-7.5,7.5s3.358,7.5,7.5,7.5h49.335c7.332,0,13.297,6.031,13.297,13.444s-5.965,13.444-13.297,13.444H33.414
	c-15.604,0-28.299,12.76-28.299,28.444C5.115,86.017,17.81,98.776,33.414,98.776z"/>
<g>
</g>
<g>
</g>
<g>
</g>
<g>
</g>
<g>
</g>
<g>
</g>
<g>
</g>
<g>
</g>
<g>
</g>
<g>
</g>
<g>
</g>
<g>
</g>
<g>
</g>
<g>
</g>
<g>
</g>
</svg>
