<?xml version="1.0" encoding="iso-8859-1"?>
<!-- Generator: Adobe Illustrator 19.0.0, SVG Export Plug-In . SVG Version: 6.00 Build 0)  -->
<svg version="1.1" id="Layer_1" xmlns="http://www.w3.org/2000/svg" xmlns:xlink="http://www.w3.org/1999/xlink" x="0px" y="0px"
	 viewBox="0 0 511.987 511.987" style="enable-background:new 0 0 511.987 511.987;" xml:space="preserve">
<path style="fill:#434A54;" d="M416.646,209.994c0,110.825-89.841,200.667-200.651,200.667
	c-110.817,0-200.658-89.842-200.658-200.667c0-110.81,89.841-200.651,200.658-200.651C326.806,9.343,416.646,99.185,416.646,209.994
	z"/>
<path style="fill:#ED5564;" d="M275.338,213.322c0,35.343-28.663,63.999-64.007,63.999c-35.343,0-63.998-28.656-63.998-63.999
	s28.655-63.998,63.998-63.998C246.675,149.324,275.338,177.979,275.338,213.322z"/>
<polygon style="fill:#EAC6BB;" points="502.644,221.322 496.644,189.323 457.333,186.667 455.989,158.667 452.645,138.652 
	436.645,138.652 416.646,133.325 395.71,120.668 377.335,120.668 372.647,145.996 341.992,138.652 332.649,170.667 325.337,296.664 
	301.993,267.321 282.65,277.321 278.65,301.32 307.993,369.318 353.992,467.987 395.991,494.659 423.334,494.659 464.645,483.987 
	502.644,429.317 499.644,366.662 "/>
<path d="M213.331,319.991c-28.491,0-55.279-11.094-75.428-31.249c-20.14-20.14-31.241-46.92-31.241-75.404
	c0-5.906-4.773-10.687-10.663-10.687c-5.891,0-10.664,4.781-10.664,10.687c0,70.686,57.303,127.997,127.996,127.997
	c5.891,0,10.664-4.781,10.664-10.688C223.995,324.772,219.222,319.991,213.331,319.991z"/>
<path d="M213.331,362.646c-20.171,0-39.725-3.938-58.123-11.718c-17.781-7.516-33.749-18.281-47.468-32
	c-13.726-13.734-24.491-29.702-32.015-47.482c-7.781-18.391-11.727-37.953-11.727-58.108c0-5.906-4.772-10.687-10.663-10.687
	s-10.672,4.781-10.672,10.687c0,94.247,76.412,170.651,170.667,170.651c5.891,0,10.664-4.781,10.664-10.655
	C223.995,367.428,219.222,362.646,213.331,362.646z"/>
<path d="M213.331,287.992c41.233,0,74.662-33.437,74.662-74.654c0-41.249-33.429-74.686-74.662-74.686
	c-41.24,0-74.67,33.437-74.67,74.686C138.661,254.555,172.091,287.992,213.331,287.992z M213.331,159.995
	c29.406,0,53.327,23.921,53.327,53.342c0,29.406-23.921,53.312-53.327,53.312c-29.413,0-53.334-23.906-53.334-53.312
	C159.997,183.917,183.918,159.995,213.331,159.995z"/>
<path d="M213.331,223.994c5.891,0,10.664-4.781,10.664-10.656c0-5.906-4.773-10.687-10.664-10.687
	c-5.89,0-10.671,4.781-10.671,10.687C202.66,219.213,207.441,223.994,213.331,223.994z"/>
<path d="M511.862,411.302h0.094V202.651c0-17.656-14.343-31.999-31.998-31.999c-3.75,0-7.344,0.656-10.688,1.844v-12.5
	c0-17.671-14.312-31.999-32-31.999c-4.156,0-8.124,0.812-11.78,2.25c-3.391-12.468-14.124-21.906-27.28-23.375
	C361.366,42.999,292.368,0,213.331,0C95.515,0,0.001,95.513,0.001,213.338c0,117.81,95.514,213.308,213.33,213.308
	c33.765,0,65.694-7.844,94.068-21.812l19.969,48.217c0.062,0.125,0.109,0.25,0.156,0.375l0.125,0.297v-0.016
	c14.671,34.266,48.686,58.28,88.31,58.28c53.03,0,96.028-42.999,96.028-96.028C511.987,414.395,511.956,412.833,511.862,411.302z
	 M288.056,390.239c-23.654,10-48.795,15.094-74.725,15.094c-25.929,0-51.068-5.094-74.732-15.094
	c-22.858-9.656-43.389-23.515-61.029-41.154c-17.64-17.625-31.491-38.172-41.155-61.03C26.408,264.4,21.338,239.26,21.338,213.338
	c0-25.937,5.07-51.077,15.077-74.748c9.664-22.843,23.516-43.374,41.155-61.029c17.641-17.625,38.171-31.468,61.029-41.155
	c23.664-10,48.804-15.062,74.732-15.062c25.93,0,51.07,5.062,74.725,15.062c22.859,9.687,43.406,23.531,61.03,41.155
	c10.562,10.562,19.749,22.156,27.499,34.671c-6.188,4.234-10.812,10.578-12.844,18.015c-0.547-0.219-1.094-0.406-1.656-0.594
	c-29.279-51.92-84.903-86.998-148.754-86.998c-5.89,0-10.671,4.781-10.671,10.687c0,5.875,4.781,10.656,10.671,10.656
	c20.164,0,39.718,3.938,58.116,11.719c17.78,7.531,33.749,18.296,47.483,32.03c7.188,7.188,13.594,15.031,19.125,23.421
	c-6.781,3.266-12.219,8.859-15.312,15.734c-22.438-36.905-63.045-61.561-109.412-61.561c-5.89,0-10.671,4.766-10.671,10.656
	s4.781,10.656,10.671,10.656c28.492,0,55.272,11.109,75.412,31.249c19.469,19.468,30.469,45.108,31.219,72.498v60.405
	c-8.656-11.156-24-15.625-37.655-9.938c-12.273,5.141-19.671,17.031-19.671,29.546c0,4.109,0.805,8.297,2.484,12.327l34.107,82.342
	C295.571,386.927,291.837,388.645,288.056,390.239z M468.77,468.768c-14.094,14.125-32.844,21.875-52.812,21.875
	c-19.937,0-38.687-7.75-52.812-21.875c-8.655-8.656-14.937-19.094-18.483-30.468l-0.281,0.25l-59.546-143.965l-0.031-0.031v-0.031
	c-0.562-1.328-0.844-2.719-0.844-4.109c0-4.328,2.594-8.187,6.562-9.858c3.562-1.469,6.656-0.641,8.172-0.016
	c1.531,0.625,4.312,2.203,5.797,5.765l36.78,83.654V214.15c0.031-0.281,0.062-0.547,0.062-0.812c0-0.281-0.031-0.562-0.062-0.844
	v-52.499c0-5.875,4.797-10.656,10.688-10.656c5.874,0,10.655,4.781,10.655,10.656v138.653h21.344V214.15
	c0-0.281,0.031-0.547,0.031-0.812c0-0.281-0.031-0.562-0.031-0.844v-73.842c0-5.875,4.781-10.656,10.656-10.656
	s10.656,4.781,10.656,10.656v159.996h21.343V159.995c0-5.875,4.78-10.656,10.655-10.656c5.891,0,10.688,4.781,10.688,10.656v138.653
	h21.312V202.65c0-5.875,4.797-10.656,10.688-10.656c5.874,0,10.655,4.781,10.655,10.656c0,0,0.031,211.745,0.031,213.307
	C490.644,435.926,482.895,454.675,468.77,468.768z"/>
<g>
</g>
<g>
</g>
<g>
</g>
<g>
</g>
<g>
</g>
<g>
</g>
<g>
</g>
<g>
</g>
<g>
</g>
<g>
</g>
<g>
</g>
<g>
</g>
<g>
</g>
<g>
</g>
<g>
</g>
</svg>
