<svg height="480pt" viewBox="0 0 480 480" width="480pt" xmlns="http://www.w3.org/2000/svg"><path d="m200 256v40l-80 16v80h240v-80l-80-16v-40zm0 0" fill="#f4cda5"/><path d="m200 268.472656c1.257812.640625 2.511719 1.351563 3.777344 1.941406 11.222656 5.816407 23.589844 9.085938 36.222656 9.585938 12.597656-.492188 24.929688-3.746094 36.128906-9.535156 1.285156-.617188 2.574219-1.3125 3.871094-1.976563v-20.488281h-80zm0 0" fill="#ddbc9e"/><path d="m472 448v24h-232v-88l80-80h8c79.078125 1.074219 142.925781 64.921875 144 144zm0 0" fill="#45b29d"/><path d="m240 384v88h-232v-24c1.074219-79.078125 64.921875-142.925781 144-144h8zm0 0" fill="#45b29d"/><path d="m152 128v48h-8c-13.253906 0-24-10.746094-24-24s10.746094-24 24-24zm0 0" fill="#ddbc9e"/><path d="m360 152c0 13.253906-10.746094 24-24 24h-8v-48h8c13.253906 0 24 10.746094 24 24zm0 0" fill="#ddbc9e"/><path d="m344 128h-8v48c0 52.800781-64 96-96 96-16 0-40-10.800781-60-28.160156s-36-41.441406-36-67.839844v-48h-8c96-16 144-56 144-56s40 56 64 56zm0 0" fill="#f4cda5"/><path d="m344 128c-24 0-64-56-64-56s-48 40-144 56c-8-32-11.28125-42.800781-8-56 8-32 50.160156-64 112-64s104 32 112 64c3.28125 13.199219 0 24-8 56zm0 0" fill="#603813"/><path d="m328 296h-8c-2.121094 0-4.15625.84375-5.65625 2.34375l-74.34375 74.34375-74.34375-74.34375c-1.5-1.5-3.535156-2.34375-5.65625-2.34375h-8c-83.488281 1.097656-150.902344 68.511719-152 152v24c0 4.417969 3.582031 8 8 8s8-3.582031 8-8v-24c.816406-59.375 39.457031-111.597656 96-129.734375v45.933594c-22.636719 2.09375-39.964844 21.066406-40 43.800781v40c0 4.417969 3.582031 8 8 8h16c4.417969 0 8-3.582031 8-8s-3.582031-8-8-8h-8v-32c0-15.464844 12.535156-28 28-28h8c15.464844 0 28 12.535156 28 28v32h-8c-4.417969 0-8 3.582031-8 8s3.582031 8 8 8h16c4.417969 0 8-3.582031 8-8v-40c-.035156-22.734375-17.363281-41.707031-40-43.800781v-49.855469c7.910156-1.523438 15.945312-2.304688 24-2.34375h4.6875l75.3125 75.3125v84.6875c0 4.417969 3.582031 8 8 8s8-3.582031 8-8v-84.6875l75.3125-75.3125h4.6875c8.054688.039062 16.089844.820312 24 2.34375v78.792969c-15.601562 4.027343-25.777344 19.03125-23.746094 35.015625s15.632813 27.96875 31.746094 27.96875 29.714844-11.984375 31.746094-27.96875-8.144532-30.988282-23.746094-35.015625v-74.871094c56.542969 18.136719 95.183594 70.359375 96 129.734375v24c0 4.417969 3.582031 8 8 8s8-3.582031 8-8v-24c-1.097656-83.488281-68.511719-150.902344-152-152zm48 128c0 8.835938-7.164062 16-16 16s-16-7.164062-16-16 7.164062-16 16-16 16 7.164062 16 16zm0 0"/><path d="m136 184h.574219c3.578125 33.601562 28.851562 61.894531 55.648437 78.878906-.101562.367188-.175781.742188-.222656 1.121094v32c0 4.417969 3.582031 8 8 8s8-3.582031 8-8v-24.503906c9.960938 5.023437 20.859375 7.921875 32 8.503906 11.140625-.582031 22.039062-3.480469 32-8.503906v24.503906c0 4.417969 3.582031 8 8 8s8-3.582031 8-8v-32c-.046875-.378906-.121094-.753906-.222656-1.121094 26.796875-16.984375 52.070312-45.320312 55.648437-78.878906h.574219c15.730469.035156 29.140625-11.402344 31.589844-26.941406 2.449218-15.539063-6.789063-30.546875-21.765625-35.355469 6.671875-26.503906 9.414062-37.742187 5.9375-51.640625-8.707031-34.824219-52.632813-70.0625-119.761719-70.0625s-111.054688 35.238281-119.761719 70.0625c-3.476562 13.898438-.734375 25.136719 5.9375 51.640625-14.976562 4.808594-24.214843 19.816406-21.765625 35.355469 2.449219 15.539062 15.859375 26.976562 31.589844 26.941406zm104 80c-28.976562 0-88-40.734375-88-88v-42.808594c45.046875-7.992187 88.015625-24.996094 126.335938-49.992187 9.878906 12.992187 30.3125 37.679687 49.664062 48v44.800781c0 47.265625-59.023438 88-88 88zm120-112c0 8.835938-7.164062 16-16 16v-32c8.835938 0 16 7.164062 16 16zm-224.238281-78.0625c7.023437-28.089844 45.941406-57.9375 104.238281-57.9375s97.214844 29.847656 104.238281 57.9375c2.539063 10.167969.1875 19.582031-6.117187 44.636719-14.785156-6.277344-37.976563-32.148438-51.617188-51.199219-1.289062-1.808594-3.277344-2.996094-5.480468-3.285156-2.203126-.285156-4.425782.355468-6.136719 1.773437-.453125.382813-45.414063 36.761719-132.957031 52.914063-6.34375-25.226563-8.714844-34.648438-6.167969-44.839844zm.238281 62.0625v32c-8.835938 0-16-7.164062-16-16s7.164062-16 16-16zm0 0"/><path d="m304 152c0 8.835938-7.164062 16-16 16s-16-7.164062-16-16 7.164062-16 16-16 16 7.164062 16 16zm0 0"/><path d="m208 152c0 8.835938-7.164062 16-16 16s-16-7.164062-16-16 7.164062-16 16-16 16 7.164062 16 16zm0 0"/><path d="m258.992188 209.769531c-11.3125 8.261719-26.671876 8.261719-37.984376 0-2.214843-1.914062-5.296874-2.46875-8.035156-1.441406-2.742187 1.027344-4.703125 3.46875-5.117187 6.363281-.410157 2.898438.792969 5.789063 3.136719 7.539063 17.125 13.089843 40.890624 13.089843 58.015624 0 2.34375-1.75 3.546876-4.640625 3.136719-7.539063-.414062-2.894531-2.375-5.335937-5.117187-6.363281-2.738282-1.027344-5.820313-.472656-8.035156 1.441406zm0 0"/></svg>