<svg xmlns="http://www.w3.org/2000/svg" height="512pt" version="1.1" viewBox="-48 0 512 512" width="512pt">
<g id="surface1">
<path d="M 48.09375 391.765625 L 40.078125 391.765625 C 22.371094 391.765625 8.015625 377.410156 8.015625 359.703125 L 8.015625 39.078125 C 8.015625 21.367188 22.371094 7.015625 40.078125 7.015625 L 48.09375 7.015625 Z M 48.09375 391.765625 " style=" stroke:none;fill-rule:nonzero;fill:rgb(52.54902%,90.196078%,92.156863%);fill-opacity:1;" />
<path d="M 24.046875 359.703125 L 24.046875 39.078125 C 24.046875 24.136719 34.265625 11.582031 48.09375 8.023438 L 48.09375 7.015625 L 40.078125 7.015625 C 22.371094 7.015625 8.015625 21.367188 8.015625 39.078125 L 8.015625 359.703125 C 8.015625 377.410156 22.371094 391.765625 40.078125 391.765625 L 48.09375 391.765625 L 48.09375 390.753906 C 34.265625 387.195312 24.046875 374.644531 24.046875 359.703125 Z M 24.046875 359.703125 " style=" stroke:none;fill-rule:nonzero;fill:rgb(0%,66.27451%,70.196078%);fill-opacity:1;" />
<path d="M 184.359375 159.3125 L 408.796875 159.3125 L 408.796875 503.984375 L 184.359375 503.984375 Z M 184.359375 159.3125 " style=" stroke:none;fill-rule:nonzero;fill:rgb(52.54902%,90.196078%,92.156863%);fill-opacity:1;" />
<path d="M 184.359375 223.4375 L 408.796875 223.4375 L 408.796875 439.859375 L 184.359375 439.859375 Z M 184.359375 223.4375 " style=" stroke:none;fill-rule:nonzero;fill:rgb(100%,100%,100%);fill-opacity:1;" />
<path d="M 184.359375 159.3125 L 200.390625 159.3125 L 200.390625 503.984375 L 184.359375 503.984375 Z M 184.359375 159.3125 " style=" stroke:none;fill-rule:nonzero;fill:rgb(0%,66.27451%,70.196078%);fill-opacity:1;" />
<path d="M 184.359375 223.4375 L 200.390625 223.4375 L 200.390625 439.859375 L 184.359375 439.859375 Z M 184.359375 223.4375 " style=" stroke:none;fill-rule:nonzero;fill:rgb(87.843137%,87.843137%,87.843137%);fill-opacity:1;" />
<path d="M 256.5 159.3125 L 256.5 71.140625 L 336.65625 71.140625 L 336.65625 159.3125 " style=" stroke:none;fill-rule:nonzero;fill:rgb(54.901961%,64.313725%,72.156863%);fill-opacity:1;" />
<path d="M 256.5 159.3125 L 256.5 71.140625 L 272.53125 71.140625 L 272.53125 159.3125 " style=" stroke:none;fill-rule:nonzero;fill:rgb(38.431373%,48.235294%,54.901961%);fill-opacity:1;" />
<path d="M 272.53125 407.796875 C 259.25 407.796875 248.484375 397.03125 248.484375 383.75 C 248.484375 372.9375 255.621094 363.792969 265.4375 360.765625 C 269.355469 359.558594 272.390625 356.523438 273.597656 352.609375 C 276.621094 342.789062 285.769531 335.65625 296.578125 335.65625 C 307.390625 335.65625 316.535156 342.789062 319.5625 352.609375 C 320.769531 356.523438 323.804688 359.558594 327.722656 360.765625 C 337.539062 363.792969 344.671875 372.9375 344.671875 383.75 C 344.671875 397.03125 333.90625 407.796875 320.625 407.796875 Z M 272.53125 407.796875 " style=" stroke:none;fill-rule:nonzero;fill:rgb(100%,70.980392%,41.960784%);fill-opacity:1;" />
<path d="M 264.515625 391.765625 C 264.515625 380.953125 271.652344 371.808594 281.46875 368.78125 C 285.382812 367.574219 288.421875 364.539062 289.628906 360.625 C 292.652344 350.804688 301.800781 343.671875 312.609375 343.671875 C 313.265625 343.671875 313.910156 343.699219 314.550781 343.75 C 310.144531 338.792969 303.734375 335.65625 296.578125 335.65625 C 285.769531 335.65625 276.621094 342.789062 273.59375 352.609375 C 272.386719 356.523438 269.351562 359.558594 265.4375 360.765625 C 255.621094 363.792969 248.484375 372.9375 248.484375 383.75 C 248.484375 396.371094 258.207031 406.710938 270.570312 407.710938 C 266.804688 403.464844 264.515625 397.882812 264.515625 391.765625 Z M 264.515625 391.765625 " style=" stroke:none;fill-rule:nonzero;fill:rgb(92.156863%,49.803922%,7.058824%);fill-opacity:1;" />
<path d="M 264.515625 311.609375 C 264.515625 298.328125 257.339844 287.5625 248.484375 287.5625 C 239.632812 287.5625 232.453125 298.328125 232.453125 311.609375 C 232.453125 324.890625 239.632812 335.65625 248.484375 335.65625 C 257.339844 335.65625 264.515625 324.890625 264.515625 311.609375 Z M 264.515625 311.609375 " style=" stroke:none;fill-rule:nonzero;fill:rgb(92.156863%,49.803922%,7.058824%);fill-opacity:1;" />
<path d="M 360.703125 311.609375 C 360.703125 298.328125 353.527344 287.5625 344.671875 287.5625 C 335.820312 287.5625 328.640625 298.328125 328.640625 311.609375 C 328.640625 324.890625 335.820312 335.65625 344.671875 335.65625 C 353.527344 335.65625 360.703125 324.890625 360.703125 311.609375 Z M 360.703125 311.609375 " style=" stroke:none;fill-rule:nonzero;fill:rgb(92.156863%,49.803922%,7.058824%);fill-opacity:1;" />
<path d="M 312.609375 279.546875 C 312.609375 266.265625 305.433594 255.5 296.578125 255.5 C 287.726562 255.5 280.546875 266.265625 280.546875 279.546875 C 280.546875 292.828125 287.726562 303.59375 296.578125 303.59375 C 305.433594 303.59375 312.609375 292.828125 312.609375 279.546875 Z M 312.609375 279.546875 " style=" stroke:none;fill-rule:nonzero;fill:rgb(92.156863%,49.803922%,7.058824%);fill-opacity:1;" />
<path d="M 256.5 183.859375 L 272.53125 183.859375 L 272.53125 198.886719 L 256.5 198.886719 Z M 256.5 183.859375 " style=" stroke:none;fill-rule:nonzero;fill:rgb(100%,100%,100%);fill-opacity:1;" />
<path d="M 288.5625 183.859375 L 304.59375 183.859375 L 304.59375 198.886719 L 288.5625 198.886719 Z M 288.5625 183.859375 " style=" stroke:none;fill-rule:nonzero;fill:rgb(100%,100%,100%);fill-opacity:1;" />
<path d="M 320.625 183.859375 L 336.65625 183.859375 L 336.65625 198.886719 L 320.625 198.886719 Z M 320.625 183.859375 " style=" stroke:none;fill-rule:nonzero;fill:rgb(100%,100%,100%);fill-opacity:1;" />
<path d="M 0 39.078125 L 0 303.59375 L 15.03125 303.59375 L 15.03125 39.078125 C 15.03125 25.539062 26.542969 15.03125 40.078125 15.03125 L 40.078125 384.75 C 26.542969 384.75 15.03125 373.238281 15.03125 359.703125 L 15.03125 319.625 L 0 319.625 L 0 359.703125 C 0 381.523438 18.253906 399.78125 40.078125 399.78125 L 152.296875 399.78125 L 152.296875 384.75 L 55.109375 384.75 L 55.109375 367.71875 L 152.296875 367.71875 L 152.296875 352.6875 L 55.109375 352.6875 L 55.109375 335.65625 L 152.296875 335.65625 L 152.296875 320.625 L 55.109375 320.625 L 55.109375 303.59375 L 152.296875 303.59375 L 152.296875 288.5625 L 55.109375 288.5625 L 55.109375 271.53125 L 152.296875 271.53125 L 152.296875 256.5 L 55.109375 256.5 L 55.109375 239.46875 L 152.296875 239.46875 L 152.296875 224.4375 L 55.109375 224.4375 L 55.109375 207.40625 L 152.296875 207.40625 L 152.296875 192.375 L 55.109375 192.375 L 55.109375 175.34375 L 152.296875 175.34375 L 152.296875 160.3125 L 55.109375 160.3125 L 55.109375 143.28125 L 152.296875 143.28125 L 152.296875 128.25 L 55.109375 128.25 L 55.109375 111.21875 L 152.296875 111.21875 L 152.296875 96.1875 L 55.109375 96.1875 L 55.109375 79.15625 L 152.296875 79.15625 L 152.296875 64.125 L 55.109375 64.125 L 55.109375 47.09375 L 152.296875 47.09375 L 152.296875 32.0625 L 55.109375 32.0625 L 55.109375 15.03125 L 152.296875 15.03125 L 152.296875 0 L 40.078125 0 C 18.253906 0 0 17.253906 0 39.078125 Z M 0 39.078125 " style=" stroke:none;fill-rule:nonzero;fill:rgb(0%,0%,0%);fill-opacity:1;" />
<path d="M 263.515625 152.296875 L 263.515625 143.28125 L 312.609375 143.28125 L 312.609375 128.25 L 263.515625 128.25 L 263.515625 79.15625 L 328.640625 79.15625 L 328.640625 135.265625 L 343.671875 135.265625 L 343.671875 64.125 L 248.484375 64.125 L 248.484375 152.296875 L 176.34375 152.296875 L 176.34375 512 L 415.8125 512 L 415.8125 152.296875 Z M 400.78125 432.84375 L 208.40625 432.84375 L 208.40625 447.875 L 400.78125 447.875 L 400.78125 496.96875 L 359.703125 496.96875 L 359.703125 479.9375 L 344.671875 479.9375 L 344.671875 496.96875 L 303.59375 496.96875 L 303.59375 479.9375 L 288.5625 479.9375 L 288.5625 496.96875 L 247.484375 496.96875 L 247.484375 479.9375 L 232.453125 479.9375 L 232.453125 496.96875 L 191.375 496.96875 L 191.375 231.453125 L 400.78125 231.453125 Z M 400.78125 216.421875 L 191.375 216.421875 L 191.375 167.328125 L 400.78125 167.328125 Z M 400.78125 216.421875 " style=" stroke:none;fill-rule:nonzero;fill:rgb(0%,0%,0%);fill-opacity:1;" />
<path d="M 329.933594 353.585938 C 328.382812 353.109375 327.222656 351.945312 326.742188 350.394531 C 322.640625 337.085938 310.519531 328.140625 296.578125 328.140625 C 282.640625 328.140625 270.515625 337.085938 266.414062 350.394531 C 265.9375 351.945312 264.773438 353.109375 263.226562 353.585938 C 249.914062 357.6875 240.96875 369.808594 240.96875 383.75 C 240.96875 401.152344 255.128906 415.3125 272.53125 415.3125 L 272.53125 400.28125 C 263.417969 400.28125 256 392.867188 256 383.75 C 256 376.445312 260.683594 370.097656 267.652344 367.945312 C 273.933594 366.007812 278.839844 361.101562 280.777344 354.820312 C 282.925781 347.851562 289.277344 343.167969 296.582031 343.167969 C 303.882812 343.167969 310.234375 347.851562 312.382812 354.820312 C 314.320312 361.101562 319.226562 366.007812 325.507812 367.945312 C 332.476562 370.097656 337.160156 376.695312 337.160156 384 C 337.160156 393.117188 329.742188 400.78125 320.628906 400.78125 L 288.566406 400.78125 L 288.566406 415.8125 L 320.628906 415.8125 C 338.03125 415.8125 352.191406 401.402344 352.191406 384 C 352.1875 370.0625 343.246094 357.6875 329.933594 353.585938 Z M 329.933594 353.585938 " style=" stroke:none;fill-rule:nonzero;fill:rgb(0%,0%,0%);fill-opacity:1;" />
<path d="M 248.484375 343.171875 C 261.6875 343.171875 272.03125 329.304688 272.03125 311.609375 C 272.03125 293.910156 261.6875 280.046875 248.484375 280.046875 C 235.28125 280.046875 224.9375 293.910156 224.9375 311.609375 C 224.9375 329.304688 235.28125 343.171875 248.484375 343.171875 Z M 248.484375 295.078125 C 251.957031 295.078125 257.003906 301.515625 257.003906 311.609375 C 257.003906 321.699219 251.957031 328.140625 248.484375 328.140625 C 245.011719 328.140625 239.96875 321.699219 239.96875 311.609375 C 239.96875 301.515625 245.011719 295.078125 248.484375 295.078125 Z M 248.484375 295.078125 " style=" stroke:none;fill-rule:nonzero;fill:rgb(0%,0%,0%);fill-opacity:1;" />
<path d="M 344.671875 343.171875 C 357.878906 343.171875 368.21875 329.304688 368.21875 311.609375 C 368.21875 293.910156 357.878906 280.046875 344.671875 280.046875 C 331.46875 280.046875 321.128906 293.910156 321.128906 311.609375 C 321.128906 329.304688 331.46875 343.171875 344.671875 343.171875 Z M 344.671875 295.078125 C 348.144531 295.078125 353.191406 301.515625 353.191406 311.609375 C 353.191406 321.699219 348.144531 328.140625 344.671875 328.140625 C 341.199219 328.140625 336.15625 321.699219 336.15625 311.609375 C 336.15625 301.515625 341.199219 295.078125 344.671875 295.078125 Z M 344.671875 295.078125 " style=" stroke:none;fill-rule:nonzero;fill:rgb(0%,0%,0%);fill-opacity:1;" />
<path d="M 296.578125 311.109375 C 309.78125 311.109375 320.125 297.242188 320.125 279.546875 C 320.125 261.847656 309.78125 247.984375 296.578125 247.984375 C 283.375 247.984375 273.035156 261.847656 273.035156 279.546875 C 273.035156 297.242188 283.375 311.109375 296.578125 311.109375 Z M 296.578125 263.015625 C 300.050781 263.015625 305.097656 269.453125 305.097656 279.546875 C 305.097656 289.636719 300.050781 296.078125 296.578125 296.078125 C 293.105469 296.078125 288.0625 289.636719 288.0625 279.546875 C 288.0625 269.453125 293.105469 263.015625 296.578125 263.015625 Z M 296.578125 263.015625 " style=" stroke:none;fill-rule:nonzero;fill:rgb(0%,0%,0%);fill-opacity:1;" />
</g>
</svg>