<svg viewBox="0 -28 512.00011 512" xmlns="http://www.w3.org/2000/svg"><g fill="#b3b6c3"><path d="m281 188.820312v-45.546874c0-22.402344 9.074219-43.855469 25.152344-59.457032 16.074218 15.601563 25.148437 37.054688 25.148437 59.457032v.542968"/><path d="m376.609375 173.066406.078125-72.058594c-18.089844 8.070313-32.417969 22.730469-40.074219 41l-1.347656 3.21875"/><path d="m161.574219 356.148438 15.328125 65.847656c2.851562 12.238281-6.4375 23.941406-19.003906 23.941406-8.421876 0-15.894532-5.402344-18.53125-13.398438l-21.753907-65.886718"/><path d="m252.828125 356.148438-15.328125 65.847656c-2.851562 12.238281 6.441406 23.941406 19.003906 23.941406 8.421875 0 15.894532-5.402344 18.535156-13.398438l20.296876-61.480468"/></g><path d="m345 259.816406v7.742188.351562c-.15625 39.03125 3.628906 77.984375 12.464844 116.007813l8.832031 38c2.851563 12.28125-6.472656 24.019531-19.082031 24.019531-8.386719 0-15.84375-5.335938-18.542969-13.28125-3.027344-8.910156-7.242187-21.304688-11.554687-33.992188-8.75-25.734374-33.074219-42.65625-60.253907-42.515624-.152343 0-.304687 0-.453125 0h-117.742187c-.082031 0-.160157 0-.242188 0-14.371093-.046876-27.203125 8.941406-31.710937 22.582031l-17.789063 53.808593c-2.640625 7.996094-10.113281 13.398438-18.53125 13.398438-12.566406 0-21.859375-11.703125-19.007812-23.941406l1.007812-4.191406c10.472657-43.511719 14.035157-88.257813 12.644531-132.992188-.023437-.773438-.035156-1.550781-.035156-2.328125v-6.667969c0-28.167968 22.832032-51 51-51h153.996094l6.445312-18.484375c3.640626-10.4375 6.46875-21.125 9.113282-31.855469 3.917968-15.882812 18.261718-27.660156 35.351562-27.660156h8.351563c20.789062 0 39.605469 12.332032 47.902343 31.398438l9.835938 22.601562 22.113281 10.691406c7.960938 3.851563 13.019531 11.914063 13.019531 20.753907 0 12.734375-10.320312 23.054687-23.054687 23.054687h-58.144531l-70.933594-30.5" fill="#898998"/><path d="m191.671875 234.820312c2.628906 0 5.199219-1.070312 7.070313-2.933593 1.859374-1.867188 2.929687-4.4375 2.929687-7.066407 0-2.632812-1.070313-5.210937-2.929687-7.070312-1.871094-1.871094-4.441407-2.929688-7.070313-2.929688-2.632813 0-5.210937 1.058594-7.070313 2.929688-1.871093 1.859375-2.929687 4.429688-2.929687 7.070312 0 2.628907 1.058594 5.207032 2.929687 7.066407 1.859376 1.863281 4.441407 2.933593 7.070313 2.933593zm0 0"/><path d="m507.316406 1.53125c-4.675781-2.933594-10.851562-1.52734375-13.785156 3.152344l-106.902344 170.222656-.144531-.335938c.074219-.488281.125-.984374.125-1.492187l.074219-72.058594c.003906-3.390625-1.707032-6.550781-4.550782-8.398437-2.839843-1.847656-6.425781-2.125-9.519531-.746094-13.816406 6.164062-25.601562 15.648438-34.480469 27.507812-4.316406-16.117187-12.921874-31.003906-25.019531-42.742187-3.878906-3.765625-10.050781-3.765625-13.929687 0-17.910156 17.386719-28.183594 41.671875-28.183594 66.632813v45.550781c0 .433593.035156.855469.089844 1.277343-1.242188 4.300782-2.585938 8.632813-4.089844 12.9375l-4.105469 11.777344h-35.226562c-5.523438 0-10 4.476563-10 10 0 5.519532 4.476562 10 10 10h40.273437l67.054688 28.832032v4.21875c-.164063 41.460937 4.117187 81.265624 12.726562 118.3125l8.832032 38c.664062 2.867187-.003907 5.828124-1.832032 8.132812s-4.566406 3.625-7.507812 3.625c-4.105469 0-7.753906-2.613281-9.074219-6.496094l-11.558594-34c-10.035156-29.527344-37.890625-49.296875-69.402343-49.296875-.128907 0-.257813.003907-.386719.003907h-118.335938c-.050781 0-.101562 0-.148437 0-18.761719 0-35.261719 11.816406-41.089844 29.445312l-17.789062 53.8125c-1.289063 3.90625-4.921876 6.53125-9.035157 6.53125-2.921875 0-5.636719-1.3125-7.453125-3.601562-1.816406-2.285157-2.476562-5.226563-1.832031-8l1.007813-4.191407c10.070312-41.835937 14.414062-87.472656 12.917968-135.648437-.023437-.667969-.03125-1.339844-.03125-2.015625v-6.664063c0-22.609375 18.390625-41 41-41h31.511719c5.523437 0 10-4.480468 10-10 0-5.523437-4.476563-10-10-10h-31.511719c-15.984375 0-30.542968 6.1875-41.433594 16.28125-9.15625.824219-40.320312 1.046875-55.515624-31.359375-2.34375-5-8.296876-7.15625-13.296876-4.808593-5 2.34375-7.152343 8.296874-4.808593 13.296874 12.707031 27.105469 33.785156 37.179688 49.226562 40.855469 3.570313.851563 7.003907 1.398438 10.203125 1.738281-3.441406 7.632813-5.375 16.089844-5.375 24.992188v6.667969c0 .886719.011719 1.769531.039063 2.640625 1.441406 46.390625-2.71875 90.242187-12.371094 130.34375l-1.023437 4.265625c-2.054688 8.820312-.003907 17.949219 5.628906 25.042969 5.632812 7.09375 14.058594 11.164062 23.117187 11.164062 12.761719 0 24.027344-8.144531 28.023438-20.257812l15.738281-47.601563 15.714844 47.597656c4 12.117188 15.261718 20.261719 28.027344 20.261719 9.058593 0 17.480468-4.070312 23.113281-11.164062 5.632812-7.09375 7.6875-16.222657 5.632812-25.042969l-12.476562-53.582031h66.066406l-12.476563 53.582031c-2.054687 8.820312 0 17.949219 5.628907 25.042969 5.636719 7.09375 14.0625 11.164062 23.117187 11.164062 12.765625 0 24.027344-8.144531 28.027344-20.261719l15.796875-47.84375c3.085937 4.210938 5.578125 8.925781 7.320313 14.046875l11.554687 33.996094c4.078125 12 15.335937 20.0625 28.011719 20.0625 9.078125 0 17.523437-4.078125 23.167968-11.1875 5.648438-7.105469 7.707032-16.253906 5.652344-25.097656l-8.832031-38c-8.253906-35.535156-12.363281-73.792969-12.203125-113.660156v-2.679688h44.078125c18.226563 0 33.054687-14.824219 33.054687-33.050781 0-12.59375-7.328124-24.273438-18.667968-29.757813l-15.761719-7.625 112.765625-179.558594c2.9375-4.679687 1.527344-10.851562-3.152344-13.789062zm-340.152344 422.734375c.664063 2.84375 0 5.785156-1.8125 8.074219-1.816406 2.285156-4.535156 3.597656-7.453124 3.597656-4.117188 0-7.746094-2.625-9.035157-6.53125l-20.203125-61.199219c2.96875-1.320312 6.25-2.058593 9.683594-2.058593h.082031 15.207031zm98.378907 5.140625c-1.292969 3.90625-4.921875 6.53125-9.039063 6.53125-2.917968 0-5.636718-1.3125-7.449218-3.597656-1.816407-2.289063-2.480469-5.230469-1.816407-8.074219l13.503907-57.996094c8.390624.546875 16.339843 3.011719 23.324218 7.027344zm101.125-310.816406-.03125 30.699218c-5.417969-4.066406-11.484375-7.238281-17.964844-9.363281 4.476563-8.335937 10.605469-15.578125 17.996094-21.335937zm-60.515625-19.773438c8.410156 10.960938 13.601562 24.210938 14.847656 38h-.089844c-11.285156 0-21.765625 4.03125-29.910156 10.882813v-4.425781c0-16.074219 5.429688-31.796876 15.152344-44.457032zm105.980468 133.445313c0 7.199219-5.855468 13.054687-13.054687 13.054687h-56.085937l-60.480469-26.007812 3.375-9.6875c3.90625-11.203125 6.816406-22.359375 9.382812-32.75 2.910157-11.808594 13.457031-20.054688 25.640625-20.054688h8.351563c16.816406 0 32.023437 9.964844 38.734375 25.386719l9.835937 22.601563c.953125 2.195312 2.664063 3.972656 4.816407 5.015624l22.113281 10.691407c4.476562 2.164062 7.371093 6.777343 7.371093 11.75zm0 0"/></svg>