<svg height="480pt" viewBox="-64 0 480 480" width="480pt" xmlns="http://www.w3.org/2000/svg"><path d="m63.726562 312h160.601563c30.765625 0 55.703125 24.941406 55.703125 55.703125v104.296875h-272v-104.320312c.015625-30.75 24.945312-55.675782 55.695312-55.679688zm0 0" fill="#1d3f54"/><path d="m248.023438 127.921875v56.078125c0 57.4375-46.5625 104-104 104s-104-46.5625-104-104v-56.078125c.015624-39.714844 32.199218-71.902344 71.914062-71.921875h64.117188c39.738281-.019531 71.960937 32.183594 71.96875 71.921875zm0 0" fill="#e8d8bf"/><path d="m96.023438 96c0-13.253906 10.746093-24 24-24h32c13.253906 0 24 10.746094 24 24 0 48.601562 39.398437 88 88 88v-72.488281c-.007813-57.171875-46.355469-103.511719-103.527344-103.511719h-41.839844c-14.488281.003906-28.382812 5.757812-38.632812 16-10.242188 10.246094-15.996094 24.144531-16 38.632812v1.367188c0 17.671875 14.328124 32 32 32zm0 0" fill="#f7ce49"/><path d="m112.023438 267.855469h64v68.121093h-64zm0 0" fill="#e8d8bf"/><path d="m112.023438 311.976562 32 24-32 32zm0 0" fill="#d8a29e"/><path d="m176.023438 311.976562-32 24 32 32zm0 0" fill="#d8a29e"/><path d="m216.039062 400.953125v-88.953125h-16v88h-112v-88h-16v88.945312c-14.050781 3.386719-23.964843 15.945313-24 30.398438v40.65625h192v-40.625c-.027343-14.460938-9.941406-27.027344-24-30.421875zm0 0" fill="#abc8bc"/><path d="m333.414062 397.414062c-7.578124-16.757812-26.523437-25.167968-44.039062-19.550781l-21.085938-35.382812c20.800782 5.265625 42.566407-3.914063 53.320313-22.480469l16-27.710938c6.371094-11.03125 8.097656-24.144531 4.796875-36.449218-3.300781-12.304688-11.359375-22.792969-22.398438-29.152344l-64 110.847656-64-110.847656c-11.039062 6.359375-19.09375 16.847656-22.398437 29.152344-3.300781 12.304687-1.574219 25.417968 4.796875 36.449218l16 27.710938c10.757812 18.589844 32.554688 27.769531 53.371094 22.480469l-21.097656 35.382812c-17.515626-5.609375-36.457032 2.796875-44.046876 19.550781l-4.617187 10.328126c-5.476563 11.855468-4.164063 25.738281 3.445313 36.355468 7.605468 10.613282 20.328124 16.320313 33.316406 14.941406 12.984375-1.375 24.226562-9.625 29.4375-21.597656l4.632812-10.320312c6.414063-14.089844 3.050782-30.707032-8.335937-41.191406l19.527343-32.761719 19.519532 32.761719c-11.386719 10.484374-14.753906 27.097656-8.34375 41.191406l4.632812 10.320312c5.210938 11.972656 16.453125 20.222656 29.441406 21.597656 12.984376 1.378907 25.707032-4.328124 33.316407-14.941406 7.605469-10.617187 8.921875-24.5 3.441406-36.355468zm-103.199218 23.152344-4.628906 10.320313c-4.585938 10.222656-16.585938 14.789062-26.804688 10.207031-10.222656-4.585938-14.789062-16.585938-10.207031-26.804688l4.625-10.328124c4.597656-10.210938 16.589843-14.773438 26.808593-10.199219 10.214844 4.589843 14.78125 16.585937 10.207032 26.804687zm93.722656 9.242188c-2.921875 7.667968-10.175781 12.820312-18.375 13.058594-8.203125.238281-15.742188-4.492188-19.097656-11.980469l-4.632813-10.320313c-3.96875-10.085937.691407-21.511718 10.585938-25.945312 9.894531-4.429688 21.523437-.300782 26.40625 9.378906l4.632812 10.328125c2.214844 4.890625 2.386719 10.460937.480469 15.480469zm0 0" fill="#6c3b15"/><path d="m232.023438 423.976562h48v48h-48zm0 0" fill="#e8d8bf"/><path d="m328.503906 324 16-27.710938c15.464844-26.785156 6.289063-61.03125-20.496094-76.496093-3.824218-2.210938-8.71875-.898438-10.929687 2.925781l-57.070313 98.816406-33.457031-57.949218c19.433594-19.164063 31.183594-44.773438 33.042969-72 2.773438.238281 5.597656.421874 8.40625.421874 4.417969 0 8-3.582031 8-8v-72.496093c-.078125-61.558594-49.96875-111.4414065-111.527344-111.511719h-41.847656c-34.585938.00390625-62.621094 28.039062-62.625 62.625v1.375c.039062 2.148438.257812 4.289062.648438 6.398438-15.730469 15.035156-24.636719 35.84375-24.648438 57.601562v56c.078125 46.371094 28.699219 87.902344 72 104.488281v15.511719h-40.296875c-35.164063.039062-63.6640625 28.539062-63.703125 63.703125v104.296875c0 4.417969 3.582031 8 8 8h272c4.417969 0 8-3.582031 8-8v-17.425781c5.238281 2.792969 11.078125 4.261719 17.015625 4.289062 12.289063-.019531 23.730469-6.265625 30.398437-16.589843 6.667969-10.320313 7.652344-23.320313 2.617188-34.53125l-4.632812-10.328126c-7.871094-17.398437-27.898438-25.703124-45.773438-18.972656l-14.816406-26.9375c2.355468.296875 4.726562.445313 7.101562.449219 20.03125.042969 38.5625-10.617187 48.59375-27.953125zm-47.199218 81.078125c2.921874-7.664063 10.167968-12.8125 18.367187-13.050781 8.199219-.238282 15.734375 4.484375 19.097656 11.964844l4.628907 10.328124c4.140624 9.605469.28125 20.78125-8.90625 25.785157-9.183594 5.003906-20.667969 2.183593-26.492188-6.503907v-9.601562c-.011719-4.238281-3.351562-7.71875-7.585938-7.910156-.730468-3.695313-.410156-7.519532.921876-11.042969zm-36.65625-71.132813c-18.019532 5.972657-37.761719-1.519531-47.28125-17.945312l-16-27.710938c-9.511719-16.464843-6.117188-37.347656 8.113281-49.953124zm-172.648438-271.34375c.011719-25.742187 20.882812-46.601562 46.625-46.601562h41.847656c52.726563.0625 95.457032 42.785156 95.527344 95.511719v64.0625c-40.855469-4.152344-71.953125-38.53125-72-79.597657 0-17.671874-14.328125-32-32-32h-32c-14.21875.015626-26.726562 9.394532-30.726562 23.039063-10.222657-3-17.25-12.363281-17.273438-23.015625zm-24 121.398438v-56.078125c.027344-15.101563 5.414062-29.703125 15.199219-41.203125 7.4375 10.792969 19.695312 17.253906 32.800781 17.28125 4.417969 0 8-3.582031 8-8 0-8.835938 7.164062-16 16-16h32c8.835938 0 16 7.164062 16 16 .066406 43.636719 29.53125 81.746094 71.742188 92.800781-1.089844 22.546875-10.097657 43.988281-25.4375 60.550781l-15.367188-26.617187c-2.210938-3.824219-7.101562-5.136719-10.929688-2.925781-20.511718 11.804687-31.355468 35.261718-27.054687 58.535156-28.003906 5.339844-56.929687-2.160156-78.808594-20.433594-21.878906-18.277344-34.410156-45.402344-34.144531-73.910156zm96 142.007812-24-18v-14.6875c7.878906 1.75 15.925781 2.640626 24 2.65625 7.464844-.003906 14.90625-.746093 22.222656-2.214843.425782.796875.800782 1.679687 1.28125 2.496093l.496094.855469v10.886719zm24 1.992188v20.6875l-11.824219-11.839844zm-36.183594 8.871094-11.816406 11.816406v-20.6875zm-43.816406-16.871094h16v48c0 3.234375 1.949219 6.152344 4.9375 7.390625s6.429688.554687 8.71875-1.734375l26.34375-26.34375 26.335938 26.289062c2.28125 2.285157 5.710937 2.976563 8.699218 1.75 2.984375-1.222656 4.945313-4.125 4.964844-7.351562v-43.296875c4.054688 6.773437 9.507812 12.601563 16 17.097656v36.253907c-7.445312 2.535156-13.863281 7.429687-18.273438 13.945312h-93.726562zm-48 111.398438v32.601562h-24v-96.320312c.042969-26.324219 21.378906-47.648438 47.703125-47.679688h8.296875v72.753906c-18.539062 3.550782-31.957031 19.746094-32 38.621094zm184 32.601562h-168v-32.625c.03125-12.90625 10.492188-23.355469 23.398438-23.375h94.496093c-8.019531 18.242188.160157 39.539062 18.328125 47.71875 4.636719 2.105469 9.671875 3.195312 14.761719 3.203125 5.933594-.03125 11.773437-1.5 17.015625-4.289063zm7.601562-47.921875c-4.230468.214844-7.566406 3.6875-7.601562 7.921875v9.601562c-5.75 8.886719-17.378906 11.835938-26.671875 6.769532-9.292969-5.070313-13.109375-16.445313-8.753906-26.089844l4.617187-10.328125c4.199219-9.398437 14.773438-14.152344 24.589844-11.0625 9.816406 3.09375 15.753906 13.050781 13.8125 23.15625zm-7.152343-37.597656c-2.722657-1.023438-5.558594-1.710938-8.449219-2.046875v-26.921875c7.503906 2.316406 15.414062 2.992187 23.199219 1.984375zm47.550781 85.519531h-32v-32h32zm2.144531-76.855469c-7.433593 7.660157-11.03125 18.253907-9.792969 28.855469h-16.695312c1.226562-10.574219-2.347656-21.140625-9.746094-28.800781l18.105469-33.039063zm-6.808593-53.207031 55.199218-95.609375c14.234375 12.605469 17.625 33.488281 8.113282 49.953125l-16 27.710938c-9.523438 16.4375-29.289063 23.925781-47.3125 17.917968zm0 0"/></svg>