<?xml version="1.0" encoding="iso-8859-1"?>
<!-- Generator: Adobe Illustrator 19.0.0, SVG Export Plug-In . SVG Version: 6.00 Build 0)  -->
<svg version="1.1" id="Capa_1" xmlns="http://www.w3.org/2000/svg" xmlns:xlink="http://www.w3.org/1999/xlink" x="0px" y="0px"
	 viewBox="0 0 512 512" style="enable-background:new 0 0 512 512;" xml:space="preserve">
<polygon style="fill:#4F4F4F;" points="324.5,382.001 234.5,382.001 294.5,442.001 324.5,442.001 "/>
<rect x="37.5" y="382" style="fill:#696969;" width="257" height="60"/>
<path style="fill:#FF6337;" d="M339.5,225.001c0-8.284-6.716-15-15-15c-4.765,0-9.002,2.229-11.75,5.693l-15,39.307h41.75V225.001z"
	/>
<path style="fill:#FF8646;" d="M301,210.001c-8.284,0-15,6.716-15,15v30h26.75v-39.307C310.002,212.23,305.765,210.001,301,210.001z
	"/>
<path style="fill:#869E47;" d="M76,225.001c0-8.284-6.716-15-15-15c-4.765,0-9.002,2.229-11.75,5.693l-15,39.307H76V225.001z"/>
<path style="fill:#9DB55F;" d="M37.5,210.001c-8.284,0-15,6.716-15,15v30h26.75v-39.307C46.502,212.23,42.265,210.001,37.5,210.001z
	"/>
<polygon style="fill:#696969;" points="181,290.001 241,290.001 241,240.001 181,210.001 "/>
<polygon style="fill:#808080;" points="121,240.001 121,290.001 211,290.001 211,210.001 "/>
<path style="fill:#CCCCCC;" d="M181,180.001l30,60h30C241,206.864,214.137,180.001,181,180.001z"/>
<path style="fill:#EBEBEB;" d="M181,180.001c-33.137,0-60,26.863-60,60h90C211,206.864,197.568,180.001,181,180.001z"/>
<g>
	<path style="fill:#FFF0D3;" d="M7.5,240.001c0,19.33,15.67,35,35,35l6.75,20l6.75-20c19.33,0,35-15.67,35-35H7.5z"/>
	<path style="fill:#FFF0D3;" d="M271,240.001c0,19.33,15.67,35,35,35l6.75,20l6.75-20c19.33,0,35-15.67,35-35H271z"/>
</g>
<polygon style="fill:#2DADE3;" points="323.438,275.001 284.5,354.501 354.5,305.001 354.5,275.001 "/>
<polygon style="fill:#49C9FF;" points="7.5,275.001 7.5,305.001 324.5,354.501 324.5,275.001 "/>
<polygon style="fill:#A8E5FF;" points="324.5,305.001 293.437,348.501 324.5,397.001 354.5,397.001 354.5,305.001 "/>
<rect x="7.5" y="305" style="fill:#DBF4FF;" width="317" height="92"/>
<path style="fill:#FF6337;" d="M339.5,90.001c0-8.284-6.716-15-15-15c-4.765,0-9.002,2.229-11.75,5.693l-15,39.307h41.75V90.001z"/>
<path style="fill:#FF8646;" d="M301,75.001c-8.284,0-15,6.716-15,15v30h26.75V80.694C310.002,77.23,305.765,75.001,301,75.001z"/>
<path style="fill:#85453D;" d="M500.135,104.427l-32.181-52.808H429.5v128.382l25-30h20c16.569,0,30-13.432,30-30
	C504.5,114.295,502.902,108.967,500.135,104.427z"/>
<path style="fill:#A45E43;" d="M474.5,120.001c0-5.706-1.598-11.034-4.365-15.574L442.33,58.798L384.5,75.001v55c0,11,9,20,20,20
	l25,30l15-30C461.069,150.001,474.5,136.569,474.5,120.001z"/>
<path style="fill:#FFB4A9;" d="M443.592,59.548L429.5,120.001c24.853,0,45-20.147,45-45L443.592,59.548z"/>
<path style="fill:#FFD9D4;" d="M444.5,75.001c0-5.429-0.321-10.634-0.908-15.453l-41.095-20.546
	C391.57,47.213,384.5,60.281,384.5,75.001c0,24.853,20.147,45,45,45C437.784,120.001,444.5,99.854,444.5,75.001z"/>
<path style="fill:#85453D;" d="M429.5,30.001l14.899,39.832c9.413,3.341,19.543,5.168,30.101,5.168
	C474.5,50.148,454.353,30.001,429.5,30.001z"/>
<path style="fill:#A45E43;" d="M429.5,30.001c-10.132,0-19.481,3.35-27.003,9.002c10.532,14.02,25.066,24.856,41.901,30.831
	C443.544,47.416,437.201,30.001,429.5,30.001z"/>
<path style="fill:#FFF0D3;" d="M271,105.001c0,19.33,15.67,35,35,35h13.5c19.33,0,35-15.67,35-35
	C354.5,105.001,271,105.001,271,105.001z"/>
<path style="fill:#FFA754;" d="M454.5,150.001h-30l-20,120l70-30v-70C474.5,158.955,465.546,150.001,454.5,150.001z"/>
<path style="fill:#FFCB63;" d="M424.5,150.001h-20c-11.046,0-20,8.954-20,20v70l60,30v-100
	C444.5,158.955,435.546,150.001,424.5,150.001z"/>
<path style="fill:#FF4128;" d="M474.5,240.001h-30l15,90h30v-50.335C489.5,264.455,483.829,250.576,474.5,240.001z"/>
<path style="fill:#FF6337;" d="M444.5,240.001h-60v90h75v-50.335C459.5,264.455,453.829,250.576,444.5,240.001z"/>
<path d="M362,274.999c0-4.142-3.358-7.5-7.5-7.5h-2.634c6.313-7.418,10.134-17.019,10.134-27.5c0-4.142-3.358-7.5-7.5-7.5H347v-7.5
	c0-12.407-10.093-22.5-22.5-22.5c-4.22,0-8.263,1.164-11.75,3.307c-3.487-2.144-7.53-3.307-11.75-3.307
	c-12.407,0-22.5,10.093-22.5,22.5v7.5H271c-4.142,0-7.5,3.358-7.5,7.5c0,10.481,3.822,20.082,10.134,27.5H248.5v-27.5
	c0-34.684-26.298-63.329-60-67.073v-7.927c0-4.142-3.358-7.5-7.5-7.5s-7.5,3.358-7.5,7.5v7.927c-33.702,3.744-60,32.39-60,67.073
	v27.5H88.366c6.313-7.418,10.134-17.019,10.134-27.5c0-4.142-3.358-7.5-7.5-7.5h-7.5v-7.5c0-12.407-10.093-22.5-22.5-22.5
	c-4.22,0-8.263,1.164-11.75,3.307c-3.487-2.144-7.53-3.307-11.75-3.307c-12.407,0-22.5,10.093-22.5,22.5v7.5H7.5
	c-4.142,0-7.5,3.358-7.5,7.5c0,10.481,3.822,20.082,10.134,27.5H7.5c-4.142,0-7.5,3.358-7.5,7.5v122c0,4.142,3.358,7.5,7.5,7.5H30
	v67.5c0,4.142,3.358,7.5,7.5,7.5s7.5-3.358,7.5-7.5v-22.5h272v22.5c0,4.142,3.358,7.5,7.5,7.5s7.5-3.358,7.5-7.5v-67.5h22.5
	c4.142,0,7.5-3.358,7.5-7.5V274.999z M293.5,224.999c0-4.136,3.364-7.5,7.5-7.5c2.294,0,4.436,1.04,5.874,2.854
	c1.423,1.794,3.587,2.839,5.876,2.839s4.453-1.045,5.876-2.839c1.438-1.813,3.58-2.854,5.874-2.854c4.136,0,7.5,3.364,7.5,7.5v7.5
	h-38.5V224.999z M279.54,247.499h66.421c-3.272,11.53-13.896,20-26.46,20H306C293.435,267.499,282.812,259.029,279.54,247.499z
	 M181,187.499c26.402,0,48.304,19.593,51.956,45H129.044C132.696,207.092,154.598,187.499,181,187.499z M128.5,247.499h105v20h-105
	V247.499z M30,224.999c0-4.136,3.364-7.5,7.5-7.5c2.294,0,4.436,1.04,5.874,2.854c1.423,1.794,3.587,2.839,5.876,2.839
	s4.453-1.045,5.876-2.839c1.438-1.813,3.58-2.854,5.874-2.854c4.136,0,7.5,3.364,7.5,7.5v7.5H30V224.999z M16.04,247.499h66.42
	c-3.272,11.53-13.896,20-26.46,20H42.5C29.935,267.499,19.312,259.029,16.04,247.499z M317,434.499H45v-30h272V434.499z M15,389.499
	v-77h279.5c4.142,0,7.5-3.358,7.5-7.5s-3.358-7.5-7.5-7.5H15v-15h332v15h-22.5c-4.142,0-7.5,3.358-7.5,7.5s3.358,7.5,7.5,7.5H347v77
	H15z"/>
<path d="M512,119.999c0-6.88-1.888-13.615-5.46-19.477l-32.181-52.808c-0.124-0.204-0.258-0.398-0.398-0.585
	c-9.298-14.78-25.746-24.63-44.461-24.63c-28.949,0-52.5,23.551-52.5,52.5v55c0,7.875,3.332,14.982,8.655,20
	c-3.565,3.361-6.232,7.66-7.607,12.5H306c-4.136,0-7.5-3.364-7.5-7.5s3.364-7.5,7.5-7.5h13.5c23.435,0,42.5-19.065,42.5-42.5
	c0-4.142-3.358-7.5-7.5-7.5H347v-7.5c0-12.407-10.093-22.5-22.5-22.5c-4.22,0-8.263,1.164-11.75,3.307
	c-3.487-2.144-7.53-3.307-11.75-3.307c-12.407,0-22.5,10.093-22.5,22.5v7.5H271c-4.142,0-7.5,3.358-7.5,7.5
	c0,16.602,9.574,31.001,23.486,37.992c-2.204,3.478-3.486,7.594-3.486,12.008c0,12.407,10.093,22.5,22.5,22.5h71v152.5
	c0,4.142,3.358,7.5,7.5,7.5h7.5v129.094l-24.872,8.291c-3.93,1.31-6.053,5.557-4.744,9.487c1.048,3.143,3.974,5.13,7.114,5.13
	c0.786,0,1.586-0.125,2.373-0.387l30-10c3.062-1.021,5.128-3.887,5.128-7.115v-134.5h46.088v129.094l-24.872,8.291
	c-3.93,1.31-6.053,5.557-4.744,9.487c1.048,3.143,3.974,5.13,7.114,5.13c0.786,0,1.586-0.125,2.373-0.387l30-10
	c3.062-1.021,5.128-3.887,5.128-7.115v-134.5H489.5c4.142,0,7.5-3.358,7.5-7.5v-50.335c0-15.471-5.307-30.417-15-42.406v-67.259
	c0-4.604-1.143-8.944-3.151-12.76C497.484,155.076,512,139.205,512,119.999z M293.5,89.999c0-4.136,3.364-7.5,7.5-7.5
	c2.294,0,4.436,1.04,5.874,2.854c1.423,1.794,3.587,2.839,5.876,2.839s4.453-1.045,5.876-2.839c1.438-1.813,3.58-2.854,5.874-2.854
	c4.136,0,7.5,3.364,7.5,7.5v7.5h-38.5V89.999z M279.54,112.499h66.421c-3.272,11.53-13.896,20-26.46,20H306
	C293.435,132.499,282.812,124.029,279.54,112.499z M466.151,67.079c-20.154-2-38.58-11.212-52.297-26.147
	c4.766-2.198,10.063-3.433,15.646-3.433C447.46,37.499,462.505,50.193,466.151,67.079z M401.699,49.86
	c16.692,18.803,39.576,30.244,64.607,32.299c-3.352,17.264-18.577,30.34-36.806,30.34c-20.678,0-37.5-16.822-37.5-37.5
	C392,65.336,395.675,56.516,401.699,49.86z M454.5,157.499c6.893,0,12.5,5.607,12.5,12.5v62.5h-75v-62.5
	c0-6.893,5.607-12.5,12.5-12.5H454.5z M482,322.499h-90v-75h78.961c7.133,9.184,11.039,20.479,11.039,32.165V322.499z
	 M474.5,142.499h-20h-50c-6.893,0-12.5-5.607-12.5-12.5v-18.308c9.537,9.745,22.821,15.808,37.5,15.808
	c24.876,0,45.751-17.396,51.137-40.658l13.094,21.488c2.139,3.509,3.269,7.544,3.269,11.67
	C497,132.406,486.907,142.499,474.5,142.499z"/>
<g>
</g>
<g>
</g>
<g>
</g>
<g>
</g>
<g>
</g>
<g>
</g>
<g>
</g>
<g>
</g>
<g>
</g>
<g>
</g>
<g>
</g>
<g>
</g>
<g>
</g>
<g>
</g>
<g>
</g>
</svg>
