<?xml version="1.0" encoding="iso-8859-1"?>
<!-- Generator: Adobe Illustrator 19.0.0, SVG Export Plug-In . SVG Version: 6.00 Build 0)  -->
<svg version="1.1" id="Capa_1" xmlns="http://www.w3.org/2000/svg" xmlns:xlink="http://www.w3.org/1999/xlink" x="0px" y="0px"
	 viewBox="0 0 484.1 484.1" style="enable-background:new 0 0 484.1 484.1;" xml:space="preserve">
<path style="fill:#ED664C;" d="M473.6,315.75v64.3c0,17.5-14.2,31.6-31.6,31.6h-15.8h-0.1c0.1-1.2,0.1-2.4,0.1-3.7
	c0-25-20.3-45.3-45.3-45.3s-45.3,20.3-45.3,45.3c0,1.2,0.1,2.5,0.2,3.7h-0.2h-65.3v-109.7h98.6h101.7
	C472.5,306.25,473.6,310.95,473.6,315.75z"/>
<g>
	<path style="fill:#FDC75B;" d="M470.5,301.95H368.8l-38-81.7v-0.5H345h28.1c8,0,15.7,3.1,21.6,8.5l68.9,64.3
		C466.5,295.35,468.8,298.55,470.5,301.95z"/>
	<path style="fill:#FDC75B;" d="M426.2,407.95c0,1.2,0,2.5-0.1,3.7c-1.9,23.3-21.4,41.7-45.2,41.7s-43.3-18.3-45.2-41.7
		c-0.1-1.2-0.2-2.4-0.2-3.7c0-25,20.3-45.3,45.3-45.3S426.2,382.85,426.2,407.95z"/>
	<path style="fill:#FDC75B;" d="M406,69.65l-39.4-3.3l-0.2,0.3c-8.6,11.3-8.5,27,0.2,38.2l0,0l39.2-3c-7,27.8-28.5,41.5-54,41.5
		c-23.4,0.2-43.6-15.3-52.2-33.6H186c-7.4,24.6-28.8,39-54.3,39s-47.1-14.1-54.3-39l39.4,3.3l0.2-0.3c8.6-11.3,8.5-27-0.2-38.2
		l-39.2,3c6.5-28.3,28.1-42,53.6-42c23.2,0,43.6,15.3,52.4,33.9h114.1c7.4-24.6,28.8-39,54.3-39C377.3,30.65,398.9,44.85,406,69.65z
		"/>
	<polygon style="fill:#FDC75B;" points="330.8,220.25 368.8,301.95 270.2,301.95 270.2,219.75 330.8,219.75 	"/>
</g>
<path style="fill:#ED664C;" d="M270.2,301.95v109.6H149h-0.1c0.1-1.2,0.1-2.4,0.1-3.7c0-25-20.3-45.3-45.3-45.3
	s-45.3,20.3-45.3,45.3c0,1.2,0.1,2.5,0.2,3.7h-0.2H42c-17.5,0-31.6-14.2-31.6-31.6v-25.3c0-29.1,23.6-52.7,52.7-52.7h52.2
	c1.2,0,2.5-0.1,3.7-0.2v0.2H270.2z"/>
<g>
	<path style="fill:#FDC75B;" d="M270.2,219.75v82.2H118.9v-0.2c7.4-0.9,14.3-4.3,19.4-9.8l58.2-62.2c6-6.4,14.3-10,23.1-10H247
		L270.2,219.75L270.2,219.75z"/>
	<path style="fill:#FDC75B;" d="M149,407.95c0,1.2-0.1,2.5-0.1,3.7c-1.9,23.3-21.4,41.7-45.2,41.7s-43.3-18.3-45.2-41.7
		c-0.1-1.2-0.2-2.4-0.2-3.7c0-25,20.3-45.3,45.3-45.3C128.7,362.65,149,382.85,149,407.95z"/>
</g>
<path d="M470.4,285.35l-68.9-64.3c-7.7-7.2-17.8-11.2-28.4-11.2H355v-27h16.9c5.5,0,10-4.5,10-10s-4.5-10-10-10H220.1
	c-5.5,0-10,4.5-10,10s4.5,10,10,10H237v27h-17.4c-11.5,0-22.5,4.8-30.4,13.1l-58.2,62.2c-3.5,3.7-8.2,6-13.3,6.6
	c-0.8,0.1-1.6,0.1-2.5,0.1H63.1c-34.6,0-63.1,28.3-63.1,62.8v25.3c0,22.9,19,41.9,42,41.9h8.1c6.2,24,28.1,41.6,53.6,41.6
	s47.4-17.6,53.6-41.6h170.1c6.2,24,28.1,41.6,53.6,41.6s47.4-17.6,53.6-41.6h7.5c22.9,0,42-18.9,42-41.9v-64.3
	c0-6.2-1.6-12.5-4.3-18C477.5,293.05,474.2,288.85,470.4,285.35z M387.9,235.55l60.4,56.3h-73.2l-28.9-62h26.9
	C378.6,229.85,383.9,231.85,387.9,235.55z M324.2,229.85l28.9,62H280v-62H324.2z M257,182.85h78v27h-78V182.85z M203.8,236.55
	c4.1-4.4,9.8-6.7,15.8-6.7H260v62H152L203.8,236.55z M138.9,410.85c-1.5,18.2-16.9,32.4-35.2,32.4s-33.8-14.3-35.2-32.4l0,0
	c-0.1-0.9-0.1-1.9-0.1-2.9c0-19.5,15.8-35.3,35.3-35.3s35.3,15.8,35.3,35.3C139,408.85,138.9,409.85,138.9,410.85z M103.6,352.85
	c-28.4,0-51.8,21-55,49H42c-11.9,0-22-9.9-22-21.9v-25.3c0-23.5,19.5-42.8,43.1-42.8h52.2c1.3,0,2.8,0.1,3.8,0l0,0h141v90H158.6
	C155.5,373.85,132,352.85,103.6,352.85z M416.1,410.85c-1.5,18.2-16.9,32.4-35.2,32.4s-33.8-14.3-35.2-32.4l0,0
	c-0.1-0.9-0.1-1.9-0.1-2.9c0-19.5,15.8-35.3,35.3-35.3s35.3,15.8,35.3,35.3C416.2,408.85,416.2,409.85,416.1,410.85z M464,379.95
	c0,11.9-10.1,21.9-22,21.9h-6.2c-3.1-28-26.6-49-55-49s-51.8,21-55,49H280v-90h183.3c0.2,1,0.7,2.6,0.7,3.9V379.95z"/>
<path d="M78.3,99.75c-3.3-0.3-6.5,1.1-8.6,3.6s-2.8,6-1.9,9.1c4.1,14.2,12.5,26,24.1,34.2c11.2,7.8,24.9,12,39.7,12
	c28.1,0,51-14.9,61.3-38.9h100.7c10.6,17,31.3,33.6,57.5,33.6c0.2,0,0.4,0,0.6,0c15.1,0,28.9-4.2,39.9-12.3
	c11.7-8.6,20-21.3,23.9-36.8c0.8-3.1,0-6.4-2.1-8.9s-5.2-3.8-8.4-3.5l-33.1,2.6c-2.5-5.6-2.5-12.1,0-17.6l33.3,2.8
	c3.3,0.3,6.5-1.1,8.6-3.6s2.8-6,1.9-9.1c-4.1-14.2-12.4-26-24.1-34.2c-11.2-7.9-24.8-11.9-39.6-12.1c-28.1,0-51,14.2-61.3,39.2
	H189.6c-12.3-21-35-34.1-58.4-34.1c-15.2,0-29,4.2-39.9,12.2c-11.7,8.7-19.8,21.6-23.4,37.3c-0.7,3.1,0.1,6.3,2.2,8.7
	c2.1,2.4,5.2,3.7,8.3,3.4l33.1-2.6c2.5,5.6,2.5,12,0,17.6L78.3,99.75z M124.7,68.35c-2.1-2.6-5.3-4.1-8.7-3.8l-23.6,1.8
	c7.6-13.4,21.1-20.8,38.7-20.8c17.7,0,35.5,11.8,43.4,28.4c1.7,3.5,5.2,5.9,9,5.9h114.1c4.4,0,8.3-3.1,9.6-7.3
	c5.9-19.6,23.1-32,44.6-32c15.9,0.1,29.2,6.6,37.5,17.7l-22-1.9c-3.4-0.3-6.7,1.2-8.8,3.9l-0.3,0.3c-11.3,14.9-11.2,35.7,0.3,50.4
	c0.3,0.3,0.5,0.6,0.8,0.9c2.1,2.1,4.9,3.1,7.8,2.9l23.2-1.8c-7.8,13.1-21.4,20.3-38.9,20.3c-20.5,0.2-36.7-14.3-43-27.8
	c-1.6-3.5-5.2-5.7-9.1-5.7H186c-4.4,0-8.3,2.8-9.6,7.1c-5.9,19.6-23.1,31.8-44.7,31.8c-15.9,0-29.4-6.5-37.7-17.5l22,1.8
	c3.4,0.3,6.7-1.2,8.8-3.9l0.3-0.3C136.4,103.85,136.3,83.15,124.7,68.35z"/>
<g>
</g>
<g>
</g>
<g>
</g>
<g>
</g>
<g>
</g>
<g>
</g>
<g>
</g>
<g>
</g>
<g>
</g>
<g>
</g>
<g>
</g>
<g>
</g>
<g>
</g>
<g>
</g>
<g>
</g>
</svg>
