<?xml version="1.0" encoding="iso-8859-1"?>
<!-- Generator: Adobe Illustrator 19.0.0, SVG Export Plug-In . SVG Version: 6.00 Build 0)  -->
<svg version="1.1" id="Capa_1" xmlns="http://www.w3.org/2000/svg" xmlns:xlink="http://www.w3.org/1999/xlink" x="0px" y="0px"
	 viewBox="0 0 512 512" style="enable-background:new 0 0 512 512;" xml:space="preserve">
<path style="fill:#303C42;" d="M501.333,106.667H398.108c0.453-9.73,0.005-19.512-2.379-29.063
	c-8.438-33.729-33.146-60.417-66.146-71.438l-2.938-0.979C316.333,1.75,305.563,0,292.938,0c-33.333,0-64.479,16.396-83.313,43.792
	L27.186,305.402c-2.779,3.556-5.35,7.268-7.747,11.111l-1.314,1.883l0.118,0.082C6.74,337.673,0,360.038,0,384
	c0,70.583,57.417,128,128,128h117.333h21.333c5.896,0,10.667-4.771,10.667-10.667s-4.771-10.667-10.667-10.667h-2.311L290.43,448
	h18.904c5.896,0,10.667-4.771,10.667-10.667s-4.771-10.667-10.667-10.667h-5.867L329.54,384H352c5.896,0,10.667-4.771,10.667-10.667
	s-4.771-10.667-10.667-10.667h-9.422L368.651,320H384c5.896,0,10.667-4.771,10.667-10.667s-4.771-10.667-10.667-10.667h-2.311
	L407.763,256h18.904c5.896,0,10.667-4.771,10.667-10.667c0-5.896-4.771-10.667-10.667-10.667h-5.867L446.874,192h11.793
	c5.896,0,10.667-4.771,10.667-10.667c0-5.503-4.211-9.866-9.559-10.444L485.984,128h15.349c5.896,0,10.667-4.771,10.667-10.667
	S507.229,106.667,501.333,106.667z"/>
<path style="fill:#775CA7;" d="M227.167,55.938c14.896-21.667,39.479-34.604,67.479-34.604c8.625,0,17.104,1.375,25.25,4.104
	l2.938,0.979c26.042,8.688,45.542,29.75,52.188,56.354c5.208,20.813,1.708,43.229-9.583,61.417L233.771,353.805
	C229.181,299.194,183.777,256,128,256c-16.435,0-32.102,3.224-46.549,8.891L227.167,55.938z"/>
<path style="opacity:0.2;fill:#FFFFFF;enable-background:new    ;" d="M231.049,77.271c14.896-21.667,39.479-34.604,67.479-34.604
	c8.625,0,21.322,3.048,28.188,5.083c24.589,7.286,42.837,26.983,50.57,51.225c-0.207-5.443-0.932-10.875-2.266-16.204
	c-6.646-26.604-26.146-47.667-52.188-56.354l-2.938-0.979c-8.146-2.729-16.625-4.104-25.25-4.104c-28,0-52.583,12.938-67.479,34.604
	L81.451,264.891c7.486-2.936,15.323-5.139,23.401-6.655L231.049,77.271z"/>
<path style="fill:#775CA7;" d="M239.354,490.667H128c-58.813,0-106.667-47.854-106.667-106.667c0-21.072,6.336-40.613,16.926-57.174
	l3.717-5.329c19.413-26.634,50.62-44.163,86.023-44.163c47.063,0,85.333,38.271,85.333,85.333S175.063,448,128,448
	c-35.292,0-64-28.708-64-64s28.708-64,64-64c2.875,0,5.667,0.292,8.375,0.833l-14.292,20.917
	c-20.729,2.875-36.75,20.729-36.75,42.25c0,23.521,19.146,42.667,42.667,42.667c35.292,0,64-28.708,64-64s-28.708-64-64-64
	c-47.063,0-85.333,38.271-85.333,85.333S80.938,469.333,128,469.333c41.405,0,76.98-23.962,94.648-58.525l0.372,0.233
	l160.521-255.563c5.285-8.527,8.743-17.887,11.281-27.479h66.156L239.354,490.667z"/>
<path style="opacity:0.1;fill:#010101;enable-background:new    ;" d="M239.354,490.667H128
	c-58.813,0-106.667-47.854-106.667-106.667c0-21.072,6.336-40.613,16.926-57.174l3.717-5.329
	c19.413-26.634,50.62-44.163,86.023-44.163c47.063,0,85.333,38.271,85.333,85.333S175.063,448,128,448c-35.292,0-64-28.708-64-64
	s28.708-64,64-64c2.875,0,5.667,0.292,8.375,0.833l-14.292,20.917c-20.729,2.875-36.75,20.729-36.75,42.25
	c0,23.521,19.146,42.667,42.667,42.667c35.292,0,64-28.708,64-64s-28.708-64-64-64c-47.063,0-85.333,38.271-85.333,85.333
	S80.938,469.333,128,469.333c41.405,0,76.98-23.962,94.648-58.525l0.372,0.233l160.521-255.563
	c5.285-8.527,8.743-17.887,11.281-27.479h66.156L239.354,490.667z"/>
<linearGradient id="SVGID_1_" gradientUnits="userSpaceOnUse" x1="-39.0928" y1="637.1444" x2="-30.4581" y2="628.5097" gradientTransform="matrix(21.3333 0 0 -21.3333 996.3334 13791.667)">
	<stop  offset="0" style="stop-color:#010101;stop-opacity:0.1"/>
	<stop  offset="1" style="stop-color:#010101;stop-opacity:0"/>
</linearGradient>
<path style="fill:url(#SVGID_1_);" d="M239.354,490.667H128c-58.813,0-106.667-47.854-106.667-106.667
	c0-21.072,6.336-40.613,16.926-57.174l3.717-5.329c19.413-26.634,50.62-44.163,86.023-44.163c47.063,0,85.333,38.271,85.333,85.333
	S175.063,448,128,448c-35.292,0-64-28.708-64-64s28.708-64,64-64c2.875,0,5.667,0.292,8.375,0.833l-14.292,20.917
	c-20.729,2.875-36.75,20.729-36.75,42.25c0,23.521,19.146,42.667,42.667,42.667c35.292,0,64-28.708,64-64s-28.708-64-64-64
	c-47.063,0-85.333,38.271-85.333,85.333S80.938,469.333,128,469.333c41.405,0,76.98-23.962,94.648-58.525l0.372,0.233
	l160.521-255.563c5.285-8.527,8.743-17.887,11.281-27.479h66.156L239.354,490.667z"/>
<path style="fill:#775CA7;" d="M136.813,358.021l18.938-27.75c9.125,7.833,14.917,19.458,14.917,32.396
	c0,23.521-19.146,42.667-42.667,42.667c-11.771,0-21.333-9.563-21.333-21.333c0-11.771,9.563-21.333,21.333-21.333
	C131.521,362.667,134.813,360.917,136.813,358.021z"/>
<path style="opacity:0.2;fill:#010101;enable-background:new    ;" d="M136.813,358.021l18.938-27.75
	c9.125,7.833,14.917,19.458,14.917,32.396c0,23.521-19.146,42.667-42.667,42.667c-11.771,0-21.333-9.563-21.333-21.333
	c0-11.771,9.563-21.333,21.333-21.333C131.521,362.667,134.813,360.917,136.813,358.021z"/>
<linearGradient id="SVGID_2_" gradientUnits="userSpaceOnUse" x1="-43.1606" y1="637.3963" x2="-27.6888" y2="630.1815" gradientTransform="matrix(21.3333 0 0 -21.3333 996.3334 13791.667)">
	<stop  offset="0" style="stop-color:#FFFFFF;stop-opacity:0.2"/>
	<stop  offset="1" style="stop-color:#FFFFFF;stop-opacity:0"/>
</linearGradient>
<path style="fill:url(#SVGID_2_);" d="M501.333,106.667H398.108c0.453-9.73,0.005-19.512-2.379-29.063
	c-8.438-33.729-33.146-60.417-66.146-71.438l-2.938-0.979C316.333,1.75,305.563,0,292.938,0c-33.333,0-64.479,16.396-83.313,43.792
	L27.186,305.402c-2.779,3.556-5.35,7.268-7.747,11.111l-1.314,1.883l0.118,0.082C6.74,337.673,0,360.038,0,384
	c0,70.583,57.417,128,128,128h117.333h21.333c5.896,0,10.667-4.771,10.667-10.667s-4.771-10.667-10.667-10.667h-2.311L290.43,448
	h18.904c5.896,0,10.667-4.771,10.667-10.667s-4.771-10.667-10.667-10.667h-5.867L329.54,384H352c5.896,0,10.667-4.771,10.667-10.667
	s-4.771-10.667-10.667-10.667h-9.422L368.651,320H384c5.896,0,10.667-4.771,10.667-10.667s-4.771-10.667-10.667-10.667h-2.311
	L407.763,256h18.904c5.896,0,10.667-4.771,10.667-10.667c0-5.896-4.771-10.667-10.667-10.667h-5.867L446.874,192h11.793
	c5.896,0,10.667-4.771,10.667-10.667c0-5.503-4.211-9.866-9.559-10.444L485.984,128h15.349c5.896,0,10.667-4.771,10.667-10.667
	S507.229,106.667,501.333,106.667z"/>
<g>
</g>
<g>
</g>
<g>
</g>
<g>
</g>
<g>
</g>
<g>
</g>
<g>
</g>
<g>
</g>
<g>
</g>
<g>
</g>
<g>
</g>
<g>
</g>
<g>
</g>
<g>
</g>
<g>
</g>
</svg>
