<svg height="496pt" viewBox="0 0 496 496" width="496pt" xmlns="http://www.w3.org/2000/svg"><g fill="#f0bc5e"><path d="m56 415.984375h160v40h-160zm0 0"/><path d="m464 95.984375c0 35.347656-28.652344 64-64 64s-64-28.652344-64-64c0-35.34375 28.652344-64 64-64s64 28.65625 64 64zm0 0"/><path d="m432 397.730469v-43.488281l-20.070312-6.785157c-2.175782-7.648437-5.234376-15-9.105469-21.953125l9.398437-19.007812-30.742187-30.742188-19.007813 9.398438c-6.953125-3.863282-14.304687-6.917969-21.953125-9.101563l-6.777343-20.066406h-43.484376l-6.785156 20.074219c-7.648437 2.175781-15 5.230468-21.953125 9.101562l-19.007812-9.398437-30.742188 30.742187 9.398438 19.011719c-2.328125 4.191406-4.375 8.535156-6.089844 12.972656l.136719.441407 22.519531 7.503906c5.320313 1.777344 9.992187 4.703125 13.929687 8.359375 8.761719-24.910157 32.433594-42.808594 60.335938-42.808594 35.34375 0 64 28.65625 64 64s-28.65625 64-64 64c-19.144531 0-36.273438-8.445313-48-21.765625v37.765625h-11.753906l2.257812 7.144531c2.007813 1.015625 17.886719 8.96875 28.910156 12.640625l6.84375 20.214844h43.484376l6.785156-20.070313c7.648437-2.175781 15-5.230468 21.953125-9.105468l19.007812 9.402344 30.742188-30.746094-9.398438-19.007813c3.871094-6.960937 6.921875-14.3125 9.105469-21.953125zm0 0"/></g><path d="m312 303.984375c-26.96875 0-51.382812 15.136719-63.6875 38.511719-2.542969-1.429688-5.191406-2.703125-8.039062-3.652344l-64.273438-21.425781v-9.609375c10.390625-6.964844 18.808594-16.597656 24.425781-27.871094 17.445313-.230469 31.574219-14.457031 31.574219-31.953125v-41.46875c9.289062-3.3125 16-12.113281 16-22.53125 0-10.902344-7.351562-20.023437-17.320312-22.933594-6.464844-37.882812-36.925782-67.199219-75.253907-72.175781-4.066406-5.371094-10.441406-8.890625-17.671875-8.890625h-3.507812c-7.230469 0-13.605469 3.519531-17.671875 8.890625-38.300781 4.976562-68.78125 34.3125-75.253907 72.175781-9.96875 2.910157-17.320312 12.03125-17.320312 22.933594 0 10.417969 6.710938 19.21875 16 22.53125v41.46875c0 17.3125 13.839844 31.371094 31.550781 31.90625 5.617188 11.296875 14.042969 20.941406 24.449219 27.925781v9.609375l-64.273438 21.425781c-18.972656 6.316407-31.726562 24.007813-31.726562 44.015626v81.117187h272v-28.253906c11.742188 7.855469 25.609375 12.253906 40 12.253906 39.703125 0 72-32.300781 72-72 0-39.695313-32.296875-72-72-72zm-120 35.632813v21.738281c0 15.582031 5.65625 30.300781 16 41.8125v44.816406h-144v-44.816406c10.34375-11.503907 16-26.222657 16-41.8125v-21.738281l16.617188-5.535157c2.957031 19.152344 19.414062 33.902344 39.382812 33.902344s36.425781-14.75 39.382812-33.902344zm24-131.632813v12.449219c-2.480469-1.449219-5.152344-2.574219-8-3.3125v-9.136719zm-9.488281 54.585937c.976562-4.710937 1.488281-9.59375 1.488281-14.585937v-13.773437c4.761719 2.773437 8 7.878906 8 13.773437 0 6.503906-3.910156 12.082031-9.488281 14.585937zm-72.265625-166.585937h3.507812c3.4375 0 6.246094 2.800781 6.246094 6.25 0 .511719-.0625 1.03125-.175781 1.511719l-6.0625 24.238281h-3.523438l-6.054687-24.222656c-.121094-.496094-.183594-1.015625-.183594-1.527344 0-3.449219 2.808594-6.25 6.246094-6.25zm-56.820313 28.746094 11.414063 22.832031 14.3125-7.160156-12.847656-25.6875c6.71875-4.128906 14.175781-7.167969 22.128906-8.914063.09375.609375.070312 1.234375.222656 1.832031l9.105469 36.351563h28.484375l9.105468-36.367187c.144532-.589844.121094-1.207032.222657-1.816407 7.960937 1.753907 15.410156 4.785157 22.128906 8.914063l-12.847656 25.695312 14.3125 7.160156 11.425781-22.839843c9.597656 9.449219 16.476562 21.617187 19.566406 35.261719h-156.3125c3.097656-13.644532 9.976563-25.804688 19.578125-35.261719zm-29.425781 51.253906h176c4.414062 0 8 3.59375 8 8 0 4.410156-3.585938 8-8 8h-176c-4.414062 0-8-3.589844-8-8 0-4.40625 3.585938-8 8-8zm16 41.136719c-2.847656.746094-5.519531 1.863281-8 3.3125v-12.449219h8zm-8 30.863281c0-5.894531 3.238281-11 8-13.773437v13.773437c0 4.992187.511719 9.875 1.488281 14.585937-5.578125-2.503906-9.488281-8.082031-9.488281-14.585937zm24 0v-40h112v40c0 30.882813-25.128906 56-56 56s-56-25.117187-56-56zm56 72c8.425781 0 16.480469-1.527344 24-4.199219v12.199219c0 13.234375-10.769531 24-24 24s-24-10.765625-24-24v-12.199219c7.519531 2.671875 15.574219 4.199219 24 4.199219zm-120 62.882813c0-13.105469 8.351562-24.699219 20.792969-28.839844l27.207031-9.074219v16.402344c0 12.453125-4.847656 24.167969-13.65625 32.972656l-2.34375 2.347656v51.308594h-32zm240 65.117187h-32v-51.308594l-2.34375-2.347656c-8.808594-8.804687-13.65625-20.519531-13.65625-32.972656v-16.402344l27.207031 9.074219c12.441407 4.140625 20.792969 15.734375 20.792969 28.839844zm56-16c-15.105469 0-29.488281-6.175781-40-16.917969v-32.199218c0-11.203126-4.105469-21.585938-10.945312-29.746094 8.960937-19.941406 28.792968-33.136719 50.945312-33.136719 30.871094 0 56 25.121094 56 56 0 30.882813-25.128906 56-56 56zm0 0"/><path d="m496 95.984375c0-27.285156-11.671875-53.367187-32.015625-71.574219-20.335937-18.183594-47.695313-26.863281-75.015625-23.808594-42.113281 4.703126-77.351562 38.425782-83.792969 80.160157-5.488281 35.496093 8.871094 70.792969 37.464844 92.113281.503906.375.917969.894531 1.390625 1.320312-4.886719 4.398438-8.03125 10.710938-8.03125 17.789063 0 10.417969 6.710938 19.21875 16 22.53125v1.46875c0 26.472656 21.527344 48 48 48s48-21.527344 48-48v-1.46875c9.289062-3.3125 16-12.113281 16-22.53125 0-7.09375-3.160156-13.414063-8.070312-17.816406.367187-.316407.6875-.734375 1.078124-1.023438 24.417969-18.039062 38.992188-46.886719 38.992188-77.160156zm-96 152c-17.648438 0-32-14.351563-32-32h64c0 17.648437-14.351562 32-32 32zm40-48h-80c-4.414062 0-8-3.589844-8-8 0-4.40625 3.585938-8 8-8h80c4.414062 0 8 3.59375 8 8 0 4.410156-3.585938 8-8 8zm-64-112h-8c-4.414062 0-8-3.589844-8-8 0-4.40625 3.585938-8 8-8s8 3.59375 8 8zm32 80h-16v-64h16zm32 0h-16v-64h8c13.230469 0 24-10.765625 24-24 0-13.230469-10.769531-24-24-24s-24 10.769531-24 24v8h-16v-8c0-13.230469-10.769531-24-24-24s-24 10.769531-24 24c0 13.234375 10.769531 24 24 24h8v64h-16c-.070312 0-.144531.027344-.214844.027344-2.234375-3.027344-4.679687-5.785157-7.585937-7.953125-23.832031-17.785156-35.792969-47.226563-31.207031-76.847656 5.359374-34.730469 34.695312-62.785157 69.761718-66.707032 23.117188-2.582031 45.367188 4.457032 62.558594 19.832032 16.960938 15.167968 26.6875 36.914062 26.6875 59.648437 0 25.59375-11.839844 49.027344-32.496094 64.289063-2.808594 2.074218-5.191406 4.769531-7.367187 7.726562-.046875 0-.089844-.015625-.136719-.015625zm-16-80v-8c0-4.40625 3.585938-8 8-8s8 3.59375 8 8c0 4.410156-3.585938 8-8 8zm0 0"/><path d="m152 383.984375h32v16h-32zm0 0"/></svg>