<svg xmlns="http://www.w3.org/2000/svg" height="596pt" version="1.1" viewBox="-59 1 596 596.718" width="596pt">
<g id="surface1">
<path d="M 468.035156 597 L 468.035156 353.414062 C 468.046875 331.097656 458.683594 309.792969 442.226562 294.710938 L 348.636719 208.949219 L 298.886719 208.949219 L 298.886719 597 " style=" stroke:none;fill-rule:nonzero;fill:rgb(100%,71.764706%,50.980392%);fill-opacity:1;" />
<path d="M 378.488281 236.3125 L 348.636719 208.949219 L 298.886719 208.949219 L 298.886719 378.097656 L 378.488281 378.097656 Z M 378.488281 236.3125 " style=" stroke:none;fill-rule:nonzero;fill:rgb(100%,68.235294%,45.098039%);fill-opacity:1;" />
<path d="M 50.136719 9.949219 L 308.835938 9.949219 C 330.816406 9.949219 348.636719 27.769531 348.636719 49.75 L 348.636719 547.25 C 348.636719 569.230469 330.816406 587.050781 308.835938 587.050781 L 50.136719 587.050781 C 28.15625 587.050781 10.335938 569.230469 10.335938 547.25 L 10.335938 49.75 C 10.335938 27.769531 28.15625 9.949219 50.136719 9.949219 Z M 50.136719 9.949219 " style=" stroke:none;fill-rule:nonzero;fill:rgb(26.27451%,59.607843%,81.960784%);fill-opacity:1;" />
<path d="M 288.9375 49.75 L 288.9375 69.648438 L 348.636719 69.648438 L 348.636719 49.75 C 348.636719 27.769531 330.816406 9.949219 308.835938 9.949219 L 249.136719 9.949219 C 271.117188 9.949219 288.9375 27.769531 288.9375 49.75 Z M 288.9375 49.75 " style=" stroke:none;fill-rule:nonzero;fill:rgb(24.313725%,54.901961%,78.039216%);fill-opacity:1;" />
<path d="M 348.636719 69.648438 L 10.335938 69.648438 L 10.335938 507.449219 L 348.636719 507.449219 Z M 348.636719 69.648438 " style=" stroke:none;fill-rule:nonzero;fill:rgb(52.941176%,80.784314%,85.098039%);fill-opacity:1;" />
<path d="M 96.265625 507.449219 L 348.636719 507.449219 L 348.636719 69.648438 L 295.265625 69.648438 Z M 96.265625 507.449219 " style=" stroke:none;fill-rule:nonzero;fill:rgb(44.313725%,76.862745%,81.960784%);fill-opacity:1;" />
<path d="M 60.085938 109.449219 L 99.886719 109.449219 C 105.378906 109.449219 109.835938 113.90625 109.835938 119.398438 L 109.835938 159.199219 C 109.835938 164.691406 105.378906 169.148438 99.886719 169.148438 L 60.085938 169.148438 C 54.59375 169.148438 50.136719 164.691406 50.136719 159.199219 L 50.136719 119.398438 C 50.136719 113.90625 54.59375 109.449219 60.085938 109.449219 Z M 60.085938 109.449219 " style=" stroke:none;fill-rule:nonzero;fill:rgb(89.019608%,29.411765%,52.941176%);fill-opacity:1;" />
<path d="M 159.585938 109.449219 L 199.386719 109.449219 C 204.878906 109.449219 209.335938 113.90625 209.335938 119.398438 L 209.335938 159.199219 C 209.335938 164.691406 204.878906 169.148438 199.386719 169.148438 L 159.585938 169.148438 C 154.09375 169.148438 149.636719 164.691406 149.636719 159.199219 L 149.636719 119.398438 C 149.636719 113.90625 154.09375 109.449219 159.585938 109.449219 Z M 159.585938 109.449219 " style=" stroke:none;fill-rule:nonzero;fill:rgb(74.901961%,23.921569%,45.882353%);fill-opacity:1;" />
<path d="M 259.085938 109.449219 L 298.886719 109.449219 C 304.378906 109.449219 308.835938 113.90625 308.835938 119.398438 L 308.835938 159.199219 C 308.835938 164.691406 304.378906 169.148438 298.886719 169.148438 L 259.085938 169.148438 C 253.59375 169.148438 249.136719 164.691406 249.136719 159.199219 L 249.136719 119.398438 C 249.136719 113.90625 253.59375 109.449219 259.085938 109.449219 Z M 259.085938 109.449219 " style=" stroke:none;fill-rule:nonzero;fill:rgb(89.019608%,29.411765%,52.941176%);fill-opacity:1;" />
<path d="M 60.085938 208.949219 L 99.886719 208.949219 C 105.378906 208.949219 109.835938 213.40625 109.835938 218.898438 L 109.835938 258.699219 C 109.835938 264.191406 105.378906 268.648438 99.886719 268.648438 L 60.085938 268.648438 C 54.59375 268.648438 50.136719 264.191406 50.136719 258.699219 L 50.136719 218.898438 C 50.136719 213.40625 54.59375 208.949219 60.085938 208.949219 Z M 60.085938 208.949219 " style=" stroke:none;fill-rule:nonzero;fill:rgb(89.019608%,29.411765%,52.941176%);fill-opacity:1;" />
<path d="M 60.085938 308.449219 L 99.886719 308.449219 C 105.378906 308.449219 109.835938 312.90625 109.835938 318.398438 L 109.835938 358.199219 C 109.835938 363.691406 105.378906 368.148438 99.886719 368.148438 L 60.085938 368.148438 C 54.59375 368.148438 50.136719 363.691406 50.136719 358.199219 L 50.136719 318.398438 C 50.136719 312.90625 54.59375 308.449219 60.085938 308.449219 Z M 60.085938 308.449219 " style=" stroke:none;fill-rule:nonzero;fill:rgb(74.901961%,23.921569%,45.882353%);fill-opacity:1;" />
<path d="M 159.585938 208.949219 L 199.386719 208.949219 C 204.878906 208.949219 209.335938 213.40625 209.335938 218.898438 L 209.335938 258.699219 C 209.335938 264.191406 204.878906 268.648438 199.386719 268.648438 L 159.585938 268.648438 C 154.09375 268.648438 149.636719 264.191406 149.636719 258.699219 L 149.636719 218.898438 C 149.636719 213.40625 154.09375 208.949219 159.585938 208.949219 Z M 159.585938 208.949219 " style=" stroke:none;fill-rule:nonzero;fill:rgb(89.019608%,29.411765%,52.941176%);fill-opacity:1;" />
<path d="M 259.085938 208.949219 L 298.886719 208.949219 C 304.378906 208.949219 308.835938 213.40625 308.835938 218.898438 L 308.835938 258.699219 C 308.835938 264.191406 304.378906 268.648438 298.886719 268.648438 L 259.085938 268.648438 C 253.59375 268.648438 249.136719 264.191406 249.136719 258.699219 L 249.136719 218.898438 C 249.136719 213.40625 253.59375 208.949219 259.085938 208.949219 Z M 259.085938 208.949219 " style=" stroke:none;fill-rule:nonzero;fill:rgb(89.019608%,29.411765%,52.941176%);fill-opacity:1;" />
<path d="M 159.585938 308.449219 L 199.386719 308.449219 C 204.878906 308.449219 209.335938 312.90625 209.335938 318.398438 L 209.335938 358.199219 C 209.335938 363.691406 204.878906 368.148438 199.386719 368.148438 L 159.585938 368.148438 C 154.09375 368.148438 149.636719 363.691406 149.636719 358.199219 L 149.636719 318.398438 C 149.636719 312.90625 154.09375 308.449219 159.585938 308.449219 Z M 159.585938 308.449219 " style=" stroke:none;fill-rule:nonzero;fill:rgb(89.019608%,29.411765%,52.941176%);fill-opacity:1;" />
<path d="M 60.085938 407.949219 L 99.886719 407.949219 C 105.378906 407.949219 109.835938 412.40625 109.835938 417.898438 L 109.835938 457.699219 C 109.835938 463.191406 105.378906 467.648438 99.886719 467.648438 L 60.085938 467.648438 C 54.59375 467.648438 50.136719 463.191406 50.136719 457.699219 L 50.136719 417.898438 C 50.136719 412.40625 54.59375 407.949219 60.085938 407.949219 Z M 60.085938 407.949219 " style=" stroke:none;fill-rule:nonzero;fill:rgb(89.019608%,29.411765%,52.941176%);fill-opacity:1;" />
<path d="M 159.585938 407.949219 L 199.386719 407.949219 C 204.878906 407.949219 209.335938 412.40625 209.335938 417.898438 L 209.335938 457.699219 C 209.335938 463.191406 204.878906 467.648438 199.386719 467.648438 L 159.585938 467.648438 C 154.09375 467.648438 149.636719 463.191406 149.636719 457.699219 L 149.636719 417.898438 C 149.636719 412.40625 154.09375 407.949219 159.585938 407.949219 Z M 159.585938 407.949219 " style=" stroke:none;fill-rule:nonzero;fill:rgb(74.901961%,23.921569%,45.882353%);fill-opacity:1;" />
<path d="M 169.535156 537.300781 L 189.4375 537.300781 L 189.4375 557.199219 L 169.535156 557.199219 Z M 169.535156 537.300781 " style=" stroke:none;fill-rule:nonzero;fill:rgb(19.607843%,41.176471%,63.137255%);fill-opacity:1;" />
<path d="M 10.335938 69.648438 L 348.636719 69.648438 L 348.636719 89.550781 L 10.335938 89.550781 Z M 10.335938 69.648438 " style=" stroke:none;fill-rule:nonzero;fill:rgb(44.313725%,76.862745%,81.960784%);fill-opacity:1;" />
<path d="M 10.335938 487.550781 L 348.636719 487.550781 L 348.636719 507.449219 L 10.335938 507.449219 Z M 10.335938 487.550781 " style=" stroke:none;fill-rule:nonzero;fill:rgb(44.313725%,76.862745%,81.960784%);fill-opacity:1;" />
<path d="M 288.9375 597 L 288.9375 579.199219 C 288.9375 532.414062 302.785156 486.675781 328.734375 447.75 L 259.085938 378.101562 C 242.601562 361.605469 242.601562 334.867188 259.097656 318.378906 C 260.070312 317.40625 261.097656 316.480469 262.160156 315.605469 C 279.671875 301.972656 304.636719 303.734375 320.070312 319.683594 L 468.035156 467.648438 L 468.035156 597 Z M 288.9375 597 " style=" stroke:none;fill-rule:nonzero;fill:rgb(100%,71.764706%,50.980392%);fill-opacity:1;" />
<path d="M 418.285156 427.851562 C 415.648438 427.851562 413.113281 426.804688 411.253906 424.933594 L 341.601562 355.285156 C 337.78125 351.335938 337.890625 345.035156 341.839844 341.214844 C 345.703125 337.492188 351.8125 337.492188 355.671875 341.214844 L 425.320312 410.863281 C 429.203125 414.757812 429.203125 421.054688 425.320312 424.933594 C 423.449219 426.804688 420.925781 427.851562 418.285156 427.851562 Z M 418.285156 427.851562 " style=" stroke:none;fill-rule:nonzero;fill:rgb(94.901961%,64.313725%,43.529412%);fill-opacity:1;" />
<path d="M 387.917969 231.464844 L 374.507812 246.132812 L 435.53125 302.070312 C 449.898438 315.285156 458.078125 333.902344 458.085938 353.421875 L 458.085938 597 L 477.988281 597 L 477.988281 353.425781 C 477.957031 328.332031 467.429688 304.390625 448.953125 287.40625 Z M 387.917969 231.464844 " style=" stroke:none;fill-rule:nonzero;fill:rgb(0%,0%,0%);fill-opacity:1;" />
<path d="M 308.835938 0 L 50.136719 0 C 22.675781 0.03125 0.417969 22.289062 0.386719 49.75 L 0.386719 547.25 C 0.417969 574.710938 22.675781 596.96875 50.136719 597 L 298.886719 597 L 298.886719 579.199219 C 298.835938 534.375 312.109375 490.542969 337.015625 453.269531 C 339.652344 449.320312 339.125 444.066406 335.769531 440.714844 L 266.121094 371.0625 C 253.523438 358.457031 253.535156 338.03125 266.140625 325.433594 C 266.886719 324.6875 267.671875 323.980469 268.488281 323.304688 C 282.039062 312.9375 301.222656 314.417969 313.035156 326.738281 L 411.25 424.953125 L 425.320312 410.882812 L 358.585938 344.128906 L 358.585938 49.75 C 358.554688 22.289062 336.300781 0.03125 308.835938 0 Z M 338.6875 324.230469 L 327.105469 312.648438 C 308.011719 293.144531 277.316406 291.117188 255.824219 307.933594 C 233.554688 326.238281 230.351562 359.125 248.660156 381.382812 C 249.734375 382.6875 250.867188 383.941406 252.050781 385.132812 L 316.03125 449.113281 C 292.171875 487.558594 279.375 531.847656 279.054688 577.097656 L 50.136719 577.097656 C 33.648438 577.097656 20.285156 563.734375 20.285156 547.25 L 20.285156 517.398438 L 269.035156 517.398438 L 269.035156 497.496094 L 20.285156 497.496094 L 20.285156 79.597656 L 338.6875 79.597656 Z M 338.6875 59.699219 L 20.285156 59.699219 L 20.285156 49.75 C 20.285156 33.265625 33.648438 19.902344 50.136719 19.902344 L 308.835938 19.902344 C 325.324219 19.902344 338.6875 33.265625 338.6875 49.75 Z M 338.6875 59.699219 " style=" stroke:none;fill-rule:nonzero;fill:rgb(0%,0%,0%);fill-opacity:1;" />
<path d="M 60.085938 179.097656 L 99.886719 179.097656 C 110.882812 179.097656 119.789062 170.195312 119.789062 159.199219 L 119.789062 119.398438 C 119.789062 108.402344 110.882812 99.5 99.886719 99.5 L 60.085938 99.5 C 49.09375 99.5 40.1875 108.402344 40.1875 119.398438 L 40.1875 159.199219 C 40.1875 170.195312 49.09375 179.097656 60.085938 179.097656 Z M 60.085938 119.402344 L 99.886719 119.402344 L 99.886719 159.199219 L 60.085938 159.199219 Z M 60.085938 119.402344 " style=" stroke:none;fill-rule:nonzero;fill:rgb(0%,0%,0%);fill-opacity:1;" />
<path d="M 159.585938 179.097656 L 199.386719 179.097656 C 210.382812 179.097656 219.285156 170.195312 219.285156 159.199219 L 219.285156 119.398438 C 219.285156 108.402344 210.382812 99.5 199.386719 99.5 L 159.585938 99.5 C 148.589844 99.5 139.6875 108.402344 139.6875 119.398438 L 139.6875 159.199219 C 139.6875 170.195312 148.59375 179.097656 159.585938 179.097656 Z M 159.585938 119.402344 L 199.386719 119.402344 L 199.386719 159.199219 L 159.585938 159.199219 Z M 159.585938 119.402344 " style=" stroke:none;fill-rule:nonzero;fill:rgb(0%,0%,0%);fill-opacity:1;" />
<path d="M 259.085938 179.097656 L 298.886719 179.097656 C 309.882812 179.097656 318.785156 170.195312 318.785156 159.199219 L 318.785156 119.398438 C 318.785156 108.402344 309.882812 99.5 298.886719 99.5 L 259.085938 99.5 C 248.089844 99.5 239.1875 108.402344 239.1875 119.398438 L 239.1875 159.199219 C 239.1875 170.195312 248.09375 179.097656 259.085938 179.097656 Z M 259.085938 119.402344 L 298.886719 119.402344 L 298.886719 159.199219 L 259.085938 159.199219 Z M 259.085938 119.402344 " style=" stroke:none;fill-rule:nonzero;fill:rgb(0%,0%,0%);fill-opacity:1;" />
<path d="M 60.085938 278.597656 L 99.886719 278.597656 C 110.882812 278.597656 119.789062 269.695312 119.789062 258.699219 L 119.789062 218.898438 C 119.789062 207.902344 110.882812 199 99.886719 199 L 60.085938 199 C 49.09375 199 40.1875 207.902344 40.1875 218.898438 L 40.1875 258.699219 C 40.1875 269.695312 49.09375 278.597656 60.085938 278.597656 Z M 60.085938 218.898438 L 99.886719 218.898438 L 99.886719 258.699219 L 60.085938 258.699219 Z M 60.085938 218.898438 " style=" stroke:none;fill-rule:nonzero;fill:rgb(0%,0%,0%);fill-opacity:1;" />
<path d="M 60.085938 378.097656 L 99.886719 378.097656 C 110.882812 378.097656 119.789062 369.195312 119.789062 358.199219 L 119.789062 318.398438 C 119.789062 307.402344 110.882812 298.5 99.886719 298.5 L 60.085938 298.5 C 49.09375 298.5 40.1875 307.402344 40.1875 318.398438 L 40.1875 358.199219 C 40.1875 369.195312 49.09375 378.097656 60.085938 378.097656 Z M 60.085938 318.398438 L 99.886719 318.398438 L 99.886719 358.199219 L 60.085938 358.199219 Z M 60.085938 318.398438 " style=" stroke:none;fill-rule:nonzero;fill:rgb(0%,0%,0%);fill-opacity:1;" />
<path d="M 159.585938 278.597656 L 199.386719 278.597656 C 210.382812 278.597656 219.285156 269.695312 219.285156 258.699219 L 219.285156 218.898438 C 219.285156 207.902344 210.382812 199 199.386719 199 L 159.585938 199 C 148.589844 199 139.6875 207.902344 139.6875 218.898438 L 139.6875 258.699219 C 139.6875 269.695312 148.59375 278.597656 159.585938 278.597656 Z M 159.585938 218.898438 L 199.386719 218.898438 L 199.386719 258.699219 L 159.585938 258.699219 Z M 159.585938 218.898438 " style=" stroke:none;fill-rule:nonzero;fill:rgb(0%,0%,0%);fill-opacity:1;" />
<path d="M 259.085938 278.597656 L 298.886719 278.597656 C 309.882812 278.597656 318.785156 269.695312 318.785156 258.699219 L 318.785156 218.898438 C 318.785156 207.902344 309.882812 199 298.886719 199 L 259.085938 199 C 248.089844 199 239.1875 207.902344 239.1875 218.898438 L 239.1875 258.699219 C 239.1875 269.695312 248.09375 278.597656 259.085938 278.597656 Z M 259.085938 218.898438 L 298.886719 218.898438 L 298.886719 258.699219 L 259.085938 258.699219 Z M 259.085938 218.898438 " style=" stroke:none;fill-rule:nonzero;fill:rgb(0%,0%,0%);fill-opacity:1;" />
<path d="M 159.585938 378.097656 L 199.386719 378.097656 C 210.382812 378.097656 219.285156 369.195312 219.285156 358.199219 L 219.285156 318.398438 C 219.285156 307.402344 210.382812 298.5 199.386719 298.5 L 159.585938 298.5 C 148.589844 298.5 139.6875 307.402344 139.6875 318.398438 L 139.6875 358.199219 C 139.6875 369.195312 148.59375 378.097656 159.585938 378.097656 Z M 159.585938 318.398438 L 199.386719 318.398438 L 199.386719 358.199219 L 159.585938 358.199219 Z M 159.585938 318.398438 " style=" stroke:none;fill-rule:nonzero;fill:rgb(0%,0%,0%);fill-opacity:1;" />
<path d="M 60.085938 477.597656 L 99.886719 477.597656 C 110.882812 477.597656 119.789062 468.695312 119.789062 457.699219 L 119.789062 417.898438 C 119.789062 406.902344 110.882812 398 99.886719 398 L 60.085938 398 C 49.09375 398 40.1875 406.902344 40.1875 417.898438 L 40.1875 457.699219 C 40.1875 468.695312 49.09375 477.597656 60.085938 477.597656 Z M 60.085938 417.898438 L 99.886719 417.898438 L 99.886719 457.699219 L 60.085938 457.699219 Z M 60.085938 417.898438 " style=" stroke:none;fill-rule:nonzero;fill:rgb(0%,0%,0%);fill-opacity:1;" />
<path d="M 159.585938 477.597656 L 199.386719 477.597656 C 210.382812 477.597656 219.285156 468.695312 219.285156 457.699219 L 219.285156 417.898438 C 219.285156 406.902344 210.382812 398 199.386719 398 L 159.585938 398 C 148.589844 398 139.6875 406.902344 139.6875 417.898438 L 139.6875 457.699219 C 139.6875 468.695312 148.59375 477.597656 159.585938 477.597656 Z M 159.585938 417.898438 L 199.386719 417.898438 L 199.386719 457.699219 L 159.585938 457.699219 Z M 159.585938 417.898438 " style=" stroke:none;fill-rule:nonzero;fill:rgb(0%,0%,0%);fill-opacity:1;" />
<path d="M 169.535156 537.300781 L 189.4375 537.300781 L 189.4375 557.199219 L 169.535156 557.199219 Z M 169.535156 537.300781 " style=" stroke:none;fill-rule:nonzero;fill:rgb(0%,0%,0%);fill-opacity:1;" />
</g>
</svg>