<svg height="480pt" viewBox="0 0 480.00067 480" width="480pt" xmlns="http://www.w3.org/2000/svg"><path d="m454.878906 392h-189.757812l-17.121094 80h224zm0 0" fill="#e6e7e8"/><path d="m449.359375 366.320312c-.792969-3.6875-4.050781-6.320312-7.824219-6.320312h-163.070312c-3.773438 0-7.03125 2.632812-7.824219 6.320312l-5.519531 25.679688h189.757812zm0 0" fill="#ffb655"/><path d="m384 328h-48v32h48zm0 0" fill="#ffa733"/><path d="m344 168h32v160h-32zm0 0" fill="#ff7956"/><path d="m376 24c0-8.835938-7.164062-16-16-16s-16 7.164062-16 16v16h32zm0 0" fill="#acabb1"/><path d="m344 40h32v32h-32zm0 0" fill="#ff7956"/><path d="m344 72h32v32h-32zm0 0" fill="#acabb1"/><path d="m344 104h32v32h-32zm0 0" fill="#ff7956"/><path d="m344 136h32v32h-32zm0 0" fill="#acabb1"/><path d="m8 280h224v-32h-224zm0 0" fill="#ffa733"/><path d="m216 280v176c-.027344 8.824219-7.175781 15.972656-16 16h-160c-8.824219-.027344-15.972656-7.175781-16-16v-176zm0 0" fill="#ffb655"/><path d="m96 408h48c8.835938 0 16-7.164062 16-16s-7.164062-16-16-16h-48c-8.835938 0-16 7.164062-16 16s7.164062 16 16 16zm0 0" fill="#898890"/><path d="m200 168c0 8.835938-7.164062 16-16 16s-16-7.164062-16-16 7.164062-16 16-16 16 7.164062 16 16zm0 0" fill="#78b9eb"/><path d="m24 280h192v16h-192zm0 0" fill="#ffa733"/><path d="m336 344h48v16h-48zm0 0" fill="#ff9811"/><path d="m344 312h32v16h-32zm0 0" fill="#ff6243"/><path d="m457.175781 364.640625c-1.609375-7.359375-8.109375-12.613281-15.640625-12.640625h-49.535156v-24c0-4.417969-3.582031-8-8-8v-296c0-13.253906-10.746094-24-24-24s-24 10.746094-24 24v296c-4.417969 0-8 3.582031-8 8v24h-49.535156c-7.53125.027344-14.03125 5.28125-15.640625 12.640625l-22.648438 105.6875c-.503906 2.363281.085938 4.824219 1.605469 6.703125 1.515625 1.878906 3.804688 2.96875 6.21875 2.96875h224c2.414062 0 4.703125-1.089844 6.21875-2.96875 1.519531-1.878906 2.109375-4.339844 1.605469-6.703125zm-105.175781-252.640625h16v16h-16zm0-32h16v16h-16zm16-16h-16v-16h16zm-16 80h16v16h-16zm0-120c0-4.417969 3.582031-8 8-8s8 3.582031 8 8v8h-16zm0 152h16v144h-16zm-8 160h32v16h-32zm97.535156 32 3.433594 16h-169.9375l3.433594-16zm6.464844 96v-16c0-4.417969-3.582031-8-8-8s-8 3.582031-8 8v16h-16v-16c0-4.417969-3.582031-8-8-8s-8 3.582031-8 8v16h-16v-16c0-4.417969-3.582031-8-8-8s-8 3.582031-8 8v16h-16v-16c0-4.417969-3.582031-8-8-8s-8 3.582031-8 8v16h-16v-16c0-4.417969-3.582031-8-8-8s-8 3.582031-8 8v16h-16v-16c0-4.417969-3.582031-8-8-8s-8 3.582031-8 8v16h-14.105469l13.714844-64h176.796875l13.714844 64zm0 0"/><path d="m232 240h-224c-4.417969 0-8 3.582031-8 8v32c0 4.417969 3.582031 8 8 8h8v168c0 13.253906 10.746094 24 24 24h160c13.253906 0 24-10.746094 24-24v-168h8c4.417969 0 8-3.582031 8-8v-32c0-4.417969-3.582031-8-8-8zm-24 216c0 4.417969-3.582031 8-8 8h-160c-4.417969 0-8-3.582031-8-8v-82.855469c10.335938 12.902344 24.816406 21.832031 40.984375 25.28125 2.875 10.347657 12.273437 17.527344 23.015625 17.574219h48c10.746094-.050781 20.148438-7.242188 23.015625-17.601562 16.164063-3.441407 30.644531-12.363282 40.984375-25.253907zm-120-64c0-4.417969 3.582031-8 8-8h48c4.417969 0 8 3.582031 8 8s-3.582031 8-8 8h-48c-4.417969 0-8-3.582031-8-8zm120-64c-.003906 25.578125-17.339844 47.902344-42.121094 54.242188-3.847656-8.648438-12.417968-14.222657-21.878906-14.242188h-48c-9.460938.019531-18.03125 5.59375-21.878906 14.242188-24.78125-6.339844-42.117188-28.664063-42.121094-54.242188v-40h176zm16-56h-208v-16h208zm0 0"/><path d="m184 192c13.253906 0 24-10.746094 24-24s-10.746094-24-24-24-24 10.746094-24 24 10.746094 24 24 24zm0-32c4.417969 0 8 3.582031 8 8s-3.582031 8-8 8-8-3.582031-8-8 3.582031-8 8-8zm0 0"/><path d="m112 184c4.417969 0 8-3.582031 8-8v-8c0-4.417969-3.582031-8-8-8s-8 3.582031-8 8v8c0 4.417969 3.582031 8 8 8zm0 0"/><path d="m88 200h8c4.417969 0 8-3.582031 8-8s-3.582031-8-8-8h-8c-4.417969 0-8 3.582031-8 8s3.582031 8 8 8zm0 0"/><path d="m112 200c-4.417969 0-8 3.582031-8 8v8c0 4.417969 3.582031 8 8 8s8-3.582031 8-8v-8c0-4.417969-3.582031-8-8-8zm0 0"/><path d="m128 200h8c4.417969 0 8-3.582031 8-8s-3.582031-8-8-8h-8c-4.417969 0-8 3.582031-8 8s3.582031 8 8 8zm0 0"/><path d="m40 112c4.417969 0 8-3.582031 8-8v-8c0-4.417969-3.582031-8-8-8s-8 3.582031-8 8v8c0 4.417969 3.582031 8 8 8zm0 0"/><path d="m17.375 116.6875c3.140625 3.03125 8.128906 2.988281 11.214844-.097656 3.085937-3.085938 3.128906-8.074219.097656-11.214844l-5.664062-5.65625c-3.136719-3.03125-8.128907-2.988281-11.214844.097656-3.085938 3.085938-3.128906 8.078125-.097656 11.214844zm0 0"/><path d="m8 136h8c4.417969 0 8-3.582031 8-8s-3.582031-8-8-8h-8c-4.417969 0-8 3.582031-8 8s3.582031 8 8 8zm0 0"/><path d="m17.375 139.3125-5.664062 5.65625c-2.078126 2.007812-2.914063 4.984375-2.179688 7.78125.730469 2.796875 2.914062 4.980469 5.710938 5.710938 2.796874.734374 5.773437-.101563 7.78125-2.179688l5.664062-5.65625c3.03125-3.140625 2.988281-8.128906-.097656-11.214844-3.085938-3.085937-8.074219-3.128906-11.214844-.097656zm0 0"/><path d="m40 168c4.417969 0 8-3.582031 8-8v-8c0-4.417969-3.582031-8-8-8s-8 3.582031-8 8v8c0 4.417969 3.582031 8 8 8zm0 0"/><path d="m56.976562 156.28125c2.007813 2.078125 4.984376 2.914062 7.78125 2.179688 2.796876-.730469 4.980469-2.914063 5.710938-5.710938.734375-2.796875-.101562-5.773438-2.179688-7.78125l-5.664062-5.65625c-3.140625-3.03125-8.128906-2.988281-11.214844.097656-3.085937 3.085938-3.128906 8.074219-.097656 11.214844zm0 0"/><path d="m56 128c0 4.417969 3.582031 8 8 8h8c4.417969 0 8-3.582031 8-8s-3.582031-8-8-8h-8c-4.417969 0-8 3.582031-8 8zm0 0"/><path d="m56.96875 119.03125c2.121094 0 4.15625-.84375 5.65625-2.34375l5.664062-5.65625c3.03125-3.136719 2.988282-8.128906-.097656-11.214844-3.085937-3.085937-8.078125-3.128906-11.214844-.097656l-5.664062 5.65625c-2.289062 2.289062-2.972656 5.730469-1.734375 8.71875s4.15625 4.9375 7.390625 4.9375zm0 0"/></svg>