<svg height="512" viewBox="0 0 64 64" width="512" xmlns="http://www.w3.org/2000/svg"><g id="Filled_outline" data-name="Filled outline"><path d="m45.089 44h-4l-5-5a6.454 6.454 0 0 1 -2-6l2-11h14l2 11a6.454 6.454 0 0 1 -2 6z" fill="#aad5e8"/><path d="m16 3h8v6h-8z" fill="#f9bb4b"/><path d="m24 20v-11h-8v11l-6 7v34h20v-34z" fill="#db527d"/><path d="m10 33h20v18h-20z" fill="#f98c96"/><g fill="#efbfd0"><path d="m10 56h12v2h-12z"/><path d="m24 56h2v2h-2z"/><path d="m19 26h11v2h-11z"/><path d="m10 26h5v2h-5z"/></g><circle cx="47" cy="16" fill="#fcf05a" r="2"/><circle cx="40" cy="12" fill="#fcf05a" r="2"/><circle cx="20" cy="42" fill="#d9176c" r="5"/><path d="m19 3h2v3h-2z" fill="#e97424"/><path d="m51.089 61h-16l8-4z" fill="#aad5e8"/><path d="m42 44h2v13h-2z" fill="#448aa5"/><path d="m52.089 33-.182-1h-17.636l-.182 1a6.454 6.454 0 0 0 2 6l5 5h4l5-5a6.454 6.454 0 0 0 2-6z" fill="#db527d"/><path d="m46.089 35h2v2h-2z" fill="#d9176c"/><path d="m42.089 37h2v2h-2z" fill="#d9176c"/><path d="m10 62h20a1 1 0 0 0 1-1v-34a1 1 0 0 0 -.241-.651l-5.759-6.719v-16.63a1 1 0 0 0 -1-1h-8a1 1 0 0 0 -1 1v16.63l-5.759 6.719a1 1 0 0 0 -.241.651v34a1 1 0 0 0 1 1zm1-2v-2h11v-2h-11v-4h18v8zm0-26h18v16h-18zm6-30h2v2h2v-2h2v4h-6zm-.241 16.651a1 1 0 0 0 .241-.651v-10h6v10a1 1 0 0 0 .241.651l4.585 5.349h-8.826v2h10v4h-18v-4h4v-2h-2.826z"/><path d="m24 56h2v2h-2z"/><path d="m50 16a3 3 0 1 0 -3 3 3 3 0 0 0 3-3zm-4 0a1 1 0 1 1 1 1 1 1 0 0 1 -1-1z"/><path d="m43 12a3 3 0 1 0 -3 3 3 3 0 0 0 3-3zm-4 0a1 1 0 1 1 1 1 1 1 0 0 1 -1-1z"/><path d="m20 36a6 6 0 1 0 6 6 6.006 6.006 0 0 0 -6-6zm0 10a4 4 0 1 1 4-4 4 4 0 0 1 -4 4z"/><path d="m45.089 45a1 1 0 0 0 .707-.293l5-5a7.434 7.434 0 0 0 2.276-6.886l-2-11a1 1 0 0 0 -.983-.821h-14a1 1 0 0 0 -.984.821l-2.005 11.047a7.408 7.408 0 0 0 2.284 6.839l5 5a1 1 0 0 0 .707.293h.909v11.426l-7.358 3.679a1 1 0 0 0 .447 1.9h16a1 1 0 0 0 .447-1.9l-7.536-3.768v-11.337zm-5.764 15 3.764-1.882 3.764 1.882zm-2.4-37h12.33l1.456 8h-15.242zm-.125 15.293a5.439 5.439 0 0 1 -1.724-5.114l.024-.179h15.974l.024.132a5.463 5.463 0 0 1 -1.716 5.161l-4.707 4.707h-3.175z"/><path d="m46.089 35h2v2h-2z"/><path d="m42.089 37h2v2h-2z"/></g></svg>