<?xml version="1.0" encoding="utf-8"?>
<!-- Generator: Adobe Illustrator 15.1.0, SVG Export Plug-In . SVG Version: 6.00 Build 0)  -->
<!DOCTYPE svg PUBLIC "-//W3C//DTD SVG 1.1//EN" "http://www.w3.org/Graphics/SVG/1.1/DTD/svg11.dtd">
<svg version="1.1" id="Layer_1" xmlns="http://www.w3.org/2000/svg" xmlns:xlink="http://www.w3.org/1999/xlink" x="0px" y="0px"
	 width="20px" height="20px" viewBox="0 0 20 20" enable-background="new 0 0 20 20" xml:space="preserve">
<path fill="#333" d="M10,0C4.455,0,0,4.455,0,10c0,5.545,4.455,10,10,10c5.545,0,10-4.455,10-10C20,4.455,15.545,0,10,0z
	 M11.455,10.182l3.408,3.409C14.955,13.682,15,13.818,15,13.909s-0.045,0.228-0.137,0.317l-0.637,0.637
	C14.137,14.955,14,15,13.909,15c-0.136,0-0.228-0.045-0.318-0.137l-3.409-3.408c-0.091-0.092-0.227-0.092-0.318,0l-3.409,3.408
	C6.364,14.955,6.227,15,6.136,15C6,15,5.909,14.955,5.818,14.863l-0.637-0.637C5.091,14.137,5.045,14,5.045,13.909
	s0.045-0.228,0.136-0.318l3.409-3.409c0.091-0.091,0.091-0.227,0-0.318L5.182,6.455C5.091,6.364,5.045,6.227,5.045,6.136
	s0.045-0.227,0.136-0.318l0.637-0.637c0.091-0.091,0.227-0.136,0.318-0.136s0.228,0.045,0.318,0.136l3.409,3.409
	c0.091,0.091,0.227,0.091,0.318,0l3.409-3.409c0.091-0.091,0.228-0.136,0.318-0.136c0.136,0,0.228,0.045,0.317,0.136l0.637,0.637
	C14.955,5.909,15,6.045,15,6.136s-0.045,0.228-0.137,0.318l-3.408,3.409C11.363,9.909,11.363,10.091,11.455,10.182z"/>
</svg>
