<?xml version="1.0" encoding="utf-8"?>
<!-- Generator: Adobe Illustrator 22.0.0, SVG Export Plug-In . SVG Version: 6.00 Build 0)  -->
<svg version="1.1" id="Layer_1" xmlns="http://www.w3.org/2000/svg" xmlns:xlink="http://www.w3.org/1999/xlink" x="0px" y="0px"
	 viewBox="0 0 200 108.5" style="enable-background:new 0 0 200 108.5;" xml:space="preserve">
<style type="text/css">
	.st0{fill:#BAC1C3;}
	.st1{fill:#3DB39D;}
	.st2{fill:#304C5A;}
	.st3{fill:#2A424E;}
	.st4{fill:#BECED3;}
	.st5{fill:#2EA9D3;}
	.st6{fill:none;}
	.st7{fill:#324C58;}
	.st8{fill:#339684;}
	.st9{fill:#F3C661;}
</style>
<g>
	<g>
		<rect x="52.6" y="18" class="st0" width="14" height="8.1"/>
		<g>
			<g>
				<g>
					<g>
						
							<rect x="36.3" y="85" transform="matrix(0.9448 -0.3277 0.3277 0.9448 -28.3926 17.3348)" class="st1" width="1.9" height="15.8"/>
						
							<rect x="34.9" y="92" transform="matrix(0.3286 -0.9445 0.9445 0.3286 -59.0352 102.8615)" class="st1" width="15.8" height="1.9"/>
					</g>
					<g>
						
							<rect x="41.9" y="64.8" transform="matrix(0.9446 -0.3282 0.3282 0.9446 -21.4841 18.0884)" class="st1" width="1.9" height="15.8"/>
						
							<rect x="29.4" y="71.8" transform="matrix(0.3274 -0.9449 0.9449 0.3274 -43.5869 84.196)" class="st1" width="15.8" height="1.9"/>
					</g>
				</g>
				<g>
					<g>
						
							<rect x="22.2" y="84.3" transform="matrix(0.6522 -0.7581 0.7581 0.6522 -54.1174 52.4698)" class="st1" width="15.8" height="1.9"/>
						<polygon class="st1" points="40.8,89.4 40.4,87.5 24.9,90.6 25.3,92.4 						"/>
					</g>
					<g>
						
							<rect x="42.4" y="78.9" transform="matrix(0.6533 -0.7571 0.7571 0.6533 -43.0162 65.7892)" class="st1" width="15.8" height="1.9"/>
						
							<rect x="39.7" y="74.1" transform="matrix(0.9812 -0.193 0.193 0.9812 -13.5881 10.5974)" class="st1" width="15.8" height="1.9"/>
					</g>
				</g>
				<g>
					<g>
						
							<rect x="45.9" y="82.9" transform="matrix(0.2618 -0.9651 0.9651 0.2618 -53.0488 112.264)" class="st1" width="1.9" height="15.8"/>
						
							<rect x="49" y="78.3" transform="matrix(0.8029 -0.5962 0.5962 0.8029 -41.5574 46.768)" class="st1" width="1.9" height="15.8"/>
					</g>
					<g>
						
							<rect x="32.3" y="66.9" transform="matrix(0.2619 -0.9651 0.9651 0.2619 -47.6975 87.284)" class="st1" width="1.9" height="15.8"/>
						
							<rect x="29.2" y="71.5" transform="matrix(0.8023 -0.5969 0.5969 0.8023 -41.428 33.6929)" class="st1" width="1.9" height="15.8"/>
					</g>
				</g>
				<g>
					<path class="st2" d="M45.1,57.7c-1.6-0.3-3.3-0.5-5-0.5c-0.7,0-1.5,0-2.2,0.1c-13.1,1.1-23.4,12.1-23.4,25.5
						c0,2.9,0.5,5.7,1.4,8.3c2.6,7.4,8.4,13.3,15.9,15.9c2.6,0.9,5.4,1.4,8.3,1.4c14.1,0,25.6-11.5,25.6-25.6
						C65.7,70.4,56.8,60,45.1,57.7z M40.1,101.8c-10.5,0-19-8.5-19-19c0-9.7,7.3-17.7,16.7-18.8c0.7-0.1,1.5-0.1,2.2-0.1
						c1.5,0,2.9,0.2,4.3,0.5C52.8,66.3,59,73.8,59,82.8C59,93.3,50.5,101.8,40.1,101.8z"/>
					<path class="st3" d="M44.4,64.4c-1.4-0.3-2.8-0.5-4.3-0.5c-0.7,0-1.5,0-2.2,0.1c-9.4,1.1-16.7,9.1-16.7,18.8
						c0,10.5,8.5,19,19,19s18.9-8.5,18.9-19C59,73.8,52.8,66.3,44.4,64.4z M41.5,99.5c-0.3,0-0.6,0-0.9,0c-0.2,0-0.4,0-0.7,0
						c-0.2,0-0.3,0-0.4,0c-0.3,0-0.6,0-0.9,0c-5.2-0.4-9.7-3.2-12.5-7.3c-0.1-0.2-0.2-0.4-0.4-0.6c-0.2-0.4-0.4-0.8-0.7-1.2
						c-0.1-0.2-0.2-0.4-0.3-0.6c-1-2.2-1.6-4.5-1.6-7.1c0-3,0.8-5.8,2.2-8.2c0.1-0.3,0.3-0.5,0.4-0.8c0.2-0.3,0.4-0.6,0.6-1
						c0.2-0.2,0.4-0.5,0.6-0.7c2.6-3.2,6.5-5.4,10.8-6c0.2,0,0.5-0.1,0.8-0.1s0.6,0,1,0c0.1,0,0.3,0,0.4,0c0.2,0,0.4,0,0.6,0
						c0.3,0,0.6,0,1,0c0.9,0.1,1.8,0.2,2.6,0.5c3.8,1,7.1,3.3,9.3,6.3c0.2,0.3,0.5,0.7,0.7,1c0.2,0.2,0.3,0.5,0.4,0.7
						c0.2,0.3,0.4,0.7,0.5,1.1c1,2.2,1.6,4.6,1.6,7.1c0,2.9-0.7,5.7-2.1,8.1c-0.1,0.3-0.3,0.6-0.5,0.9s-0.4,0.6-0.6,0.8
						c-0.2,0.3-0.4,0.5-0.6,0.8C50.2,96.8,46.1,99.1,41.5,99.5z"/>
				</g>
				<path class="st3" d="M48.3,82.8c0,4.6-3.7,8.2-8.2,8.2c-4.6,0-8.2-3.7-8.2-8.2c0-4.6,3.7-8.2,8.2-8.2
					C44.6,74.6,48.3,78.3,48.3,82.8z"/>
			</g>
			<g>
				<path class="st4" d="M45.8,83.2c0,3.2-2.6,5.8-5.8,5.8s-5.8-2.6-5.8-5.8c0-3.2,2.6-5.8,5.8-5.8C43.2,77.4,45.8,80,45.8,83.2z"/>
				<path class="st1" d="M45.4,82.8c0,3-2.4,5.3-5.3,5.3c-3,0-5.3-2.4-5.3-5.3c0-3,2.4-5.3,5.3-5.3C43,77.4,45.4,79.8,45.4,82.8z"/>
			</g>
		</g>
		<g>
			<g>
				<g>
					<g>
						
							<rect x="154.4" y="85" transform="matrix(0.9448 -0.3277 0.3277 0.9448 -21.8664 56.0345)" class="st1" width="1.9" height="15.8"/>
						
							<rect x="153" y="92" transform="matrix(0.3286 -0.9445 0.9445 0.3286 20.286 214.3388)" class="st1" width="15.8" height="1.9"/>
					</g>
					<g>
						
							<rect x="159.9" y="64.8" transform="matrix(0.9446 -0.3282 0.3282 0.9446 -14.9546 56.8187)" class="st1" width="1.9" height="15.8"/>
						
							<rect x="147.5" y="71.7" transform="matrix(0.3274 -0.9449 0.9449 0.3274 35.8717 195.7262)" class="st1" width="15.8" height="1.9"/>
					</g>
				</g>
				<g>
					<g>
						
							<rect x="140.2" y="84.3" transform="matrix(0.6529 -0.7575 0.7575 0.6529 -13.1433 141.799)" class="st1" width="15.8" height="1.9"/>
						
							<rect x="143" y="89" transform="matrix(0.9812 -0.193 0.193 0.9812 -14.5243 30.8131)" class="st1" width="15.8" height="1.9"/>
					</g>
					<g>
						
							<rect x="160.5" y="78.9" transform="matrix(0.654 -0.7565 0.7565 0.654 -2.1192 155.0183)" class="st1" width="15.8" height="1.9"/>
						
							<rect x="157.7" y="74.1" transform="matrix(0.9816 -0.191 0.191 0.9816 -11.2852 33.0111)" class="st1" width="15.8" height="1.9"/>
					</g>
				</g>
				<g>
					<g>
						
							<rect x="164" y="82.9" transform="matrix(0.2618 -0.9651 0.9651 0.2618 34.1536 226.1607)" class="st1" width="1.9" height="15.8"/>
						
							<rect x="167.1" y="78.3" transform="matrix(0.8029 -0.5962 0.5962 0.8029 -18.2564 117.1665)" class="st1" width="1.9" height="15.8"/>
					</g>
					<g>
						
							<rect x="150.3" y="66.9" transform="matrix(0.2619 -0.9651 0.9651 0.2619 39.49 201.1814)" class="st1" width="1.9" height="15.8"/>
						
							<rect x="147.2" y="71.5" transform="matrix(0.8021 -0.5972 0.5972 0.8021 -18.1118 104.2009)" class="st1" width="1.9" height="15.8"/>
					</g>
				</g>
				<g>
					<path class="st2" d="M158.1,57.2c-5.2,0-10.1,1.6-14.1,4.2c-1.7,1.1-3.2,2.4-4.6,3.9c-3.5,3.7-5.9,8.6-6.6,13.9
						c-0.2,1.2-0.3,2.4-0.3,3.6c0,0.4,0,0.9,0,1.3c0.7,13.5,11.9,24.3,25.6,24.3c14.1,0,25.6-11.5,25.6-25.6
						C183.7,68.7,172.2,57.2,158.1,57.2z M158.1,101.8c-10,0-18.2-7.8-18.9-17.7c0-0.4-0.1-0.9-0.1-1.3c0-1.1,0.1-2.2,0.3-3.2
						c0.6-3.4,2.1-6.6,4.3-9.1c1.2-1.4,2.7-2.7,4.3-3.7c2.9-1.9,6.4-2.9,10.1-2.9c10.5,0,19,8.5,19,18.9
						C177.1,93.3,168.6,101.8,158.1,101.8z"/>
					<path class="st3" d="M158.1,63.9c-3.7,0-7.2,1.1-10.1,2.9c-1.6,1-3,2.2-4.3,3.7c-2.2,2.5-3.7,5.7-4.3,9.1
						c-0.2,1-0.3,2.1-0.3,3.2c0,0.4,0,0.9,0.1,1.3c0.7,9.9,8.9,17.7,18.9,17.7c10.5,0,19-8.5,19-19
						C177.1,72.4,168.6,63.9,158.1,63.9z M159.6,99.5c-0.3,0-0.6,0-1,0.1c-0.2,0-0.4,0-0.6,0c-0.2,0-0.3,0-0.4,0c-0.3,0-0.6,0-0.9,0
						c-5.2-0.4-9.7-3.2-12.5-7.3c-0.1-0.2-0.3-0.4-0.4-0.6c-0.2-0.4-0.5-0.8-0.7-1.2c-0.1-0.2-0.2-0.4-0.3-0.6
						c-0.8-1.8-1.4-3.7-1.5-5.8c0-0.4-0.1-0.9-0.1-1.3c0-1.1,0.1-2.1,0.3-3.1c0.3-1.8,1-3.6,1.9-5.1c0.1-0.3,0.3-0.5,0.4-0.7
						c0.2-0.3,0.4-0.6,0.6-1c0.2-0.2,0.4-0.5,0.6-0.7c0,0,0,0,0-0.1c1.2-1.4,2.6-2.6,4.2-3.6c2.2-1.3,4.7-2.2,7.4-2.4
						c0.3,0,0.6,0,0.9,0c0.1,0,0.3,0,0.4,0c0.2,0,0.4,0,0.6,0c0.3,0,0.6,0,1,0.1c4.9,0.5,9.2,3.1,11.9,6.8c0.2,0.3,0.5,0.7,0.7,1
						c0.2,0.2,0.3,0.5,0.4,0.7c0.2,0.3,0.4,0.7,0.5,1.1c1,2.2,1.6,4.6,1.6,7.1c0,2.9-0.7,5.7-2.1,8.1c-0.1,0.3-0.3,0.6-0.5,0.9
						s-0.4,0.6-0.6,0.8c-0.2,0.3-0.4,0.5-0.6,0.8C168.2,96.8,164.2,99.1,159.6,99.5z"/>
				</g>
				<path class="st3" d="M166.3,82.8c0,4.6-3.7,8.2-8.2,8.2c-4.6,0-8.2-3.7-8.2-8.2c0-4.6,3.7-8.2,8.2-8.2
					C162.7,74.6,166.3,78.3,166.3,82.8z"/>
			</g>
			<g>
				<path class="st4" d="M163.9,83.2c0,3.2-2.6,5.8-5.8,5.8s-5.8-2.6-5.8-5.8c0-3.2,2.6-5.8,5.8-5.8C161.3,77.4,163.9,80,163.9,83.2
					z"/>
				<path class="st1" d="M163.5,82.8c0,3-2.4,5.3-5.3,5.3c-3,0-5.3-2.4-5.3-5.3c0-3,2.4-5.3,5.3-5.3
					C161.1,77.4,163.5,79.8,163.5,82.8z"/>
			</g>
		</g>
		<polygon class="st0" points="155.3,84.1 121.2,84.1 121.2,78.6 155.3,80.4 		"/>
		<polygon class="st0" points="155.2,84.1 132.5,57.2 138.4,54.1 161,84.1 		"/>
		<path class="st2" d="M175.1,34.4c0,3.9-2.6,7.1-5.9,7.1h-27.9c-2.8,0-5.1-2.4-5.7-5.6l0,0c-13.6,6.9-23.6,4.8-30.4,0.7l0,0
			c-0.7-0.4-1.3-0.8-1.9-1.3c-0.4-0.3-0.8-0.6-1.2-0.9c-0.4-0.3-0.7-0.6-1.1-0.9c-0.3-0.3-0.7-0.6-1-0.9c-1.1-1-2.1-2.1-2.8-3
			c1.9,0.6,3.7,1.2,5.6,2.1c0.9,0.4,1.7,0.8,2.6,1.3l1,0.5c3.4,1.4,6.7,1.9,11.5,2c0.3,0,0.6,0,0.9,0c0.8,0,1.6,0,2.4-0.1
			c14.9-1.3,18-8.2,20.1-8.2h27.9c2.1,0,4,1.3,5,3.4C174.8,31.8,175.1,33,175.1,34.4z"/>
		<path class="st4" d="M62,35.9c0,1.6-1.3,2.9-2.9,2.9c-1.6,0-2.9-1.3-2.9-2.9c0-1.6,1.3-2.9,2.9-2.9S62,34.3,62,35.9z"/>
		<path class="st5" d="M62,35.5c0,1.6-1.3,2.9-2.9,2.9c-1.6,0-2.9-1.3-2.9-2.9c0-1.6,1.3-2.9,2.9-2.9S62,33.9,62,35.5z"/>
		<polygon class="st0" points="45.8,50.5 45.3,55.5 45.1,57.7 44.4,64.4 44.2,66.6 43.6,72.1 43.3,74.9 43.3,75.2 43.1,76.5 
			43.1,76.9 43,78.2 43,78.3 42.3,85.2 37.8,85.2 37.8,50.5 		"/>
		<path class="st6" d="M128.6,68.6c-0.6,1.6-0.9,3-1.1,4.1C128.1,70.2,128.6,68.6,128.6,68.6z"/>
		<path class="st1" d="M200,30.7c-0.4,0.8-0.9,1.5-1.3,2.3c-7.1,11.1-19.4,15.7-23.6,17c-0.2,0.1-0.4,0.2-0.6,0.2l-20.6,5.1l-12.2,3
			l-1.2,0.3c-2,0.4-3.6,1.1-5.1,1.9c-3.8,2.1-5.8,5.2-6.8,7.9c0,0.1,0,0.1-0.1,0.2c-0.1,0.2-0.1,0.3-0.2,0.5c-0.2,0.5-0.3,1-0.4,1.5
			v0.1c0,0.2-0.1,0.4-0.1,0.5v0.1c-0.1,0.5-0.2,1-0.3,1.5c-0.1,0.4-0.2,0.8-0.2,1.1c-0.4,1.5-0.7,3.1-1,4.8
			c-0.3,1.6-0.6,3.4-0.8,5.2c-0.2,1.8-0.4,3.6-0.4,5.6H78.7L75.4,85L56.9,59.9c-3.6-2.4-7.5-3.8-11.6-4.4c-2.5-0.4-5-0.4-7.5-0.3
			c-18.1,1-36.3,13.1-36.3,13.1c-5.8-9.5,5.3-23.2,12.4-30.1c1.5-1.5,2.8-2.7,3.8-3.4c0.1-0.1,0.3-0.2,0.4-0.4l0,0
			c0.1-0.1,0.3-0.2,0.4-0.4c0.1,0,0.1-0.1,0.1-0.1l0,0c0.1-0.1,0.2-0.1,0.2-0.1l0,0h0.1c0.4-0.2,0.7-0.5,1.1-0.7
			c0,0,0.8-0.5,2.1-1.2l0,0c0.5-0.3,1.1-0.6,1.7-1l0,0c1.7-0.9,3.9-2,6.4-3.1c0.3-0.1,0.6-0.3,1-0.4c0.6-0.3,1.3-0.5,2-0.8
			c3.4-1.2,7.1-2.3,10.8-2.7h22.7l0.7,7.5l0.1,1.1c0.4,0.2,0.7,0.4,1.1,0.5c0,0,10.9-8.8,28.6-3.4c0.8,0.9,1.7,2,2.8,3
			c0.3,0.3,0.7,0.6,1,0.9c0.4,0.3,0.7,0.6,1.1,0.9c0.4,0.3,0.8,0.6,1.2,0.9c0.6,0.4,1.3,0.9,1.9,1.3l0,0c6.8,4.1,16.8,6.3,30.4-0.7
			c2.7-1.4,5.5-3.1,8.5-5.3H172l0,0h2c0.1,0,0.2,0,0.2,0.1c0.1,0,0.1,0,0.2,0.1H200V30.7z"/>
		<path class="st2" d="M67.5,32.5L67.5,32.5c-2.4,0.1-4.7,0.2-7,0.4l0,0c-0.4,0-0.7,0.1-1.1,0.1c-0.3,0-0.6,0.1-0.9,0.1
			c-0.4,0-0.7,0.1-1.1,0.1C28,36.3,9.2,48.6,2,54.1c2.8-6.1,7.9-12,11.8-15.8c1.5-1.5,2.9-2.7,3.8-3.4c0.1-0.1,0.3-0.2,0.4-0.4l0,0
			c0.2-0.1,0.3-0.2,0.5-0.4l0.1-0.1l0,0c0.1-0.1,0.1-0.1,0.2-0.1l0,0H19c0.4-0.2,0.7-0.5,1.1-0.7c0,0,0.7-0.5,2.1-1.2l0,0
			c0.5-0.3,1.1-0.6,1.7-1l0,0c1.7-0.9,3.9-2,6.4-3.1c0.3-0.1,0.6-0.3,1-0.4c0.6-0.3,1.3-0.5,2-0.8c3.4-1.2,7.1-2.3,10.8-2.7h22.7
			l0.7,7.5V32.5z"/>
		<g>
			<path class="st7" d="M66.6,0v9.7c-13-2.8-30.6,5.5-35.1,7.8C34.1,11.7,42.4-0.2,66.6,0z"/>
			<path class="st1" d="M66.6,9.7v10.9H30.4c0,0,0.3-1.2,1.1-3.1C36,15.2,53.6,6.9,66.6,9.7z"/>
		</g>
		<path class="st7" d="M77.6,15.1c0,1.5-1.2,2.7-2.7,2.7H61c-1.5,0-2.7-1.2-2.7-2.7c0-0.7,0.3-1.4,0.8-1.9s1.2-0.8,1.9-0.8h13.9
			C76.4,12.4,77.6,13.6,77.6,15.1z"/>
		<path class="st8" d="M59.4,38.7c0,1.1-0.9,2-2,2s-2-0.9-2-2s0.9-2,2-2C58.6,36.8,59.4,37.7,59.4,38.7z"/>
		<path class="st9" d="M59.2,38.6c0,0.9-0.7,1.6-1.6,1.6c-0.9,0-1.6-0.7-1.6-1.6c0-0.9,0.7-1.6,1.6-1.6S59.2,37.7,59.2,38.6z"/>
		<path class="st8" d="M161,38.8c0,0.4-0.4,0.6-1,0.6h-12.4c-0.5,0-1-0.3-1-0.6l0,0c0-0.4,0.4-0.6,1-0.6H160
			C160.6,38.2,161,38.4,161,38.8L161,38.8z"/>
		<path class="st8" d="M161,41.5c0,0.4-0.4,0.6-1,0.6h-12.4c-0.5,0-1-0.3-1-0.6l0,0c0-0.4,0.4-0.6,1-0.6H160
			C160.6,40.9,161,41.1,161,41.5L161,41.5z"/>
		<path class="st2" d="M118,72.1c-3,17.8-32.3,14.6-42.6,13.1l3.3,4.5h46.1c0.2-5.9,1.3-11.3,2.3-15.6c0.2-1.1,0.8-4,1.4-5.5
			c1.5-3.8,4.7-8.2,11.9-9.8l13.4-3.4C122.4,48.7,118,72.1,118,72.1z"/>
	</g>
</g>
</svg>
