<svg height="496pt" viewBox="0 0 496 496" width="496pt" xmlns="http://www.w3.org/2000/svg"><path d="m195.496094 153.496094-51.496094-15.449219v-12.144531c14.910156-10.414063 24-27.597656 24-45.902344v-24c0-30.871094-25.121094-56-56-56s-56 25.128906-56 56v24c0 18.304688 9.089844 35.496094 24 45.902344v12.144531l-51.496094 15.449219c-17.046875 5.113281-28.503906 20.511718-28.503906 38.320312v72.183594h61.480469c-3.472657 7.289062-5.480469 15.40625-5.480469 24v24c0 18.304688 9.089844 35.496094 24 45.902344v12.144531l-51.496094 15.449219c-17.046875 5.113281-28.503906 20.511718-28.503906 38.320312v72.183594h224v-72.183594c0-17.808594-11.457031-33.199218-28.503906-38.320312l-51.496094-15.449219v-12.144531c14.910156-10.414063 24-27.597656 24-45.902344v-24c0-8.59375-2.007812-16.710938-5.480469-24h61.480469v-72.183594c0-17.808594-11.457031-33.207031-28.503906-38.320312zm-43.496094 158.503906c0 14.191406-7.664062 27.457031-20.007812 34.601562l-3.992188 2.308594v33.042969l62.894531 18.863281c10.234375 3.070313 17.105469 12.320313 17.105469 23v56.183594h-192v-56.183594c0-10.679687 6.871094-19.921875 17.105469-22.992187l62.894531-18.871094v-33.042969l-3.992188-2.308594c-12.34375-7.144531-20.007812-20.410156-20.007812-34.601562v-24c0-22.054688 17.945312-40 40-40s40 17.945312 40 40zm56-64h-56.886719c-10.105469-9.878906-23.90625-16-39.113281-16-15.664062 0-29.824219 6.480469-40 16.886719v-.886719h-56v-56.183594c0-10.679687 6.871094-19.921875 17.105469-22.992187l62.894531-18.871094v-33.042969l-3.992188-2.308594c-12.34375-7.144531-20.007812-20.410156-20.007812-34.601562v-24c0-22.054688 17.945312-40 40-40s40 17.945312 40 40v24c0 14.191406-7.664062 27.457031-20.007812 34.601562l-3.992188 2.308594v33.042969l62.894531 18.863281c10.234375 3.070313 17.105469 12.320313 17.105469 23zm0 0"/><path d="m496 280c0-30.433594-12.238281-58.03125-32-78.230469v-9.953125c0-17.808594-11.457031-33.199218-28.503906-38.320312l-51.496094-15.449219v-12.144531c14.910156-10.414063 24-27.597656 24-45.902344v-24c0-30.871094-25.121094-56-56-56s-56 25.128906-56 56v24c0 18.304688 9.089844 35.496094 24 45.902344v12.144531l-51.496094 15.449219c-17.046875 5.113281-28.503906 20.511718-28.503906 38.320312v72.183594h33.28125c-.761719 5.238281-1.28125 10.550781-1.28125 16 0 50.632812 33.800781 93.472656 80 107.28125v20.71875h-16v16h16v16h-16v16h16v40h64v-40h16v-16h-16v-16h16v-16h-16v-20.71875c46.199219-13.808594 80-56.648438 80-107.28125zm-240-32v-56.183594c0-10.679687 6.871094-19.921875 17.105469-22.992187l62.894531-18.871094v-33.042969l-3.992188-2.308594c-12.34375-7.144531-20.007812-20.410156-20.007812-34.601562v-24c0-22.054688 17.945312-40 40-40s40 17.945312 40 40v24c0 14.191406-7.664062 27.457031-20.007812 34.601562l-3.992188 2.308594v33.042969l62.894531 18.863281c8.984375 2.695313 15.378907 10.160156 16.800781 19.167969-18.101562-12.570313-40.039062-19.984375-63.695312-19.984375-50.632812 0-93.472656 33.800781-107.28125 80zm32 32c0-52.9375 43.0625-96 96-96s96 43.0625 96 96-43.0625 96-96 96-96-43.0625-96-96zm112 200h-32v-24h32zm0-40h-32v-16h32zm0-32h-32v-17.28125c5.238281.753906 10.550781 1.28125 16 1.28125s10.761719-.519531 16-1.28125zm0 0"/><path d="m360 300.6875-10.34375-10.34375-11.3125 11.3125 21.65625 21.65625 69.65625-69.65625-11.3125-11.3125zm0 0"/><path d="m433.902344 342.480469-9.992188-12.496094c-11.460937 9.167969-25.261718 14.015625-39.910156 14.015625-35.289062 0-64-28.710938-64-64 0-14.640625 4.847656-28.449219 14.023438-39.910156l-12.496094-10c-11.464844 14.34375-17.527344 31.597656-17.527344 49.910156 0 44.113281 35.886719 80 80 80 18.320312 0 35.574219-6.0625 49.902344-17.519531zm0 0"/><path d="m384 216c35.289062 0 64 28.710938 64 64 0 14.640625-4.847656 28.449219-14.023438 39.902344l12.496094 10c11.464844-14.335938 17.527344-31.589844 17.527344-49.902344 0-44.113281-35.886719-80-80-80-18.320312 0-35.574219 6.0625-49.902344 17.519531l9.992188 12.496094c11.460937-9.167969 25.261718-14.015625 39.910156-14.015625zm0 0"/></svg>