<?xml version="1.0" encoding="iso-8859-1"?>
<!-- Generator: Adobe Illustrator 19.1.0, SVG Export Plug-In . SVG Version: 6.00 Build 0)  -->
<svg version="1.1" id="Capa_1" xmlns="http://www.w3.org/2000/svg" xmlns:xlink="http://www.w3.org/1999/xlink" x="0px" y="0px"
	 viewBox="0 0 538.261 538.261" style="enable-background:new 0 0 538.261 538.261;" xml:space="preserve">
<g>
	<path d="M269.13,0C120.87,0,0.33,120.688,0.33,269.13s120.54,269.13,268.8,269.13s268.8-120.688,268.8-269.13S417.39,0,269.13,0z
		 M269.13,529.851c-143.64,0-260.4-116.904-260.4-260.72S125.49,8.41,269.13,8.41s260.4,116.904,260.4,260.72
		S412.77,529.851,269.13,529.851z"/>
	<path d="M450.99,113.539c36.96,43.313,57.54,98.401,57.54,155.591c0,132.042-107.52,239.694-239.4,239.694
		S29.73,401.173,29.73,269.13S137.25,29.436,269.13,29.436c56.7,0,112.14,20.185,154.98,57.19c1.68,1.682,4.62,1.262,5.88-0.421
		c1.68-1.682,1.26-4.626-0.42-5.887c-44.52-38.267-101.64-59.293-160.44-59.293c-136.5,0-247.8,111.437-247.8,248.105
		s111.3,248.105,247.8,248.105s247.8-111.437,247.8-248.105c0-58.872-21-116.483-59.22-161.058c-1.68-1.682-4.2-2.103-5.88-0.421
		C449.73,108.914,449.73,111.857,450.99,113.539z"/>
	<path d="M375.39,193.017c-4.62,0-8.82,1.682-11.76,5.046l-117.6,117.324l-70.56-71.067c-6.3-6.308-17.22-6.308-23.52,0
		l-12.18,12.195c-6.3,6.308-6.3,16.821,0,23.549l94.5,94.616c2.94,2.944,7.14,5.046,11.76,5.046s8.82-1.682,11.76-5.046
		l141.12-141.293c6.3-6.308,6.3-16.821,0-23.549l-12.18-11.774C383.79,194.699,379.59,193.017,375.39,193.017z M393.03,227.499
		L251.91,368.793c-2.94,2.944-8.4,2.944-11.76,0l-94.5-94.616c-3.36-3.364-3.36-8.41,0-11.774l12.18-12.195
		c1.68-1.682,3.78-2.523,5.88-2.523s4.2,0.841,5.88,2.523l73.92,74.011c1.68,1.682,4.2,1.682,5.88,0L369.51,203.95
		c2.94-2.944,8.4-2.944,11.76,0l12.18,12.195C396.39,219.089,396.39,224.556,393.03,227.499z"/>
</g>
<g>
</g>
<g>
</g>
<g>
</g>
<g>
</g>
<g>
</g>
<g>
</g>
<g>
</g>
<g>
</g>
<g>
</g>
<g>
</g>
<g>
</g>
<g>
</g>
<g>
</g>
<g>
</g>
<g>
</g>
</svg>
