<?xml version="1.0" encoding="iso-8859-1"?>
<!-- Generator: Adobe Illustrator 21.0.0, SVG Export Plug-In . SVG Version: 6.00 Build 0)  -->
<svg fill="#fff" xmlns="http://www.w3.org/2000/svg" xmlns:xlink="http://www.w3.org/1999/xlink" version="1.1" id="Capa_1" x="0px" y="0px" viewBox="0 0 512 512" style="enable-background:new 0 0 512 512;" xml:space="preserve" width="512" height="512">
<g>
	<path d="M184.549,120.708l19.469,14.11l-7.432,22.822c-3.461,10.627,0.288,22.189,9.328,28.771   c9.06,6.592,21.237,6.606,30.309,0.03l19.505-14.138l19.505,14.138c4.527,3.282,9.83,4.923,15.133,4.923   c5.319,0,10.639-1.651,15.175-4.953c9.041-6.581,12.79-18.143,9.329-28.771l-7.432-22.821l19.47-14.113   c9.062-6.569,12.83-18.132,9.379-28.771c-3.455-10.652-13.307-17.809-24.514-17.809h-24.101l-7.44-22.847   C276.769,40.645,266.921,33.5,255.728,33.5s-21.041,7.145-24.504,17.778l-7.44,22.848h-24.101c-11.208,0-21.06,7.157-24.515,17.81   C171.718,102.575,175.487,114.138,184.549,120.708z M226.85,104.126c11.194,0,21.041-7.146,24.504-17.778l4.374-13.431l4.374,13.43   c3.463,10.634,13.31,17.779,24.504,17.779h14.059l-11.346,8.224c-9.072,6.577-12.838,18.151-9.37,28.801l4.352,13.361l-11.438-8.29   c-9.052-6.563-21.217-6.563-30.269-0.001l-11.438,8.291l4.351-13.361c3.468-10.648-0.298-22.222-9.37-28.802l-11.345-8.223H226.85z   "/>
	<path d="M10.656,120.707l19.468,14.112l-7.432,22.821c-3.461,10.628,0.288,22.189,9.329,28.771   c4.537,3.303,9.855,4.954,15.175,4.953c5.302,0,10.605-1.641,15.133-4.922l19.505-14.139l19.506,14.139   c9.068,6.572,21.249,6.563,30.308-0.031c9.04-6.581,12.789-18.144,9.328-28.771l-7.432-22.821l19.469-14.112   c9.062-6.569,12.831-18.132,9.381-28.771c-3.455-10.652-13.307-17.81-24.515-17.81h-24.101l-7.44-22.848v0.001   C102.875,40.645,93.027,33.5,81.834,33.5S60.793,40.645,57.33,51.278l-7.44,22.848H25.789c-11.207,0-21.059,7.157-24.514,17.809   C-2.176,102.575,1.594,114.138,10.656,120.707z M52.956,104.126c11.194,0,21.041-7.146,24.504-17.778l4.374-13.431l4.374,13.43   c3.463,10.634,13.31,17.779,24.504,17.779h14.06l-11.346,8.224c-9.072,6.577-12.838,18.151-9.37,28.801l4.351,13.361l-11.438-8.291   c-9.053-6.561-21.215-6.563-30.268-0.001l-11.439,8.292l4.352-13.361c3.468-10.649-0.298-22.224-9.371-28.801l-11.345-8.224H52.956   z"/>
	<path d="M358.987,120.707l19.469,14.112l-7.432,22.821c-3.461,10.627,0.288,22.189,9.328,28.771   c9.06,6.592,21.237,6.606,30.309,0.03l19.505-14.138l19.505,14.138c4.527,3.282,9.83,4.923,15.133,4.923   c5.319,0,10.639-1.651,15.175-4.953c9.041-6.581,12.79-18.143,9.329-28.771l-7.432-22.821l19.468-14.112   c9.063-6.569,12.832-18.132,9.381-28.772c-3.455-10.652-13.307-17.809-24.514-17.809H462.11l-7.44-22.848v0.001   C451.207,40.645,441.359,33.5,430.166,33.5s-21.041,7.145-24.504,17.778l-7.44,22.848h-24.101c-11.208,0-21.06,7.157-24.515,17.81   C346.156,102.575,349.926,114.138,358.987,120.707z M401.288,104.126c11.194,0,21.041-7.146,24.504-17.778l4.374-13.431   l4.374,13.43c3.463,10.634,13.31,17.779,24.504,17.779h14.059l-11.346,8.224c-9.072,6.577-12.838,18.151-9.37,28.801l4.352,13.361   l-11.438-8.291c-4.527-3.281-9.83-4.922-15.135-4.922c-5.303,0-10.607,1.641-15.133,4.922l-11.438,8.291l4.351-13.361   c3.468-10.649-0.298-22.224-9.371-28.801l-11.345-8.224H401.288z"/>
	<path d="M449.63,221.726H62.37c-34.391,0-62.37,27.979-62.37,62.37V416.13c0,34.391,27.979,62.37,62.37,62.37h387.26   c34.391,0,62.37-27.979,62.37-62.37V284.096C512,249.705,484.021,221.726,449.63,221.726z M116.992,334.83   c0-15.826,12.921-28.702,28.803-28.702s28.803,12.876,28.803,28.702c0,15.827-12.921,28.703-28.803,28.703   S116.992,350.657,116.992,334.83z M145.795,393.533c33.525,0,61.634,23.57,68.538,54.967H77.257   C84.161,417.104,112.27,393.533,145.795,393.533z M482,416.13c0,17.849-14.521,32.37-32.37,32.37H244.83   c-4.982-32.907-26.096-60.605-55.018-74.786c9.195-10.363,14.785-23.984,14.785-38.883c0-32.368-26.379-58.702-58.803-58.702   s-58.803,26.334-58.803,58.702c0,14.9,5.589,28.521,14.785,38.883c-27.836,13.649-48.44,39.82-54.389,71.105   C37.061,439.404,30,428.576,30,416.13V284.096c0-17.849,14.521-32.37,32.37-32.37h387.26c17.849,0,32.37,14.521,32.37,32.37V416.13   z"/>
	<path d="M440.279,276.128H301.452c-8.284,0-15,6.716-15,15s6.716,15,15,15h138.827c8.284,0,15-6.716,15-15   S448.563,276.128,440.279,276.128z"/>
	<path d="M367.866,325.983h-66.012c-8.284,0-15,6.716-15,15s6.716,15,15,15h66.012c8.284,0,15-6.716,15-15   S376.15,325.983,367.866,325.983z"/>
</g>















</svg>
