<svg fill="#fff" height="512pt" viewBox="-76 0 512 512" width="512pt" xmlns="http://www.w3.org/2000/svg"><path d="m300 120c0-66.167969-53.832031-120-120-120s-120 53.832031-120 120 53.832031 120 120 120 120-53.832031 120-120zm-210 0c0-49.625 40.375-90 90-90s90 40.375 90 90-40.375 90-90 90-90-40.375-90-90zm0 0"/><path d="m0 451v61h360v-61c0-99.804688-80.746094-181-180-181s-180 81.195312-180 181zm180-151c82.710938 0 150 67.738281 150 151v31h-300v-31c0-83.261719 67.289062-151 150-151zm0 0"/><path d="m229.394531 79.394531-64.394531 64.390625-34.394531-34.390625-21.210938 21.210938 55.605469 55.609375 85.605469-85.609375zm0 0"/></svg>