<?xml version="1.0" encoding="utf-8"?>
<!-- Generator: Adobe Illustrator 22.0.0, SVG Export Plug-In . SVG Version: 6.00 Build 0)  -->
<svg version="1.1" id="Layer_1" xmlns="http://www.w3.org/2000/svg" xmlns:xlink="http://www.w3.org/1999/xlink" x="0px" y="0px"
	 viewBox="0 0 14 20" style="enable-background:new 0 0 14 20;" xml:space="preserve">
<style type="text/css">
	.st0{fill:#FFFFFF;}
</style>
<g>
	<g>
		<path class="st0" d="M7,0C3.1,0,0,3.2,0,7c0,1.3,0.4,2.6,1,3.7l5.6,9C6.7,19.9,6.9,20,7.1,20h0c0.2,0,0.4-0.1,0.5-0.3l5.4-9
			c0.6-1.1,1-2.3,1-3.6C14,3.2,10.9,0,7,0z M12,10l-4.9,8.2L2,10.1C1.5,9.2,1.2,8.1,1.2,7c0-3.2,2.6-5.8,5.8-5.8
			c3.2,0,5.8,2.6,5.8,5.8C12.8,8.1,12.5,9.1,12,10z M7,3.5C5.1,3.5,3.5,5.1,3.5,7C3.5,9,5,10.5,7,10.5c2,0,3.5-1.6,3.5-3.5
			C10.5,5.1,8.9,3.5,7,3.5z M7,9.4C5.7,9.4,4.7,8.3,4.7,7c0-1.3,1.1-2.3,2.3-2.3c1.3,0,2.3,1.1,2.3,2.3C9.3,8.3,8.3,9.4,7,9.4z"/>
	</g>
</g>
</svg>
