<?xml version="1.0" encoding="utf-8"?>
<!-- Generator: Adobe Illustrator 22.0.0, SVG Export Plug-In . SVG Version: 6.00 Build 0)  -->
<svg version="1.1" id="Layer_1" xmlns="http://www.w3.org/2000/svg" xmlns:xlink="http://www.w3.org/1999/xlink" x="0px" y="0px"
	 viewBox="0 0 44 48" style="enable-background:new 0 0 44 48;" xml:space="preserve">
<g>
	<g>
		<path d="M39.7,46.1l-6.3-13.3c-0.1-0.3-0.3-0.5-0.6-0.6l-3.1-1.4l5.4-9.1c0,0,0,0,0-0.1c1.1-2.1,1.6-4.4,1.6-6.7
			c0-4-1.6-7.7-4.4-10.5c-2.8-2.8-6.6-4.3-10.6-4.3c-3.9,0.1-7.5,1.6-10.3,4.4C8.8,7.4,7.2,11,7.2,14.9c0,2.4,0.5,4.7,1.6,6.8
			c0,0,0,0,0,0.1l5.4,9.1l-3.1,1.4c-0.3,0.1-0.5,0.3-0.6,0.6L4.3,46.1c-0.2,0.4-0.1,1,0.2,1.3c0.3,0.4,0.9,0.5,1.3,0.3l7.9-3.5
			l7.9,3.5c0.3,0.1,0.7,0.1,1,0l7.9-3.5l7.9,3.5c0.2,0.1,0.3,0.1,0.5,0.1c0.3,0,0.6-0.1,0.8-0.4C39.8,47.1,39.9,46.6,39.7,46.1z
			 M10.9,20.6c-0.9-1.8-1.4-3.7-1.3-5.7c0-6.7,5.5-12.3,12.3-12.4c3.4,0,6.5,1.2,8.9,3.6s3.7,5.5,3.7,8.9c0,2-0.5,3.9-1.3,5.6
			L23,37.6c-0.3,0.5-0.8,0.6-1,0.6s-0.7-0.1-1-0.6L10.9,20.6z M30.8,41.8c-0.3-0.1-0.7-0.1-1,0L22,45.3l-7.9-3.5
			c-0.3-0.1-0.7-0.1-1,0l-5.4,2.4l4.7-10l3-1.3l3.5,5.9c0.6,1.1,1.8,1.7,3,1.7c1.3,0,2.4-0.6,3-1.7l3.5-5.9l3,1.3l4.7,10L30.8,41.8z
			 M27.4,15c0-3-2.4-5.4-5.4-5.4S16.6,12,16.6,15s2.4,5.4,5.4,5.4S27.4,18,27.4,15z M19,15c0-1.7,1.3-3,3-3s3,1.4,3,3
			c0,1.7-1.3,3-3,3S19,16.7,19,15z"/>
	</g>
</g>
</svg>
