<?xml version="1.0" encoding="utf-8"?>
<!-- Generator: Adobe Illustrator 22.0.0, SVG Export Plug-In . SVG Version: 6.00 Build 0)  -->
<svg version="1.1" id="Layer_1" xmlns="http://www.w3.org/2000/svg" xmlns:xlink="http://www.w3.org/1999/xlink" x="0px" y="0px"
	 viewBox="0 0 200 82.2" style="enable-background:new 0 0 200 82.2;" xml:space="preserve">
<style type="text/css">
	.st0{fill:#467F9F;}
	.st1{fill:#D5D5D5;}
	.st2{fill:#B0BDC0;}
	.st3{fill:#EDEDED;}
	.st4{fill:#E1574C;}
	.st5{fill:#F76054;}
	.st6{fill:#C74C42;}
</style>
<g>
	<g>
		<rect x="161.5" y="57.3" class="st0" width="26.8" height="5.5"/>
		<rect x="89.1" y="57.2" class="st0" width="26.8" height="5.5"/>
		<rect x="181.1" y="54.7" class="st0" width="10.5" height="17.8"/>
		<rect x="157.9" y="54.7" class="st0" width="10.5" height="17.8"/>
		<rect x="109.8" y="54.7" class="st0" width="10.5" height="17.8"/>
		<rect x="86.6" y="54.7" class="st0" width="10.5" height="17.8"/>
		<polygon class="st0" points="77.3,7.9 77.2,59.3 77,59.3 74.8,59.3 72.3,59.3 72.3,57.2 72.4,7.9 		"/>
		<polygon class="st1" points="199.8,0.8 199.8,5.7 199.6,59.9 191.6,59.9 188.3,59.9 181.1,59.8 168.3,59.8 161.5,59.7 157.9,59.7 
			120.3,59.6 115.9,59.5 109.8,59.5 97,59.5 89.1,59.4 86.6,59.4 77,59.4 77,59.3 77.3,7.9 77.3,0.3 194.9,0.8 		"/>
		<g>
			<path class="st2" d="M81.1,71.4c0,5.9,4.8,10.7,10.7,10.7c5.9,0,10.7-4.8,10.7-10.7c0-5.9-4.8-10.7-10.7-10.7
				C85.9,60.6,81.1,65.4,81.1,71.4z"/>
			<path class="st3" d="M86.5,71.4c0,2.9,2.4,5.3,5.3,5.3c2.9,0,5.3-2.4,5.3-5.3c0-2.9-2.4-5.3-5.3-5.3
				C88.9,66.1,86.5,68.4,86.5,71.4z"/>
		</g>
		<g>
			<path class="st2" d="M104.3,71.4c0,5.9,4.8,10.7,10.7,10.7c5.9,0,10.7-4.8,10.7-10.7c0-5.9-4.8-10.7-10.7-10.7
				C109.1,60.7,104.3,65.5,104.3,71.4z"/>
			<path class="st3" d="M109.7,71.4c0,2.9,2.4,5.3,5.3,5.3c2.9,0,5.3-2.4,5.3-5.3c0-2.9-2.4-5.3-5.3-5.3
				C112.1,66.1,109.7,68.5,109.7,71.4z"/>
		</g>
		<g>
			<path class="st2" d="M175.5,71.4c0,5.9,4.8,10.7,10.7,10.7c5.9,0,10.7-4.8,10.7-10.7c0-5.9-4.8-10.7-10.7-10.7
				C180.4,60.7,175.6,65.5,175.5,71.4z"/>
			<path class="st3" d="M181,71.4c0,2.9,2.4,5.3,5.3,5.3c2.9,0,5.3-2.4,5.3-5.3c0-2.9-2.4-5.3-5.3-5.3C183.3,66.1,181,68.5,181,71.4
				z"/>
		</g>
		<g>
			<path class="st2" d="M152.4,71.4c0,5.9,4.8,10.7,10.7,10.7c5.9,0,10.7-4.8,10.7-10.7c0-5.9-4.8-10.7-10.7-10.7
				C157.2,60.7,152.4,65.5,152.4,71.4z"/>
			<path class="st3" d="M157.8,71.4c0,2.9,2.4,5.3,5.3,5.3c2.9,0,5.3-2.4,5.3-5.3c0-2.9-2.4-5.3-5.3-5.3
				C160.2,66.1,157.8,68.5,157.8,71.4z"/>
		</g>
		<g>
			<rect x="6.8" y="55.4" class="st0" width="29.4" height="19.5"/>
			<path class="st4" d="M74.8,0.5v7.4l0,49.3v2.1l0,15.5H64.4l-12.7,0l-15.5,0h-3.6c0.3-0.8,0.4-1.7,0.5-2.6c0-0.3,0-0.5,0-0.8
				c0-0.4,0-0.7-0.1-1.1c-0.4-5.4-4.3-9.8-9.5-11v-3.8l0-22.2L53.5,7.9h0.2l0-0.1l0-0.1l-0.1-0.2l-0.2-0.5h-0.2v0L22.9,32.8v0l0,0
				l0,22.6v3.7c-0.7-0.1-1.4-0.2-2.1-0.2c-6.5,0-11.8,4.9-12.4,11.2c0,0.4-0.1,0.8-0.1,1.3c0,0.3,0,0.5,0,0.8
				c0.1,0.9,0.2,1.7,0.5,2.6h-2l-2.9,0H0.2v-3.7l0-13.9v-4c0.7-0.2,1.3-0.4,2-0.7c5.4-2.1,8.8-6.1,7.7-9c-1-2.5-5.1-3.3-9.7-2v-3
				l12-6.4l2-1.1l2.4-1.3l0.1-0.1L40.3,10l11.4-9.5L74.8,0.5z"/>
			<g>
				<path class="st2" d="M10,71.3C10,77.2,14.8,82,20.8,82c5.9,0,10.7-4.8,10.7-10.7c0-5.9-4.8-10.7-10.7-10.7
					C14.8,60.6,10,65.4,10,71.3z"/>
				<path class="st3" d="M15.5,71.3c0,2.9,2.4,5.3,5.3,5.3c2.9,0,5.3-2.4,5.3-5.3c0-2.9-2.4-5.3-5.3-5.3
					C17.8,66,15.5,68.4,15.5,71.3z"/>
			</g>
			<path class="st5" d="M74.8,57.2v2.1l0,15.5v0.1h-2.8l-0.8,0l-19.5,0l-15.5,0h-3.6c0,0,0-0.1,0-0.1c0.2-0.8,0.4-1.7,0.5-2.6
				c0-0.3,0-0.5,0-0.8c0-0.4,0-0.7-0.1-1.1c-0.5-5.4-4.4-9.7-9.5-10.9c-0.3-0.1-0.5-0.1-0.8-0.2c-0.7-0.1-1.4-0.2-2.1-0.2
				c-6.4,0-11.7,4.9-12.4,11.1c0,0.4-0.1,0.8-0.1,1.3c0,0.3,0,0.5,0,0.8c0.1,0.9,0.2,1.8,0.4,2.6c0,0,0,0.1,0,0.1h-2l-2.8,0H0.2
				v-3.8l0-13.9h6.6l16.1,0l0.8,0l12.6,0l28.2,0h7.9L74.8,57.2z"/>
			<polygon class="st6" points="53.2,7.1 53.2,7.1 53.2,7.1 			"/>
			<polygon class="st6" points="53.5,7.9 23.7,33.2 23.7,33.1 22.9,32.8 22.9,32.8 53.2,7.1 53.2,7.9 			"/>
			<polygon class="st6" points="53.5,7.9 53.2,7.9 53.2,7.1 53.2,7.1 53.7,7.7 			"/>
			<path class="st6" d="M22.9,32.8l0.5,0.6l0.2-0.2l0,26.1c-0.3-0.1-0.5-0.1-0.8-0.2L22.9,32.8L22.9,32.8z"/>
			<polygon class="st6" points="23.7,33.2 23.4,33.4 22.9,32.8 23.7,33.1 			"/>
			<path class="st3" d="M2.2,52.5c-0.7,0.3-1.4,0.5-2,0.7l0-11.7c4.6-1.3,8.8-0.5,9.7,2C11.1,46.4,7.6,50.4,2.2,52.5z"/>
			<path class="st3" d="M14.2,26.5v4.6l0,9.3c0,0.6-0.5,1-1,1c-0.6,0-1-0.5-1-1l0-8.2v-5.7c0-0.6,0.5-1,1-1
				C13.8,25.5,14.2,25.9,14.2,26.5z"/>
			<path class="st4" d="M15.9,24.3c0,1.4-0.7,2.6-1.7,3.3c-0.6,0.4-1.3,0.7-2,0.8c-0.1,0-0.3,0-0.5,0H8.5v-8.3h3.2
				C14,20.1,15.9,22,15.9,24.3z"/>
			<polygon class="st3" points="52.9,9.4 62.8,9.4 62.8,37 52.9,37 24.5,37 24.5,33.5 			"/>
			<polygon class="st3" points="43.7,10 20,29.7 16.6,29.7 40.3,10 			"/>
			<polygon class="st6" points="53.3,7.9 53.5,7.7 53.2,7.1 65.3,7.1 65.3,7.9 			"/>
			<rect x="64.5" y="7.9" class="st6" width="0.8" height="66.9"/>
		</g>
		<rect x="80.5" y="3.7" class="st3" width="115.9" height="53.3"/>
	</g>
</g>
</svg>
