<?xml version="1.0" encoding="utf-8"?>
<!-- Generator: Adobe Illustrator 22.0.0, SVG Export Plug-In . SVG Version: 6.00 Build 0)  -->
<svg version="1.1" id="Layer_1" xmlns="http://www.w3.org/2000/svg" xmlns:xlink="http://www.w3.org/1999/xlink" x="0px" y="0px"
	 viewBox="0 0 646 433" style="enable-background:new 0 0 646 433;" xml:space="preserve">
<style type="text/css">
	.st0{fill:#5E5C56;}
	.st1{fill:#52504B;}
	.st2{fill:#D6D6D6;}
	.st3{fill:#807D75;}
	.st4{fill:#D6D2C5;}
	.st5{fill:#615F59;}
	.st6{fill:#D4AE0B;}
	.st7{fill:#B8970A;}
	.st8{fill:#E6C227;}
	.st9{fill:#A3A347;}
	.st10{fill:#999940;}
	.st11{fill:#757533;}
	.st12{fill:#D4C892;}
	.st13{fill:#EBE7DD;}
	.st14{fill:#B3AFA4;}
	.st15{fill:#808038;}
	.st16{fill:#C4C458;}
	.st17{fill:#944A07;}
	.st18{fill:#BD5E09;}
	.st19{fill:#6B6862;}
	.st20{fill:#D96C0A;}
	.st21{fill:#949441;}
	.st22{fill:#B0B04C;}
</style>
<g>
	<ellipse class="st0" cx="323.3" cy="404.6" rx="323.3" ry="23.8"/>
	<path class="st1" d="M617.1,349.1L617.1,349.1c2.1-0.3,3.5-2.2,3.3-4.2l-8.6-65.9c-0.3-2.1-2.2-3.5-4.2-3.3l0,0
		c-2.1,0.3-3.5,2.2-3.3,4.2l8.6,65.9C613.1,347.9,615,349.4,617.1,349.1z"/>
	<polygon class="st2" points="609.9,322.8 617.5,322.8 614.1,296.7 606.5,296.7 	"/>
	<circle class="st1" cx="124.8" cy="336.4" r="68.2"/>
	<circle class="st3" cx="124.8" cy="336.4" r="48"/>
	<circle class="st4" cx="124.8" cy="336.4" r="41.7"/>
	<circle class="st3" cx="124.8" cy="336.4" r="27.2"/>
	<path class="st2" d="M191.7,323.4c-5.8-30-31.3-52.9-62.5-54.9l-0.2-0.1l0,0.1c-1.4-0.1-2.8-0.1-4.2-0.1c-18.9,0-36,7.7-48.4,20.1
		c13.5,1.2,25.8,3.7,37.2,6.7l-16,27.7l7.3,4.2l10.2-17.7l6.8-11.8c2,0.6,4.1,1.3,6,1.9c0.1,0.3,0.3,0.6,0.6,0.7
		c-0.6-0.3-1.3-0.1-1.7,0.5c-0.3,0.6-0.1,1.3,0.5,1.7c-0.6-0.3-1.3-0.1-1.7,0.5c-0.3,0.6-0.1,1.3,0.5,1.7c-0.6-0.3-1.3-0.1-1.7,0.5
		c-0.3,0.6-0.1,1.3,0.5,1.7c-0.6-0.3-1.3-0.1-1.7,0.5c-0.3,0.6-0.1,1.3,0.5,1.7c-0.6-0.3-1.3-0.1-1.7,0.5c-0.3,0.6-0.1,1.3,0.5,1.7
		c-0.6-0.3-1.3-0.1-1.7,0.5c-0.3,0.6-0.1,1.3,0.5,1.7c-0.6-0.3-1.3-0.1-1.7,0.5c-0.3,0.6-0.1,1.3,0.5,1.7c-0.6-0.3-1.3-0.1-1.7,0.5
		c-0.3,0.6-0.1,1.3,0.5,1.7c-0.6-0.3-1.3-0.1-1.7,0.5c-0.3,0.6-0.1,1.3,0.5,1.7c-0.6-0.3-1.3-0.1-1.7,0.5c-0.3,0.6-0.1,1.3,0.5,1.7
		l7.4,4.2c0.6,0.3,1.3,0.1,1.7-0.5c0.3-0.6,0.1-1.3-0.5-1.7c0.6,0.3,1.3,0.1,1.7-0.5c0.3-0.6,0.1-1.3-0.5-1.7
		c0.6,0.3,1.3,0.1,1.7-0.5c0.3-0.6,0.1-1.3-0.5-1.7c0.6,0.3,1.3,0.1,1.7-0.5c0.3-0.6,0.1-1.3-0.5-1.7c0.6,0.3,1.3,0.1,1.7-0.5
		c0.3-0.6,0.1-1.3-0.5-1.7c0.6,0.3,1.3,0.1,1.7-0.5c0.3-0.6,0.1-1.3-0.5-1.7c0.6,0.3,1.3,0.1,1.7-0.5c0.3-0.6,0.1-1.3-0.5-1.7
		c0.6,0.3,1.3,0.1,1.7-0.5c0.3-0.6,0.1-1.3-0.5-1.7c0.6,0.3,1.3,0.1,1.7-0.5c0.3-0.6,0.1-1.3-0.5-1.7c0.6,0.3,1.3,0.1,1.7-0.5l0,0
		c0.3-0.6,0.1-1.3-0.5-1.7c0.6,0.3,1.3,0.1,1.7-0.5c0.2-0.3,0.2-0.7,0.1-1C157.9,310.4,175.2,318.7,191.7,323.4z"/>
	<polygon class="st3" points="115.1,306.3 104.9,324 97.6,319.8 129.1,265.3 136.4,269.5 	"/>
	<path class="st2" d="M116.4,350.1l-20.5-14.2c-5.8-4-7.3-12.1-3.3-17.9l0,0c4-5.8,12.1-7.3,17.9-3.3l20.5,14.2
		c5.8,4,7.3,12.1,3.3,17.9l0,0C130.3,352.7,122.2,354.2,116.4,350.1z"/>
	<circle class="st1" cx="529.9" cy="336.4" r="68.2"/>
	<path class="st2" d="M529.9,268.3c-37.6,0-68.2,30.5-68.2,68.2c0,37.6,30.5,68.2,68.2,68.2s68.2-30.5,68.2-68.2
		C598.1,298.8,567.5,268.3,529.9,268.3z M529.9,400.9c-35.6,0-64.4-28.8-64.4-64.4s28.8-64.4,64.4-64.4c35.6,0,64.4,28.8,64.4,64.4
		S565.5,400.9,529.9,400.9z"/>
	<path class="st2" d="M124.8,268.3c-37.6,0-68.2,30.5-68.2,68.2c0,37.6,30.5,68.2,68.2,68.2s68.2-30.5,68.2-68.2
		C193,298.8,162.5,268.3,124.8,268.3z M124.8,400.9c-35.6,0-64.4-28.8-64.4-64.4S89.3,272,124.8,272s64.4,28.8,64.4,64.4
		S160.4,400.9,124.8,400.9z"/>
	<circle class="st3" cx="529.9" cy="336.4" r="48"/>
	<circle class="st4" cx="529.9" cy="336.4" r="41.7"/>
	<circle class="st3" cx="529.9" cy="336.4" r="27.2"/>
	<path class="st2" d="M526.8,358L442,339.2c-9.5-2.1-15.5-11.6-13.4-21l0,0c2.1-9.5,11.6-15.5,21-13.4l84.8,18.8
		c9.5,2.1,15.5,11.6,13.4,21l0,0C545.7,354.1,536.3,360.1,526.8,358z"/>
	<path class="st2" d="M462.9,324.1h134.1c-1.1-5.8-2.9-11.4-5.3-16.6H468.2C465.7,312.7,463.9,318.3,462.9,324.1z"/>
	<path class="st5" d="M526.8,354.2L442,335.4c-9.5-2.1-15.5-11.6-13.4-21l0,0c2.1-9.5,11.6-15.5,21-13.4l84.8,18.8
		c9.5,2.1,15.5,11.6,13.4,21l0,0C545.7,350.3,536.3,356.3,526.8,354.2z"/>
	<path class="st2" d="M456.6,319.3h75.8L449.7,301c-9.5-2.1-18.9,3.9-21,13.4c-2.1,9.5,3.9,18.9,13.4,21l14.5,3.2V319.3z"/>
	<path class="st4" d="M454.1,309.2c0,0,0,16.4,0,24.7c0,8.3,0.2,19.6-22.9,19.6c-23.1,0-41.1-13.7-41.1-22.9h8.9
		C398.9,313.9,426.1,309.8,454.1,309.2z"/>
	<path class="st2" d="M398.9,330.8H390c0,1.7,0.7,3.7,1.9,5.6h7c0-16.8,27.1-21,55.2-21.5c0-3.3,0-5.6,0-5.6
		C426.1,309.8,398.9,313.9,398.9,330.8z"/>
	<rect x="422.1" y="322.8" class="st1" width="25.1" height="2.7"/>
	<rect x="422.1" y="328.8" class="st1" width="25.1" height="2.7"/>
	<rect x="422.1" y="334.7" class="st1" width="25.1" height="2.7"/>
	<rect x="422.1" y="340.7" class="st1" width="25.1" height="2.7"/>
	<path class="st6" d="M614.5,309.2c-9.6,0-153.4,0-153.4,0c-2.3,0-4.7,0-7,0.1c-28,0.5-55.2,4.7-55.2,21.5H390
		c-25.3,0-78.8,0-78.8,0c-27,0-56.5,0-82.8-11.9c-2.5-24.5-21.2-65.4-44.2-85.3c-4-3.5-8.2-6.3-12.3-8.4c-0.2-0.1-0.4-0.2-0.5-0.3
		c0-53.3,61.7-120.4,29-127.8V54c34.9,1.3,49.1,10.8,52.7,13.6c3.2,2.5,4,4.9,4,4.9c-3.8,1-7,4.5-8,9.2c-1,4.9,0.8,9.7,4.3,12
		c0,0-31.1,56-37.8,77.4c-6.7,21.4-7.6,51.2,2.3,80.3s39,50.8,62.5,50.8s40.5,0.2,66.1,0.2c25.6,0,52.4-13.2,52.4-52.9
		c0-39.6-41.7-63.7-41.7-63.7s71.9,0,125.3,0c29.4,0,56.7,8.7,79.6,23.8c14.2,9.3,26.6,21.1,36.7,34.7c10.2,13.7,18,29.3,22.9,46.1
		C623.6,296.4,624.2,309.2,614.5,309.2z"/>
	<path class="st7" d="M209.3,171c-6.7,21.4-7.6,51.2,2.3,80.3s35.7,50.8,68.9,50.8c-23.5,0-52.7-21.6-62.5-50.8s-9-58.9-2.3-80.3
		c6.7-21.4,37.8-77.4,37.8-77.4C245,89.7,216,149.6,209.3,171z"/>
	<path class="st8" d="M257.1,72.4c0,0-0.8-2.4-4-4.9c-3.6-2.8-17.7-12.3-52.7-13.6v12.3c29.2,1.1,43.9,7.9,50,11.7
		C252,75.2,254.4,73.1,257.1,72.4z"/>
	<path class="st7" d="M409.5,249.4c0-39.6-52.3-63.7-52.3-63.7s41.7,24,41.7,63.7c0,39.3-26.4,52.6-51.8,52.8c3.2,0,6.5,0,9.9,0
		C382.7,302.2,409.5,289,409.5,249.4z"/>
	<path class="st8" d="M184.4,202.9c5.8-48.8,44.3-99.4,16.1-105.8l0,0c32.6,7.4-29,74.5-29,127.8C171.4,224.9,183,214.6,184.4,202.9
		z"/>
	<g>
		<g>
			<path class="st3" d="M123.8,322.9l-7.4-4.2c-0.6-0.3-0.8-1.1-0.5-1.7l0,0c0.3-0.6,1.1-0.8,1.7-0.5l7.4,4.2
				c0.6,0.3,0.8,1.1,0.5,1.7l0,0C125.1,323,124.4,323.2,123.8,322.9z"/>
			<path class="st2" d="M125.5,322.4c-0.3,0.6-1.1,0.8-1.7,0.5l-7.4-4.2c-0.6-0.3-0.8-1.1-0.5-1.7L125.5,322.4z"/>
		</g>
		<g>
			<path class="st3" d="M125,320.7l-7.4-4.2c-0.6-0.3-0.8-1.1-0.5-1.7l0,0c0.3-0.6,1.1-0.8,1.7-0.5l7.4,4.2c0.6,0.3,0.8,1.1,0.5,1.7
				l0,0C126.4,320.9,125.6,321.1,125,320.7z"/>
			<path class="st2" d="M126.7,320.3c-0.3,0.6-1.1,0.8-1.7,0.5l-7.4-4.2c-0.6-0.3-0.8-1.1-0.5-1.7L126.7,320.3z"/>
		</g>
		<g>
			<path class="st3" d="M126.2,318.6l-7.4-4.2c-0.6-0.3-0.8-1.1-0.5-1.7l0,0c0.3-0.6,1.1-0.8,1.7-0.5l7.4,4.2
				c0.6,0.3,0.8,1.1,0.5,1.7l0,0C127.6,318.7,126.8,318.9,126.2,318.6z"/>
			<path class="st2" d="M127.9,318.1c-0.3,0.6-1.1,0.8-1.7,0.5l-7.4-4.2c-0.6-0.3-0.8-1.1-0.5-1.7L127.9,318.1z"/>
		</g>
		<g>
			<path class="st3" d="M127.4,316.5l-7.4-4.2c-0.6-0.3-0.8-1.1-0.5-1.7l0,0c0.3-0.6,1.1-0.8,1.7-0.5l7.4,4.2
				c0.6,0.3,0.8,1.1,0.5,1.7l0,0C128.8,316.6,128,316.8,127.4,316.5z"/>
			<path class="st2" d="M129.1,316c-0.3,0.6-1.1,0.8-1.7,0.5l-7.4-4.2c-0.6-0.3-0.8-1.1-0.5-1.7L129.1,316z"/>
		</g>
		<g>
			<path class="st3" d="M128.7,314.3l-7.4-4.2c-0.6-0.3-0.8-1.1-0.5-1.7l0,0c0.3-0.6,1.1-0.8,1.7-0.5l7.4,4.2
				c0.6,0.3,0.8,1.1,0.5,1.7l0,0C130,314.4,129.3,314.6,128.7,314.3z"/>
			<path class="st2" d="M130.3,313.8c-0.3,0.6-1.1,0.8-1.7,0.5l-7.4-4.2c-0.6-0.3-0.8-1.1-0.5-1.7L130.3,313.8z"/>
		</g>
		<g>
			<path class="st3" d="M129.9,312.2l-7.4-4.2c-0.6-0.3-0.8-1.1-0.5-1.7l0,0c0.3-0.6,1.1-0.8,1.7-0.5l7.4,4.2
				c0.6,0.3,0.8,1.1,0.5,1.7l0,0C131.2,312.3,130.5,312.5,129.9,312.2z"/>
			<path class="st2" d="M131.6,311.7c-0.3,0.6-1.1,0.8-1.7,0.5l-7.4-4.2c-0.6-0.3-0.8-1.1-0.5-1.7L131.6,311.7z"/>
		</g>
		<g>
			<path class="st3" d="M131.1,310l-7.4-4.2c-0.6-0.3-0.8-1.1-0.5-1.7l0,0c0.3-0.6,1.1-0.8,1.7-0.5l7.4,4.2c0.6,0.3,0.8,1.1,0.5,1.7
				l0,0C132.4,310.1,131.7,310.3,131.1,310z"/>
			<path class="st2" d="M132.8,309.5c-0.3,0.6-1.1,0.8-1.7,0.5l-7.4-4.2c-0.6-0.3-0.8-1.1-0.5-1.7L132.8,309.5z"/>
		</g>
		<g>
			<path class="st3" d="M132.3,307.9l-7.4-4.2c-0.6-0.3-0.8-1.1-0.5-1.7l0,0c0.3-0.6,1.1-0.8,1.7-0.5l7.4,4.2
				c0.6,0.3,0.8,1.1,0.5,1.7l0,0C133.7,308,132.9,308.2,132.3,307.9z"/>
			<path class="st2" d="M134,307.4c-0.3,0.6-1.1,0.8-1.7,0.5l-7.4-4.2c-0.6-0.3-0.8-1.1-0.5-1.7L134,307.4z"/>
		</g>
		<g>
			<path class="st3" d="M133.5,305.7l-7.4-4.2c-0.6-0.3-0.8-1.1-0.5-1.7l0,0c0.3-0.6,1.1-0.8,1.7-0.5l7.4,4.2
				c0.6,0.3,0.8,1.1,0.5,1.7l0,0C134.9,305.8,134.1,306.1,133.5,305.7z"/>
			<path class="st2" d="M135.2,305.3c-0.3,0.6-1.1,0.8-1.7,0.5l-7.4-4.2c-0.6-0.3-0.8-1.1-0.5-1.7L135.2,305.3z"/>
		</g>
		<g>
			<path class="st3" d="M134.7,303.6l-7.4-4.2c-0.6-0.3-0.8-1.1-0.5-1.7l0,0c0.3-0.6,1.1-0.8,1.7-0.5l7.4,4.2
				c0.6,0.3,0.8,1.1,0.5,1.7l0,0C136.1,303.7,135.3,303.9,134.7,303.6z"/>
			<path class="st2" d="M136.4,303.1c-0.3,0.6-1.1,0.8-1.7,0.5l-7.4-4.2c-0.6-0.3-0.8-1.1-0.5-1.7L136.4,303.1z"/>
		</g>
		<g>
			<path class="st3" d="M136,301.4l-7.4-4.2c-0.6-0.3-0.8-1.1-0.5-1.7l0,0c0.3-0.6,1.1-0.8,1.7-0.5l7.4,4.2c0.6,0.3,0.8,1.1,0.5,1.7
				l0,0C137.3,301.6,136.5,301.8,136,301.4z"/>
			<path class="st2" d="M137.6,301c-0.3,0.6-1.1,0.8-1.7,0.5l-7.4-4.2c-0.6-0.3-0.8-1.1-0.5-1.7L137.6,301z"/>
		</g>
		<g>
			<path class="st3" d="M137.2,299.3l-7.4-4.2c-0.6-0.3-0.8-1.1-0.5-1.7l0,0c0.3-0.6,1.1-0.8,1.7-0.5l7.4,4.2
				c0.6,0.3,0.8,1.1,0.5,1.7l0,0C138.5,299.4,137.8,299.6,137.2,299.3z"/>
			<path class="st2" d="M138.9,298.8c-0.3,0.6-1.1,0.8-1.7,0.5l-7.4-4.2c-0.6-0.3-0.8-1.1-0.5-1.7L138.9,298.8z"/>
		</g>
		<g>
			<path class="st3" d="M138.4,297.1l-7.4-4.2c-0.6-0.3-0.8-1.1-0.5-1.7l0,0c0.3-0.6,1.1-0.8,1.7-0.5l7.4,4.2
				c0.6,0.3,0.8,1.1,0.5,1.7l0,0C139.7,297.3,139,297.5,138.4,297.1z"/>
			<path class="st2" d="M140.1,296.7c-0.3,0.6-1.1,0.8-1.7,0.5l-7.4-4.2c-0.6-0.3-0.8-1.1-0.5-1.7L140.1,296.7z"/>
		</g>
		<g>
			<path class="st3" d="M139.6,295l-7.4-4.2c-0.6-0.3-0.8-1.1-0.5-1.7l0,0c0.3-0.6,1.1-0.8,1.7-0.5l7.4,4.2c0.6,0.3,0.8,1.1,0.5,1.7
				l0,0C140.9,295.1,140.2,295.3,139.6,295z"/>
			<path class="st2" d="M141.3,294.5c-0.3,0.6-1.1,0.8-1.7,0.5l-7.4-4.2c-0.6-0.3-0.8-1.1-0.5-1.7L141.3,294.5z"/>
		</g>
		<g>
			<path class="st3" d="M140.8,292.8l-7.4-4.2c-0.6-0.3-0.8-1.1-0.5-1.7l0,0c0.3-0.6,1.1-0.8,1.7-0.5l7.4,4.2
				c0.6,0.3,0.8,1.1,0.5,1.7l0,0C142.2,293,141.4,293.2,140.8,292.8z"/>
			<path class="st2" d="M142.5,292.4c-0.3,0.6-1.1,0.8-1.7,0.5l-7.4-4.2c-0.6-0.3-0.8-1.1-0.5-1.7L142.5,292.4z"/>
		</g>
	</g>
	<path class="st8" d="M598.9,246.5c-10.1-13.6-22.6-25.4-36.7-34.7c-13.6-9-28.8-15.7-45.1-19.7c-11.1-2.7-17.1-2.1-4.2,1.7
		c13.9,4.1,26.9,10.2,38.7,18c14.2,9.3,26.6,21.1,36.7,34.7c10.9,14.6,19.1,31.4,23.8,49.5c1.3,5,10.6-0.8,8-8.5
		C615.3,272.7,608.1,258.9,598.9,246.5z"/>
	<path class="st9" d="M268.2,85.1c-1.3,6.3-6.7,10.4-12.1,9.3c-1.1-0.2-2.2-0.7-3.1-1.3c-3.5-2.3-5.4-7.1-4.3-12
		c1-4.6,4.2-8.1,8-9.2c1.3-0.4,2.7-0.4,4.1-0.2C266.1,72.8,269.5,78.8,268.2,85.1z"/>
	<path class="st10" d="M268.7,85.6c-1.3,6.3-6.7,10.4-12.1,9.3c-1.1-0.2-2.2-0.7-3.1-1.3c-3.5-2.3-5.4-7.1-4.3-12
		c1-4.6,4.2-8.1,8-9.2c1.3-0.4,2.7-0.4,4.1-0.2C266.6,73.4,270,79.3,268.7,85.6z"/>
	<path class="st6" d="M614,312.4H464.8c-27.2,0-49.2-22-49.2-49.2s22-49.2,49.2-49.2h26.1C551,213.9,601.3,256,614,312.4z"/>
	<path class="st10" d="M294.6,91c-0.8,3.9-4.1,6.4-7.5,5.7c-3.3-0.7-5.4-4.4-4.6-8.2c0.8-3.9,4.1-6.4,7.5-5.8
		C293.4,83.4,295.4,87.1,294.6,91z"/>
	<path class="st11" d="M263.1,93.7c-2,1.2-4.3,1.7-6.5,1.2c-0.8-0.2-1.5-0.4-2.1-0.8l-1.5-8.7c0.5,2.5,2.2,4.6,4.6,5.1l5.2,1.1
		L263.1,93.7z"/>
	<path class="st12" d="M192.4,55.2v40.5c-3-5.8-4.7-12.8-4.7-20.2S189.4,61.1,192.4,55.2z"/>
	<path class="st4" d="M264,2.1c2-2.7,8.9-3,12.4,0.8c3.5,3.9,7.7,11.4,4.8,14.8c-2.9,3.4-17.1,3-18.4,0.4
		C261.6,15.5,260.9,6.3,264,2.1z"/>
	<path class="st13" d="M276.1,5.5c1.8,2,3.7,4.8,4.8,7.6c-0.7-3.2-3-6.9-5.1-9.2c-3.3-3.6-9.7-3.3-11.6-0.8c-0.5,0.8-1,1.7-1.3,2.7
		c0.2-0.4,0.4-0.9,0.7-1.2C265.7,1.9,272.6,1.6,276.1,5.5z"/>
	<path class="st14" d="M281.2,14.9c-2.9,3.4-17.1,3-18.4,0.4c-0.5-1-0.9-3.1-1-5.5c-0.2,3.5,0.3,6.8,1,8.3c1.2,2.6,15.5,3,18.4-0.4
		c1-1.1,1.1-2.7,0.8-4.5C281.8,13.8,281.6,14.4,281.2,14.9z"/>
	<path class="st4" d="M225.9,71.8c-2,0-4.4-0.2-5-1.1c0-2.3,1.8-8.4,5-8.4c3.2,0,5.1,6,5,8.4C230.3,71.5,227.9,71.8,225.9,71.8z"/>
	<path class="st14" d="M225.9,71.4c-1.6,0-3.5-0.1-4-0.4c0-0.8,1.5-3,4-3c2.6,0,4.1,2.2,4,3C229.4,71.3,227.5,71.4,225.9,71.4z"/>
	<path class="st13" d="M225.9,63.4c2.8,0,4.6,4.6,5,7.4c0,0,0.1,0,0.1-0.1c0-2.3-1.8-8.4-5-8.4c-3.2,0-5.1,6-5,8.4
		c0,0,0.1,0,0.1,0.1C221.3,68,223.1,63.4,225.9,63.4z"/>
	<g>
		<path class="st4" d="M225.9,63.9c-0.5,0-0.8-0.4-0.8-0.8v-7.4c0-3.1,0.7-4.9,3.1-8.1c2.1-2.8,21.6-28.5,24.1-31.9
			c2.7-3.7,4.6-4.1,7.1-4.1c2.4-0.1,4.9,0,4.9,0c0.5,0,0.8,0.4,0.8,0.9c0,0.5-0.4,0.9-0.9,0.8c0,0-2.5-0.1-4.8,0
			c-2.2,0-3.4,0.2-5.7,3.4c-2.5,3.4-22,29.1-24.1,31.9c-2.2,2.8-2.7,4.3-2.7,7v7.4C226.7,63.6,226.4,63.9,225.9,63.9z"/>
	</g>
	<path class="st9" d="M539.3,185.7H367.8c-6.7,0-10.6,0-10.6,0s-4.3-20.4,3.5-24.9c7.8-4.5,167.8-5,175.6,0
		C544.2,165.8,541.8,183.4,539.3,185.7z"/>
	<path class="st15" d="M533.6,179.9c-5.7,0-165.8,0-165.8,0c-10.1,0-10.6,5.9-10.6,5.9h182.1C540.8,184.4,539.4,179.9,533.6,179.9z"
		/>
	<path class="st16" d="M360.7,166.7c7.8-4.5,167.8-5,175.6,0c3.3,2.1,4.8,6.5,5.2,11c0.5-6.1-0.4-13.8-5.2-16.9
		c-7.8-5-167.8-4.5-175.6,0c-4.4,2.5-5,10.2-4.6,16.4C356.5,172.7,357.7,168.4,360.7,166.7z"/>
	<path class="st7" d="M539.3,185.7c0,0-4.1,6.2-5.3,9.4c-13.9-5.3-36.9-9.4-51.4-9.4H539.3z"/>
	<path class="st1" d="M243.2,100.3l-5.7,0.6c0,0-0.7-6.8-1-10.4c-0.3-3.7,5.4-3.9,5.7-0.6C242.4,93.2,243.2,100.3,243.2,100.3z"/>
	<path class="st1" d="M184.3,233.5l-5.7,9.4c-4.1-3.6-8.4-6.9-13.2-9.7l6.5-8C176.2,227.1,180.3,230,184.3,233.5z"/>
	<path class="st17" d="M578,221.6c7.7,6.8,14.7,14.3,20.9,22.6l9.9-6.5c0,0,0-9.4,0-16.1H578z"/>
	<path class="st8" d="M179.5,220.8c8.8,0,24-4.8,24-10.5c0-5.7-15.2-10.5-24-10.5V220.8z"/>
	<path class="st7" d="M179.5,217.1v3.7c8.8,0,24-4.8,24-10.5c0-0.6-0.2-1.3-0.6-1.9C200.1,213.3,187.3,217.1,179.5,217.1z"/>
	<path class="st18" d="M173.9,200.2v20.3c-2.3-2.7-3.7-6.3-3.7-10.1C170.2,206.5,171.6,202.9,173.9,200.2z"/>
	<path class="st2" d="M481.9,314.6h-13.4c0,15.6,12.7,28.3,28.3,28.3h50.4c0.2-0.7,0.5-1.4,0.6-2.1c0.9-4,0.3-7.9-1.3-11.3h-49.7
		C488.6,329.5,481.9,322.8,481.9,314.6z"/>
	<g>
		<path class="st3" d="M563.1,340.7h-66.3c-15.6,0-28.3-12.7-28.3-28.3h13.4c0,8.2,6.7,14.9,14.9,14.9h66.3V340.7z"/>
	</g>
	<path class="st2" d="M468.6,312.4L468.6,312.4c-0.1,15.6,12.6,28.3,28.2,28.3h66.3V339h-66.3C481.8,339,469.5,327.2,468.6,312.4z"
		/>
	<path class="st2" d="M129.1,265.3L114,291.5c3.1-2.5,7.8-0.1,7,4.7l15.4-26.7L129.1,265.3z"/>
	<path class="st1" d="M414.8,324.8h-5.6v7.2h5.6c2,0,3.6-1.6,3.6-3.6C418.4,326.4,416.8,324.8,414.8,324.8z"/>
	<path class="st19" d="M483.5,319c-1-2-1.6-4.3-1.6-6.6h-13.4c0,3.1,0.5,6,1.4,8.8C473.1,315.8,479.9,315.9,483.5,319z"/>
	<path class="st1" d="M547.6,341.5h-38.7v7h35C545.6,346.5,546.9,344.2,547.6,341.5z"/>
	<g>
		<rect x="510.1" y="339.2" class="st14" width="53" height="5.8"/>
		<rect x="510.1" y="323" class="st13" width="53" height="7.1"/>
		<rect x="510.1" y="330.1" class="st4" width="53" height="9.1"/>
	</g>
	<path class="st6" d="M215,315.1c-41.5-0.5-80.7-38.3-154.6-39.6c-1.9,0-3.1-1.9-2.5-3.6c11-28.6,38.7-48.9,71.1-48.9
		c13.8,0,25.9,3.9,36.4,10.2c4.7,2.8,9.1,6.1,13.2,9.7c23.4,20.9,36.1,52.9,39.1,69.1C218,313.6,216.7,315.1,215,315.1z"/>
	<path class="st8" d="M147.3,239.2c52.8,15.2,59.5,71.4,67.9,71.4c-3.1-15.8-15.3-46.2-37.6-66.1c-3.9-3.5-8.1-6.7-12.7-9.4
		c-10.1-6-21.8-9.8-35.2-9.8c-30.9,0-57.4,19.1-68.2,46.1C66.7,271.6,84.9,221.2,147.3,239.2z"/>
	<g>
		<rect x="173.9" y="215.3" class="st14" width="5.6" height="5.5"/>
		<rect x="173.9" y="199.9" class="st13" width="5.6" height="6.8"/>
		<rect x="173.9" y="206.6" class="st4" width="5.6" height="8.7"/>
	</g>
	<g>
		<rect x="192.4" y="85.7" class="st14" width="8.1" height="11.3"/>
		<rect x="192.4" y="54" class="st13" width="8.1" height="13.9"/>
		<rect x="192.4" y="67.9" class="st4" width="8.1" height="17.8"/>
	</g>
	<path class="st6" d="M116.4,346.3l-20.5-14.2c-5.8-4-7.3-12.1-3.3-17.9v0c4-5.8,12.1-7.3,17.9-3.3l20.5,14.2
		c5.8,4,7.3,12.1,3.3,17.9l0,0C130.3,348.8,122.2,350.3,116.4,346.3z"/>
	<path class="st3" d="M105.6,323.1c-1.2,1.7-3.5,2.1-5.3,1c-1.7-1.2-2.1-3.5-1-5.3c1.2-1.7,3.5-2.1,5.3-1
		C106.3,319,106.7,321.4,105.6,323.1z"/>
	<path class="st2" d="M105.6,321.9c-1.2,1.7-3.5,2.1-5.3,1c-0.9-0.6-1.4-1.5-1.6-2.5c-0.2,1.4,0.3,2.8,1.6,3.7
		c1.7,1.2,4.1,0.8,5.3-1c0.6-0.8,0.8-1.9,0.6-2.8C106.1,320.8,105.9,321.4,105.6,321.9z"/>
	<g>
		<path class="st18" d="M592.4,209.5c0,0-14.3,0-30.3,0c4.5,3,8.8,6.2,13,9.7h25.2C594.7,215.7,592.4,209.5,592.4,209.5z"/>
		<path class="st20" d="M575.2,219.2c1,0.8,1.9,1.6,2.9,2.4h30.8c-3.4,0-6.2-1-8.5-2.4H575.2z"/>
	</g>
	<g>
		<path class="st21" d="M287.2,96.7l-22-4.5l-2.4-0.5l-5.2-1.1c-2.4-0.5-4.1-2.5-4.6-5.1l14.8,3.1l14.9,3.1
			C283.1,94.2,284.8,96.2,287.2,96.7z"/>
		<path class="st9" d="M282.6,88.5c0.4-1.9,1.4-3.5,2.8-4.6l-29.7-6.1c-1.4,1-2.4,2.6-2.8,4.6c-0.2,1.1-0.2,2.2,0,3.2l29.7,6.1
			C282.4,90.6,282.4,89.6,282.6,88.5z"/>
		<path class="st22" d="M290.1,82.7l-29.7-6.1c-1.7-0.3-3.3,0.1-4.7,1.2l29.7,6.1C286.7,82.9,288.4,82.4,290.1,82.7z"/>
	</g>
	<path class="st2" d="M208.9,103.1c0.3,0.6,0.5,1.2,0.7,1.9l32.8,9.1c0.3-0.5,0.5-1,0.8-1.5L208.9,103.1z"/>
	<g>
		<path class="st1" d="M331.4,331.4c-38.8,0-79.4-2.4-92.9-12.4c-26-19.2-34.5-69.1-34.5-90.3c0-39.2,15.4-76,25.6-100.4
			c5.6-13.3,10-23.9,9.3-28.7l1.7-0.2c0.8,5.3-3.5,15.5-9.4,29.6c-10.2,24.2-25.5,60.8-25.5,99.7c0,20.9,8.3,70.2,33.8,89
			c21.7,16,116.4,12.1,156.9,10.4c7.5-0.3,12.9-0.5,15.6-0.5l0,0v1.7c-2.7,0-8.1,0.2-15.5,0.5C380.5,330.4,356.3,331.4,331.4,331.4z
			"/>
	</g>
	<path class="st7" d="M606.6,289.8c0.4,7.6-13.2,10.8-42.2,10.8c-31.5,0-51-1.5-89.6-1.5c-32.6,0-51.9-10.4-58.8-29
		c3.4,23.9,23.9,42.3,48.7,42.3H614C612.2,304.6,609.7,297,606.6,289.8z"/>
	<path class="st8" d="M490.9,229.9c39.4,0,74.2,15.2,110.9,50.1c-21.4-39.3-63-66.1-110.9-66.1h-26.1c-19,0-35.5,10.8-43.7,26.6
		c-1.8,3.5,0,5.2,2.4,2.9C437.2,229.9,457.8,229.9,490.9,229.9z"/>
	<path class="st7" d="M621.8,290.3c-0.1-0.4-0.2-0.7-0.4-1.1c1.9,9.3-5.9,21.5-31.9,23.2c12.3,0,22.3,0,24.5,0
		C623.6,312.4,623.6,296.4,621.8,290.3z"/>
	<path class="st7" d="M482.6,185.7c-53.4,0-125.3,0-125.3,0s1.5,0.8,3.8,2.5h148.3C500.7,186.6,491.7,185.7,482.6,185.7z"/>
</g>
</svg>
