<?xml version="1.0" encoding="utf-8"?>
<!-- Generator: Adobe Illustrator 22.0.0, SVG Export Plug-In . SVG Version: 6.00 Build 0)  -->
<svg version="1.1" id="Layer_1" xmlns="http://www.w3.org/2000/svg" xmlns:xlink="http://www.w3.org/1999/xlink" x="0px" y="0px"
	 viewBox="0 0 200 122.7" style="enable-background:new 0 0 200 122.7;" xml:space="preserve">
<style type="text/css">
	.st0{fill:#324C58;}
	.st1{fill:#BAC1C3;}
	.st2{fill:#4C6170;}
	.st3{fill:#2EA9D3;}
	.st4{fill:#EDEDED;}
	.st5{fill:#BECED3;}
	.st6{fill:#2E4652;}
</style>
<g>
	<g>
		<rect x="58.6" y="5.1" class="st0" width="1.9" height="6.7"/>
		<rect x="49.1" y="21" class="st1" width="15.4" height="8.9"/>
		<polygon class="st2" points="84.7,90.1 77.7,99.7 77.7,99.8 77.6,99.9 65.6,89.5 54.6,79.9 28.7,57.3 22.9,52.2 19.7,49.5 
			13.6,44.1 24.1,32 25.7,30.1 26.6,31 44.8,49.5 45.9,50.6 46,50.8 46.6,51.4 47.1,51.9 50.6,55.4 50.9,55.8 65.1,70.2 78.2,83.5 
			78.3,83.6 82.3,87.7 		"/>
		<g>
			<path class="st0" d="M65.7,89.9c0,18.1-14.7,32.8-32.8,32.8c-4.5,0-8.7-0.9-12.6-2.5c-8-3.3-14.4-9.7-17.8-17.8
				C0.9,98.6,0,94.3,0,89.9c0-5.1,1.1-9.9,3.2-14.2c4.7-9.9,14.2-17,25.5-18.4c1.3-0.2,2.7-0.3,4.1-0.3c6.3,0,12.1,1.7,17.1,4.8
				c4.7,2.9,8.7,7,11.4,11.8c1.5,2.6,2.6,5.4,3.4,8.4c0.6,2.4,0.9,4.9,1,7.5C65.7,89.6,65.7,89.8,65.7,89.9z"/>
			<path class="st3" d="M50.7,89.9c0,9.9-8,17.9-17.9,17.9c-9.9,0-17.9-8-17.9-17.9C15,80,23,72,32.8,72C42.7,72,50.7,80,50.7,89.9z
				"/>
		</g>
		<path class="st4" d="M53.1,61.7c-0.3-0.7-0.6-1.3-1-1.9L43,45.9l-0.1,0.1L53.1,61.7z"/>
		<path class="st1" d="M65.9,69.4l-0.8,0.7l-3.7,3.5l-1.7,1.5l-5.1,4.7l-4.8,4.4L44,89.7l-0.7,0.6l-3.8,3.5H26.4
			c0,0,4.2-6.6,6.3-13.5c0,0,0,0,0,0c0.9-2.9,1.4-5.8,1.1-8.3c-0.3-2.5-1.4-4.6-3.9-5.8c0,0-5-4.6-14.9,2.6c0,0-6.7,7.5-11.7,6.9
			C2,75.6,0.9,75,0,73.7c0,0,6.2-14.9,22.9-21.4c4.9-1.9,10.8-3.1,17.6-3c1.4,0,2.8,0.1,4.2,0.2c0.1,0,0.3,0,0.4,0
			c0.1,0,0.2,0,0.2,0c0.6,0.1,1.2,0.1,1.9,0.2c0.2,0,0.4,0.1,0.7,0.1l0.6,0.7v0l4.8,5.2L65.9,69.4z"/>
		<polygon class="st0" points="107.3,84.6 101.3,86.8 97.5,87 84.4,87.6 82.3,87.7 80.9,87.8 78.3,83.6 78.2,83.5 60.4,55.8 
			56.8,50.1 56.6,49.9 66.8,54.8 67.3,55.6 84.9,83.6 85.5,84.6 		"/>
		<g>
			<path class="st0" d="M200,89.9c0,18.1-14.7,32.8-32.8,32.8c-18.1,0-32.8-14.7-32.8-32.8c0-18.1,14.7-32.8,32.8-32.8
				C185.3,57,200,71.7,200,89.9z"/>
			<path class="st3" d="M185,89.9c0,9.9-8,17.9-17.9,17.9c-9.9,0-17.9-8-17.9-17.9c0-9.9,8-17.9,17.9-17.9C177,72,185,80,185,89.9z"
				/>
		</g>
		<polygon class="st4" points="167.2,83.6 167.2,100 77.9,100 77.7,99.7 67.3,83.6 		"/>
		<polygon class="st4" points="88.8,93.7 77.9,100 42.9,52.3 53.8,46.1 		"/>
		<g>
			<path class="st5" d="M179.5,91.5c0,6.2-5,11.2-11.2,11.2c-6.2,0-11.2-5-11.2-11.2c0-6.2,5-11.2,11.2-11.2
				C174.5,80.3,179.5,85.3,179.5,91.5z"/>
			<path class="st4" d="M178.7,90.7c0,5.7-4.7,10.4-10.4,10.4c-5.7,0-10.4-4.7-10.4-10.4c0-5.7,4.7-10.4,10.4-10.4
				C174,80.3,178.7,84.9,178.7,90.7z"/>
		</g>
		<g>
			<path class="st5" d="M44.1,91.5c0,6.2-5,11.2-11.2,11.2c-6.2,0-11.2-5-11.2-11.2c0-6.2,5-11.2,11.2-11.2
				C39.1,80.3,44.1,85.3,44.1,91.5z"/>
			<path class="st4" d="M43.3,90.7c0,5.7-4.7,10.4-10.4,10.4c-5.7,0-10.4-4.7-10.4-10.4c0-5.7,4.7-10.4,10.4-10.4
				C38.7,80.3,43.3,84.9,43.3,90.7z"/>
		</g>
		<path class="st4" d="M186.3,56.6l-8.7,2.2l-28.7,7.2c-2.8,0.6-5,1.6-6.8,2.9c-7.3,4.9-7.7,13.3-7.7,14.6v6.5H95.4l2.1-2.9l1.7-2.4
			l0.7-1l10-14.1V57.1h3.6l2-4.7h6.4c1.4-2.1,3.5-3.6,6-4.2l24.3-5.9l4.5-1.1l24.7-6c1.3-0.3,2.7-0.3,4-0.1c4,0.8,7.4,4,8.4,8.4
			c0,0,0,0,0,0.1C195.2,49.5,191.8,55.3,186.3,56.6z"/>
		<path class="st4" d="M53.8,46.1l-5.2,4.5v0l-1.5,1.3L47,52l-0.1,0.1l-0.2,0.2l-1.2-1.3L43,52.3l0,0h0l-1.4-2
			c-0.3-0.4-0.6-0.8-0.9-1.1c-4.1-4.3-11.3-5.4-16.8-2.2l-3.2,1.8l0,0l-0.8,0.6l-2.1,1.5c-1,0.8-2.4,2.1-3,2.7c0,0-5.6,5.2-7.2,1.8
			c0,0-5.9-10.9,5.7-17.8c0,0,4.5-2.9,10.9-5.6c0.8-0.3,1.6-0.7,2.5-1c4-1.6,8.5-2.9,13-3.4l13.6,5.3l0.3,6l0,0.4l0.1,2.6l0,0.5
			L53.8,46.1z"/>
		<polygon class="st4" points="67.3,55.8 50.7,55.8 50.6,55.4 48.6,50.5 48.6,50.5 48.2,49.3 39.5,27.5 64.5,27.5 67.3,55.6 		"/>
		<g>
			<path class="st0" d="M157.1,41.5c-0.3,0.8-0.6,1.6-1,2.4c-0.4,0.8-0.8,1.6-1.3,2.3c-0.5,0.7-1,1.4-1.6,2.1
				c-0.3,0.3-0.6,0.7-0.9,1c-7.8,8.2-22.2,12.4-33.5,14.5l-8.9,1.1l-2,0.2c-6.3,0.8-12.1-3.7-12.9-10c-0.8-6.3,3.7-12.1,10-12.9
				l41.6-5.2c2.8-0.3,5.5,0.3,7.7,1.7c0.4,0.3,0.8,0.6,1.2,0.9c0.2,0.2,0.5,0.4,0.7,0.6c0.1,0,0.1,0.1,0.2,0.2
				c0.1,0.1,0.3,0.3,0.4,0.4c0,0,0.1,0.1,0.1,0.1C156.9,41.3,157,41.4,157.1,41.5L157.1,41.5z"/>
			<path class="st6" d="M157.1,41.5L157.1,41.5c-0.3,0.9-0.6,1.7-1,2.5c-0.4,0.8-0.8,1.6-1.3,2.3c-0.5,0.7-1,1.4-1.6,2.1
				c-0.3,0.3-0.6,0.7-0.9,1c-7.8,8.2-22.2,12.4-33.5,14.5l-8.9,1.1l-2,0.3c-3.3,0.4-6.5-0.6-8.9-2.6c2.9-0.3,6.7-0.7,10.9-1.4
				c14.4-2.3,34.2-7.5,42.4-19.1c0.7-1.1,1.4-2.2,1.9-3.3c0.4,0.3,0.8,0.6,1.2,0.9c0.2,0.2,0.5,0.4,0.7,0.6c0.1,0,0.1,0.1,0.2,0.2
				c0.1,0.1,0.3,0.3,0.4,0.4c0,0,0.1,0.1,0.1,0.1C156.9,41.3,157,41.4,157.1,41.5z"/>
		</g>
		<path class="st3" d="M64.5,10.8v12H48.9v0c-1.3-0.1-2.8-0.3-4.3-0.8c-3.4-1-5.7-2.5-7.1-3.9c-0.7-0.7-1-1.4-1-2
			c0-1.3,1.2-2.3,1.2-2.3c1.6-1.7,5.9-3,10.9-3c0.1,0,0.2,0,0.4,0v0H64.5z"/>
		<path class="st0" d="M76.5,16.8c0,1.6-1.3,3-3,3H58.2c-1.6,0-3-1.3-3-3c0-0.8,0.3-1.6,0.9-2.1c0.6-0.5,1.3-0.9,2.1-0.9h15.3
			C75.2,13.8,76.5,15.2,76.5,16.8z"/>
		<path class="st1" d="M64.5,0.2v8.2c-0.3,0.1-0.7,0.1-1,0.1c-0.2,0-0.5,0-0.7-0.1V0.1c0.2,0,0.5-0.1,0.7-0.1
			C63.9,0.1,64.2,0.1,64.5,0.2z"/>
		<path class="st5" d="M59.4,40.7c0,1.7-1.4,3.1-3.2,3.1c-1.7,0-3.2-1.4-3.2-3.1c0-1.7,1.4-3.2,3.2-3.2C58,37.6,59.4,39,59.4,40.7z"
			/>
		<path class="st4" d="M62.8,0.1v8.3c-0.9-0.1-1.6-0.4-2.3-0.9C59.6,7,59,6.1,58.8,5.1c-0.1-0.3-0.1-0.6-0.1-0.9
			C58.6,2.2,60.5,0.4,62.8,0.1z"/>
		<path class="st3" d="M59.4,40.2c0,1.7-1.4,3.2-3.2,3.2c-1.7,0-3.2-1.4-3.2-3.2c0-1.7,1.4-3.2,3.2-3.2C58,37.1,59.4,38.5,59.4,40.2
			z"/>
	</g>
</g>
</svg>
