<?xml version="1.0" encoding="iso-8859-1"?>
<!-- Generator: Adobe Illustrator 16.0.0, SVG Export Plug-In . SVG Version: 6.00 Build 0)  -->
<!DOCTYPE svg PUBLIC "-//W3C//DTD SVG 1.1//EN" "http://www.w3.org/Graphics/SVG/1.1/DTD/svg11.dtd">
<svg fill="#fff" version="1.1" id="Capa_1" xmlns="http://www.w3.org/2000/svg" xmlns:xlink="http://www.w3.org/1999/xlink" x="0px" y="0px"
	 width="505.336px" height="505.336px" viewBox="0 0 505.336 505.336" style="enable-background:new 0 0 505.336 505.336;"
	 xml:space="preserve">
<g>
	<g>
		<path d="M502.256,146.023c-1.945-1.532-4.483-2.077-6.892-1.516l-161.162,38.566l-28.148-6.741
			c10.856-23.008,19.631-45.812,19.631-59.419c0-36.786-29.929-66.717-66.716-66.717c-36.788,0-66.718,29.931-66.718,66.717
			c0,8.54,3.466,20.711,8.724,34.274c0,0-28.026-7.094-29.749-7c-1.368,0.073-165.021,39.336-165.021,39.336
			C2.566,184.396,0,187.649,0,191.388v255.664c0,2.477,1.133,4.818,3.078,6.352c1.44,1.137,3.21,1.736,5.009,1.736
			c0.628,0,1.26-0.076,1.881-0.221l161.177-38.572l161.177,38.572c0.622,0.148,1.253,0.221,1.882,0.221
			c0.628,0,1.259-0.076,1.882-0.221l163.044-39.018c3.639-0.873,6.206-4.127,6.206-7.865V152.373
			C505.334,149.898,504.199,147.556,502.256,146.023z M258.969,66.372c27.869,0,50.543,22.673,50.543,50.543
			c0,21.671-31.916,81.394-50.543,113.623c-18.63-32.225-50.544-91.945-50.544-113.623
			C208.425,89.044,231.098,66.372,258.969,66.372z M163.043,401.657l-146.87,35.146V197.771l146.87-35.146V401.657z
			 M179.244,162.625l29.572,7.075c16.315,35.934,39.344,74.504,43.228,80.94c1.463,2.424,4.091,3.908,6.925,3.908
			c2.833,0,5.461-1.484,6.923-3.908c3.11-5.156,18.493-30.91,32.88-59.412l27.345,6.543v239.033l-146.871-35.146L179.244,162.625
			L179.244,162.625z M489.159,401.657l-146.87,35.146V197.771l146.87-35.146V401.657z"/>
		<path d="M297.385,116.915c0-21.185-17.233-38.416-38.416-38.416c-21.184,0-38.417,17.231-38.417,38.416
			s17.233,38.417,38.417,38.417C280.15,155.332,297.385,138.1,297.385,116.915z M236.726,116.915
			c0-12.265,9.978-22.243,22.243-22.243s22.242,9.979,22.242,22.243c0,12.264-9.979,22.243-22.242,22.243
			C246.703,139.158,236.726,129.179,236.726,116.915z"/>
	</g>
</g>
<g>
</g>
<g>
</g>
<g>
</g>
<g>
</g>
<g>
</g>
<g>
</g>
<g>
</g>
<g>
</g>
<g>
</g>
<g>
</g>
<g>
</g>
<g>
</g>
<g>
</g>
<g>
</g>
<g>
</g>
</svg>
