<?xml version="1.0" encoding="utf-8"?>
<!-- Generator: Adobe Illustrator 22.0.0, SVG Export Plug-In . SVG Version: 6.00 Build 0)  -->
<svg version="1.1" id="Layer_1" xmlns="http://www.w3.org/2000/svg" xmlns:xlink="http://www.w3.org/1999/xlink" x="0px" y="0px"
	 viewBox="0 0 36.7 28.1" style="enable-background:new 0 0 36.7 28.1;" xml:space="preserve">
<path d="M23.7,27.2l12.5-12c0.3-0.3,0.4-0.7,0.4-0.9c0-0.4-0.1-0.7-0.4-0.9l-12.5-12c-0.3-0.3-0.6-0.4-1-0.4c-0.4,0-0.7,0.1-1,0.4
	l-1.9,1.9c-0.6,0.5-0.6,1.3,0,1.9l5.5,5.3c0.4,0.4,0.1,1.2-0.6,1.2H1.9c-0.8,0-1.4,0.5-1.4,1.3v2.7c0,0.8,0.6,1.3,1.4,1.3h23
	c0.6,0,1,0.7,0.6,1.2l-5.5,5.3c-0.6,0.5-0.6,1.3,0,1.9l1.9,1.9c0.3,0.3,0.6,0.4,1,0.4C23.1,27.6,23.4,27.5,23.7,27.2z"/>
</svg>
