<svg height="512pt" viewBox="-74 0 511 512" width="512pt" xmlns="http://www.w3.org/2000/svg"><path d="m79.65625 432.34375v-46.945312h-15.03125v46.945312c0 20.71875 16.855469 37.574219 37.574219 37.574219h19.035156v-15.03125h-19.035156c-12.433594 0-22.542969-10.113281-22.542969-22.542969zm0 0"/><path d="m285.054688 432.34375c0 12.429688-10.113282 22.542969-22.542969 22.542969h-19.039063v15.03125h19.039063c20.71875 0 37.574219-16.855469 37.574219-37.574219v-154.15625h-15.03125zm0 0"/><path d="m260.007812 394.269531c0-23.015625-9.953124-49.550781-25.96875-69.253906l-11.664062 9.476563c12 14.761718 20.289062 34.546874 22.1875 52.261718h-124.433594c3.613282-34.964844 31.332032-75.144531 62.226563-75.144531h.011719c2.523437 0 5.085937.269531 7.617187.800781l3.085937-14.710937c-3.542968-.742188-7.144531-1.121094-10.699218-1.121094h-.015625c-20.339844 0-40.121094 11.96875-55.703125 33.699219-13.742188 19.171875-21.949219 43.09375-21.949219 63.992187v7.515625h35.070313v72.640625c0 20.71875 16.851562 37.574219 37.570312 37.574219h10.019531c20.71875 0 37.574219-16.855469 37.574219-37.574219v-25.765625h-15.027344v25.765625c0 12.429688-10.113281 22.542969-22.546875 22.542969h-10.019531c-12.429688 0-22.542969-10.113281-22.542969-22.542969v-72.640625h55.109375v31.847656h15.027344v-31.847656h35.070312zm0 0"/><path d="m201.960938 316.898438c3.707031 2.011718 7.378906 4.59375 10.910156 7.679687l9.886718-11.324219c-4.367187-3.808594-8.953124-7.027344-13.632812-9.566406zm0 0"/><path d="m364.210938 138.269531v-49.09375h-85.167969v16.03125h-32.898438c-2.808593-5.707031-7.023437-10.597656-12.1875-14.226562v-17.792969l35.65625-18.601562c5.953125 6.476562 14.488281 10.542968 23.960938 10.542968 17.953125 0 32.5625-14.609375 32.5625-32.566406 0-17.953125-14.609375-32.5625-32.5625-32.5625-17.957031 0-32.566407 14.609375-32.566407 32.5625 0 3.089844.441407 6.074219 1.25 8.910156l-43.332031 22.605469v20.664063c-2.117187-.371094-4.289062-.578126-6.511719-.578126h-60.117187c-2.222656 0-4.394531.207032-6.511719.578126v-20.664063l-43.332031-22.605469c.808594-2.835937 1.25-5.820312 1.25-8.910156 0-17.953125-14.609375-32.5625-32.566406-32.5625-17.953125 0-32.5625 14.609375-32.5625 32.5625 0 17.957031 14.609375 32.566406 32.5625 32.566406 9.472656 0 18.007812-4.066406 23.960937-10.542968l35.65625 18.601562v17.792969c-5.164062 3.628906-9.378906 8.519531-12.1875 14.226562h-32.898437v-16.03125h-85.167969v49.09375h85.167969v-18.035156h29.09375c-.019531.5-.039063 1-.039063 1.503906v23.925781c-30.277344 21.324219-50.097656 56.542969-50.097656 96.308594v128.394532h15.03125v-128.394532c0-56.628906 46.070312-102.699218 102.699219-102.699218 2.796875 0 5.621093.113281 8.398437.335937l1.210938-14.980469c-3.179688-.257812-6.410156-.386718-9.609375-.386718-18.894531 0-36.761719 4.480468-52.601563 12.429687v-14.933594c0-12.429687 10.109375-22.542969 22.542969-22.542969h60.117187c12.429688 0 22.542969 10.113282 22.542969 22.542969v14.921875c-8.589843-4.304687-17.699219-7.574218-27.132812-9.652344l-3.238281 14.675782c46.628906 10.285156 80.46875 52.464844 80.46875 100.289062v21.183594h15.03125v-21.183594c0-26.972656-9.355469-53.332031-26.339844-74.222656-6.886719-8.46875-14.914063-15.882812-23.757813-22.09375v-23.917969c0-.503906-.019531-1.003906-.039062-1.503906h29.09375v18.035156zm-70.136719-34.066406h55.105469v19.039063h-55.105469zm-.5-89.171875c9.667969 0 17.53125 7.863281 17.53125 17.53125s-7.863281 17.535156-17.53125 17.535156-17.535157-7.867187-17.535157-17.535156 7.867188-17.53125 17.535157-17.53125zm-222.4375 35.066406c-9.667969 0-17.53125-7.867187-17.53125-17.535156s7.863281-17.53125 17.53125-17.53125 17.535156 7.863281 17.535156 17.53125-7.867187 17.535156-17.535156 17.535156zm-.5 73.144532h-55.105469v-19.039063h55.105469zm0 0"/><path d="m182.355469 176.34375c-26.242188 0-47.59375 21.351562-47.59375 47.59375s21.351562 47.59375 47.59375 47.59375c26.242187 0 47.59375-21.351562 47.59375-47.59375s-21.351563-47.59375-47.59375-47.59375zm0 80.15625c-17.957031 0-32.5625-14.605469-32.5625-32.5625s14.605469-32.5625 32.5625-32.5625c17.953125 0 32.5625 14.605469 32.5625 32.5625s-14.609375 32.5625-32.5625 32.5625zm0 0"/><path d="m270.027344 302.089844h-15.03125v-15.027344h15.03125zm0-30.058594h-15.03125v-40.078125h15.03125zm0 0"/><path d="m207.925781 367.515625c-6.402343-13.085937-16.058593-23.59375-23.480469-25.550781l3.835938-14.53125c14.195312 3.746094 26.429688 19.75 33.144531 33.476562zm0 0"/></svg>