<?xml version="1.0" encoding="utf-8"?>
<!-- Generator: Adobe Illustrator 22.0.0, SVG Export Plug-In . SVG Version: 6.00 Build 0)  -->
<svg version="1.1" id="Layer_1" xmlns="http://www.w3.org/2000/svg" xmlns:xlink="http://www.w3.org/1999/xlink" x="0px" y="0px"
	 viewBox="0 0 256.5 164.9" style="enable-background:new 0 0 256.5 164.9;" xml:space="preserve">
<style type="text/css">
	.st0{fill:#8996A8;}
	.st1{fill:#31283A;}
	.st2{fill:#FFD6A1;}
	.st3{fill:#445265;}
	.st4{fill:#FFC15A;}
	.st5{fill:#2E2239;}
	.st6{fill:#FFD6A1;stroke:#FFBA5F;stroke-miterlimit:10;}
</style>
<g id="Layer_4">
	<g>
		<g>
			<g>
				<g>
					<circle class="st0" cx="36.6" cy="129.1" r="28.1"/>
					<path class="st1" d="M2.2,129.1c0-19,15.4-34.4,34.4-34.4S71,110.2,71,129.1c0,19-15.5,34.4-34.4,34.4
						C17.6,163.5,2.2,148.1,2.2,129.1z M14.8,129.1c0,12,9.8,21.8,21.8,21.8s21.8-9.8,21.8-21.8s-9.8-21.8-21.8-21.8
						C24.5,107.3,14.8,117.1,14.8,129.1z"/>
				</g>
				<g>
					<g>
						<path class="st2" d="M62.3,111.4c-3.1-4.9-7.7-8.8-13.3-11.1s-11.9-2.6-17.8-1c-1.3,0.4-2.6,0.9-3.8,1.4c-4.5,2-9.8,0.8-13-3
							l0,0c4.5-3.8,9.7-6.5,15.6-7.9c7.6-1.8,15.5-1.2,22.7,1.7c10.7,4.4,18.5,13.1,21.8,23.9l-0.9,0.3
							C69.4,117,64.8,115.3,62.3,111.4z"/>
					</g>
				</g>
				<g>
					<path class="st1" d="M36.6,116.1c-7.2,0-13,5.8-13,13s5.8,13,13,13s13-5.8,13-13C49.6,121.9,43.7,116.1,36.6,116.1z"/>
				</g>
			</g>
			<g>
				<g>
					<circle class="st0" cx="194.3" cy="130.1" r="28.1"/>
					<path class="st1" d="M159.9,130c0-19,15.4-34.4,34.4-34.4s34.4,15.4,34.4,34.4s-15.5,34.4-34.4,34.4
						C175.3,164.4,159.9,149,159.9,130z M172.5,130c0,12,9.8,21.8,21.8,21.8c12,0,21.8-9.8,21.8-21.8s-9.8-21.8-21.8-21.8
						C182.2,108.2,172.5,118,172.5,130z"/>
				</g>
				<g>
					<circle class="st1" cx="194.3" cy="130.1" r="13"/>
				</g>
			</g>
			<g>
				<path class="st3" d="M31.3,132.3c-1.8-3-0.9-6.8,2.1-8.6c5.5-3.3,9.7-8.6,11.7-14.8l10-31.1c1.1-3.3,4.6-5.1,7.9-4
					s5.1,4.6,4,7.9l-10,31.1c-2.9,9.1-9,16.8-17.2,21.7c-1,0.6-2.1,0.9-3.2,0.9C34.5,135.4,32.4,134.3,31.3,132.3z"/>
			</g>
			<g>
				<path class="st2" d="M242.7,88.1c-8.2-9.8-17.6-17.9-28.4-24.1l-84.5-0.7c-7.6-0.1-10.8,9.6-4.7,14.1l0,0
					c10.3,7.6,15.7,20.2,14.2,32.9l0,0c-0.8,6.9-6.5,12-13.4,12.1l-39,0.5c-7.4,0-13.4-6.2-13-13.7L79,16.9h-1.6
					c-7.6,0-14.2,5.1-16.3,12.4l-18,55.2l31.2,49.3c6.1,6.9,14.8,10.9,24,10.9H157c22.4-9.3,47.3-15.9,72-20
					C246.1,121.8,253.7,101.5,242.7,88.1z"/>
			</g>
			<g>
				<path class="st4" d="M43.2,84.5l31.2,49.3c6.1,6.9,14.8,10.9,24,10.9h58.7c22.3-9.3,47.2-15.9,71.9-20
					c17-2.8,24.7-23.2,13.7-36.5c-0.2-0.2-0.3-0.4-0.5-0.6c-6.4-7.6-15.9-11.8-25.8-11.8h-73.7c-6.8,0-12.4-5.5-12.4-12.4l0,0l0,0
					c-7.1-0.1-10.7,8.5-5.7,13.5l0.6,0.6c10.3,7.6,15.7,20.2,14.2,32.9c0,0.2,0,1.2,0,2.7c0,10.5-8.6,19.1-19.2,19.1H93.5
					c-10.5,0-19.1-8.5-19.2-19l0,0C72.9,94.7,60.9,86.8,43.2,84.5z"/>
			</g>
			<g>
				<path class="st5" d="M215.1,64.3l0.1-2.5c0-7.8-6.3-14.1-14.1-14.1h-78.2c-4.6,0-8.3,3.7-8.3,8.3l0,0c0,4.6,3.7,8.3,8.3,8.3
					H215.1L215.1,64.3z"/>
			</g>
			<g>
				<path class="st2" d="M79.3,15.2c0.4-7.7-5.5-14.3-13.2-14.8L58.8,0l-0.4,18.7l20.5,1.2L79.3,15.2z"/>
			</g>
			<g>
				<path class="st4" d="M78.7,10.8H58.6l-0.2,8L78.9,20l0.3-4.7C79.3,13.7,79.1,12.2,78.7,10.8L78.7,10.8z"/>
			</g>
			<g>
				<path class="st1" d="M92.1,8.8L92.1,8.8c-2-2.9-6.1-3.6-9-1.5l-10.7,7.6c-2.9,2-3.6,6.1-1.5,9l0,0c2,2.9,6.1,3.6,9,1.5l10.7-7.6
					C93.5,15.7,94.2,11.7,92.1,8.8z"/>
			</g>
			<g>
				<path class="st0" d="M98.5,19.7l-11.3-2.4c-2.6-0.6-4.3-3.1-3.7-5.7c0.6-2.6,3.1-4.3,5.7-3.7l11.3,2.4c2.6,0.6,4.3,3.1,3.7,5.7
					c-0.5,2.3-2.5,3.8-4.7,3.8C99.2,19.8,98.8,19.7,98.5,19.7z"/>
			</g>
			<g>
				<circle class="st1" cx="36.6" cy="129.1" r="3.6"/>
			</g>
			<g>
				<path class="st6" d="M214.2,105c3.2,0,5-3.9,2.7-6.3c-6.1-6.5-14.8-10.5-24.4-10.5l0,0c-9.6,0-18.3,4-24.4,10.5
					c-2.3,2.4-0.6,6.3,2.7,6.3h0.4c1.9,0,3.7-0.7,5.1-1.9c4.4-3.6,10-5.8,16.1-5.8l0,0c6.1,0,11.7,2.2,16.1,5.8
					c1.4,1.2,3.2,1.9,5.1,1.9H214.2z"/>
			</g>
		</g>
	</g>
</g>
</svg>
