<?xml version="1.0" encoding="iso-8859-1"?>
<!-- Generator: Adobe Illustrator 19.0.0, SVG Export Plug-In . SVG Version: 6.00 Build 0)  -->
<svg fill="#fff" version="1.1" id="Capa_1" xmlns="http://www.w3.org/2000/svg" xmlns:xlink="http://www.w3.org/1999/xlink" x="0px" y="0px"
	 viewBox="0 0 512 512" style="enable-background:new 0 0 512 512;" xml:space="preserve">
<g>
	<g>
		<path d="M491.066,166.8l-57.94-6.438c-0.003,0-0.005-0.001-0.008-0.001l-137.554-15.284V85.298
			c0-27.326-8.012-53.788-23.17-76.524C268.732,3.28,262.603,0,256,0c-6.603,0-12.732,3.28-16.395,8.774
			c-15.158,22.736-23.17,49.198-23.17,76.524v59.779L20.933,166.8C9,168.126,0,178.181,0,190.188v57.795c0,4.142,3.358,7.5,7.5,7.5
			s7.5-3.358,7.5-7.5v-8.532h249.532V432.87h-17.064V264.016c0-4.142-3.358-7.5-7.5-7.5c-4.142,0-7.5,3.358-7.5,7.5V433.75
			l-50.538,6.317c-7.749,0.968-13.591,7.587-13.591,15.396v24.988c0,4.142,3.358,7.5,7.5,7.5c4.142,0,7.5-3.358,7.5-7.5v-0.516
			H248.5V504.5c0,4.142,3.358,7.5,7.5,7.5c4.142,0,7.5-3.358,7.5-7.5v-24.564h24.562c4.142,0,7.5-3.358,7.5-7.5
			c0-4.142-3.358-7.5-7.5-7.5H263.5v-17.064h8.064l56.646,7.08c0.257,0.032,0.452,0.252,0.452,0.512v9.472h-8.532
			c-4.142,0-7.5,3.358-7.5,7.5c0,4.142,3.358,7.5,7.5,7.5h8.532v0.516c0,4.142,3.358,7.5,7.5,7.5c4.142,0,7.5-3.358,7.5-7.5v-24.988
			c0-7.809-5.843-14.428-13.591-15.396l-50.538-6.317V239.452H497v8.532c0,4.142,3.358,7.5,7.5,7.5c4.142,0,7.5-3.358,7.5-7.5
			v-57.795C512,178.181,503,168.126,491.066,166.8z M248.5,464.936h-65.161v-9.472c0-0.26,0.194-0.48,0.452-0.512l56.642-7.08h8.067
			V464.936z M252.086,17.095C253.347,15.204,255.243,15,256,15s2.653,0.204,3.914,2.095c12.65,18.975,19.714,40.861,20.563,63.565
			c-6.74-5.325-15.24-8.515-24.477-8.515s-17.736,3.19-24.477,8.515C232.372,57.956,239.436,36.07,252.086,17.095z M55.081,178.098
			l17.064-1.896v8.169H55.081V178.098z M40.081,224.452H15v-25.081h25.081V224.452z M40.081,184.372H17.294
			c1.348-1.446,3.194-2.43,5.296-2.664l17.491-1.943V184.372z M72.146,224.452H55.081v-25.081h17.065V224.452z M104.21,224.452
			H87.146v-25.081h17.064V224.452z M104.21,184.371H87.146v-9.836l17.064-1.896V184.371z M136.274,224.452H119.21v-25.081h17.064
			V224.452z M136.274,184.371H119.21v-13.399l17.064-1.896V184.371z M168.338,224.452h-17.064v-25.081h17.064V224.452z
			 M168.339,184.371h-17.064V167.41l17.064-1.896V184.371z M200.403,224.452h-17.064v-25.081h17.064V224.452z M200.403,184.371
			h-17.064v-20.524l17.064-1.896V184.371z M232.467,224.452h-17.064v-25.081h17.064V224.452z M232.468,184.372h-17.064v-24.087
			l8.944-0.994h8.12V184.372z M264.532,224.452h-17.064v-25.081h17.064V224.452z M264.532,184.372h-17.064v-25.081h17.064V184.372z
			 M231.435,144.291V111.71c0-13.545,11.02-24.564,24.564-24.564c13.544,0,24.564,11.02,24.564,24.564v32.581H231.435z
			 M296.596,224.452h-17.064v-25.081h17.064V224.452z M296.598,184.371h-0.001h-17.064V159.29h8.117l8.948,0.994V184.371z
			 M328.662,224.452h-17.065v-25.081h17.065V224.452z M328.662,184.371h-17.065v-22.42l17.065,1.896V184.371z M360.726,224.452
			h-17.064v-25.081h17.064V224.452z M360.726,184.371h-17.064v-18.857l17.064,1.896V184.371z M392.79,224.452h-17.064v-25.081
			h17.064V224.452z M392.791,184.371h-17.064v-15.294l17.064,1.896V184.371z M424.855,224.452h-17.064v-25.081h17.064V224.452z
			 M424.855,184.371h-17.064v-11.732l17.064,1.896V184.371z M471.92,179.765l17.49,1.943c2.101,0.234,3.948,1.218,5.295,2.663
			H471.92V179.765z M456.92,224.452h-17.065v-25.081h17.065V224.452z M456.92,184.371h-17.065v-8.169l17.065,1.896V184.371z
			 M497,224.452h-25.08v-25.081H497V224.452z"/>
	</g>
</g>
<g>
</g>
<g>
</g>
<g>
</g>
<g>
</g>
<g>
</g>
<g>
</g>
<g>
</g>
<g>
</g>
<g>
</g>
<g>
</g>
<g>
</g>
<g>
</g>
<g>
</g>
<g>
</g>
<g>
</g>
</svg>
