<svg fill="#fff" height="512pt" viewBox="-32 0 512 512" width="512pt" xmlns="http://www.w3.org/2000/svg"><path d="m203.832031 489h40c4.144531 0 7.5-3.359375 7.5-7.5s-3.355469-7.5-7.5-7.5h-40c-4.140625 0-7.5 3.359375-7.5 7.5s3.359375 7.5 7.5 7.5zm0 0"/><path d="m439.5 374.5h-39.167969v-15.660156c20.421875-3.566406 36-21.414063 36-42.839844 0-23.984375-19.511719-43.5-43.5-43.5-7.007812 0-13.628906 1.675781-19.5 4.632812v-.632812c0-4.140625-3.355469-7.5-7.5-7.5-4.140625 0-7.5 3.359375-7.5 7.5v13.050781c-5.636719 7.335938-9 16.503907-9 26.449219s3.363281 19.117188 9 26.449219v32.050781h-37v-210.398438c10.636719 7.160157 23.335938 11.460938 37 11.847657v68.300781c0 4.144531 3.359375 7.5 7.5 7.5 4.144531 0 7.5-3.355469 7.5-7.5v-69.480469c32.40625-6.113281 57-34.613281 57-68.769531s-24.597656-62.660156-57.007812-68.769531c-.144531-20.554688-16.902344-37.230469-37.492188-37.230469h-224c-20.675781 0-37.5 16.820312-37.5 37.5v90.042969c0 4.140625 3.359375 7.5 7.5 7.5 4.144531 0 7.5-3.359375 7.5-7.5v-90.042969c0-12.40625 10.09375-22.5 22.5-22.5h32.5v16.5c0 11.855469 9.644531 21.5 21.5 21.5h116c11.855469 0 21.5-9.644531 21.5-21.5v-16.5h32.5c11.921875 0 21.699219 9.316406 22.449219 21.050781-37.648438 1.09375-67.949219 32.039063-67.949219 69.949219 0 2.878906.195313 5.710938.535157 8.5h-104.410157l6.824219-6.597656c3.664062-3.539063 4.96875-8.742188 3.40625-13.582032-1.570312-4.859374-5.699219-8.332031-10.769531-9.0625l-16.699219-2.40625-7.460938-14.980468c-2.261718-4.546875-6.832031-7.371094-11.925781-7.371094s-9.664062 2.824219-11.925781 7.371094l-7.457031 14.980468-16.703125 2.40625c-5.070313.730469-9.195313 4.203126-10.769532 9.0625-1.5625 4.839844-.257812 10.042969 3.40625 13.582032l12.046876 11.644531-2.84375 16.421875c-.863282 4.992188 1.148437 9.953125 5.25 12.949219 1.671874 1.222656 3.550781 2.007812 5.496093 2.359375v223.222656h-37v-32.050781c5.636719-7.335938 9-16.503907 9-26.449219s-3.363281-19.117188-9-26.449219v-130.007812c0-4.144531-3.359375-7.5-7.5-7.5s-7.5 3.355469-7.5 7.5v117.589843c-5.871093-2.957031-12.492187-4.632812-19.5-4.632812-23.984375 0-43.5 19.515625-43.5 43.5 0 21.429688 15.578125 39.273438 36 42.839844v15.660156h-39.832031c-4.140625 0-7.5 3.359375-7.5 7.5s3.359375 7.5 7.5 7.5h66.832031v85c0 20.679688 16.824219 37.5 37.5 37.5h224c20.679688 0 37.5-16.820312 37.5-37.5v-85h66.167969c4.140625 0 7.5-3.359375 7.5-7.5s-3.359375-7.5-7.5-7.5zm-151.167969-343c0 3.585938-2.914062 6.5-6.5 6.5h-116c-3.582031 0-6.5-2.914062-6.5-6.5v-16.5h129zm133 284.5c0 15.714844-12.785156 28.5-28.5 28.5-15.714843 0-28.5-12.785156-28.5-28.5s12.785157-28.5 28.5-28.5c15.714844 0 28.5 12.785156 28.5 28.5zm-61-265c30.328125 0 55 24.671875 55 55s-24.671875 55-55 55c-30.324219 0-55-24.671875-55-55s24.675781-55 55-55zm-240.953125 48.601562 14.074219-2.027343c4.332031-.625 8.078125-3.328125 10.023437-7.234375l6.355469-12.769532 6.355469 12.769532c1.945312 3.90625 5.691406 6.609375 10.023438 7.234375l14.078124 2.027343-10.144531 9.804688c-3.160156 3.050781-4.597656 7.453125-3.847656 11.769531l.367187 2.140625c.015626.082032.027344.164063.042969.242188l1.996094 11.542968-12.699219-6.621093c-3.863281-2.015625-8.480468-2.011719-12.34375 0l-12.699218 6.621093 2.410156-13.921874c.746094-4.320313-.691406-8.71875-3.851563-11.773438zm21.953125 47.007813 8.5-4.429687 14.953125 7.792968c4.535156 2.363282 9.917969 1.957032 14.042969-1.054687 4.101563-2.996094 6.113281-7.957031 5.246094-12.949219l-1.117188-6.46875h111.445313c2.753906 7.707031 6.816406 14.800781 11.929687 20.996094v224.003906h-165zm-115 169.390625c0-15.714844 12.785157-28.5 28.5-28.5 15.714844 0 28.5 12.785156 28.5 28.5s-12.785156 28.5-28.5 28.5c-15.714843 0-28.5-12.785156-28.5-28.5zm36 58.5v-15.660156c4.242188-.742188 8.273438-2.097656 12-3.972656v19.632812zm296 76.5h-198.375c-4.140625 0-7.5 3.359375-7.5 7.5s3.359375 7.5 7.5 7.5h198.375v8.5c0 12.40625-10.09375 22.5-22.5 22.5h-224c-12.40625 0-22.5-10.09375-22.5-22.5v-8.5h38.5c4.144531 0 7.5-3.359375 7.5-7.5s-3.355469-7.5-7.5-7.5h-38.5v-61.5h269zm15-96.132812c3.726563 1.878906 7.757813 3.230468 12 3.972656v15.660156h-12zm0 0"/><path d="m203.832031 153.5h-40c-4.140625 0-7.5 3.359375-7.5 7.5v40c0 4.140625 3.359375 7.5 7.5 7.5h40c4.144531 0 7.5-3.359375 7.5-7.5v-40c0-4.140625-3.355469-7.5-7.5-7.5zm-7.5 40h-25v-25h25zm0 0"/><path d="m283.832031 153.5h-40c-4.140625 0-7.5 3.359375-7.5 7.5v40c0 4.140625 3.359375 7.5 7.5 7.5h40c4.144531 0 7.5-3.359375 7.5-7.5v-40c0-4.140625-3.355469-7.5-7.5-7.5zm-7.5 40h-25v-25h25zm0 0"/><path d="m203.832031 231.5h-40c-4.140625 0-7.5 3.359375-7.5 7.5v40c0 4.140625 3.359375 7.5 7.5 7.5h40c4.144531 0 7.5-3.359375 7.5-7.5v-40c0-4.140625-3.355469-7.5-7.5-7.5zm-7.5 40h-25v-25h25zm0 0"/><path d="m283.832031 231.5h-40c-4.140625 0-7.5 3.359375-7.5 7.5v40c0 4.140625 3.359375 7.5 7.5 7.5h40c4.144531 0 7.5-3.359375 7.5-7.5v-40c0-4.140625-3.355469-7.5-7.5-7.5zm-7.5 40h-25v-25h25zm0 0"/><path d="m203.832031 308.5h-40c-4.140625 0-7.5 3.359375-7.5 7.5v40c0 4.140625 3.359375 7.5 7.5 7.5h40c4.144531 0 7.5-3.359375 7.5-7.5v-40c0-4.140625-3.355469-7.5-7.5-7.5zm-7.5 40h-25v-25h25zm0 0"/><path d="m283.832031 308.5h-40c-4.140625 0-7.5 3.359375-7.5 7.5v40c0 4.140625 3.359375 7.5 7.5 7.5h40c4.144531 0 7.5-3.359375 7.5-7.5v-40c0-4.140625-3.355469-7.5-7.5-7.5zm-7.5 40h-25v-25h25zm0 0"/><path d="m355.253906 135.5c2.027344 0 4.035156-.820312 5.5-2.398438l35.894532-38.664062c2.820312-3.039062 2.644531-7.78125-.390626-10.601562-3.039062-2.816407-7.785156-2.640626-10.601562.394531l-31.570312 34.007812-24.464844-16.164062c-3.457032-2.28125-8.109375-1.332031-10.394532 2.125-2.28125 3.457031-1.332031 8.109375 2.125 10.394531l29.769532 19.664062c1.265625.835938 2.703125 1.242188 4.132812 1.242188zm0 0"/></svg>