<?xml version="1.0" encoding="utf-8"?>
<!-- Generator: Adobe Illustrator 22.0.0, SVG Export Plug-In . SVG Version: 6.00 Build 0)  -->
<svg version="1.1" id="Layer_1" xmlns="http://www.w3.org/2000/svg" xmlns:xlink="http://www.w3.org/1999/xlink" x="0px" y="0px"
	 viewBox="0 0 44 42" style="enable-background:new 0 0 44 42;" xml:space="preserve">
<style type="text/css">
	.st0{fill:#FFFFFF;}
</style>
<g>
	<g>
		<path class="st0" d="M22,35.3c-0.2,0-0.4,0.1-0.6,0.2c-0.2,0.2-0.3,0.4-0.3,0.6c0,0.2,0.1,0.4,0.3,0.6c0.2,0.2,0.4,0.3,0.6,0.3
			s0.4-0.1,0.6-0.3s0.3-0.4,0.3-0.6c0-0.2-0.1-0.4-0.3-0.6C22.4,35.4,22.2,35.3,22,35.3z M29.7,29.7v-1.2c0-1.3-1-2.3-2.3-2.3H16.6
			c-1.3,0-2.3,1-2.3,2.3v1.2c0,1.3,1,2.3,2.3,2.3h10.7C28.7,32,29.7,31,29.7,29.7z M17.7,30.3h-1.1c-0.3,0-0.6-0.3-0.6-0.6v-1.2
			c0-0.3,0.3-0.6,0.6-0.6h1.1V30.3z M21.1,30.3h-1.7v-2.4h1.7V30.3z M24.6,30.3h-1.7v-2.4h1.7V30.3z M26.3,27.9h1.1
			c0.3,0,0.6,0.3,0.6,0.6v1.2c0,0.3-0.3,0.6-0.6,0.6h-1.1V27.9z M21.9,14.8c-0.2-0.2-0.4-0.2-0.6-0.2s-0.4,0.1-0.6,0.2
			c-0.2,0.2-0.3,0.4-0.3,0.6c0,0.2,0.1,0.4,0.3,0.6c0.2,0.2,0.4,0.2,0.6,0.2s0.4-0.1,0.6-0.2c0.2-0.2,0.3-0.4,0.3-0.6
			C22.2,15.1,22.1,14.9,21.9,14.8z M3.4,29.5c0,1.8,1.5,3.2,3.2,3.2c1.8,0,3.2-1.5,3.2-3.2c0-1.8-1.5-3.2-3.2-3.2
			C4.8,26.3,3.4,27.7,3.4,29.5z M8.2,29.5c0,0.8-0.7,1.5-1.5,1.5s-1.5-0.7-1.5-1.5S5.9,28,6.7,28S8.2,28.7,8.2,29.5z M40.6,29.5
			c0-1.8-1.5-3.2-3.2-3.2s-3.2,1.5-3.2,3.2c0,1.8,1.5,3.2,3.2,3.2S40.6,31.3,40.6,29.5z M35.8,29.5c0-0.8,0.7-1.5,1.5-1.5
			s1.5,0.7,1.5,1.5S38.1,31,37.3,31S35.8,30.4,35.8,29.5z M43.9,22.9v-3.4c0-0.5-0.4-0.9-0.9-0.9h-2.7c-0.3,0-0.6,0.2-0.7,0.4
			l-0.9,1.5l-2-8.2c-0.5-2.2-2.2-3.8-4.3-4.2V3.3c0-1.7-1.4-3.1-3.1-3.1H14.7c-1.7,0-3.1,1.4-3.1,3.1v4.9c-2.1,0.5-3.8,2.1-4.3,4.2
			l-2,8.2l-0.9-1.5c-0.2-0.3-0.4-0.4-0.7-0.4H1c-0.5,0-0.9,0.4-0.9,0.9V23c0,0.5,0.4,0.9,0.9,0.9h1.6L2.1,24c-1.3,0.8-2,2.1-2,3.6
			v5.1C0.1,35.1,2,37,4.4,37h0.3v1.3c0,0.7,0.2,1.3,0.5,1.9H4.4c-0.5,0-0.9,0.4-0.9,0.9S3.9,42,4.4,42h15.3c0.5,0,0.9-0.4,0.9-0.9
			s-0.4-0.9-0.9-0.9h-8.3c0.3-0.5,0.5-1.2,0.5-1.9V37h6.3c0.5,0,0.9-0.4,0.9-0.9s-0.4-0.9-0.9-0.9H4.4c-1.4,0-2.6-1.2-2.6-2.6v-5.1
			c0-0.9,0.5-1.7,1.2-2.2l2.8-1.7h32.3l2.8,1.7c0.8,0.5,1.2,1.3,1.2,2.2v5.1c0,1.4-1.2,2.6-2.6,2.6H25.7c-0.5,0-0.9,0.4-0.9,0.9
			s0.4,0.9,0.9,0.9h6.4v1.3c0,0.7,0.2,1.3,0.5,1.9h-5.4c-0.5,0-0.9,0.4-0.9,0.9s0.4,0.9,0.9,0.9h15.3c0.5,0,0.9-0.4,0.9-0.9
			s-0.4-0.9-0.9-0.9h-3.7c0.3-0.5,0.5-1.2,0.5-1.9V37h0.3c2.4,0,4.3-1.9,4.3-4.3v-5.1c0-1.5-0.8-2.9-2-3.6l-0.4-0.3H43
			C43.5,23.7,43.9,23.4,43.9,22.9z M6.4,37h3.8v1.3c0,1-0.8,1.9-1.9,1.9c-1,0-1.9-0.8-1.9-1.9V37z M1.8,22v-1.7h1.3l1,1.7H1.8z
			 M13.3,3.3c0-0.8,0.6-1.4,1.4-1.4h14.6c0.8,0,1.4,0.6,1.4,1.4V8H13.3V3.3z M15.9,22l3.9-3.9c0.3-0.3,0.3-0.9,0-1.2
			c-0.3-0.3-0.9-0.3-1.2,0L13.5,22c0,0,0,0,0,0.1h-3.3l2.1-8.4c0.1-0.3,0.3-0.5,0.6-0.5h14.5l-5.2,5.2c-0.3,0.3-0.3,0.9,0,1.2
			c0.2,0.2,0.4,0.3,0.6,0.3s0.4-0.1,0.6-0.3l6.4-6.4h1.3c0.3,0,0.6,0.2,0.6,0.5l2.1,8.4H15.9V22z M35.6,22l-2.2-8.8
			c-0.3-1.1-1.2-1.8-2.3-1.8H12.9c-1.1,0-2,0.7-2.3,1.8L8.4,22H6.7L9,12.8c0.4-1.8,2.1-3.1,4-3.1h18.2c1.9,0,3.5,1.3,4,3.1l2.3,9.2
			H35.6z M37.6,38.3c0,1-0.8,1.9-1.9,1.9c-1,0-1.9-0.8-1.9-1.9V37h3.8C37.6,37,37.6,38.3,37.6,38.3z M42.2,22h-2.3l0.9-1.7h1.3
			L42.2,22L42.2,22z M28.4,2.7c-0.5,0-0.9,0.4-0.9,0.9v2.7c0,0.5,0.4,0.9,0.9,0.9s0.9-0.4,0.9-0.9V3.5C29.3,3.1,28.9,2.7,28.4,2.7z
			 M17.5,2.7h-1.9c-0.5,0-0.9,0.4-0.9,0.9s0.4,0.9,0.9,0.9h0.1v1.8c0,0.5,0.4,0.9,0.9,0.9s0.9-0.4,0.9-0.9V4.4h0.1
			c0.5,0,0.9-0.4,0.9-0.9C18.4,3.1,18,2.7,17.5,2.7z M26.5,2.9c-0.4-0.3-0.9-0.3-1.2,0.1l-0.5,0.6L24.3,3c-0.3-0.4-0.8-0.4-1.2-0.1
			c-0.4,0.3-0.4,0.8-0.1,1.2l0.7,0.8L23,5.7c-0.3,0.4-0.3,0.9,0.1,1.2c0.2,0.1,0.4,0.2,0.5,0.2c0.2,0,0.5-0.1,0.7-0.3l0.5-0.6
			l0.5,0.6C25.5,7,25.7,7.1,26,7.1c0.2,0,0.4-0.1,0.5-0.2c0.4-0.3,0.4-0.8,0.1-1.2l-0.7-0.8l0.7-0.8C26.9,3.7,26.8,3.2,26.5,2.9z
			 M21,3.2c-0.1-0.3-0.4-0.5-0.8-0.5c-0.3,0-0.6,0.2-0.8,0.5L18.3,6c-0.2,0.4,0,0.9,0.4,1.1s0.9,0,1.1-0.4l0.4-1l0.4,1
			c0.1,0.3,0.5,0.5,0.8,0.5c0.1,0,0.2,0,0.3-0.1c0.4-0.2,0.6-0.7,0.4-1.1L21,3.2z"/>
	</g>
</g>
</svg>
