<?xml version="1.0" encoding="utf-8"?>
<!-- Generator: Adobe Illustrator 22.0.0, SVG Export Plug-In . SVG Version: 6.00 Build 0)  -->
<svg version="1.1" id="Layer_1" xmlns="http://www.w3.org/2000/svg" xmlns:xlink="http://www.w3.org/1999/xlink" x="0px" y="0px"
	 viewBox="0 0 200 88.2" style="enable-background:new 0 0 200 88.2;" xml:space="preserve">
<style type="text/css">
	.st0{fill:#B0B0B0;}
	.st1{fill:#B0BDC0;}
	.st2{fill:#386680;}
	.st3{fill:#324E5C;}
	.st4{fill:#BAC1C3;}
	.st5{fill:#D5D5D5;}
	.st6{fill:#EDEDED;}
	.st7{fill:none;}
	.st8{fill:#EFC75F;}
	.st9{fill:#467F9F;}
	.st10{fill:#D69B4D;}
</style>
<g>
	<g>
		<rect x="53.9" y="9.2" class="st0" width="13.6" height="52.2"/>
		<g>
			<rect x="68.5" y="57.4" class="st1" width="30.7" height="16.9"/>
			<rect x="158.9" y="57.4" class="st1" width="30.7" height="16.9"/>
			<rect x="29.2" y="63.7" class="st2" width="26.7" height="10.6"/>
			<g>
				<path class="st3" d="M33,77.4c0,6,4.9,10.8,10.9,10.8c6,0,10.8-4.9,10.8-10.9c0-6-4.9-10.8-10.9-10.8C37.9,66.5,33,71.4,33,77.4
					z"/>
				<path class="st4" d="M38.5,77.3c0,3,2.4,5.3,5.4,5.3c3,0,5.3-2.4,5.3-5.4c0-3-2.4-5.3-5.4-5.3C40.9,72,38.5,74.4,38.5,77.3z"/>
			</g>
			<g>
				<path class="st3" d="M62.1,77.4c0,6,4.9,10.8,10.9,10.8c6,0,10.8-4.9,10.8-10.9c0-6-4.9-10.8-10.9-10.8
					C66.9,66.5,62.1,71.4,62.1,77.4z"/>
				<path class="st4" d="M67.6,77.3c0,3,2.4,5.3,5.4,5.3c3,0,5.4-2.4,5.3-5.4c0-3-2.4-5.3-5.4-5.3C70,72,67.6,74.4,67.6,77.3z"/>
			</g>
			<g>
				<path class="st3" d="M85,77.4c0,6,4.9,10.8,10.9,10.8c6,0,10.8-4.9,10.8-10.9c0-6-4.9-10.8-10.9-10.8C89.8,66.5,85,71.4,85,77.4
					z"/>
				<path class="st4" d="M90.5,77.3c0,3,2.4,5.3,5.4,5.3c3,0,5.4-2.4,5.3-5.4c0-3-2.4-5.3-5.4-5.3C92.9,72,90.5,74.4,90.5,77.3z"/>
			</g>
			<g>
				<path class="st3" d="M151.4,77.4c0,6,4.9,10.8,10.9,10.8c6,0,10.8-4.9,10.8-10.9c0-6-4.9-10.8-10.9-10.8
					C156.2,66.5,151.4,71.4,151.4,77.4z"/>
				<path class="st4" d="M156.9,77.3c0,3,2.4,5.3,5.4,5.3c3,0,5.4-2.4,5.3-5.4c0-3-2.4-5.3-5.4-5.3C159.3,72,156.9,74.4,156.9,77.3z
					"/>
			</g>
			<g>
				<path class="st3" d="M174.3,77.4c0,6,4.9,10.8,10.9,10.8c6,0,10.8-4.9,10.8-10.9c0-6-4.9-10.8-10.9-10.8
					C179.1,66.5,174.2,71.4,174.3,77.4z"/>
				<path class="st4" d="M179.8,77.3c0,3,2.4,5.3,5.4,5.3c3,0,5.4-2.4,5.3-5.4c0-3-2.4-5.3-5.4-5.3C182.1,72,179.7,74.4,179.8,77.3z
					"/>
			</g>
			<path class="st5" d="M199.6,3.5v58c0,1.7-1.4,3-3,3H63.9c-1.7,0-3-1.4-3-3v-58c0-1.7,1.4-3,3-3l129.1,0h3.6
				C198.3,0.5,199.6,1.9,199.6,3.5z"/>
			<path class="st6" d="M196,58.7c0,1.5-1.3,2.7-2.9,2.7H67.4c-1.6,0-2.9-1.2-2.9-2.7V6.3c0-1.5,1.3-2.7,2.9-2.7h125.7
				c1.6,0,2.9,1.2,2.9,2.7V58.7z"/>
			<path class="st7" d="M36.5,61.8C36.5,61.8,36.5,61.8,36.5,61.8L36.5,61.8C36.5,61.8,36.5,61.8,36.5,61.8z"/>
			<path class="st8" d="M58.9,7.6v51.6H42.5c-0.2,0-0.5,0-0.7,0c-0.2,0-0.3,0-0.5,0.1c-0.1,0-0.2,0-0.3,0c-0.1,0-0.2,0-0.3,0
				c-0.1,0-0.1,0-0.1,0c-0.1,0-0.3,0.1-0.4,0.1c-0.1,0-0.1,0-0.2,0.1c-0.1,0-0.3,0.1-0.5,0.2c-0.2,0.1-0.4,0.1-0.5,0.2
				c-0.4,0.2-0.8,0.4-1.2,0.7c-0.1,0.1-0.2,0.1-0.3,0.2c-0.1,0.1-0.2,0.1-0.2,0.2c-0.1,0.1-0.2,0.1-0.2,0.2
				c-0.1,0.1-0.2,0.2-0.3,0.3c-0.1,0-0.1,0.1-0.2,0.1l0,0c0,0-0.1,0.1-0.1,0.1c0,0,0,0,0,0.1c-0.3,0.3-1,1.1-2.2,1.9
				c-0.4,0.3-0.9,0.6-1.5,0.9c-0.4,0.2-0.8,0.4-1.3,0.6c-0.3,0.1-0.6,0.3-0.9,0.4c-0.4,0.2-0.8,0.3-1.3,0.5
				c-1.8,0.6-3.9,1.1-6.4,1.4H2.7V7.6c0-1.7,1.4-3,3-3h50.2C57.6,4.6,58.9,6,58.9,7.6z"/>
			<path class="st9" d="M42.5,59.2c-2.3,0-4.4,0.9-5.9,2.4c0,0,0,0,0,0c0,0-0.1,0.1-0.1,0.1C38,60.2,40.1,59.2,42.5,59.2z"/>
			<path class="st6" d="M40.9,33.9c0,1.7-2.1,3-4.7,3H19.6c-2.6,0-4.7-1.4-4.7-3V18.7c0-1.7,2.1-3,4.7-3h16.5c2.6,0,4.7,1.4,4.7,3
				V33.9z"/>
			<rect x="2.7" y="11.9" class="st10" width="56.2" height="0.7"/>
			<path class="st6" d="M7.6,18.7v18c0,1.7-1.4,3-3,3H2.7v-24h1.8C6.2,15.7,7.6,17,7.6,18.7z"/>
			<rect x="10.1" y="11.9" class="st10" width="0.9" height="58.1"/>
			<rect x="2.7" y="52.7" class="st6" width="4.9" height="4.7"/>
			<path class="st9" d="M9.2,61c0,0.5-0.4,0.8-0.8,0.8H1.2c-0.5,0-0.9-0.4-0.9-0.8c0-0.5,0.4-0.9,0.9-0.9h7.1
				C8.8,60.1,9.2,60.5,9.2,61z"/>
			<path class="st9" d="M9.2,63.7c0,0.5-0.4,0.8-0.8,0.8H1.2c-0.5,0-0.9-0.4-0.9-0.8c0-0.5,0.4-0.8,0.9-0.8h7.1
				C8.8,62.9,9.2,63.3,9.2,63.7z"/>
			<path class="st3" d="M32,40.8c0,0.3-0.3,0.5-0.8,0.5h-6.7c-0.4,0-0.8-0.2-0.8-0.5l0,0c0-0.3,0.4-0.5,0.8-0.5h6.7
				C31.6,40.3,32,40.5,32,40.8L32,40.8z"/>
			<g>
				<path class="st10" d="M31.5,74.1h-0.9V52.6c0-0.1-0.6-5,3-9.1c2.9-3.3,7.6-4.9,13.9-5V12.6h0.9v26.8h-0.5
					c-6.3,0-10.9,1.6-13.7,4.7c-3.3,3.7-2.8,8.4-2.8,8.4L31.5,74.1z"/>
			</g>
			<path class="st6" d="M58.9,59.2v12.1c0,1.7-1.4,3-3,3h-0.2c-1.1-5.5-5.9-9.7-11.8-9.7c-5.9,0-10.7,4.2-11.8,9.7H5.7
				c-1.7,0-3-1.4-3-3v-3.8h20.1c2.5-0.3,4.7-0.8,6.4-1.4c0.5-0.1,0.9-0.3,1.3-0.5c0.3-0.1,0.6-0.2,0.9-0.4c0.5-0.2,0.9-0.4,1.3-0.6
				c0.6-0.3,1.1-0.6,1.5-0.9c1.2-0.8,1.9-1.5,2.2-1.9c0,0,0,0,0-0.1c0.2-0.2,0.4-0.4,0.6-0.6c0.2-0.1,0.3-0.3,0.5-0.4
				c0.6-0.5,1.3-0.8,2-1.1c0.2-0.1,0.3-0.1,0.5-0.2c0.8-0.2,1.6-0.4,2.5-0.4H58.9z"/>
		</g>
	</g>
</g>
</svg>
