<?xml version="1.0" encoding="iso-8859-1"?>
<!-- Generator: Adobe Illustrator 21.0.0, SVG Export Plug-In . SVG Version: 6.00 Build 0)  -->
<svg fill="#fff" xmlns="http://www.w3.org/2000/svg" xmlns:xlink="http://www.w3.org/1999/xlink" version="1.1" id="Capa_1" x="0px" y="0px" viewBox="0 0 512 512" style="enable-background:new 0 0 512 512;" xml:space="preserve" width="512" height="512">
<g>
	<circle cx="256" cy="286" r="15"/>
	<path d="M15,512h482c8.284,0,15-6.716,15-15c0-33.345,0-378.943,0-392c0-8.284-6.716-15-15-15h-45V60c0-8.284-6.716-15-15-15   s-15,6.716-15,15v30h-61V15c0-8.284-6.716-15-15-15H166c-8.284,0-15,6.716-15,15v75H91V60c0-8.284-6.716-15-15-15s-15,6.716-15,15   v30H15c-8.284,0-15,6.716-15,15c0,12.199,0,374.514,0,392C0,505.284,6.716,512,15,512z M30,482V246.775l151.827,50.33   c4.647,31.173,28.543,56.144,59.173,62.386V392h-15c-8.284,0-15,6.716-15,15s6.716,15,15,15h15v15c0,8.284,6.716,15,15,15   s15-6.716,15-15v-15h15c8.284,0,15-6.716,15-15s-6.716-15-15-15h-15v-32.509c30.63-6.242,54.526-31.213,59.173-62.386L482,246.775   V482H30z M256,331c-24.813,0-45-20.187-45-45s20.187-45,45-45c24.813,0,45,20.187,45,45S280.813,331,256,331z M181,30h150v60H181   V30z M30,120h452v95.17l-153.695,50.949C319.568,234.385,290.472,211,256,211c-34.472,0-63.568,23.385-72.305,55.119L30,215.17V120   z"/>
</g>















</svg>
